<svg xmlns="http://www.w3.org/2000/svg" xmlns:xlink="http://www.w3.org/1999/xlink" width="215px" height="195px" viewBox="0 0 215 195" version="1.1">
    <title>foreman_bw_simple</title>
    <g id="foreman" stroke="none" stroke-width="1" fill="none" fill-rule="evenodd">
        <g id="foreman_bw_simple" transform="translate(1.000000, 3.000000)">
            <path d="M59.4610788,181.230717 C106.569079,194.893717 137.189079,198.697717 204.311079,155.292717 C231.412079,131.351717 184.771079,129.942717 123.179079,133.916717 C19.0390788,128.346717 11.3990788,112.826717 6.24907875,132.466717 C-18.4159212,139.814117 36.3530788,174.528717 59.4610788,181.230717 Z" id="Path" stroke="#FFFFFF" stroke-width="2" fill-rule="nonzero"/>
            <path d="M59.4610788,181.230717 C106.569079,194.893717 137.189079,198.697717 204.311079,155.292717 C231.412079,131.351717 184.771079,129.942717 123.179079,133.916717 C19.0390788,128.346717 11.3990788,112.826717 6.24907875,132.466717 C-18.4159212,139.814117 36.3530788,174.528717 59.4610788,181.230717 Z" id="Path" stroke="#FFFFFF" stroke-width="2" fill-rule="nonzero"/>
            <path d="M6.24607875,126.465717 C-18.4159212,133.814117 36.3530788,168.528717 59.4610788,175.230717 C106.569079,188.893717 137.189079,192.697717 204.311079,149.292717 C231.412079,125.351717 184.771079,123.942717 123.179079,127.916717 C19.0390788,122.346717 11.3990788,106.826717 6.24907875,126.466717 L6.24607875,126.465717 Z" id="Path" fill="#FFFFFF" fill-rule="nonzero"/>
            <path d="M103.608079,13.0127169 C64.5380788,12.1707169 42.8970788,21.8947169 29.4530788,40.8217169 C16.4690788,59.1057169 5.89507875,100.875717 7.04607875,126.025717 C35.3500788,170.585717 170.856079,169.765717 194.916079,129.145717 C184.446079,92.3757169 187.786079,61.2057169 171.136079,39.9237169 C155.706079,20.1937169 128.326079,11.8927169 103.606079,13.0127169 L103.608079,13.0127169 Z" id="Path"/>
            <path d="M196.071779,127.790717 C196.071779,127.790717 193.317679,130.453417 189.915879,130.505517 C186.514079,130.557617 182.464779,127.999117 182.464779,127.999117 C182.464779,127.999117 192.368046,110.285355 192.368179,110.284951 C195.769879,110.233617 196.071779,127.790717 196.071779,127.790717 Z" id="Path" stroke="#FFFFFF" stroke-width="2" fill="#000000"/>
            <path d="M103.608079,11.7197169 C64.5380788,10.8777169 42.8970788,20.6017169 29.4530788,39.5287169 C16.4690788,57.8057169 5.89507875,99.5757169 7.04607875,124.735717 C35.3500788,169.285717 170.856079,168.475717 194.916079,127.855717 C184.446079,91.0757169 187.786079,59.9057169 171.136079,38.6307169 C155.706079,18.9007169 128.326079,10.5997169 103.606079,11.7197169 L103.608079,11.7197169 Z" id="Path" fill="#FFFFFF" fill-rule="nonzero"/>
            <path d="M93.5080788,7.40628578 C81.0480788,7.36119686 69.9670788,10.9230169 60.2890788,17.0005169 C60.2820788,17.0052169 60.2652788,16.9958169 60.2578788,17.0005169 C46.5598788,21.6276169 36.7748788,29.2125169 29.4458788,39.5315169 C16.4618788,57.8105169 5.88887875,99.5655169 7.03987875,124.719517 C35.3428788,169.277517 170.859879,168.465517 194.919879,127.844517 C184.446879,91.0685169 187.785879,59.9035169 171.138879,38.6255169 C162.238679,27.2495169 149.367879,19.6935169 135.326879,15.5315169 C135.254479,15.5100469 135.180629,15.4903069 135.108129,15.4690169 C128.628529,12.9982169 112.420129,7.46901686 95.9201288,7.46901686 C95.1148388,7.43678686 94.3080288,7.40941686 93.5139288,7.40628578 L93.5080788,7.40628578 Z" id="Path"/>
            <path d="M122.820079,12.7505169 C123.268569,12.8191469 123.716099,12.8943069 124.163879,12.9692669 C123.714239,12.8943369 123.270549,12.8190469 122.820079,12.7505169 Z" id="Path"/>
            <path d="M77.4140788,13.0630169 C76.4474888,13.1991369 75.5076788,13.3444669 74.5702788,13.5005169 C75.5096988,13.3437969 76.4451788,13.1996969 77.4140788,13.0630169 Z" id="Path"/>
            <path d="M93.5080788,7.40628578 C81.0480788,7.36119686 69.9670788,10.9230169 60.2890788,17.0005169 C60.2820788,17.0052169 60.2652788,16.9958169 60.2578788,17.0005169 C46.5598788,21.6276169 36.7748788,29.2125169 29.4458788,39.5315169 C16.4618788,57.8105169 5.88887875,99.5655169 7.03987875,124.719517 C35.3428788,169.277517 170.859879,168.465517 194.919879,127.844517 C184.446879,91.0685169 187.785879,59.9035169 171.138879,38.6255169 C162.238679,27.2495169 149.367879,19.6935169 135.326879,15.5315169 C135.254479,15.5100469 135.180629,15.4903069 135.108129,15.4690169 C128.628529,12.9982169 112.420129,7.46901686 95.9201288,7.46901686 C95.1148388,7.43678686 94.3080288,7.40941686 93.5139288,7.40628578 L93.5080788,7.40628578 Z" id="Path" stroke="#000000" stroke-width="2" fill="#FFFFFF" fill-rule="nonzero"/>
            <path d="M122.820079,12.7505169 C123.268569,12.8191469 123.716099,12.8943069 124.163879,12.9692669 C123.714239,12.8943369 123.270549,12.8190469 122.820079,12.7505169 Z" id="Path" fill="#FFFFFF" fill-rule="nonzero"/>
            <path d="M77.4140788,13.0630169 C76.4474888,13.1991369 75.5076788,13.3444669 74.5702788,13.5005169 C75.5096988,13.3437969 76.4451788,13.1996969 77.4140788,13.0630169 Z" id="Path" fill="#FFFFFF" fill-rule="nonzero"/>
            <polygon id="Path" fill="#000000" points="94.9680788 92.3857169 94.4759588 104.273717 118.139959 102.532217 117.064559 91.0002169"/>
            <polygon id="Path" fill="#000000" points="153.528079 86.5657169 152.859179 97.5597169 172.280179 95.8182169 174.209979 85.1702169"/>
            <path d="M67.9443322,2.59122351 L68.1468985,2.59808775 C72.2518055,2.88125798 77.5863749,15.7784504 77.5863749,15.7784504 C77.5863749,15.7784504 77.7389671,16.1473671 77.9792032,16.7755333 C77.417915,16.9575301 77.034767,17.0678279 76.9236231,17.0991119 C76.473998,17.2256691 71.5519522,18.5709627 67.712013,18.3066566 C63.537628,18.0193411 60.5971834,15.882537 60.5971834,15.882537 C60.5971834,15.882537 60.3932282,15.734324 60.06427,15.4449934 C60.1154628,15.2234658 60.156036,15.055802 60.1819889,14.9505261 L60.2058586,14.8546866 C60.2113052,14.8330858 60.2141566,14.8220127 60.2141566,14.8220126 C60.2141567,14.8220124 60.2719879,14.5974252 60.3840624,14.20318 C60.9467709,12.2745373 62.1954122,8.4002444 63.8355693,5.74845036 C64.4355891,4.77834284 65.0931908,3.96687171 65.7784503,3.42570952 C66.5355459,2.82781698 67.335627,2.54224728 68.1468985,2.59808775 Z" id="Path" stroke="#000000" stroke-width="2" fill="#FFFFFF"/>
            <path d="M115.804509,-0.457114989 C116.651697,-0.976792475 117.470082,-1.11885169 118.210159,-0.901123323 C121.630046,0.104005465 123.593979,13.7353469 123.593979,13.7353469 C123.593979,13.7353469 123.645319,14.0916853 123.718583,14.696709 C123.098956,14.7982848 122.71535,14.8416657 122.71535,14.8416657 C122.71535,14.8416657 117.961207,15.3792984 114.584988,14.3866047 C111.269018,13.4116048 109.228186,11.0081752 108.995197,10.7240861 C108.973437,10.6972002 110.445702,5.47275658 113.606512,1.60166273 C114.333698,0.711066609 115.0862,-0.0164935545 115.804509,-0.457114989 Z" id="Path" stroke="#000000" stroke-width="2" fill="#FFFFFF"/>
            <path d="M95.9080788,92.5657169 L118.182079,91.1515169 C115.479479,65.8695169 103.871079,47.2105169 89.5440788,25.5015169 C96.1086788,24.0171169 109.384079,19.9553169 119.464079,25.5015169 C135.760079,45.7825169 145.470079,62.9705169 152.344079,87.0195169 L174.971079,85.6053169 C162.348079,56.0113169 158.554079,35.2533169 138.201079,16.6623169 C138.201079,16.6623169 117.120079,7.46991686 95.9060788,7.46991686 C44.3680788,5.40721686 15.5670788,63.9559169 12.4670788,113.179917 C11.4773988,140.759917 10.1697788,138.481917 20.5987788,144.999917 C29.0840788,150.303217 28.0233788,143.232117 28.0233788,143.232117 C23.7588788,89.7451169 55.0543788,47.8931169 69.0353788,33.9821169 C81.6593788,51.4701169 89.8723788,73.1891169 95.9053788,92.5611169 L95.9080788,92.5657169 Z" id="Path" fill="#FFFFFF" fill-rule="nonzero"/>
            <path d="M69.1383788,34.1505169 L69.0813788,41.8255169 C34.0693788,67.4115169 28.5673788,119.946517 28.6743788,130.735517 C29.2987688,104.638517 32.1376788,65.5015169 69.1383788,34.1505169 L69.1383788,34.1505169 Z" id="Path" fill="#000000" fill-rule="nonzero"/>
            <path d="M118.028079,27.2167169 C137.365079,47.5757169 149.340079,84.9987169 152.519079,98.1657169 L153.406549,92.4960169 C149.696549,66.8260169 131.576549,33.9310169 118.746549,22.9390169 L118.028079,27.2167169 Z" id="Path" fill="#000000" fill-rule="nonzero"/>
            <path d="M68.8780788,41.7017169 C70.5833788,43.0307169 84.9160788,70.9287169 94.3080788,104.882717 L95.5490788,96.7485169 C81.4590788,53.4185169 77.6090788,46.6385169 68.8990788,34.1235169 L68.8780788,41.7017169 Z" id="Path" fill="#000000" fill-rule="nonzero"/>
            <path d="M88.4780788,25.1657169 C98.3126788,20.5891169 108.728079,20.1525169 118.884079,22.6908169 L118.884079,27.0548169 C98.2820788,25.4168169 92.1380788,30.5809169 91.6570788,29.2876169 C90.9512188,28.2672169 89.1846788,26.1861169 88.4788788,25.1657169 L88.4780788,25.1657169 Z" id="Path" fill="#000000" fill-rule="nonzero"/>
            <path d="M6.24607875,124.465717 C-18.4159212,131.814117 36.3530788,166.528717 59.4610788,173.230717 C106.569079,186.893717 137.189079,190.697717 204.311079,147.292717 C231.412079,123.351717 184.771079,121.942717 123.179079,125.916717 C19.0390788,120.346717 11.3990788,104.826717 6.24907875,124.466717 L6.24607875,124.465717 Z" id="Path"/>
            <path d="M6.24607875,126.465717 C-18.4159212,133.814117 36.3530788,168.528717 59.4610788,175.230717 C106.569079,188.893717 137.189079,192.697717 204.311079,149.292717 C217.862079,137.321717 212.976779,130.984717 197.005079,128.136717" id="Path"/>
            <path d="M6.24607875,126.465717 C-18.4159212,133.814117 36.3530788,168.528717 59.4610788,175.230717 C106.569079,188.893717 137.189079,192.697717 204.311079,149.292717 C217.862079,137.321717 212.976779,130.984717 197.005079,128.136717" id="Path" stroke="#000000" stroke-width="2"/>
            <path d="M95.9080788,92.5657169 L118.182079,91.1515169 C115.479479,65.8695169 103.871079,47.2105169 89.5440788,25.5015169 C96.1086788,24.0171169 109.384079,19.9553169 119.464079,25.5015169 C135.760079,45.7825169 145.470079,62.9705169 152.344079,87.0195169 L174.971079,85.6053169 C162.348079,56.0113169 158.554079,35.2533169 138.201079,16.6623169 C138.201079,16.6623169 117.120079,7.46991686 95.9060788,7.46991686 C44.3680788,5.40721686 15.5670788,63.9559169 12.4670788,113.179917 C11.4773988,140.759917 10.1697788,138.481917 20.5987788,144.999917 C29.0840788,150.303217 28.0233788,143.232117 28.0233788,143.232117 C23.7588788,89.7451169 55.0543788,47.8931169 69.0353788,33.9821169 C81.6593788,51.4701169 89.8723788,73.1891169 95.9053788,92.5611169 L95.9080788,92.5657169 Z" id="Path" stroke="#000000" stroke-width="2" fill="#FFFFFF" fill-rule="nonzero"/>
            <path d="M22.7110788,113.055717 C16.5407788,111.408617 4.64407875,131.816717 4.64407875,131.816717 C5.78237875,135.252717 13.8567788,137.448917 18.3840788,136.429417 C18.3840788,136.429417 28.8810788,114.702417 22.7109788,113.055417 L22.7110788,113.055717 Z" id="Path" stroke="#000000" stroke-width="2" fill="#FFFFFF"/>
            <path d="M33.1650788,120.465717 C27.8936788,118.911017 18.5580788,142.362717 18.5580788,142.362717 C18.5580788,142.362717 21.5026788,147.141317 26.7740788,148.696017 C32.0454788,150.250717 39.6440788,148.581577 39.6440788,148.581577 C39.6440788,148.581577 38.4368788,122.020577 33.1654788,120.465577 L33.1650788,120.465717 Z" id="Path" stroke="#000000" stroke-width="2" fill="#FFFFFF"/>
        </g>
    </g>
</svg>
