<?xml version="1.0" encoding="UTF-8"?>
<svg id="Ebene_2" data-name="Ebene 2" xmlns="http://www.w3.org/2000/svg" width="1620" height="882.89" xmlns:xlink="http://www.w3.org/1999/xlink" viewBox="0 0 1620 882.89">
  <defs>
    <style>
      .cls-1 {
        fill: url(#Unbenannter_Verlauf_15-3);
      }

      .cls-1, .cls-2, .cls-3, .cls-4, .cls-5, .cls-6, .cls-7, .cls-8, .cls-9, .cls-10, .cls-11, .cls-12, .cls-13, .cls-14, .cls-15, .cls-16, .cls-17, .cls-18, .cls-19, .cls-20, .cls-21, .cls-22, .cls-23, .cls-24, .cls-25, .cls-26 {
        stroke-width: 0px;
      }

      .cls-2 {
        fill: url(#Unbenannter_Verlauf_15-2);
      }

      .cls-3 {
        fill: url(#Unbenannter_Verlauf_15-4);
      }

      .cls-4 {
        fill: url(#Unbenannter_Verlauf_22-2);
      }

      .cls-5 {
        fill: url(#Unbenannter_Verlauf_11-2);
      }

      .cls-6 {
        fill: url(#Unbenannter_Verlauf_24-3);
      }

      .cls-7 {
        fill: url(#Unbenannter_Verlauf_24-4);
      }

      .cls-8 {
        fill: url(#Unbenannter_Verlauf_25-3);
      }

      .cls-9 {
        fill: url(#Unbenannter_Verlauf_25-2);
      }

      .cls-10 {
        fill: url(#Unbenannter_Verlauf_25-5);
      }

      .cls-11 {
        fill: url(#Unbenannter_Verlauf_25-4);
      }

      .cls-27 {
        fill: url(#Unbenannter_Verlauf_5-2);
        opacity: .3;
      }

      .cls-27, .cls-28, .cls-29, .cls-30, .cls-31 {
        stroke-miterlimit: 3.73;
      }

      .cls-27, .cls-32, .cls-33, .cls-34, .cls-35, .cls-36, .cls-37 {
        stroke: #000;
      }

      .cls-27, .cls-14, .cls-38, .cls-18, .cls-39, .cls-40 {
        isolation: isolate;
      }

      .cls-27, .cls-31 {
        stroke-width: .85px;
      }

      .cls-28 {
        stroke: url(#Unbenannter_Verlauf_24-5);
      }

      .cls-28, .cls-29, .cls-32, .cls-12, .cls-33, .cls-30, .cls-31, .cls-34, .cls-35, .cls-36, .cls-37 {
        fill: none;
      }

      .cls-28, .cls-29, .cls-30 {
        stroke-width: .43px;
      }

      .cls-29 {
        stroke: url(#Unbenannter_Verlauf_27-2);
      }

      .cls-32 {
        stroke-dasharray: 0 0 0 13.77;
      }

      .cls-32, .cls-33, .cls-35, .cls-36 {
        stroke-linejoin: round;
      }

      .cls-32, .cls-33, .cls-35, .cls-36, .cls-37 {
        stroke-linecap: round;
      }

      .cls-32, .cls-35, .cls-36 {
        stroke-width: 5.49px;
      }

      .cls-41 {
        clip-path: url(#clippath);
      }

      .cls-13 {
        fill: url(#Unbenannter_Verlauf_7-2);
      }

      .cls-33, .cls-37 {
        stroke-width: 2.84px;
      }

      .cls-14 {
        fill: url(#Unbenannter_Verlauf_24-2);
      }

      .cls-14, .cls-18 {
        opacity: .87;
      }

      .cls-30 {
        stroke: url(#Unbenannter_Verlauf_27);
      }

      .cls-31 {
        stroke: url(#Unbenannter_Verlauf_2);
      }

      .cls-38 {
        opacity: .71;
      }

      .cls-34 {
        stroke-width: 2px;
      }

      .cls-34, .cls-37 {
        stroke-miterlimit: 10;
      }

      .cls-15 {
        fill: url(#Unbenannter_Verlauf_7);
      }

      .cls-16 {
        fill: url(#Unbenannter_Verlauf_5);
      }

      .cls-17 {
        fill: url(#Unbenannter_Verlauf_3);
      }

      .cls-18 {
        fill: url(#Unbenannter_Verlauf_24);
      }

      .cls-36 {
        stroke-dasharray: 0 0 0 15.08;
      }

      .cls-19 {
        fill: url(#Unbenannter_Verlauf_15);
      }

      .cls-20 {
        fill: url(#Unbenannter_Verlauf_20);
      }

      .cls-21 {
        fill: url(#Unbenannter_Verlauf_22);
      }

      .cls-22 {
        fill: url(#Unbenannter_Verlauf_11);
      }

      .cls-23 {
        fill: url(#Unbenannter_Verlauf_25);
      }

      .cls-25 {
        fill: #275c88;
      }

      .cls-26 {
        fill: #2e3436;
      }

      .cls-40 {
        opacity: .54;
      }
    </style>
    <radialGradient id="Unbenannter_Verlauf_3" data-name="Unbenannter Verlauf 3" cx="339.57" cy="2011.9" fx="339.57" fy="2011.9" r="102.15" gradientTransform="translate(394.88 -272.85) scale(.91 .27)" gradientUnits="userSpaceOnUse">
      <stop offset="0" stop-color="#f2da06"/>
      <stop offset=".45" stop-color="#fcee72"/>
      <stop offset="1" stop-color="#f2da06"/>
    </radialGradient>
    <radialGradient id="Unbenannter_Verlauf_2" data-name="Unbenannter Verlauf 2" cx="441.09" cy="2260.97" fx="441.09" fy="2260.97" r="90.02" gradientTransform="translate(-189.64 -1082.68) rotate(-22.5) scale(.76 .71)" gradientUnits="userSpaceOnUse">
      <stop offset="0" stop-color="#eeeeec"/>
      <stop offset="1" stop-color="#eeeeec" stop-opacity="0"/>
    </radialGradient>
    <linearGradient id="Unbenannter_Verlauf_25" data-name="Unbenannter Verlauf 25" x1="-680.33" y1="272.48" x2="-676.73" y2="272.48" gradientTransform="translate(1917.32 -114.87) rotate(4.97) scale(1.64 1.68) skewX(-.69)" gradientUnits="userSpaceOnUse">
      <stop offset="0" stop-color="#edd60c"/>
      <stop offset="1" stop-color="#ad9c08"/>
    </linearGradient>
    <radialGradient id="Unbenannter_Verlauf_5" data-name="Unbenannter Verlauf 5" cx="-264.49" cy="408.17" fx="-264.49" fy="381.94" r="90.04" gradientTransform="translate(1068.35 -108.77) rotate(10.81) scale(1.21 .93)" gradientUnits="userSpaceOnUse">
      <stop offset="0" stop-color="#e9d012"/>
      <stop offset=".46" stop-color="#efd840"/>
      <stop offset=".77" stop-color="#d2b828"/>
      <stop offset="1" stop-color="#eacf4e"/>
    </radialGradient>
    <clipPath id="clippath">
      <path class="cls-12" d="m670.55,139.21c-11.61,0-21.99,3.28-31.07,8.99h0c-12.82,4.31-21.99,11.42-28.83,21.06-12.17,17.13-21.99,56.16-20.97,79.74,26.49,41.74,153.21,40.9,175.77,2.9-9.83-34.44-6.65-63.55-22.28-83.49-8.33-10.67-20.31-17.78-33.51-21.62q-.09,0-.19-.09c-6.08-2.34-21.25-7.49-36.69-7.49h-2.25Zm27.42,4.96c.37.09.84.09,1.22.19-.37-.09-.75-.09-1.22-.19Zm-42.49.28c-.94.09-1.78.28-2.71.37.94-.09,1.87-.28,2.71-.37Z"/>
    </clipPath>
    <radialGradient id="Unbenannter_Verlauf_5-2" data-name="Unbenannter Verlauf 5" cy="408.17" fy="381.94" r="90.04" xlink:href="#Unbenannter_Verlauf_5"/>
    <radialGradient id="Unbenannter_Verlauf_7" data-name="Unbenannter Verlauf 7" cx="-2563.13" cy="59.96" fx="-2563.13" fy="59.96" r="8.15" gradientTransform="translate(-11229.41 -3164.2) rotate(-165) scale(4.84 -3.12) skewX(3.99)" gradientUnits="userSpaceOnUse">
      <stop offset="0" stop-color="#f5e789"/>
      <stop offset="1" stop-color="#eed73f" stop-opacity="0"/>
    </radialGradient>
    <radialGradient id="Unbenannter_Verlauf_7-2" data-name="Unbenannter Verlauf 7" cx="-2562.79" cy="61.22" fx="-2562.79" fy="61.22" r="8.15" gradientTransform="translate(-11172.4 -3170.76) rotate(-165) scale(4.84 -3.12) skewX(3.99)" xlink:href="#Unbenannter_Verlauf_7"/>
    <linearGradient id="Unbenannter_Verlauf_25-2" data-name="Unbenannter Verlauf 25" x1="-3268.55" y1="493.27" x2="-3264.95" y2="493.27" gradientTransform="translate(-5470.81 -465.87) rotate(-179.52) scale(1.88 -1.13) skewX(1.76)" xlink:href="#Unbenannter_Verlauf_25"/>
    <linearGradient id="Unbenannter_Verlauf_25-3" data-name="Unbenannter Verlauf 25" x1="-3464.61" y1="77.76" x2="-3461.01" y2="77.76" gradientTransform="translate(-4782.53 -1150.26) rotate(-167.62) scale(1.62 -1.13) skewX(1.66)" xlink:href="#Unbenannter_Verlauf_25"/>
    <radialGradient id="Unbenannter_Verlauf_11" data-name="Unbenannter Verlauf 11" cx="-4433.34" cy="-1680.38" fx="-4433.34" fy="-1680.38" r="78.16" gradientTransform="translate(-3777.46 -78.77) rotate(177.35) scale(1 .25)" gradientUnits="userSpaceOnUse">
      <stop offset="0" stop-color="#efdd52"/>
      <stop offset="1" stop-color="#f2e26d" stop-opacity="0"/>
    </radialGradient>
    <radialGradient id="Unbenannter_Verlauf_11-2" data-name="Unbenannter Verlauf 11" cx="-2968.16" cy="-1606.29" fx="-2968.16" fy="-1606.29" r="78.16" gradientTransform="translate(-2421.97 1893.09) rotate(121.04) scale(1.03 1.08)" xlink:href="#Unbenannter_Verlauf_11"/>
    <linearGradient id="Unbenannter_Verlauf_15" data-name="Unbenannter Verlauf 15" x1="271.88" y1="835.1" x2="231.38" y2="936.72" gradientTransform="translate(394.88 -594.21) scale(.91)" gradientUnits="userSpaceOnUse">
      <stop offset="0" stop-color="#ddbe0c"/>
      <stop offset="1" stop-color="#ddbe0c" stop-opacity="0"/>
    </linearGradient>
    <linearGradient id="Unbenannter_Verlauf_15-2" data-name="Unbenannter Verlauf 15" x1="332.86" y1="823.69" x2="375.22" y2="922.93" xlink:href="#Unbenannter_Verlauf_15"/>
    <linearGradient id="Unbenannter_Verlauf_15-3" data-name="Unbenannter Verlauf 15" x1="280.99" y1="840.92" x2="304.17" y2="901.21" xlink:href="#Unbenannter_Verlauf_15"/>
    <linearGradient id="Unbenannter_Verlauf_15-4" data-name="Unbenannter Verlauf 15" x1="297.97" y1="824.59" x2="356.23" y2="825.61" xlink:href="#Unbenannter_Verlauf_15"/>
    <radialGradient id="Unbenannter_Verlauf_24" data-name="Unbenannter Verlauf 24" cx="-3002.11" cy="394.73" fx="-3002.11" fy="394.73" r="8.86" gradientTransform="translate(-7532.33 -2134.92) rotate(-180) scale(2.75 -5.86)" gradientUnits="userSpaceOnUse">
      <stop offset="0" stop-color="#fff"/>
      <stop offset="1" stop-color="#fff" stop-opacity="0"/>
    </radialGradient>
    <radialGradient id="Unbenannter_Verlauf_24-2" data-name="Unbenannter Verlauf 24" cx="-3136.62" cy="372.23" fx="-3136.62" fy="372.23" r="8.86" gradientTransform="translate(-6657.79 -2362.07) rotate(-176.3) scale(2.39 -5.56)" xlink:href="#Unbenannter_Verlauf_24"/>
    <radialGradient id="Unbenannter_Verlauf_24-3" data-name="Unbenannter Verlauf 24" cx="-3255.14" cy="-14.22" fx="-3255.14" fy="-14.22" r="11.18" gradientTransform="translate(-5392.17 -1374.64) rotate(-165.42) scale(1.92 -1.27) skewX(-2.38)" xlink:href="#Unbenannter_Verlauf_24"/>
    <radialGradient id="Unbenannter_Verlauf_24-4" data-name="Unbenannter Verlauf 24" cx="-3240.36" cy="276.51" fx="-3240.36" fy="276.51" r="11.18" gradientTransform="translate(-5474.28 -754.52) rotate(-174.72) scale(1.92 -1.27) skewX(-2.38)" xlink:href="#Unbenannter_Verlauf_24"/>
    <radialGradient id="Unbenannter_Verlauf_20" data-name="Unbenannter Verlauf 20" cx="-3032.29" cy="419.99" fx="-3032.29" fy="419.99" r="5.39" gradientTransform="translate(-7744.84 -2184.45) rotate(-180) scale(2.8 -5.66)" gradientUnits="userSpaceOnUse">
      <stop offset="0" stop-color="#f9f1b8"/>
      <stop offset="1" stop-color="#f9f1b8" stop-opacity="0"/>
    </radialGradient>
    <radialGradient id="Unbenannter_Verlauf_22" data-name="Unbenannter Verlauf 22" cx="-3943.53" cy="218.14" fx="-3943.53" fy="218.14" r="10.07" gradientTransform="translate(-4121.62 -548.65) rotate(177.86) scale(1.18 -4.25) skewX(-20.43)" gradientUnits="userSpaceOnUse">
      <stop offset="0" stop-color="#ddbe0c"/>
      <stop offset="1" stop-color="#ddbe0c" stop-opacity="0"/>
    </radialGradient>
    <radialGradient id="Unbenannter_Verlauf_22-2" data-name="Unbenannter Verlauf 22" cx="-3592.17" cy="228.12" fx="-3592.17" fy="228.12" r="10.06" gradientTransform="translate(-4606.71 -439.41) rotate(175.14) scale(1.42 -4.75) skewX(-22.77)" xlink:href="#Unbenannter_Verlauf_22"/>
    <linearGradient id="Unbenannter_Verlauf_25-4" data-name="Unbenannter Verlauf 25" x1="-2797.95" y1="146.34" x2="-2794.36" y2="146.34" gradientTransform="translate(-7868 -1658.49) rotate(-169.76) scale(3.11 -2.54) skewX(4.41)" xlink:href="#Unbenannter_Verlauf_25"/>
    <radialGradient id="Unbenannter_Verlauf_24-5" data-name="Unbenannter Verlauf 24" cx="330.62" cy="1992.45" fx="330.62" fy="1992.45" r="101.85" gradientTransform="translate(394.88 -283.7) scale(.91 .29)" xlink:href="#Unbenannter_Verlauf_24"/>
    <linearGradient id="Unbenannter_Verlauf_25-5" data-name="Unbenannter Verlauf 25" x1="-2918.91" y1="129.68" x2="-2915.31" y2="129.68" gradientTransform="translate(-6945.98 -1566.21) rotate(-168.71) scale(2.67 -2.39) skewX(2.62)" xlink:href="#Unbenannter_Verlauf_25"/>
    <radialGradient id="Unbenannter_Verlauf_27" data-name="Unbenannter Verlauf 27" cx="-510.22" cy="2375.28" fx="-510.22" fy="2375.28" r="101.79" gradientTransform="translate(1110.61 -734.95) rotate(-8.57) scale(1.27 .4)" gradientUnits="userSpaceOnUse">
      <stop offset="0" stop-color="#000" stop-opacity=".33"/>
      <stop offset="1" stop-color="#000" stop-opacity="0"/>
    </radialGradient>
    <radialGradient id="Unbenannter_Verlauf_27-2" data-name="Unbenannter Verlauf 27" cx="-389.33" cy="2403.51" fx="-389.33" fy="2403.51" r="101.81" xlink:href="#Unbenannter_Verlauf_27"/>
  </defs>
  <g>
    <path class="cls-24" d="m47.28,60.58c-1.52,0-2.93-.28-4.25-.84-1.31-.56-2.45-1.33-3.42-2.33s-1.73-2.14-2.28-3.45c-.55-1.31-.83-2.71-.83-4.21s.27-2.91.83-4.21c.55-1.31,1.31-2.46,2.28-3.45s2.11-1.76,3.42-2.33c1.31-.56,2.73-.84,4.25-.84,1.04,0,2.04.12,3.02.36.97.24,1.88.6,2.75,1.08.86.48,1.64,1.08,2.34,1.8l-.9,1.05c-.86-.94-1.93-1.67-3.22-2.21-1.29-.53-2.62-.79-3.98-.79s-2.58.25-3.71.74-2.12,1.17-2.97,2.04c-.85.87-1.51,1.88-1.98,3.03-.47,1.15-.71,2.4-.71,3.74s.23,2.58.71,3.74c.47,1.15,1.13,2.16,1.98,3.03.85.87,1.84,1.55,2.97,2.04,1.13.49,2.37.74,3.71.74s2.69-.27,3.98-.81c1.29-.54,2.36-1.27,3.22-2.19l.9,1.05c-.7.72-1.48,1.32-2.34,1.8-.86.48-1.78.84-2.75,1.08-.97.24-1.98.36-3.02.36Z"/>
    <path class="cls-24" d="m64.89,60.55c-1.36,0-2.6-.34-3.72-1.02-1.12-.68-2.01-1.61-2.66-2.78-.65-1.17-.97-2.46-.97-3.88s.32-2.74.97-3.9c.65-1.16,1.54-2.08,2.66-2.76,1.12-.68,2.36-1.02,3.72-1.02s2.62.34,3.74,1.02c1.11.68,1.99,1.6,2.64,2.76.65,1.16.97,2.46.97,3.9s-.33,2.71-.97,3.88c-.65,1.17-1.53,2.1-2.64,2.78-1.11.68-2.36,1.02-3.74,1.02Zm0-1.26c1.12,0,2.13-.29,3.04-.86.91-.57,1.63-1.34,2.16-2.31.53-.97.79-2.05.79-3.25s-.27-2.29-.79-3.25c-.53-.97-1.25-1.74-2.16-2.31-.91-.57-1.92-.85-3.04-.85s-2.13.29-3.04.85c-.91.57-1.63,1.34-2.16,2.31s-.79,2.05-.79,3.25.26,2.29.79,3.25c.53.97,1.25,1.74,2.16,2.31.91.57,1.92.86,3.04.86Z"/>
    <path class="cls-24" d="m75.63,60.25v-14.76h1.32v2.07c1.2-1.58,2.83-2.37,4.89-2.37,1.12,0,2.1.24,2.96.7.85.47,1.51,1.13,1.98,1.98.47.85.71,1.83.71,2.96v9.42h-1.32v-9.06c0-1.48-.41-2.65-1.23-3.5-.82-.85-1.95-1.28-3.39-1.28-1,0-1.9.24-2.7.71-.8.47-1.43,1.15-1.89,2.03v11.1h-1.32Z"/>
    <path class="cls-24" d="m92.91,60.25v-13.56h-3.54v-1.2h3.54v-3.27c0-1.34.35-2.37,1.05-3.09.7-.72,1.71-1.08,3.03-1.08.38,0,.71.02.98.06.27.04.54.11.83.21v1.29c-.34-.1-.65-.17-.92-.23-.27-.05-.58-.08-.92-.08-.92,0-1.61.23-2.06.69-.45.46-.67,1.21-.67,2.25v3.24h4.56v1.2h-4.56v13.56h-1.32Z"/>
    <path class="cls-24" d="m102,42.16c-.32,0-.59-.11-.81-.33-.22-.22-.33-.49-.33-.81s.11-.59.33-.81c.22-.22.49-.33.81-.33.34,0,.61.11.82.33.21.22.32.49.32.81s-.11.59-.32.81c-.21.22-.48.33-.82.33Zm-.66,18.09v-14.76h1.32v14.76h-1.32Z"/>
    <path class="cls-24" d="m113.85,66.67c-.98,0-1.95-.14-2.91-.42-.96-.28-1.84-.67-2.64-1.17l.75-1.08c.88.5,1.68.86,2.42,1.08.73.22,1.5.33,2.29.33,1.54,0,2.71-.37,3.51-1.11s1.2-1.84,1.2-3.3v-2.52c-1.34,1.38-3.03,2.07-5.07,2.07-1.36,0-2.6-.34-3.72-1.02s-2-1.6-2.65-2.76c-.65-1.16-.98-2.46-.98-3.9s.33-2.74.98-3.9c.65-1.16,1.53-2.08,2.65-2.76,1.12-.68,2.36-1.02,3.72-1.02.94,0,1.85.18,2.73.55s1.66.87,2.34,1.49v-1.74h1.32v15.45c0,1.88-.52,3.3-1.54,4.27-1.03.97-2.5,1.46-4.4,1.46Zm-.45-7.38c1.1,0,2.09-.22,2.98-.67s1.58-1.04,2.08-1.79v-7.92c-.52-.7-1.23-1.29-2.13-1.75-.9-.47-1.88-.71-2.94-.71-1.12,0-2.14.29-3.05.85-.91.57-1.63,1.34-2.16,2.31-.53.97-.79,2.05-.79,3.25s.26,2.29.79,3.25c.53.97,1.25,1.74,2.16,2.31.91.57,1.92.86,3.05.86Z"/>
    <path class="cls-24" d="m129.45,60.55c-1.1,0-2.08-.24-2.93-.71-.85-.47-1.51-1.13-1.99-1.98-.48-.85-.72-1.83-.72-2.96v-9.42h1.32v9.06c0,1.46.41,2.62,1.23,3.48s1.95,1.29,3.39,1.29c1,0,1.9-.24,2.7-.72.8-.48,1.43-1.15,1.89-2.01v-11.1h1.32v14.76h-1.32v-2.04c-1.16,1.56-2.79,2.34-4.89,2.34Z"/>
    <path class="cls-24" d="m139.77,60.22v-14.76h1.32v2.34c.42-.82,1-1.46,1.73-1.93.73-.47,1.55-.71,2.47-.71.4,0,.83.04,1.29.12v1.35c-.22-.08-.44-.13-.66-.17-.22-.03-.43-.04-.63-.04-.98,0-1.83.29-2.54.88-.71.59-1.26,1.45-1.67,2.57v10.35h-1.32Z"/>
    <path class="cls-24" d="m152.67,60.55c-1.08,0-2.03-.18-2.85-.55-.82-.37-1.46-.89-1.92-1.56-.46-.67-.69-1.44-.69-2.32,0-1.36.53-2.46,1.59-3.29,1.06-.83,2.47-1.25,4.23-1.25s3.32.43,4.68,1.29v-2.46c0-1.36-.37-2.38-1.11-3.04-.74-.67-1.8-1-3.18-1-.68,0-1.39.11-2.13.33-.74.22-1.59.58-2.55,1.08l-.57-1.17c.94-.48,1.84-.83,2.7-1.06.86-.23,1.72-.34,2.58-.34,1.78,0,3.15.42,4.12,1.27.97.85,1.46,2.08,1.46,3.71v10.08h-1.32v-1.65c-.68.62-1.44,1.1-2.28,1.44-.84.34-1.76.51-2.76.51Zm-4.14-4.47c0,.96.4,1.75,1.2,2.37.8.62,1.81.93,3.03.93,1.06,0,1.99-.18,2.79-.55s1.52-.9,2.16-1.58v-3.06c-.66-.5-1.38-.87-2.16-1.11-.78-.24-1.67-.36-2.67-.36-1.3,0-2.35.31-3.15.93-.8.62-1.2,1.43-1.2,2.43Z"/>
    <path class="cls-24" d="m167.64,60.55c-1.12,0-1.98-.28-2.58-.84-.6-.56-.9-1.34-.9-2.34v-10.68h-3.24v-1.2h3.24v-3.72l1.32-.42v4.14h4.56v1.2h-4.56v10.23c0,.84.19,1.45.56,1.82.37.37.98.55,1.84.55.46,0,.85-.04,1.17-.11.32-.07.65-.17.99-.31v1.29c-.38.14-.77.24-1.17.3-.4.06-.81.09-1.23.09Z"/>
    <path class="cls-24" d="m173.25,42.16c-.32,0-.59-.11-.81-.33-.22-.22-.33-.49-.33-.81s.11-.59.33-.81.49-.33.81-.33c.34,0,.62.11.83.33.21.22.31.49.31.81s-.1.59-.31.81c-.21.22-.49.33-.83.33Zm-.66,18.09v-14.76h1.32v14.76h-1.32Z"/>
    <path class="cls-24" d="m184.65,60.55c-1.36,0-2.6-.34-3.72-1.02-1.12-.68-2.01-1.61-2.66-2.78-.65-1.17-.97-2.46-.97-3.88s.32-2.74.97-3.9c.65-1.16,1.54-2.08,2.66-2.76,1.12-.68,2.36-1.02,3.72-1.02s2.62.34,3.74,1.02c1.11.68,1.99,1.6,2.64,2.76.65,1.16.97,2.46.97,3.9s-.33,2.71-.97,3.88c-.65,1.17-1.53,2.1-2.64,2.78-1.11.68-2.36,1.02-3.74,1.02Zm0-1.26c1.12,0,2.13-.29,3.04-.86.91-.57,1.63-1.34,2.16-2.31.53-.97.79-2.05.79-3.25s-.27-2.29-.79-3.25c-.53-.97-1.25-1.74-2.16-2.31-.91-.57-1.92-.85-3.04-.85s-2.13.29-3.04.85c-.91.57-1.63,1.34-2.16,2.31s-.79,2.05-.79,3.25.26,2.29.79,3.25c.53.97,1.25,1.74,2.16,2.31.91.57,1.92.86,3.04.86Z"/>
    <path class="cls-24" d="m195.39,60.25v-14.76h1.32v2.07c1.2-1.58,2.83-2.37,4.89-2.37,1.12,0,2.1.24,2.96.7.85.47,1.51,1.13,1.98,1.98.47.85.71,1.83.71,2.96v9.42h-1.32v-9.06c0-1.48-.41-2.65-1.23-3.5-.82-.85-1.95-1.28-3.39-1.28-1,0-1.9.24-2.7.71-.8.47-1.43,1.15-1.89,2.03v11.1h-1.32Z"/>
    <path class="cls-24" d="m211.26,60.25v-14.76h1.32v1.92c1.14-1.48,2.66-2.22,4.56-2.22,1.06,0,2.01.26,2.85.79s1.48,1.25,1.92,2.14c.62-.96,1.35-1.69,2.21-2.19.85-.5,1.82-.75,2.92-.75s1.99.24,2.79.7c.8.47,1.42,1.13,1.88,1.98.45.85.67,1.83.67,2.96v9.42h-1.32v-9.06c0-1.48-.38-2.65-1.14-3.5-.76-.85-1.82-1.28-3.18-1.28-.98,0-1.84.25-2.58.76-.74.51-1.36,1.21-1.86,2.08.06.26.11.52.13.77.03.25.04.51.04.79v9.42h-1.32v-9.06c0-1.48-.38-2.65-1.14-3.5-.76-.85-1.82-1.28-3.18-1.28-.92,0-1.74.22-2.45.67s-1.31,1.08-1.81,1.91v11.25h-1.32Z"/>
    <path class="cls-24" d="m240.84,60.55c-1.08,0-2.03-.18-2.85-.55-.82-.37-1.46-.89-1.92-1.56-.46-.67-.69-1.44-.69-2.32,0-1.36.53-2.46,1.59-3.29,1.06-.83,2.47-1.25,4.23-1.25s3.32.43,4.68,1.29v-2.46c0-1.36-.37-2.38-1.11-3.04-.74-.67-1.8-1-3.18-1-.68,0-1.39.11-2.13.33-.74.22-1.59.58-2.55,1.08l-.57-1.17c.94-.48,1.84-.83,2.7-1.06.86-.23,1.72-.34,2.58-.34,1.78,0,3.15.42,4.12,1.27.97.85,1.46,2.08,1.46,3.71v10.08h-1.32v-1.65c-.68.62-1.44,1.1-2.28,1.44-.84.34-1.76.51-2.76.51Zm-4.14-4.47c0,.96.4,1.75,1.2,2.37.8.62,1.81.93,3.03.93,1.06,0,1.99-.18,2.79-.55s1.52-.9,2.16-1.58v-3.06c-.66-.5-1.38-.87-2.16-1.11-.78-.24-1.67-.36-2.67-.36-1.3,0-2.35.31-3.15.93-.8.62-1.2,1.43-1.2,2.43Z"/>
    <path class="cls-24" d="m251.22,60.25v-14.76h1.32v2.07c1.2-1.58,2.83-2.37,4.89-2.37,1.12,0,2.1.24,2.96.7.85.47,1.51,1.13,1.98,1.98.47.85.71,1.83.71,2.96v9.42h-1.32v-9.06c0-1.48-.41-2.65-1.23-3.5-.82-.85-1.95-1.28-3.39-1.28-1,0-1.9.24-2.7.71-.8.47-1.43,1.15-1.89,2.03v11.1h-1.32Z"/>
    <path class="cls-24" d="m271.53,60.55c-1.08,0-2.03-.18-2.85-.55s-1.46-.89-1.92-1.56c-.46-.67-.69-1.44-.69-2.32,0-1.36.53-2.46,1.59-3.29,1.06-.83,2.47-1.25,4.23-1.25s3.32.43,4.68,1.29v-2.46c0-1.36-.37-2.38-1.11-3.04s-1.8-1-3.18-1c-.68,0-1.39.11-2.13.33-.74.22-1.59.58-2.55,1.08l-.57-1.17c.94-.48,1.84-.83,2.7-1.06.86-.23,1.72-.34,2.58-.34,1.78,0,3.16.42,4.12,1.27.97.85,1.46,2.08,1.46,3.71v10.08h-1.32v-1.65c-.68.62-1.44,1.1-2.28,1.44s-1.76.51-2.76.51Zm-4.14-4.47c0,.96.4,1.75,1.2,2.37s1.81.93,3.03.93c1.06,0,1.99-.18,2.79-.55s1.52-.9,2.16-1.58v-3.06c-.66-.5-1.38-.87-2.16-1.11s-1.67-.36-2.67-.36c-1.3,0-2.35.31-3.15.93s-1.2,1.43-1.2,2.43Z"/>
    <path class="cls-24" d="m289.02,66.67c-.98,0-1.95-.14-2.91-.42s-1.84-.67-2.64-1.17l.75-1.08c.88.5,1.69.86,2.42,1.08.73.22,1.5.33,2.29.33,1.54,0,2.71-.37,3.51-1.11.8-.74,1.2-1.84,1.2-3.3v-2.52c-1.34,1.38-3.03,2.07-5.07,2.07-1.36,0-2.6-.34-3.72-1.02-1.12-.68-2.01-1.6-2.66-2.76-.65-1.16-.98-2.46-.98-3.9s.33-2.74.98-3.9c.65-1.16,1.53-2.08,2.66-2.76,1.12-.68,2.36-1.02,3.72-1.02.94,0,1.85.18,2.73.55s1.66.87,2.34,1.49v-1.74h1.32v15.45c0,1.88-.51,3.3-1.54,4.27s-2.5,1.46-4.39,1.46Zm-.45-7.38c1.1,0,2.09-.22,2.98-.67s1.58-1.04,2.08-1.79v-7.92c-.52-.7-1.23-1.29-2.13-1.75-.9-.47-1.88-.71-2.94-.71-1.12,0-2.14.29-3.04.85-.91.57-1.63,1.34-2.16,2.31-.53.97-.79,2.05-.79,3.25s.26,2.29.79,3.25c.53.97,1.25,1.74,2.16,2.31.91.57,1.92.86,3.04.86Z"/>
    <path class="cls-24" d="m305.7,60.55c-1.36,0-2.6-.34-3.72-1.02-1.12-.68-2.01-1.6-2.66-2.76-.65-1.16-.98-2.46-.98-3.9s.32-2.74.95-3.9c.63-1.16,1.5-2.08,2.59-2.76,1.1-.68,2.33-1.02,3.69-1.02,1.28,0,2.42.34,3.42,1.02,1,.68,1.79,1.58,2.38,2.71s.88,2.38.88,3.77v.54h-12.57c.06,1.14.36,2.17.9,3.07.54.91,1.25,1.64,2.15,2.18.89.54,1.88.81,2.96.81.84,0,1.67-.13,2.49-.41.82-.27,1.52-.63,2.1-1.09l.78,1.05c-.8.58-1.65,1.01-2.55,1.29-.9.28-1.84.42-2.82.42Zm-5.94-8.58h11.1c-.1-1.02-.39-1.94-.87-2.77-.48-.83-1.1-1.5-1.86-2s-1.62-.75-2.58-.75c-1.02,0-1.95.24-2.77.72-.83.48-1.51,1.14-2.04,1.96-.53.83-.86,1.78-.98,2.83Z"/>
    <path class="cls-24" d="m315.51,60.25v-14.76h1.32v1.92c1.14-1.48,2.66-2.22,4.56-2.22,1.06,0,2.01.26,2.85.79.84.53,1.48,1.25,1.92,2.14.62-.96,1.35-1.69,2.2-2.19.85-.5,1.83-.75,2.93-.75s1.99.24,2.79.7c.8.47,1.42,1.13,1.88,1.98.45.85.67,1.83.67,2.96v9.42h-1.32v-9.06c0-1.48-.38-2.65-1.14-3.5-.76-.85-1.82-1.28-3.18-1.28-.98,0-1.84.25-2.58.76-.74.51-1.36,1.21-1.86,2.08.06.26.1.52.13.77s.04.51.04.79v9.42h-1.32v-9.06c0-1.48-.38-2.65-1.14-3.5-.76-.85-1.82-1.28-3.18-1.28-.92,0-1.74.22-2.45.67s-1.32,1.08-1.81,1.91v11.25h-1.32Z"/>
    <path class="cls-24" d="m347.31,60.55c-1.36,0-2.6-.34-3.72-1.02-1.12-.68-2.01-1.6-2.66-2.76-.65-1.16-.98-2.46-.98-3.9s.32-2.74.95-3.9c.63-1.16,1.5-2.08,2.59-2.76,1.1-.68,2.33-1.02,3.69-1.02,1.28,0,2.42.34,3.42,1.02,1,.68,1.79,1.58,2.38,2.71s.88,2.38.88,3.77v.54h-12.57c.06,1.14.36,2.17.9,3.07.54.91,1.25,1.64,2.15,2.18.89.54,1.88.81,2.96.81.84,0,1.67-.13,2.49-.41.82-.27,1.52-.63,2.1-1.09l.78,1.05c-.8.58-1.65,1.01-2.55,1.29-.9.28-1.84.42-2.82.42Zm-5.94-8.58h11.1c-.1-1.02-.39-1.94-.87-2.77-.48-.83-1.1-1.5-1.86-2s-1.62-.75-2.58-.75c-1.02,0-1.95.24-2.77.72-.83.48-1.51,1.14-2.04,1.96-.53.83-.86,1.78-.98,2.83Z"/>
    <path class="cls-24" d="m357.12,60.25v-14.76h1.32v2.07c1.2-1.58,2.83-2.37,4.89-2.37,1.12,0,2.1.24,2.96.7.85.47,1.51,1.13,1.98,1.98.47.85.71,1.83.71,2.96v9.42h-1.32v-9.06c0-1.48-.41-2.65-1.23-3.5-.82-.85-1.95-1.28-3.39-1.28-1,0-1.9.24-2.7.71s-1.43,1.15-1.89,2.03v11.1h-1.32Z"/>
    <path class="cls-24" d="m377.58,60.55c-1.12,0-1.98-.28-2.58-.84-.6-.56-.9-1.34-.9-2.34v-10.68h-3.24v-1.2h3.24v-3.72l1.32-.42v4.14h4.56v1.2h-4.56v10.23c0,.84.18,1.45.55,1.82s.98.55,1.84.55c.46,0,.85-.04,1.17-.11.32-.07.65-.17.99-.31v1.29c-.38.14-.77.24-1.17.3-.4.06-.81.09-1.23.09Z"/>
    <path class="cls-24" d="m390.87,47.59c-.32,0-.59-.11-.81-.33-.22-.22-.33-.49-.33-.81s.11-.59.33-.81.49-.33.81-.33.59.11.81.33.33.49.33.81-.11.59-.33.81c-.22.22-.49.33-.81.33Zm0,12.81c-.32,0-.59-.11-.81-.33-.22-.22-.33-.49-.33-.81s.11-.59.33-.81c.22-.22.49-.33.81-.33s.59.11.81.33c.22.22.33.49.33.81s-.11.59-.33.81c-.22.22-.49.33-.81.33Z"/>
    <path class="cls-24" d="m403.74,60.25v-21h8.49c1.38,0,2.57.24,3.57.72,1,.48,1.76,1.16,2.29,2.03s.79,1.9.79,3.08-.26,2.21-.79,3.1c-.53.89-1.29,1.58-2.29,2.07s-2.19.74-3.57.74h-7.11v9.27h-1.38Zm1.38-10.56h7.05c1.72,0,3.04-.42,3.95-1.26.91-.84,1.37-1.96,1.37-3.36s-.46-2.46-1.37-3.29c-.91-.83-2.23-1.25-3.95-1.25h-7.05v9.15Z"/>
    <path class="cls-24" d="m427.35,60.55c-1.1,0-2.08-.24-2.92-.71-.85-.47-1.52-1.13-2-1.98-.48-.85-.72-1.83-.72-2.96v-9.42h1.32v9.06c0,1.46.41,2.62,1.23,3.48.82.86,1.95,1.29,3.39,1.29,1,0,1.9-.24,2.7-.72.8-.48,1.43-1.15,1.89-2.01v-11.1h1.32v14.76h-1.32v-2.04c-1.16,1.56-2.79,2.34-4.89,2.34Z"/>
    <path class="cls-24" d="m437.64,66.37v-20.88h1.32v1.77c1.34-1.38,3.03-2.07,5.07-2.07,1.38-.02,2.62.31,3.74,1,1.11.69,1.99,1.62,2.64,2.77.65,1.16.98,2.46.98,3.9s-.33,2.71-.98,3.88c-.65,1.17-1.53,2.1-2.64,2.78s-2.36,1.02-3.74,1.02c-.94,0-1.84-.18-2.71-.55s-1.66-.87-2.35-1.49v7.86h-1.32Zm6.39-7.08c1.12,0,2.13-.29,3.04-.86.91-.57,1.63-1.34,2.16-2.31.53-.97.79-2.05.79-3.25s-.26-2.29-.79-3.25-1.25-1.74-2.16-2.31c-.91-.57-1.92-.85-3.04-.85s-2.09.22-2.98.67c-.89.45-1.59,1.04-2.08,1.79v7.92c.52.7,1.23,1.29,2.13,1.75.9.47,1.88.71,2.94.71Z"/>
    <path class="cls-24" d="m454.77,66.37v-20.88h1.32v1.77c1.34-1.38,3.03-2.07,5.07-2.07,1.38-.02,2.62.31,3.74,1,1.11.69,1.99,1.62,2.64,2.77.65,1.16.98,2.46.98,3.9s-.33,2.71-.98,3.88c-.65,1.17-1.53,2.1-2.64,2.78s-2.36,1.02-3.74,1.02c-.94,0-1.84-.18-2.71-.55s-1.66-.87-2.35-1.49v7.86h-1.32Zm6.39-7.08c1.12,0,2.13-.29,3.04-.86.91-.57,1.63-1.34,2.16-2.31.53-.97.79-2.05.79-3.25s-.26-2.29-.79-3.25-1.25-1.74-2.16-2.31c-.91-.57-1.92-.85-3.04-.85s-2.09.22-2.98.67c-.89.45-1.59,1.04-2.08,1.79v7.92c.52.7,1.23,1.29,2.13,1.75.9.47,1.88.71,2.94.71Z"/>
    <path class="cls-24" d="m478.56,60.55c-1.36,0-2.6-.34-3.72-1.02-1.12-.68-2.01-1.6-2.66-2.76-.65-1.16-.98-2.46-.98-3.9s.32-2.74.95-3.9c.63-1.16,1.5-2.08,2.59-2.76,1.1-.68,2.33-1.02,3.69-1.02,1.28,0,2.42.34,3.42,1.02,1,.68,1.79,1.58,2.38,2.71s.88,2.38.88,3.77v.54h-12.57c.06,1.14.36,2.17.9,3.07.54.91,1.25,1.64,2.15,2.18.89.54,1.88.81,2.96.81.84,0,1.67-.13,2.49-.41.82-.27,1.52-.63,2.1-1.09l.78,1.05c-.8.58-1.65,1.01-2.55,1.29-.9.28-1.84.42-2.82.42Zm-5.94-8.58h11.1c-.1-1.02-.39-1.94-.87-2.77-.48-.83-1.1-1.5-1.86-2s-1.62-.75-2.58-.75c-1.02,0-1.95.24-2.77.72-.83.48-1.51,1.14-2.04,1.96-.53.83-.86,1.78-.98,2.83Z"/>
    <path class="cls-24" d="m492.96,60.55c-1.12,0-1.98-.28-2.58-.84-.6-.56-.9-1.34-.9-2.34v-10.68h-3.24v-1.2h3.24v-3.72l1.32-.42v4.14h4.56v1.2h-4.56v10.23c0,.84.18,1.45.55,1.82s.98.55,1.84.55c.46,0,.85-.04,1.17-.11.32-.07.65-.17.99-.31v1.29c-.38.14-.77.24-1.17.3-.4.06-.81.09-1.23.09Z"/>
  </g>
  <rect class="cls-34" x="503.36" y="103.01" width="613.27" height="242.53" rx="29.16" ry="29.16"/>
  <g id="foreman_logo-black">
    <g id="g34599">
      <g id="text6578">
        <path id="path34993" class="cls-24" d="m803.64,188.04h-17.06v18.4h17.06v7.57h-17.06v26.07h-7.57v-59.61h24.63v7.57h0"/>
        <path id="path34995" class="cls-24" d="m823.19,239.99c-2.88,0-5.18-.48-6.9-1.53-1.73-1.05-2.97-2.11-3.83-3.16-2.3-2.88-3.35-7-3.35-12.27v-25.69c0-5.27,1.15-9.39,3.35-12.27.38-.58.96-1.05,1.53-1.63.67-.58,1.44-1.05,2.3-1.44.96-.48,1.92-.86,3.07-1.15s2.4-.48,3.83-.48c2.88,0,5.18.48,6.9,1.53,1.73,1.05,2.97,2.11,3.83,3.16,2.3,2.88,3.35,7,3.35,12.27v25.59c0,5.27-1.15,9.39-3.35,12.27-.86,1.05-2.2,2.11-3.83,3.16-1.73,1.05-4.03,1.63-6.9,1.63m0-51.95c-.58,0-1.25.1-2.01.19-.67.1-1.44.48-2.11,1.05s-1.34,1.44-1.82,2.78c-.48,1.25-.67,3.07-.67,5.37v25.59c0,2.4.19,4.22.67,5.46.48,1.25,1.05,2.2,1.82,2.78.67.58,1.44.86,2.11.96.77.1,1.44.19,2.01.19s1.15-.1,1.92-.19,1.44-.38,2.2-.96c.67-.58,1.25-1.53,1.73-2.78s.77-3.16.77-5.46v-25.69c0-2.3-.29-4.12-.77-5.37-.48-1.25-.96-2.2-1.73-2.78-.67-.58-1.44-.96-2.2-1.05-.77,0-1.44-.1-1.92-.1"/>
        <path id="path34997" class="cls-24" d="m864.79,210.66c1.44,1.44,2.59,3.07,3.35,4.98s1.25,4.12,1.25,6.61v17.63h-7.67v-17.54c0-5.27-2.49-7.86-7.57-7.86h-4.79v25.49h-7.57v-59.61h12.36c5.08,0,9.01,1.53,11.6,4.5,2.4,2.78,3.55,6.9,3.55,12.46s-1.15,9.68-3.55,12.56c-.1.1-.29.29-.38.38-.19.19-.38.29-.58.38m-10.73-3.83c2.01,0,3.45-.29,4.22-.77.77-.48,1.34-.86,1.53-1.15,1.15-1.53,1.82-4.03,1.82-7.57,0-2.01-.19-3.55-.48-4.79s-.77-2.2-1.44-2.88c-.58-.67-1.34-1.15-2.3-1.34s-2.01-.29-3.26-.29h-4.79v18.78h4.7"/>
        <path id="path34999" class="cls-24" d="m900.06,188.04h-17.06v18.4h17.06v7.57h-17.06v18.4h17.06v7.57h-24.73v-59.52h24.63l.1,7.57h0"/>
        <path id="path35001" class="cls-24" d="m913,211.43v28.56h-7.57v-59.61h6.71l12.08,41.98,11.98-41.98h6.71v59.61h-7.57v-28.56l-8.24,28.56h-5.75l-8.34-28.56h0"/>
        <path id="path35003" class="cls-24" d="m956.6,240.08h-7.86l13.8-59.61h6.04l13.9,59.61h-7.95l-3.83-16.68h-10.35l-3.74,16.68m9.01-38.91l-3.35,14.66h6.8l-3.45-14.66"/>
        <path id="path35005" class="cls-24" d="m991.78,203.95v36.04h-7.57v-59.61h6.42l14.57,36.04v-36.04h7.67v59.61h-6.52l-14.57-36.04h0"/>
      </g>
    </g>
    <g id="g17157" class="cls-39">
      <g id="path5756" class="cls-40">
        <path class="cls-26" d="m588.94,256.2c-23.12,6.83,28.17,39.31,49.79,45.58,44.08,12.82,72.72,16.38,135.52-24.24,25.36-22.37-18.25-23.68-75.9-20.03-97.43-5.15-104.64-19.75-109.41-1.31Z"/>
      </g>
      <path id="path5611" class="cls-17" d="m588.94,250.59c-23.12,6.83,28.17,39.31,49.79,45.58,44.08,12.82,72.72,16.38,135.52-24.24,25.36-22.37-18.25-23.68-75.9-20.03-97.43-5.15-104.64-19.75-109.41-1.31Z"/>
      <path id="path9655" class="cls-31" d="m680.01,144.45c-36.5-.84-56.81,8.33-69.35,26.02-12.17,17.13-21.99,56.16-20.97,79.74,26.49,41.74,153.21,40.9,175.77,2.9-9.83-34.44-6.65-63.55-22.28-83.49-14.41-18.53-39.96-26.3-63.18-25.18Z"/>
      <path id="path5782" class="cls-23" d="m763.12,235.43c3.18-.09,3.46,16.38,3.46,16.38,0,0-2.62,2.53-5.8,2.53-3.18.09-6.93-2.34-6.93-2.34,0,0,6.08-16.47,9.27-16.57h0Z"/>
      <path id="path5653" class="cls-16" d="m680.01,143.24c-36.5-.84-56.81,8.33-69.35,26.02-12.17,17.13-21.99,56.16-20.97,79.74,26.49,41.74,153.21,40.9,175.77,2.9-9.83-34.44-6.65-63.55-22.28-83.49-14.41-18.44-39.96-26.21-63.18-25.18Z"/>
      <g class="cls-41">
        <path id="path5547" class="cls-27" d="m670.55,139.21c-11.61,0-21.99,3.28-31.07,8.99h0c-12.82,4.31-21.99,11.42-28.83,21.06-12.17,17.13-21.99,56.16-20.97,79.74,26.49,41.74,153.21,40.9,175.77,2.9-9.83-34.44-6.65-63.55-22.28-83.49-8.33-10.67-20.31-17.78-33.51-21.62q-.09,0-.19-.09c-6.08-2.34-21.25-7.49-36.69-7.49h-2.25Zm27.42,4.96c.37.09.84.09,1.22.19-.37-.09-.75-.09-1.22-.19Zm-42.49.28c-.94.09-1.78.28-2.71.37.94-.09,1.87-.28,2.71-.37Z"/>
      </g>
      <path id="path5437" class="cls-15" d="m671.96,218.67l-.47,11.14,22.18-1.68-1.03-10.76-20.68,1.31Z"/>
      <path id="path5448" class="cls-13" d="m726.71,213.24l-.66,10.3,18.16-1.59,1.78-9.92-19.28,1.22Z"/>
      <path id="path5602" class="cls-9" d="m648.65,138.37c-3.65-.28-6.46,10.76-6.46,10.76,0,0,2.53,1.87,6.18,2.06,3.65.19,8.33-1.12,8.33-1.12,0,0-4.4-11.42-8.05-11.7Z"/>
      <path id="path5598" class="cls-8" d="m693.39,135.09c-3-.94-7.67,9.36-7.67,9.36,0,0,1.87,2.25,4.87,3.18,3,.94,7.21.37,7.21.37,0,0-1.4-11.98-4.4-12.92h0Z"/>
      <path id="path5786" class="cls-22" d="m672.8,218.86l20.87-1.31c-2.53-23.68-13.38-41.18-26.77-61.49,6.18-1.4,18.53-5.15,27.98,0,15.26,19,24.33,35,30.79,57.56l21.15-1.31c-11.79-27.7-15.35-47.17-34.44-64.58,0,0-19.75-8.61-39.59-8.61-48.2-1.78-75.16,52.97-78.06,99.02-.94,25.83-2.15,23.68,7.58,29.76,7.96,4.96,6.93-1.68,6.93-1.68-4.02-50.07,25.27-89.2,38.37-102.2,11.89,16.38,19.56,36.69,25.18,54.85h0Z"/>
      <path id="path5452" class="cls-5" d="m672.8,218.86l20.87-1.31c-2.53-23.68-13.38-41.18-26.77-61.49,6.18-1.4,18.53-5.15,27.98,0,15.26,19,24.33,35,30.79,57.56l21.15-1.31c-11.79-27.7-15.35-47.17-34.44-64.58,0,0-19.75-8.61-39.59-8.61-48.2-1.78-75.16,52.97-78.06,99.02-.94,25.83-2.15,23.68,7.58,29.76,7.96,4.96,6.93-1.68,6.93-1.68-4.02-50.07,25.27-89.2,38.37-102.2,11.89,16.38,19.56,36.69,25.18,54.85h0Z"/>
      <path id="path4622" class="cls-19" d="m647.81,164.2l-.09,7.21c-32.76,23.96-37.91,73.1-37.81,83.21.66-24.43,3.28-61.12,37.91-90.41Z"/>
      <path id="path5441" class="cls-2" d="m693.48,157.65c18.06,19,29.29,54,32.29,66.36l.84-5.33c-3.46-23.96-20.4-54.66-32.38-64.95l-.75,3.93Z"/>
      <path id="path4624" class="cls-1" d="m647.53,171.22c1.59,1.22,14.98,27.33,23.77,59.15l1.12-7.58c-13.2-40.53-16.85-46.89-24.9-58.59v7.02Z"/>
      <path id="rect5445" class="cls-3" d="m665.87,155.78c9.17-4.31,18.91-4.68,28.45-2.34v4.12c-19.28-1.59-24.99,3.28-25.46,2.06-.66-.94-2.34-2.9-3-3.84Z"/>
      <path id="path5466" class="cls-18" d="m754.13,252.46c-6.27-50.26-22.09-93.78-52.32-111.56,33.6,22.93,44.27,66.73,52.32,111.56Z"/>
      <path id="path5470" class="cls-14" d="m697.23,259.39c-2.34-47.92-13.48-90.04-38.56-108.57,27.8,23.59,34.26,65.61,38.56,108.57Z"/>
      <g id="path5506" class="cls-38">
        <path class="cls-6" d="m662.13,162.14c14.79,3.84,25.46,13.76,23.77,22.18-1.4,7.3-11.61,11.04-23.87,9.45-4.49-16.75-11.61-27.42-18.53-32.38,5.24-1.22,11.79-1.03,18.63.75Z"/>
      </g>
      <g id="path5535" class="cls-38">
        <path class="cls-7" d="m709.96,152.5c15.26,1.4,27.33,9.55,27.14,18.06-.19,7.39-9.64,12.73-21.99,13.1-7.21-15.72-15.91-25.08-23.59-28.83,4.87-2.06,11.42-2.9,18.44-2.34Z"/>
      </g>
      <g id="path5586">
        <path class="cls-20" d="m727.36,156.24c22.56,17.22,26.58,51.01,32.48,83.11-9.36-30.23-17.69-61.96-32.48-83.11h0Z"/>
      </g>
      <path id="path5590" class="cls-21" d="m678.41,246.47c-10.39-46.61-21.99-80.3-38.47-90.69,6.83,3.84,19.94,7.02,36.31,79.55l2.15,11.14h0Z"/>
      <path id="path5594" class="cls-4" d="m738.78,245.35c-15.54-51.29-31.63-88.17-52.23-98.65,8.52,3.84,24.43,6.65,48.95,86.48l3.28,12.17h0Z"/>
      <path id="path5663" class="cls-11" d="m604.38,238.05c-5.8-1.5-16.94,17.5-16.94,17.5,1.03,3.18,8.61,5.24,12.82,4.31,0,0,9.83-20.31,4.12-21.81h0Z"/>
      <path id="path5722" class="cls-28" d="m588.94,248.72c-23.12,6.83,28.17,39.31,49.79,45.58,44.08,12.82,72.72,16.38,135.52-24.24,25.36-22.37-18.25-23.68-75.9-20.03-97.43-5.15-104.64-19.75-109.41-1.31Z"/>
      <path id="path5667" class="cls-10" d="m614.12,244.97c-4.96-1.5-13.66,20.5-13.66,20.5,0,0,2.81,4.49,7.67,5.9,4.96,1.5,12.07-.09,12.07-.09,0,0-1.12-24.9-6.08-26.3h0Z"/>
      <g id="g5770">
        <path id="path5740" class="cls-30" d="m588.94,250.59c-23.12,6.83,28.17,39.31,49.79,45.58,44.08,12.82,72.72,16.38,135.52-24.24,12.64-11.23,8.14-17.13-6.83-19.84"/>
        <path id="path5750" class="cls-29" d="m588.94,250.59c-23.12,6.83,28.17,39.31,49.79,45.58,44.08,12.82,72.72,16.38,135.52-24.24,12.64-11.23,8.14-17.13-6.83-19.84"/>
      </g>
    </g>
  </g>
  <g>
    <path class="cls-25" d="m854.53,454.44v9.01c0,7.94-19.78,14.42-44.16,14.42s-44.16-6.48-44.16-14.42v-9.01c0-7.94,19.78-14.42,44.16-14.42s44.16,6.48,44.16,14.42Zm0,20.28v20.28c0,7.94-19.78,14.42-44.16,14.42s-44.16-6.48-44.16-14.42v-20.28c9.49,6.53,26.85,9.57,44.16,9.57s34.67-3.04,44.16-9.57Zm0,31.54v20.28c0,7.94-19.78,14.42-44.16,14.42s-44.16-6.48-44.16-14.42v-20.28c9.49,6.53,26.85,9.57,44.16,9.57s34.67-3.04,44.16-9.57Z"/>
    <g>
      <path class="cls-24" d="m740.99,576.18v-21h9.69c1.38,0,2.58.26,3.6.78,1.02.52,1.82,1.25,2.4,2.21s.87,2.05.87,3.31-.29,2.3-.87,3.23-1.38,1.67-2.42,2.21-2.22.81-3.58.81h-6.54v8.46h-3.15Zm3.15-11.13h6.24c1.22,0,2.19-.32,2.91-.96.72-.64,1.08-1.51,1.08-2.61s-.36-1.94-1.08-2.58c-.72-.64-1.69-.96-2.91-.96h-6.24v7.11Z"/>
      <path class="cls-24" d="m766.04,576.48c-1.18,0-2.22-.25-3.12-.75-.9-.5-1.6-1.2-2.11-2.11-.51-.91-.77-1.95-.77-3.11v-9.6h3v9.09c0,1.18.35,2.12,1.04,2.82.69.7,1.62,1.05,2.78,1.05.8,0,1.52-.17,2.17-.53.65-.35,1.17-.84,1.58-1.48v-10.95h3v15.27h-3v-1.56c-1.18,1.24-2.7,1.86-4.56,1.86Z"/>
      <path class="cls-24" d="m777.14,582.3v-21.39h2.97v1.47c1.3-1.14,2.86-1.71,4.68-1.71,1.44,0,2.75.35,3.92,1.05,1.17.7,2.09,1.65,2.78,2.83.68,1.19,1.02,2.52,1.02,3.98s-.34,2.82-1.02,4c-.68,1.19-1.61,2.13-2.79,2.83-1.18.7-2.51,1.05-3.99,1.05-.84,0-1.65-.13-2.42-.39-.77-.26-1.49-.64-2.15-1.14v7.41h-3Zm7.26-8.49c.98,0,1.85-.22,2.62-.67.77-.45,1.38-1.07,1.84-1.88.46-.8.69-1.7.69-2.7s-.23-1.9-.69-2.7-1.08-1.44-1.84-1.91c-.77-.47-1.65-.71-2.62-.71-.86,0-1.66.17-2.4.5s-1.36.79-1.86,1.37v6.9c.5.54,1.12.98,1.88,1.3.75.33,1.55.5,2.39.5Z"/>
      <path class="cls-24" d="m795.35,582.3v-21.39h2.97v1.47c1.3-1.14,2.86-1.71,4.68-1.71,1.44,0,2.75.35,3.92,1.05,1.17.7,2.09,1.65,2.78,2.83.68,1.19,1.02,2.52,1.02,3.98s-.34,2.82-1.02,4c-.68,1.19-1.61,2.13-2.79,2.83-1.18.7-2.51,1.05-3.99,1.05-.84,0-1.65-.13-2.42-.39-.77-.26-1.49-.64-2.15-1.14v7.41h-3Zm7.26-8.49c.98,0,1.85-.22,2.62-.67.77-.45,1.38-1.07,1.84-1.88.46-.8.69-1.7.69-2.7s-.23-1.9-.69-2.7-1.08-1.44-1.84-1.91c-.77-.47-1.65-.71-2.62-.71-.86,0-1.66.17-2.4.5s-1.36.79-1.86,1.37v6.9c.5.54,1.12.98,1.88,1.3.75.33,1.55.5,2.39.5Z"/>
      <path class="cls-24" d="m820.88,576.45c-1.5,0-2.86-.35-4.06-1.04-1.21-.69-2.18-1.64-2.9-2.85-.72-1.21-1.08-2.55-1.08-4.03s.34-2.81,1.04-3.99c.69-1.18,1.62-2.12,2.78-2.83,1.16-.71,2.46-1.07,3.9-1.07s2.66.36,3.77,1.07c1.11.71,1.99,1.67,2.64,2.88.65,1.21.97,2.58.97,4.09v.81h-12.06c.14.86.44,1.62.92,2.26.47.65,1.07,1.17,1.8,1.56.73.39,1.54.59,2.42.59.76,0,1.48-.12,2.16-.36.68-.24,1.25-.56,1.71-.96l1.89,1.86c-.88.68-1.79,1.19-2.75,1.52s-1.99.5-3.13.5Zm-4.98-9.21h9.06c-.14-.78-.42-1.47-.85-2.08-.43-.61-.96-1.09-1.58-1.44-.62-.35-1.31-.53-2.07-.53s-1.46.18-2.1.53c-.64.35-1.18.83-1.61,1.42-.43.6-.71,1.3-.85,2.1Z"/>
      <path class="cls-24" d="m836.81,576.45c-1.46,0-2.58-.34-3.36-1.02-.78-.68-1.17-1.69-1.17-3.03v-8.97h-3.24v-2.52h3.24v-3.87l2.97-.75v4.62h4.53v2.52h-4.53v8.31c0,.76.17,1.3.53,1.63.35.33.92.5,1.72.5.42,0,.79-.03,1.12-.09.33-.06.69-.16,1.07-.3v2.55c-.4.14-.87.24-1.4.31s-1.02.11-1.48.11Z"/>
      <path class="cls-24" d="m842.36,576.18v-21h7.38c1.6,0,3.06.26,4.39.78,1.33.52,2.5,1.25,3.5,2.21s1.78,2.07,2.34,3.34c.56,1.28.84,2.67.84,4.17s-.28,2.92-.84,4.19c-.56,1.27-1.33,2.38-2.32,3.33-.99.95-2.16,1.68-3.5,2.21-1.34.52-2.81.78-4.41.78h-7.38Zm3.15-2.82h4.29c1.1,0,2.12-.19,3.06-.57.94-.38,1.76-.92,2.47-1.62s1.26-1.51,1.65-2.45c.39-.93.58-1.93.58-3.01s-.2-2.12-.6-3.06c-.4-.94-.95-1.76-1.65-2.45-.7-.69-1.52-1.23-2.46-1.62-.94-.39-1.97-.58-3.09-.58h-4.26v15.36Z"/>
      <path class="cls-24" d="m864.17,576.18v-21h9.06c1.4,0,2.61.23,3.62.69s1.8,1.11,2.37,1.93c.57.83.85,1.81.85,2.92,0,1-.27,1.9-.81,2.7-.54.8-1.26,1.41-2.16,1.83,1.16.44,2.08,1.08,2.75,1.94.67.85,1,1.84,1,2.98,0,1.2-.29,2.26-.88,3.17-.59.91-1.43,1.61-2.52,2.1s-2.37.73-3.82.73h-9.45Zm3.15-12.09h5.7c1.2,0,2.16-.28,2.87-.84.71-.56,1.07-1.32,1.07-2.28s-.36-1.72-1.07-2.28c-.71-.56-1.67-.84-2.87-.84h-5.7v6.24Zm0,9.42h6.06c1.3,0,2.34-.31,3.12-.93.78-.62,1.17-1.46,1.17-2.52s-.39-1.88-1.17-2.5c-.78-.63-1.82-.94-3.12-.94h-6.06v6.9Z"/>
    </g>
    <rect class="cls-34" x="721.94" y="419.22" width="176.86" height="176.86" rx="8.52" ry="8.52"/>
  </g>
  <g>
    <path class="cls-25" d="m207.66,722.51c-.72-.72-1.57-1.07-2.53-1.07h-93.71c-.99,0-1.81.35-2.53,1.07-.72.72-1.07,1.57-1.07,2.53v11.7c0,.99.35,1.81,1.05,2.54.72.72,1.55,1.07,2.53,1.07h93.73c.99,0,1.81-.35,2.53-1.07.72-.72,1.07-1.55,1.07-2.53v-11.71c0-.99-.35-1.81-1.07-2.53Zm-87.24,11.54h-6.31v-6.31h6.31v6.31Zm12.62,0h-6.31v-6.31h6.31v6.31Zm12.62,0h-6.31v-6.31h6.31v6.31Zm12.62,0h-6.31v-6.31h6.31v6.31Zm44.16,0h-6.31v-6.31h6.31v6.31Zm-94.62-19.99c0-.91.12-1.03.95-1.84,0,0,13.95-13.82,14.98-15.03,1.04-1.21,2.36-.97,2.36-.97h64.57s1.16-.14,2.22,1.01c1.03,1.14,14.82,14.98,14.82,14.98.83.83,1.03.96,1.03,1.85,0,.95-1.15,1.06-2.3,1.06h-96.45c-1.11,0-2.18-.16-2.18-1.07Zm99.85,58.91c-.72-.72-1.57-1.07-2.53-1.07h-93.71c-.99,0-1.81.35-2.53,1.07-.72.72-1.07,1.57-1.07,2.53v11.7c0,.99.35,1.81,1.05,2.54.72.72,1.55,1.07,2.53,1.07h93.73c.99,0,1.81-.35,2.53-1.07.72-.72,1.07-1.55,1.07-2.53v-11.71c0-.99-.35-1.81-1.07-2.53Zm-87.24,11.54h-6.31v-6.31h6.31v6.31Zm12.62,0h-6.31v-6.31h6.31v6.31Zm12.62,0h-6.31v-6.31h6.31v6.31Zm12.62,0h-6.31v-6.31h6.31v6.31Zm44.16,0h-6.31v-6.31h6.31v6.31Zm5.23-36.77c-.72-.72-1.57-1.07-2.53-1.07h-93.71c-.99,0-1.81.35-2.53,1.07-.72.72-1.07,1.57-1.07,2.53v11.7c0,.99.35,1.81,1.05,2.54.72.72,1.55,1.07,2.53,1.07h93.73c.99,0,1.81-.35,2.53-1.07.72-.72,1.07-1.55,1.07-2.53v-11.71c0-.99-.35-1.81-1.07-2.53Zm-87.24,11.54h-6.31v-6.31h6.31v6.31Zm12.62,0h-6.31v-6.31h6.31v6.31Zm12.62,0h-6.31v-6.31h6.31v6.31Zm12.62,0h-6.31v-6.31h6.31v6.31Zm44.16,0h-6.31v-6.31h6.31v6.31Z"/>
    <g>
      <path class="cls-24" d="m83.29,828.12c-1.68,0-3.3-.32-4.86-.97-1.56-.65-2.94-1.58-4.14-2.81l1.92-2.22c1.14,1.12,2.3,1.95,3.5,2.49,1.19.54,2.45.81,3.76.81,1,0,1.88-.15,2.64-.45.76-.3,1.35-.71,1.79-1.25.43-.53.64-1.13.64-1.82,0-.94-.33-1.67-.99-2.17s-1.75-.88-3.27-1.12l-3.48-.6c-1.94-.32-3.38-.93-4.33-1.83-.95-.9-1.42-2.1-1.42-3.6,0-1.2.32-2.26.96-3.18.64-.92,1.54-1.63,2.71-2.13s2.52-.75,4.07-.75,3.01.25,4.48.75c1.47.5,2.79,1.2,3.98,2.1l-1.74,2.43c-2.26-1.72-4.55-2.58-6.87-2.58-.92,0-1.72.13-2.42.39-.69.26-1.22.62-1.59,1.09-.37.47-.55,1.03-.55,1.67,0,.82.29,1.46.87,1.92.58.46,1.53.8,2.85,1.02l3.42.54c2.22.36,3.85,1.01,4.89,1.95,1.04.94,1.56,2.23,1.56,3.87,0,1.28-.34,2.41-1.04,3.39s-1.67,1.74-2.94,2.26c-1.27.53-2.73.79-4.39.79Z"/>
      <path class="cls-24" d="m94.21,827.82v-15.27h3v1.44c1.14-1.16,2.57-1.74,4.29-1.74,1.04,0,1.97.23,2.79.69.82.46,1.46,1.09,1.92,1.89.62-.86,1.36-1.5,2.23-1.93s1.85-.65,2.93-.65c1.14,0,2.13.25,2.98.75.85.5,1.52,1.2,2,2.08.48.89.72,1.94.72,3.14v9.6h-2.97v-9.09c0-1.2-.31-2.15-.95-2.83-.63-.69-1.47-1.04-2.53-1.04-.76,0-1.44.17-2.04.53-.6.35-1.12.87-1.56,1.54.04.2.07.41.09.63s.03.44.03.66v9.6h-2.97v-9.09c0-1.2-.32-2.15-.96-2.83-.64-.69-1.48-1.04-2.52-1.04-.74,0-1.4.16-1.98.46-.58.31-1.08.78-1.5,1.4v11.1h-3Z"/>
      <path class="cls-24" d="m125.41,828.09c-1.12,0-2.1-.19-2.94-.58-.84-.39-1.5-.93-1.98-1.63-.48-.7-.72-1.51-.72-2.43,0-1.44.55-2.57,1.67-3.39s2.61-1.23,4.51-1.23c1.5,0,2.88.27,4.14.81v-1.59c0-1.1-.31-1.92-.93-2.46s-1.54-.81-2.76-.81c-.7,0-1.42.1-2.17.31s-1.6.54-2.54.98l-1.14-2.25c1.14-.54,2.21-.93,3.22-1.19,1.01-.25,2.03-.38,3.04-.38,1.98,0,3.51.47,4.61,1.41,1.09.94,1.63,2.28,1.63,4.02v10.14h-2.97v-1.32c-.66.54-1.38.94-2.16,1.2s-1.62.39-2.52.39Zm-2.79-4.74c0,.76.32,1.37.96,1.83.64.46,1.47.69,2.49.69.8,0,1.54-.12,2.22-.36.68-.24,1.28-.61,1.8-1.11v-2.58c-.56-.32-1.16-.56-1.8-.72-.64-.16-1.33-.24-2.07-.24-1.12,0-2,.23-2.64.69-.64.46-.96,1.06-.96,1.8Z"/>
      <path class="cls-24" d="m136.51,827.82v-15.3h3v1.98c.48-.72,1.07-1.28,1.79-1.68.71-.4,1.51-.6,2.42-.6.62,0,1.13.08,1.53.24v2.7c-.28-.12-.57-.21-.87-.25-.3-.05-.61-.08-.93-.08-.86,0-1.63.24-2.31.71-.68.47-1.22,1.16-1.62,2.05v10.23h-3Z"/>
      <path class="cls-24" d="m154.15,828.09c-1.46,0-2.58-.34-3.36-1.02s-1.17-1.69-1.17-3.03v-8.97h-3.24v-2.52h3.24v-3.87l2.97-.75v4.62h4.53v2.52h-4.53v8.31c0,.76.17,1.31.53,1.64.35.33.92.5,1.72.5.42,0,.79-.03,1.12-.09.33-.06.68-.16,1.07-.3v2.55c-.4.14-.87.25-1.4.32-.53.07-1.03.1-1.49.1Z"/>
      <path class="cls-24" d="m165.97,827.82v-21h9.69c1.38,0,2.58.26,3.6.78s1.82,1.25,2.4,2.21.87,2.05.87,3.31-.29,2.29-.87,3.23c-.58.93-1.38,1.67-2.42,2.21-1.03.54-2.22.81-3.58.81h-6.54v8.46h-3.15Zm3.15-11.13h6.24c1.22,0,2.19-.32,2.91-.96.72-.64,1.08-1.51,1.08-2.61s-.36-1.94-1.08-2.58c-.72-.64-1.69-.96-2.91-.96h-6.24v7.11Z"/>
      <path class="cls-24" d="m185.29,827.82v-15.3h3v1.98c.48-.72,1.08-1.28,1.79-1.68.71-.4,1.52-.6,2.42-.6.62,0,1.13.08,1.53.24v2.7c-.28-.12-.57-.21-.87-.25s-.61-.08-.93-.08c-.86,0-1.63.24-2.31.71-.68.47-1.22,1.16-1.62,2.05v10.23h-3Z"/>
      <path class="cls-24" d="m202.81,828.12c-1.48,0-2.83-.34-4.04-1.04-1.21-.69-2.17-1.64-2.88-2.85-.71-1.21-1.07-2.55-1.07-4.04s.35-2.84,1.05-4.04c.7-1.19,1.66-2.14,2.88-2.85,1.22-.71,2.57-1.07,4.05-1.07s2.82.36,4.04,1.07c1.21.71,2.16,1.66,2.86,2.85.7,1.19,1.05,2.54,1.05,4.04s-.35,2.83-1.05,4.04-1.66,2.16-2.86,2.85c-1.21.69-2.56,1.04-4.04,1.04Zm0-2.64c.94,0,1.79-.24,2.55-.71.76-.47,1.36-1.1,1.8-1.91.44-.8.66-1.7.66-2.7s-.22-1.86-.66-2.65c-.44-.79-1.04-1.43-1.8-1.91-.76-.48-1.61-.72-2.55-.72s-1.77.24-2.54.72c-.77.48-1.38,1.12-1.82,1.91-.44.79-.66,1.67-.66,2.65s.22,1.9.66,2.7c.44.8,1.04,1.44,1.82,1.91.77.47,1.61.71,2.54.71Z"/>
      <path class="cls-24" d="m210.55,827.82l5.94-7.83-5.7-7.44h3.54l3.93,5.22,3.9-5.22h3.39l-5.64,7.41,6,7.86h-3.51l-4.2-5.64-4.26,5.64h-3.39Z"/>
      <path class="cls-24" d="m228.85,834.24c-.3,0-.59-.01-.87-.04s-.51-.06-.69-.08v-2.67c.36.08.8.12,1.32.12,1.38,0,2.4-.75,3.06-2.25l.63-1.44-6.12-15.33h3.3l4.47,11.61,4.92-11.61h3.24l-7.38,17.16c-.48,1.1-1,1.98-1.54,2.64s-1.17,1.14-1.86,1.44c-.69.3-1.52.45-2.48.45Z"/>
    </g>
    <rect class="cls-34" x="35.07" y="670.85" width="245.89" height="176.86" rx="15.77" ry="15.77"/>
  </g>
  <g>
    <path class="cls-37" d="m645.86,371.18l-10.64-10.64-10.64,10.64"/>
    <line class="cls-33" x1="635.19" y1="654.76" x2="635.19" y2="371.18"/>
  </g>
  <g>
    <g>
      <path class="cls-24" d="m1432.05,827.82v-21h3.15v9h11.13v-9h3.15v21h-3.15v-9.15h-11.13v9.15h-3.15Z"/>
      <path class="cls-24" d="m1460.67,828.12c-1.48,0-2.83-.34-4.03-1.04-1.21-.69-2.17-1.64-2.88-2.85s-1.06-2.55-1.06-4.04.35-2.84,1.05-4.04c.7-1.19,1.66-2.14,2.88-2.85,1.22-.71,2.57-1.07,4.05-1.07s2.83.36,4.04,1.07,2.17,1.66,2.87,2.85c.7,1.19,1.05,2.54,1.05,4.04s-.35,2.83-1.05,4.04-1.66,2.16-2.87,2.85c-1.21.69-2.56,1.04-4.04,1.04Zm0-2.64c.94,0,1.79-.24,2.55-.71s1.36-1.1,1.8-1.91c.44-.8.66-1.7.66-2.7s-.22-1.86-.66-2.65c-.44-.79-1.04-1.43-1.8-1.91-.76-.48-1.61-.72-2.55-.72s-1.76.24-2.53.72c-.77.48-1.38,1.12-1.82,1.91-.44.79-.66,1.67-.66,2.65s.22,1.9.66,2.7c.44.8,1.04,1.44,1.82,1.91.77.47,1.61.71,2.53.71Z"/>
      <path class="cls-24" d="m1476.72,828.12c-1.32,0-2.55-.19-3.71-.58-1.15-.39-2.14-.96-2.98-1.7l1.62-1.98c.8.64,1.61,1.12,2.44,1.44.83.32,1.68.48,2.54.48,1.08,0,1.96-.21,2.64-.62.68-.41,1.02-.95,1.02-1.63,0-.56-.2-1-.6-1.32-.4-.32-1.02-.54-1.86-.66l-2.76-.39c-1.54-.22-2.68-.69-3.43-1.41-.75-.72-1.12-1.68-1.12-2.88,0-.9.25-1.7.75-2.4.5-.7,1.2-1.24,2.1-1.62s1.94-.57,3.12-.57,2.19.16,3.21.46c1.02.31,2,.81,2.94,1.49l-1.5,1.98c-.86-.56-1.68-.97-2.46-1.23-.78-.26-1.58-.39-2.4-.39-.92,0-1.66.2-2.22.59-.56.39-.84.89-.84,1.51,0,.58.2,1.02.6,1.3.4.29,1.03.51,1.89.65l2.79.42c1.52.2,2.67.66,3.45,1.38.78.72,1.17,1.68,1.17,2.88,0,.9-.29,1.71-.86,2.45-.57.73-1.33,1.3-2.28,1.72-.95.42-2.04.63-3.26.63Z"/>
      <path class="cls-24" d="m1491.63,828.09c-1.46,0-2.58-.34-3.36-1.02s-1.17-1.69-1.17-3.03v-8.97h-3.24v-2.52h3.24v-3.87l2.97-.75v4.62h4.53v2.52h-4.53v8.31c0,.76.17,1.31.53,1.64.35.33.92.5,1.72.5.42,0,.79-.03,1.12-.09.33-.06.69-.16,1.07-.3v2.55c-.4.14-.87.25-1.4.32-.53.07-1.02.1-1.48.1Z"/>
    </g>
    <rect class="cls-34" x="1339.41" y="670.85" width="245.89" height="176.86" rx="15.77" ry="15.77"/>
    <g>
      <path class="cls-25" d="m1509.46,761.97h-93.71c-.99,0-1.81.51-2.53,1.53-.72,1.03-1.07,2.24-1.07,3.61v16.69c0,1.41.35,2.59,1.05,3.63.72,1.03,1.55,1.53,2.53,1.53h93.73c.99,0,1.81-.51,2.53-1.53.72-1.03,1.07-2.21,1.07-3.61v-16.71c0-1.41-.35-2.59-1.07-3.61-.72-1.03-1.57-1.53-2.53-1.53Z"/>
      <path class="cls-25" d="m1511.98,729.97c-.72-1.03-1.56-1.53-2.53-1.53h-93.71c-.99,0-1.82.5-2.53,1.53-.72,1.03-1.08,2.24-1.08,3.62v16.69c0,1.4.36,2.58,1.06,3.63.72,1.02,1.54,1.53,2.53,1.53h93.73c.99,0,1.81-.51,2.53-1.53.72-1.03,1.08-2.21,1.08-3.62v-16.7c0-1.41-.36-2.59-1.08-3.62Zm-27.19,16.58c-2.55,0-4.61-2.06-4.61-4.61s2.06-4.61,4.61-4.61,4.61,2.06,4.61,4.61-2.06,4.61-4.61,4.61Zm13.78,0c-2.55,0-4.61-2.06-4.61-4.61s2.06-4.61,4.61-4.61,4.61,2.06,4.61,4.61-2.07,4.61-4.61,4.61Z"/>
      <path class="cls-25" d="m1513.06,714.06c0-.89-.21-1.02-1.03-1.85,0,0-13.79-13.84-14.82-14.98-1.05-1.14-2.22-1.01-2.22-1.01h-64.57s-1.32-.25-2.36.97c-1.04,1.21-14.98,15.03-14.98,15.03-.83.81-.95.94-.95,1.84v3.73c0,2.21,1.79,4,4,4h92.93c2.21,0,4-1.79,4-4v-3.73h0Z"/>
    </g>
  </g>
  <g>
    <line class="cls-35" x1="984.79" y1="654.76" x2="984.79" y2="654.76"/>
    <line class="cls-32" x1="984.79" y1="640.99" x2="984.79" y2="537.7"/>
    <line class="cls-35" x1="984.79" y1="530.82" x2="984.79" y2="530.82"/>
    <line class="cls-36" x1="969.7" y1="530.82" x2="931.99" y2="530.82"/>
    <line class="cls-35" x1="924.45" y1="530.82" x2="924.45" y2="530.82"/>
  </g>
  <path class="cls-37" d="m924.45,541.48l-10.64-10.64,10.64-10.64"/>
  <g>
    <line class="cls-35" x1="984.79" y1="360.54" x2="984.79" y2="360.54"/>
    <line class="cls-32" x1="984.79" y1="374.31" x2="984.79" y2="477.6"/>
    <line class="cls-35" x1="984.79" y1="484.48" x2="984.79" y2="484.48"/>
    <line class="cls-36" x1="969.7" y1="484.48" x2="931.99" y2="484.48"/>
    <line class="cls-35" x1="924.45" y1="484.48" x2="924.45" y2="484.48"/>
  </g>
  <path class="cls-37" d="m924.45,473.82l-10.64,10.64,10.64,10.64"/>
  <g>
    <path class="cls-37" d="m558.75,745.44l10.64-10.64-10.64-10.64"/>
    <line class="cls-33" x1="295.92" y1="734.77" x2="558.75" y2="734.77"/>
    <path class="cls-37" d="m306.56,773.29l-10.64,10.64,10.64,10.64"/>
    <line class="cls-33" x1="569.39" y1="783.95" x2="306.56" y2="783.95"/>
    <g>
      <path class="cls-24" d="m396.77,725.25c-.76,0-1.47-.14-2.12-.42-.66-.28-1.22-.67-1.71-1.16-.49-.49-.87-1.07-1.14-1.72-.28-.65-.41-1.36-.41-2.11s.14-1.45.41-2.11c.27-.66.65-1.23,1.14-1.72.49-.5,1.05-.88,1.71-1.16.66-.28,1.36-.42,2.12-.42.52,0,1.02.06,1.51.18s.94.3,1.37.54c.43.24.82.54,1.17.9l-.45.53c-.43-.47-.97-.84-1.61-1.1-.65-.27-1.31-.4-1.99-.4s-1.29.12-1.85.37c-.57.25-1.06.58-1.49,1.02-.42.44-.75.94-.99,1.52s-.35,1.2-.35,1.87.12,1.29.35,1.87c.24.58.57,1.08.99,1.52.42.43.92.77,1.49,1.02.56.25,1.18.37,1.85.37s1.34-.13,1.99-.4c.64-.27,1.18-.63,1.61-1.1l.45.53c-.35.36-.74.66-1.17.9-.43.24-.89.42-1.37.54s-.99.18-1.51.18Z"/>
      <path class="cls-24" d="m405.57,725.23c-.68,0-1.3-.17-1.86-.51-.56-.34-1-.8-1.33-1.38-.32-.58-.49-1.23-.49-1.95s.16-1.37.47-1.95.75-1.04,1.3-1.38c.55-.34,1.16-.51,1.84-.51.64,0,1.21.17,1.71.51s.9.79,1.19,1.36c.29.56.44,1.19.44,1.88v.27h-6.29c.03.57.18,1.08.45,1.54.27.46.63.82,1.07,1.09.45.27.94.4,1.48.4.42,0,.83-.07,1.25-.2s.76-.32,1.05-.55l.39.53c-.4.29-.83.5-1.28.65-.45.14-.92.21-1.41.21Zm-2.97-4.29h5.55c-.05-.51-.19-.97-.43-1.39s-.55-.75-.93-1c-.38-.25-.81-.38-1.29-.38-.51,0-.97.12-1.39.36s-.75.57-1.02.98c-.26.42-.43.89-.49,1.42Z"/>
      <path class="cls-24" d="m410.49,725.07v-7.38h.66v1.17c.21-.41.5-.73.86-.97s.78-.35,1.24-.35c.2,0,.42.02.65.06v.68c-.11-.04-.22-.07-.33-.08-.11-.01-.22-.02-.32-.02-.49,0-.91.15-1.27.44-.35.29-.63.72-.83,1.28v5.18h-.66Z"/>
      <path class="cls-24" d="m417.84,725.23c-.56,0-.99-.14-1.29-.42-.3-.28-.45-.67-.45-1.17v-5.34h-1.62v-.6h1.62v-1.86l.66-.21v2.07h2.28v.6h-2.28v5.12c0,.42.09.72.28.91.18.19.49.28.92.28.23,0,.42-.02.58-.05.16-.04.32-.09.5-.16v.65c-.19.07-.39.12-.58.15-.2.03-.41.04-.62.04Z"/>
      <path class="cls-24" d="m420.65,716.04c-.16,0-.29-.05-.4-.17-.11-.11-.17-.25-.17-.41s.05-.29.17-.4c.11-.11.24-.17.4-.17.17,0,.31.05.41.17.1.11.16.25.16.4s-.05.29-.16.41c-.11.11-.24.17-.41.17Zm-.33,9.04v-7.38h.66v7.38h-.66Z"/>
      <path class="cls-24" d="m424.02,725.08v-6.78h-1.77v-.6h1.77v-1.63c0-.67.17-1.19.52-1.54.35-.36.86-.54,1.52-.54.19,0,.35,0,.49.03.13.02.27.06.41.11v.64c-.17-.05-.32-.09-.46-.11-.14-.02-.29-.04-.46-.04-.46,0-.8.12-1.03.34-.22.23-.34.61-.34,1.12v1.62h2.28v.6h-2.28v6.78h-.66Z"/>
      <path class="cls-24" d="m428.57,716.04c-.16,0-.29-.05-.4-.17-.11-.11-.17-.25-.17-.41s.05-.29.17-.4c.11-.11.24-.17.4-.17.17,0,.31.05.41.17.1.11.16.25.16.4s-.05.29-.16.41c-.11.11-.24.17-.41.17Zm-.33,9.04v-7.38h.66v7.38h-.66Z"/>
      <path class="cls-24" d="m434.27,725.23c-.68,0-1.3-.17-1.86-.51-.56-.34-1-.8-1.33-1.38-.32-.58-.49-1.23-.49-1.95s.16-1.37.49-1.95c.33-.58.77-1.04,1.33-1.38.56-.34,1.18-.51,1.86-.51.5,0,1,.1,1.51.3.5.2.95.48,1.33.83l-.45.54c-.32-.32-.69-.57-1.1-.76-.42-.19-.84-.28-1.28-.28-.56,0-1.07.14-1.52.43s-.81.67-1.08,1.16c-.26.49-.4,1.03-.4,1.63s.13,1.14.4,1.63c.27.49.62.87,1.08,1.16s.96.43,1.52.43c.44,0,.87-.09,1.28-.28.41-.19.78-.44,1.1-.75l.45.54c-.38.35-.82.62-1.33.82-.5.2-1.01.3-1.51.3Z"/>
      <path class="cls-24" d="m440.72,725.23c-.54,0-1.02-.09-1.42-.28-.41-.18-.73-.44-.96-.78-.23-.33-.35-.72-.35-1.16,0-.68.26-1.23.79-1.64.53-.41,1.24-.62,2.12-.62s1.66.21,2.34.64v-1.23c0-.68-.18-1.19-.55-1.52s-.9-.5-1.59-.5c-.34,0-.7.06-1.07.17-.37.11-.79.29-1.27.54l-.29-.58c.47-.24.92-.42,1.35-.53s.86-.17,1.29-.17c.89,0,1.58.21,2.06.64s.73,1.04.73,1.85v5.04h-.66v-.83c-.34.31-.72.55-1.14.72s-.88.26-1.38.26Zm-2.07-2.24c0,.48.2.88.6,1.18.4.31.91.47,1.52.47.53,0,1-.09,1.39-.28.4-.18.76-.45,1.08-.79v-1.53c-.33-.25-.69-.43-1.08-.55-.39-.12-.83-.18-1.33-.18-.65,0-1.17.16-1.58.46-.4.31-.6.71-.6,1.21Z"/>
      <path class="cls-24" d="m448.2,725.23c-.56,0-.99-.14-1.29-.42-.3-.28-.45-.67-.45-1.17v-5.34h-1.62v-.6h1.62v-1.86l.66-.21v2.07h2.28v.6h-2.28v5.12c0,.42.09.72.28.91.18.19.49.28.92.28.23,0,.42-.02.58-.05.16-.04.32-.09.5-.16v.65c-.19.07-.39.12-.58.15-.2.03-.41.04-.62.04Z"/>
      <path class="cls-24" d="m453.71,725.23c-.68,0-1.3-.17-1.86-.51-.56-.34-1-.8-1.33-1.38-.32-.58-.49-1.23-.49-1.95s.16-1.37.47-1.95.75-1.04,1.3-1.38c.55-.34,1.16-.51,1.84-.51.64,0,1.21.17,1.71.51s.9.79,1.19,1.36c.29.56.44,1.19.44,1.88v.27h-6.29c.03.57.18,1.08.45,1.54.27.46.63.82,1.07,1.09.45.27.94.4,1.48.4.42,0,.83-.07,1.25-.2s.76-.32,1.05-.55l.39.53c-.4.29-.83.5-1.28.65-.45.14-.92.21-1.41.21Zm-2.97-4.29h5.55c-.05-.51-.19-.97-.43-1.39s-.55-.75-.93-1c-.38-.25-.81-.38-1.29-.38-.51,0-.97.12-1.39.36s-.75.57-1.02.98c-.26.42-.43.89-.49,1.42Z"/>
      <path class="cls-24" d="m460.79,725.23c-.57,0-1.11-.1-1.63-.31-.51-.21-.95-.5-1.3-.89l.51-.42c.3.31.66.55,1.09.73.42.18.87.27,1.33.27.68,0,1.23-.15,1.64-.44s.62-.68.62-1.15c0-.35-.12-.64-.38-.87-.25-.23-.66-.38-1.21-.45l-1.21-.15c-.7-.08-1.23-.28-1.6-.61s-.55-.77-.55-1.32c0-.41.11-.77.33-1.08.22-.31.53-.55.92-.73.39-.17.85-.26,1.37-.26s.98.08,1.44.23c.46.15.92.39,1.39.73l-.39.54c-.42-.3-.82-.52-1.21-.67-.39-.15-.79-.22-1.22-.22-.58,0-1.06.12-1.42.37-.37.25-.56.61-.56,1.09,0,.36.12.65.37.87.24.22.64.37,1.19.43l1.2.15c.74.09,1.29.3,1.65.64.36.34.54.78.54,1.31,0,.42-.12.8-.38,1.13-.25.34-.59.6-1.03.79-.44.19-.94.29-1.52.29Z"/>
    </g>
    <g>
      <path class="cls-24" d="m417.79,771.4v-10.5h.69v10.5h-.69Z"/>
      <path class="cls-24" d="m420.75,771.4v-7.38h.66v.96c.57-.74,1.33-1.11,2.28-1.11.53,0,1,.13,1.42.4.42.27.74.62.96,1.07.31-.48.68-.85,1.1-1.1s.91-.38,1.46-.38,1,.12,1.39.35c.4.24.71.57.94.99.23.42.34.92.34,1.48v4.71h-.66v-4.53c0-.74-.19-1.32-.57-1.75s-.91-.64-1.59-.64c-.49,0-.92.13-1.29.38s-.68.6-.93,1.04c.03.13.05.26.07.38s.02.26.02.4v4.71h-.66v-4.53c0-.74-.19-1.32-.57-1.75-.38-.42-.91-.64-1.59-.64-.46,0-.87.11-1.22.34-.36.22-.66.54-.91.95v5.62h-.66Z"/>
      <path class="cls-24" d="m433.32,774.46v-10.44h.66v.88c.67-.69,1.52-1.04,2.54-1.04.69,0,1.31.16,1.87.5.56.34,1,.81,1.32,1.39s.49,1.23.49,1.95-.16,1.36-.49,1.94-.76,1.05-1.32,1.39c-.55.34-1.18.51-1.87.51-.47,0-.92-.09-1.36-.28-.43-.18-.83-.43-1.18-.74v3.93h-.66Zm3.2-3.54c.56,0,1.07-.14,1.52-.43s.82-.67,1.08-1.16.4-1.03.4-1.63-.13-1.14-.4-1.63-.62-.87-1.08-1.16-.96-.43-1.52-.43-1.05.11-1.49.34c-.45.22-.79.52-1.04.89v3.96c.26.35.62.64,1.07.88.45.23.94.35,1.47.35Z"/>
      <path class="cls-24" d="m445.21,771.55c-.68,0-1.3-.17-1.86-.51-.56-.34-1-.8-1.33-1.39-.32-.58-.49-1.23-.49-1.94s.16-1.37.49-1.95c.33-.58.77-1.04,1.33-1.38.56-.34,1.18-.51,1.86-.51s1.31.17,1.87.51c.55.34,1,.8,1.32,1.38.33.58.49,1.23.49,1.95s-.16,1.36-.49,1.94c-.32.58-.76,1.05-1.32,1.39-.56.34-1.18.51-1.87.51Zm0-.63c.56,0,1.07-.14,1.52-.43s.82-.67,1.08-1.16c.27-.49.4-1.03.4-1.63s-.13-1.14-.4-1.63c-.26-.49-.62-.87-1.08-1.16s-.96-.43-1.52-.43-1.07.14-1.52.43-.81.67-1.08,1.16c-.26.49-.4,1.03-.4,1.63s.13,1.14.4,1.63c.27.49.62.87,1.08,1.16s.96.43,1.52.43Z"/>
      <path class="cls-24" d="m450.6,771.38v-7.38h.66v1.17c.21-.41.5-.73.86-.97s.78-.35,1.24-.35c.2,0,.42.02.65.06v.68c-.11-.04-.22-.07-.33-.08-.11-.01-.22-.02-.32-.02-.49,0-.91.15-1.27.44-.35.29-.63.72-.83,1.28v5.18h-.66Z"/>
      <path class="cls-24" d="m457.95,771.55c-.56,0-.99-.14-1.29-.42-.3-.28-.45-.67-.45-1.17v-5.34h-1.62v-.6h1.62v-1.86l.66-.21v2.07h2.28v.6h-2.28v5.12c0,.42.09.72.28.91.18.19.49.28.92.28.23,0,.42-.02.58-.05.16-.04.32-.09.5-.16v.65c-.19.07-.39.12-.58.15-.2.03-.41.04-.62.04Z"/>
    </g>
  </g>
  <g>
    <path class="cls-37" d="m1313.62,745.44l10.64-10.64-10.64-10.64"/>
    <line class="cls-33" x1="1050.8" y1="734.77" x2="1313.62" y2="734.77"/>
    <path class="cls-37" d="m1061.44,773.29l-10.64,10.64,10.64,10.64"/>
    <line class="cls-33" x1="1324.26" y1="783.95" x2="1061.44" y2="783.95"/>
    <g>
      <path class="cls-24" d="m1151.64,725.25c-.76,0-1.47-.14-2.12-.42-.66-.28-1.22-.67-1.71-1.16-.49-.49-.87-1.07-1.14-1.72-.28-.65-.41-1.36-.41-2.11s.14-1.45.41-2.11c.27-.66.65-1.23,1.14-1.72.49-.5,1.05-.88,1.71-1.16.66-.28,1.36-.42,2.12-.42.52,0,1.02.06,1.51.18s.94.3,1.37.54c.43.24.82.54,1.17.9l-.45.53c-.43-.47-.97-.84-1.61-1.1-.65-.27-1.31-.4-1.99-.4s-1.29.12-1.85.37c-.57.25-1.06.58-1.49,1.02-.42.44-.75.94-.99,1.52s-.35,1.2-.35,1.87.12,1.29.35,1.87c.24.58.57,1.08.99,1.52.42.43.92.77,1.49,1.02.56.25,1.18.37,1.85.37s1.34-.13,1.99-.4c.64-.27,1.18-.63,1.61-1.1l.45.53c-.35.36-.74.66-1.17.9-.43.24-.89.42-1.37.54s-.99.18-1.51.18Z"/>
      <path class="cls-24" d="m1160.45,725.23c-.68,0-1.3-.17-1.86-.51-.56-.34-1-.8-1.33-1.38-.32-.58-.49-1.23-.49-1.95s.16-1.37.47-1.95.75-1.04,1.3-1.38c.55-.34,1.16-.51,1.84-.51.64,0,1.21.17,1.71.51s.9.79,1.19,1.36c.29.56.44,1.19.44,1.88v.27h-6.29c.03.57.18,1.08.45,1.54.27.46.63.82,1.07,1.09.45.27.94.4,1.48.4.42,0,.83-.07,1.25-.2s.76-.32,1.05-.55l.39.53c-.4.29-.83.5-1.28.65-.45.14-.92.21-1.41.21Zm-2.97-4.29h5.55c-.05-.51-.19-.97-.43-1.39s-.55-.75-.93-1c-.38-.25-.81-.38-1.29-.38-.51,0-.97.12-1.39.36s-.75.57-1.02.98c-.26.42-.43.89-.49,1.42Z"/>
      <path class="cls-24" d="m1165.37,725.07v-7.38h.66v1.17c.21-.41.5-.73.86-.97s.78-.35,1.24-.35c.2,0,.42.02.65.06v.68c-.11-.04-.22-.07-.33-.08-.11-.01-.22-.02-.32-.02-.49,0-.91.15-1.27.44-.35.29-.63.72-.83,1.28v5.18h-.66Z"/>
      <path class="cls-24" d="m1172.72,725.23c-.56,0-.99-.14-1.29-.42-.3-.28-.45-.67-.45-1.17v-5.34h-1.62v-.6h1.62v-1.86l.66-.21v2.07h2.28v.6h-2.28v5.12c0,.42.09.72.28.91.18.19.49.28.92.28.23,0,.42-.02.58-.05.16-.04.32-.09.5-.16v.65c-.19.07-.39.12-.58.15-.2.03-.41.04-.62.04Z"/>
      <path class="cls-24" d="m1175.52,716.04c-.16,0-.29-.05-.4-.17-.11-.11-.17-.25-.17-.41s.05-.29.17-.4c.11-.11.24-.17.4-.17.17,0,.31.05.41.17.1.11.16.25.16.4s-.05.29-.16.41c-.11.11-.24.17-.41.17Zm-.33,9.04v-7.38h.66v7.38h-.66Z"/>
      <path class="cls-24" d="m1178.9,725.08v-6.78h-1.77v-.6h1.77v-1.63c0-.67.17-1.19.52-1.54.35-.36.86-.54,1.52-.54.19,0,.35,0,.49.03.13.02.27.06.41.11v.64c-.17-.05-.32-.09-.46-.11-.14-.02-.29-.04-.46-.04-.46,0-.8.12-1.03.34-.22.23-.34.61-.34,1.12v1.62h2.28v.6h-2.28v6.78h-.66Z"/>
      <path class="cls-24" d="m1183.44,716.04c-.16,0-.29-.05-.4-.17-.11-.11-.17-.25-.17-.41s.05-.29.17-.4c.11-.11.24-.17.4-.17.17,0,.31.05.41.17.1.11.16.25.16.4s-.05.29-.16.41c-.11.11-.24.17-.41.17Zm-.33,9.04v-7.38h.66v7.38h-.66Z"/>
      <path class="cls-24" d="m1189.14,725.23c-.68,0-1.3-.17-1.86-.51-.56-.34-1-.8-1.33-1.38-.32-.58-.49-1.23-.49-1.95s.16-1.37.49-1.95c.33-.58.77-1.04,1.33-1.38.56-.34,1.18-.51,1.86-.51.5,0,1,.1,1.51.3.5.2.95.48,1.33.83l-.45.54c-.32-.32-.69-.57-1.1-.76-.42-.19-.84-.28-1.28-.28-.56,0-1.07.14-1.52.43s-.81.67-1.08,1.16c-.26.49-.4,1.03-.4,1.63s.13,1.14.4,1.63c.27.49.62.87,1.08,1.16s.96.43,1.52.43c.44,0,.87-.09,1.28-.28.41-.19.78-.44,1.1-.75l.45.54c-.38.35-.82.62-1.33.82-.5.2-1.01.3-1.51.3Z"/>
      <path class="cls-24" d="m1195.59,725.23c-.54,0-1.02-.09-1.42-.28-.41-.18-.73-.44-.96-.78-.23-.33-.35-.72-.35-1.16,0-.68.26-1.23.79-1.64.53-.41,1.24-.62,2.12-.62s1.66.21,2.34.64v-1.23c0-.68-.18-1.19-.55-1.52s-.9-.5-1.59-.5c-.34,0-.7.06-1.07.17-.37.11-.79.29-1.27.54l-.29-.58c.47-.24.92-.42,1.35-.53s.86-.17,1.29-.17c.89,0,1.58.21,2.06.64s.73,1.04.73,1.85v5.04h-.66v-.83c-.34.31-.72.55-1.14.72s-.88.26-1.38.26Zm-2.07-2.24c0,.48.2.88.6,1.18.4.31.91.47,1.52.47.53,0,1-.09,1.39-.28.4-.18.76-.45,1.08-.79v-1.53c-.33-.25-.69-.43-1.08-.55-.39-.12-.83-.18-1.33-.18-.65,0-1.17.16-1.58.46-.4.31-.6.71-.6,1.21Z"/>
      <path class="cls-24" d="m1203.08,725.23c-.56,0-.99-.14-1.29-.42-.3-.28-.45-.67-.45-1.17v-5.34h-1.62v-.6h1.62v-1.86l.66-.21v2.07h2.28v.6h-2.28v5.12c0,.42.09.72.28.91.18.19.49.28.92.28.23,0,.42-.02.58-.05.16-.04.32-.09.5-.16v.65c-.19.07-.39.12-.58.15-.2.03-.41.04-.62.04Z"/>
      <path class="cls-24" d="m1208.58,725.23c-.68,0-1.3-.17-1.86-.51-.56-.34-1-.8-1.33-1.38-.32-.58-.49-1.23-.49-1.95s.16-1.37.47-1.95.75-1.04,1.3-1.38c.55-.34,1.16-.51,1.84-.51.64,0,1.21.17,1.71.51s.9.79,1.19,1.36c.29.56.44,1.19.44,1.88v.27h-6.29c.03.57.18,1.08.45,1.54.27.46.63.82,1.07,1.09.45.27.94.4,1.48.4.42,0,.83-.07,1.25-.2s.76-.32,1.05-.55l.39.53c-.4.29-.83.5-1.28.65-.45.14-.92.21-1.41.21Zm-2.97-4.29h5.55c-.05-.51-.19-.97-.43-1.39s-.55-.75-.93-1c-.38-.25-.81-.38-1.29-.38-.51,0-.97.12-1.39.36s-.75.57-1.02.98c-.26.42-.43.89-.49,1.42Z"/>
      <path class="cls-24" d="m1215.66,725.23c-.57,0-1.11-.1-1.63-.31-.51-.21-.95-.5-1.3-.89l.51-.42c.3.31.66.55,1.09.73.42.18.87.27,1.33.27.68,0,1.23-.15,1.64-.44s.62-.68.62-1.15c0-.35-.12-.64-.38-.87-.25-.23-.66-.38-1.21-.45l-1.21-.15c-.7-.08-1.23-.28-1.6-.61s-.55-.77-.55-1.32c0-.41.11-.77.33-1.08.22-.31.53-.55.92-.73.39-.17.85-.26,1.37-.26s.98.08,1.44.23c.46.15.92.39,1.39.73l-.39.54c-.42-.3-.82-.52-1.21-.67-.39-.15-.79-.22-1.22-.22-.58,0-1.06.12-1.42.37-.37.25-.56.61-.56,1.09,0,.36.12.65.37.87.24.22.64.37,1.19.43l1.2.15c.74.09,1.29.3,1.65.64.36.34.54.78.54,1.31,0,.42-.12.8-.38,1.13-.25.34-.59.6-1.03.79-.44.19-.94.29-1.52.29Z"/>
    </g>
    <g>
      <path class="cls-24" d="m1168.72,771.4v-10.5h4.23c.71,0,1.31.13,1.81.38s.87.6,1.12,1.04c.25.43.38.93.38,1.49,0,.68-.2,1.27-.58,1.79-.39.51-.96.85-1.7,1.02l2.33,4.79h-.75l-2.26-4.68h-3.89v4.68h-.69Zm.69-5.33h3.5c.86,0,1.52-.22,1.97-.65s.68-.97.68-1.61-.23-1.19-.68-1.62-1.11-.65-1.97-.65h-3.5v4.53Z"/>
      <path class="cls-24" d="m1180.74,771.55c-.68,0-1.3-.17-1.86-.51-.56-.34-1-.8-1.33-1.38-.32-.58-.49-1.23-.49-1.95s.16-1.37.47-1.95.75-1.04,1.3-1.38c.55-.34,1.16-.51,1.84-.51.64,0,1.21.17,1.71.51s.9.79,1.19,1.36c.29.56.44,1.19.44,1.88v.27h-6.29c.03.57.18,1.08.45,1.54.27.46.63.82,1.07,1.09.45.27.94.4,1.48.4.42,0,.83-.07,1.25-.2s.76-.32,1.05-.55l.39.53c-.4.29-.83.5-1.28.65-.45.14-.92.21-1.41.21Zm-2.97-4.29h5.55c-.05-.51-.19-.97-.43-1.39s-.55-.75-.93-1c-.38-.25-.81-.38-1.29-.38-.51,0-.97.12-1.39.36s-.75.57-1.02.98c-.26.42-.43.89-.49,1.42Z"/>
      <path class="cls-24" d="m1185.64,774.46v-10.44h.66v.88c.67-.69,1.52-1.04,2.54-1.04.69,0,1.31.16,1.87.5.56.34,1,.81,1.32,1.39s.49,1.23.49,1.95-.16,1.36-.49,1.94-.76,1.05-1.32,1.39c-.55.34-1.18.51-1.87.51-.47,0-.92-.09-1.36-.28-.43-.18-.83-.43-1.18-.74v3.93h-.66Zm3.2-3.54c.56,0,1.07-.14,1.52-.43s.82-.67,1.08-1.16.4-1.03.4-1.63-.13-1.14-.4-1.63-.62-.87-1.08-1.16-.96-.43-1.52-.43-1.05.11-1.49.34c-.45.22-.79.52-1.04.89v3.96c.26.35.62.64,1.07.88.45.23.94.35,1.47.35Z"/>
      <path class="cls-24" d="m1197.54,771.55c-.68,0-1.3-.17-1.86-.51-.56-.34-1-.8-1.33-1.39-.32-.58-.49-1.23-.49-1.94s.16-1.37.49-1.95c.33-.58.77-1.04,1.33-1.38.56-.34,1.18-.51,1.86-.51s1.31.17,1.87.51c.55.34,1,.8,1.32,1.38.33.58.49,1.23.49,1.95s-.16,1.36-.49,1.94c-.32.58-.76,1.05-1.32,1.39-.56.34-1.18.51-1.87.51Zm0-.63c.56,0,1.07-.14,1.52-.43s.82-.67,1.08-1.16c.27-.49.4-1.03.4-1.63s-.13-1.14-.4-1.63c-.26-.49-.62-.87-1.08-1.16s-.96-.43-1.52-.43-1.07.14-1.52.43-.81.67-1.08,1.16c-.26.49-.4,1.03-.4,1.63s.13,1.14.4,1.63c.27.49.62.87,1.08,1.16s.96.43,1.52.43Z"/>
      <path class="cls-24" d="m1202.92,771.38v-7.38h.66v1.17c.21-.41.5-.73.86-.97s.78-.35,1.24-.35c.2,0,.42.02.65.06v.68c-.11-.04-.22-.07-.33-.08-.11-.01-.22-.02-.32-.02-.49,0-.91.15-1.27.44-.35.29-.63.72-.83,1.28v5.18h-.66Z"/>
      <path class="cls-24" d="m1210.27,771.55c-.56,0-.99-.14-1.29-.42-.3-.28-.45-.67-.45-1.17v-5.34h-1.62v-.6h1.62v-1.86l.66-.21v2.07h2.28v.6h-2.28v5.12c0,.42.09.72.28.91.18.19.49.28.92.28.23,0,.42-.02.58-.05.16-.04.32-.09.5-.16v.65c-.19.07-.39.12-.58.15-.2.03-.41.04-.62.04Z"/>
      <path class="cls-24" d="m1215,771.55c-.57,0-1.11-.1-1.63-.31-.51-.21-.95-.5-1.3-.89l.51-.42c.3.31.66.55,1.09.73.42.18.87.27,1.33.27.68,0,1.23-.15,1.64-.44s.62-.68.62-1.15c0-.35-.12-.64-.38-.87-.25-.23-.66-.38-1.21-.45l-1.21-.15c-.7-.08-1.23-.28-1.6-.61s-.55-.77-.55-1.32c0-.41.11-.77.33-1.08.22-.31.53-.55.92-.73.39-.17.85-.26,1.37-.26s.98.08,1.44.23c.46.15.92.39,1.39.73l-.39.54c-.42-.3-.82-.52-1.21-.67-.39-.15-.79-.22-1.22-.22-.58,0-1.06.12-1.42.37-.37.25-.56.61-.56,1.09,0,.36.12.65.37.87.24.22.64.37,1.19.43l1.2.15c.74.09,1.29.3,1.65.64.36.34.54.78.54,1.31,0,.42-.12.8-.38,1.13-.25.34-.59.6-1.03.79-.44.19-.94.29-1.52.29Z"/>
    </g>
  </g>
  <g>
    <path class="cls-24" d="m596.79,512.64v-10.5h7.26v.64h-6.57v4.23h4.29v.64h-4.29v4.34h6.63v.64h-7.32Z"/>
    <path class="cls-24" d="m605.82,512.64v-10.5h.75l6.78,9.29v-9.29h.69v10.5h-.6l-6.93-9.48v9.48h-.69Z"/>
    <path class="cls-24" d="m621.38,512.8c-.76,0-1.47-.14-2.12-.42-.66-.28-1.22-.67-1.71-1.16-.49-.49-.87-1.07-1.14-1.72-.28-.65-.41-1.36-.41-2.11s.14-1.45.41-2.11c.27-.66.65-1.23,1.14-1.72.49-.5,1.05-.88,1.71-1.16.66-.28,1.36-.42,2.12-.42.52,0,1.02.06,1.51.18s.94.3,1.37.54c.43.24.82.54,1.17.9l-.45.53c-.43-.47-.97-.84-1.61-1.1-.65-.27-1.31-.4-1.99-.4s-1.29.12-1.85.37c-.57.25-1.06.58-1.49,1.02-.42.44-.75.94-.99,1.52s-.35,1.2-.35,1.87.12,1.29.35,1.87c.24.58.57,1.08.99,1.52.42.43.92.77,1.49,1.02.56.25,1.18.37,1.85.37s1.34-.13,1.99-.4c.64-.27,1.18-.63,1.61-1.1l.45.53c-.35.36-.74.66-1.17.9-.43.24-.89.42-1.37.54s-.99.18-1.51.18Z"/>
  </g>
  <g>
    <path class="cls-24" d="m996.43,598.74v-10.5h3.21c.83,0,1.58.13,2.26.4.67.26,1.26.63,1.75,1.1s.87,1.03,1.12,1.67.39,1.33.39,2.08-.13,1.45-.39,2.08-.63,1.2-1.12,1.67-1.07.84-1.75,1.1c-.68.26-1.43.4-2.26.4h-3.21Zm.69-.64h2.61c.67,0,1.29-.12,1.87-.35.58-.23,1.08-.55,1.5-.97.43-.42.76-.9,1-1.46.24-.56.36-1.17.36-1.83s-.12-1.27-.36-1.83c-.24-.56-.57-1.05-1-1.46-.42-.41-.92-.74-1.5-.97-.58-.23-1.2-.35-1.87-.35h-2.61v9.21Z"/>
    <path class="cls-24" d="m1008.9,598.89c-.54,0-1.02-.09-1.42-.28-.41-.18-.73-.44-.96-.78-.23-.33-.35-.72-.35-1.16,0-.68.26-1.23.79-1.64.53-.41,1.24-.62,2.12-.62s1.66.21,2.34.64v-1.23c0-.68-.18-1.19-.55-1.52s-.9-.5-1.59-.5c-.34,0-.7.06-1.07.17-.37.11-.79.29-1.27.54l-.29-.58c.47-.24.92-.42,1.35-.53s.86-.17,1.29-.17c.89,0,1.58.21,2.06.64s.73,1.04.73,1.85v5.04h-.66v-.83c-.34.31-.72.55-1.14.72s-.88.26-1.38.26Zm-2.07-2.24c0,.48.2.88.6,1.18.4.31.91.47,1.52.47.53,0,1-.09,1.39-.28.4-.18.76-.45,1.08-.79v-1.53c-.33-.25-.69-.43-1.08-.55-.39-.12-.83-.18-1.33-.18-.65,0-1.17.16-1.58.46-.4.31-.6.71-.6,1.21Z"/>
    <path class="cls-24" d="m1016.38,598.89c-.56,0-.99-.14-1.29-.42-.3-.28-.45-.67-.45-1.17v-5.34h-1.62v-.6h1.62v-1.86l.66-.21v2.07h2.28v.6h-2.28v5.12c0,.42.09.72.28.91.18.19.49.28.92.28.23,0,.42-.02.58-.05.16-.04.32-.09.5-.16v.65c-.19.07-.39.12-.58.15-.2.03-.41.04-.62.04Z"/>
    <path class="cls-24" d="m1021.08,598.89c-.54,0-1.02-.09-1.42-.28-.41-.18-.73-.44-.96-.78-.23-.33-.35-.72-.35-1.16,0-.68.26-1.23.79-1.64.53-.41,1.24-.62,2.12-.62s1.66.21,2.34.64v-1.23c0-.68-.18-1.19-.55-1.52s-.9-.5-1.59-.5c-.34,0-.7.06-1.07.17-.37.11-.79.29-1.27.54l-.29-.58c.47-.24.92-.42,1.35-.53s.86-.17,1.29-.17c.89,0,1.58.21,2.06.64s.73,1.04.73,1.85v5.04h-.66v-.83c-.34.31-.72.55-1.14.72s-.88.26-1.38.26Zm-2.07-2.24c0,.48.2.88.6,1.18.4.31.91.47,1.52.47.53,0,1-.09,1.39-.28.4-.18.76-.45,1.08-.79v-1.53c-.33-.25-.69-.43-1.08-.55-.39-.12-.83-.18-1.33-.18-.65,0-1.17.16-1.58.46-.4.31-.6.71-.6,1.21Z"/>
  </g>
  <g>
    <path class="cls-24" d="m996.43,426.53v-10.5h3.21c.83,0,1.58.13,2.26.4.67.26,1.26.63,1.75,1.1s.87,1.03,1.12,1.67.39,1.33.39,2.08-.13,1.45-.39,2.08-.63,1.2-1.12,1.67-1.07.84-1.75,1.1c-.68.26-1.43.4-2.26.4h-3.21Zm.69-.64h2.61c.67,0,1.29-.12,1.87-.35.58-.23,1.08-.55,1.5-.97.43-.42.76-.9,1-1.46.24-.56.36-1.17.36-1.83s-.12-1.27-.36-1.83c-.24-.56-.57-1.05-1-1.46-.42-.41-.92-.74-1.5-.97-.58-.23-1.2-.35-1.87-.35h-2.61v9.21Z"/>
    <path class="cls-24" d="m1008.9,426.68c-.54,0-1.02-.09-1.42-.28-.41-.18-.73-.44-.96-.78-.23-.33-.35-.72-.35-1.16,0-.68.26-1.23.79-1.64.53-.41,1.24-.62,2.12-.62s1.66.21,2.34.64v-1.23c0-.68-.18-1.19-.55-1.52s-.9-.5-1.59-.5c-.34,0-.7.06-1.07.17-.37.11-.79.29-1.27.54l-.29-.58c.47-.24.92-.42,1.35-.53s.86-.17,1.29-.17c.89,0,1.58.21,2.06.64s.73,1.04.73,1.85v5.04h-.66v-.83c-.34.31-.72.55-1.14.72s-.88.26-1.38.26Zm-2.07-2.24c0,.48.2.88.6,1.18.4.31.91.47,1.52.47.53,0,1-.09,1.39-.28.4-.18.76-.45,1.08-.79v-1.53c-.33-.25-.69-.43-1.08-.55-.39-.12-.83-.18-1.33-.18-.65,0-1.17.16-1.58.46-.4.31-.6.71-.6,1.21Z"/>
    <path class="cls-24" d="m1016.38,426.68c-.56,0-.99-.14-1.29-.42-.3-.28-.45-.67-.45-1.17v-5.34h-1.62v-.6h1.62v-1.86l.66-.21v2.07h2.28v.6h-2.28v5.12c0,.42.09.72.28.91.18.19.49.28.92.28.23,0,.42-.02.58-.05.16-.04.32-.09.5-.16v.65c-.19.07-.39.12-.58.15-.2.03-.41.04-.62.04Z"/>
    <path class="cls-24" d="m1021.08,426.68c-.54,0-1.02-.09-1.42-.28-.41-.18-.73-.44-.96-.78-.23-.33-.35-.72-.35-1.16,0-.68.26-1.23.79-1.64.53-.41,1.24-.62,2.12-.62s1.66.21,2.34.64v-1.23c0-.68-.18-1.19-.55-1.52s-.9-.5-1.59-.5c-.34,0-.7.06-1.07.17-.37.11-.79.29-1.27.54l-.29-.58c.47-.24.92-.42,1.35-.53s.86-.17,1.29-.17c.89,0,1.58.21,2.06.64s.73,1.04.73,1.85v5.04h-.66v-.83c-.34.31-.72.55-1.14.72s-.88.26-1.38.26Zm-2.07-2.24c0,.48.2.88.6,1.18.4.31.91.47,1.52.47.53,0,1-.09,1.39-.28.4-.18.76-.45,1.08-.79v-1.53c-.33-.25-.69-.43-1.08-.55-.39-.12-.83-.18-1.33-.18-.65,0-1.17.16-1.58.46-.4.31-.6.71-.6,1.21Z"/>
  </g>
  <g>
    <rect class="cls-34" x="584.72" y="669.23" width="451.31" height="178.48" rx="29.16" ry="29.16"/>
    <g>
      <path class="cls-24" d="m718.23,827.85v-21h9.69c1.38,0,2.58.26,3.6.78,1.02.52,1.82,1.25,2.4,2.21.58.95.87,2.05.87,3.31s-.29,2.29-.87,3.23c-.58.93-1.39,1.67-2.42,2.21-1.03.54-2.23.81-3.58.81h-6.54v8.46h-3.15Zm3.15-11.13h6.24c1.22,0,2.19-.32,2.91-.96.72-.64,1.08-1.51,1.08-2.61s-.36-1.94-1.08-2.58c-.72-.64-1.69-.96-2.91-.96h-6.24v7.11Z"/>
      <path class="cls-24" d="m743.28,828.15c-1.18,0-2.22-.25-3.12-.75-.9-.5-1.61-1.2-2.12-2.12-.51-.91-.76-1.94-.76-3.1v-9.6h3v9.09c0,1.18.34,2.12,1.03,2.82.69.7,1.62,1.05,2.78,1.05.8,0,1.52-.17,2.17-.53.65-.35,1.17-.84,1.58-1.49v-10.95h3v15.27h-3v-1.56c-1.18,1.24-2.7,1.86-4.56,1.86Z"/>
      <path class="cls-24" d="m754.38,833.97v-21.39h2.97v1.47c1.3-1.14,2.86-1.71,4.68-1.71,1.44,0,2.75.35,3.92,1.05s2.09,1.65,2.77,2.83c.68,1.19,1.02,2.52,1.02,3.97s-.34,2.82-1.02,4.01c-.68,1.19-1.61,2.13-2.79,2.83-1.18.7-2.51,1.05-3.99,1.05-.84,0-1.65-.13-2.42-.39-.77-.26-1.49-.64-2.15-1.14v7.41h-3Zm7.26-8.49c.98,0,1.86-.22,2.62-.67.77-.45,1.38-1.08,1.85-1.88.46-.8.69-1.7.69-2.7s-.23-1.9-.69-2.7c-.46-.8-1.08-1.43-1.85-1.9-.77-.47-1.64-.71-2.62-.71-.86,0-1.66.17-2.4.5-.74.33-1.36.79-1.86,1.36v6.9c.5.54,1.12.97,1.88,1.3s1.54.5,2.38.5Z"/>
      <path class="cls-24" d="m772.59,833.97v-21.39h2.97v1.47c1.3-1.14,2.86-1.71,4.68-1.71,1.44,0,2.75.35,3.92,1.05s2.09,1.65,2.77,2.83c.68,1.19,1.02,2.52,1.02,3.97s-.34,2.82-1.02,4.01c-.68,1.19-1.61,2.13-2.79,2.83-1.18.7-2.51,1.05-3.99,1.05-.84,0-1.65-.13-2.42-.39-.77-.26-1.49-.64-2.15-1.14v7.41h-3Zm7.26-8.49c.98,0,1.86-.22,2.62-.67.77-.45,1.38-1.08,1.85-1.88.46-.8.69-1.7.69-2.7s-.23-1.9-.69-2.7c-.46-.8-1.08-1.43-1.85-1.9-.77-.47-1.64-.71-2.62-.71-.86,0-1.66.17-2.4.5-.74.33-1.36.79-1.86,1.36v6.9c.5.54,1.12.97,1.88,1.3s1.54.5,2.38.5Z"/>
      <path class="cls-24" d="m798.12,828.12c-1.5,0-2.86-.34-4.07-1.03-1.21-.69-2.17-1.64-2.89-2.85-.72-1.21-1.08-2.55-1.08-4.04s.34-2.81,1.04-3.99c.69-1.18,1.61-2.12,2.77-2.83s2.46-1.07,3.9-1.07,2.66.36,3.76,1.07c1.11.71,1.99,1.67,2.64,2.88.65,1.21.97,2.58.97,4.09v.81h-12.06c.14.86.44,1.62.92,2.27.47.65,1.07,1.17,1.8,1.56.73.39,1.53.58,2.42.58.76,0,1.48-.12,2.16-.36.68-.24,1.25-.56,1.71-.96l1.89,1.86c-.88.68-1.79,1.19-2.75,1.52s-2,.49-3.13.49Zm-4.98-9.21h9.06c-.14-.78-.43-1.47-.86-2.08-.43-.61-.96-1.09-1.57-1.44-.62-.35-1.31-.53-2.07-.53s-1.46.18-2.1.53c-.64.35-1.17.83-1.6,1.42-.43.6-.72,1.3-.86,2.1Z"/>
      <path class="cls-24" d="m814.05,828.12c-1.46,0-2.58-.34-3.36-1.02-.78-.68-1.17-1.69-1.17-3.03v-8.97h-3.24v-2.52h3.24v-3.87l2.97-.75v4.62h4.53v2.52h-4.53v8.31c0,.76.17,1.31.52,1.64s.92.5,1.73.5c.42,0,.79-.03,1.12-.09.33-.06.68-.16,1.06-.3v2.55c-.4.14-.87.25-1.39.32-.53.07-1.03.1-1.49.1Z"/>
      <path class="cls-24" d="m824.76,828.15c-1.32,0-2.56-.19-3.71-.58-1.15-.39-2.15-.96-2.99-1.7l1.62-1.98c.8.64,1.62,1.12,2.45,1.44.83.32,1.67.48,2.54.48,1.08,0,1.96-.21,2.64-.62.68-.41,1.02-.95,1.02-1.63,0-.56-.2-1-.6-1.32-.4-.32-1.02-.54-1.86-.66l-2.76-.39c-1.54-.22-2.68-.69-3.43-1.41-.75-.72-1.12-1.68-1.12-2.88,0-.9.25-1.7.75-2.4.5-.7,1.2-1.24,2.1-1.62s1.94-.57,3.12-.57,2.19.16,3.21.46c1.02.31,2,.81,2.94,1.49l-1.5,1.98c-.86-.56-1.68-.97-2.46-1.23-.78-.26-1.58-.39-2.4-.39-.92,0-1.66.2-2.22.59-.56.39-.84.89-.84,1.51,0,.58.2,1.02.6,1.3.4.29,1.03.51,1.89.65l2.79.42c1.52.2,2.67.66,3.45,1.38.78.72,1.17,1.68,1.17,2.88,0,.9-.29,1.71-.86,2.45-.57.73-1.33,1.3-2.28,1.72-.95.42-2.04.63-3.25.63Z"/>
      <path class="cls-24" d="m840.93,828.12c-1.5,0-2.86-.34-4.06-1.03-1.21-.69-2.18-1.64-2.9-2.85-.72-1.21-1.08-2.55-1.08-4.04s.34-2.81,1.04-3.99c.69-1.18,1.62-2.12,2.78-2.83,1.16-.71,2.46-1.07,3.9-1.07s2.66.36,3.77,1.07c1.11.71,1.99,1.67,2.64,2.88.65,1.21.97,2.58.97,4.09v.81h-12.06c.14.86.44,1.62.92,2.27.47.65,1.07,1.17,1.8,1.56.73.39,1.54.58,2.42.58.76,0,1.48-.12,2.16-.36.68-.24,1.25-.56,1.71-.96l1.89,1.86c-.88.68-1.79,1.19-2.75,1.52s-1.99.49-3.13.49Zm-4.98-9.21h9.06c-.14-.78-.42-1.47-.85-2.08-.43-.61-.96-1.09-1.58-1.44-.62-.35-1.31-.53-2.07-.53s-1.46.18-2.1.53c-.64.35-1.18.83-1.61,1.42s-.71,1.3-.85,2.1Z"/>
      <path class="cls-24" d="m850.8,827.85v-15.3h3v1.98c.48-.72,1.08-1.28,1.79-1.68.71-.4,1.52-.6,2.42-.6.62,0,1.13.08,1.53.24v2.7c-.28-.12-.57-.21-.87-.25s-.61-.08-.93-.08c-.86,0-1.63.24-2.31.71-.68.47-1.22,1.16-1.62,2.05v10.23h-3Z"/>
      <path class="cls-24" d="m867.3,827.85l-6.6-15.27h3.3l4.77,11.43,4.77-11.43h3.21l-6.6,15.27h-2.85Z"/>
      <path class="cls-24" d="m885.45,828.12c-1.5,0-2.86-.34-4.06-1.03-1.21-.69-2.18-1.64-2.9-2.85-.72-1.21-1.08-2.55-1.08-4.04s.34-2.81,1.04-3.99c.69-1.18,1.62-2.12,2.78-2.83,1.16-.71,2.46-1.07,3.9-1.07s2.66.36,3.77,1.07c1.11.71,1.99,1.67,2.64,2.88.65,1.21.97,2.58.97,4.09v.81h-12.06c.14.86.44,1.62.92,2.27.47.65,1.07,1.17,1.8,1.56.73.39,1.54.58,2.42.58.76,0,1.48-.12,2.16-.36.68-.24,1.25-.56,1.71-.96l1.89,1.86c-.88.68-1.79,1.19-2.75,1.52s-1.99.49-3.13.49Zm-4.98-9.21h9.06c-.14-.78-.42-1.47-.85-2.08-.43-.61-.96-1.09-1.58-1.44-.62-.35-1.31-.53-2.07-.53s-1.46.18-2.1.53c-.64.35-1.18.83-1.61,1.42s-.71,1.3-.85,2.1Z"/>
      <path class="cls-24" d="m895.32,827.85v-15.3h3v1.98c.48-.72,1.08-1.28,1.79-1.68.71-.4,1.52-.6,2.42-.6.62,0,1.13.08,1.53.24v2.7c-.28-.12-.57-.21-.87-.25s-.61-.08-.93-.08c-.86,0-1.63.24-2.31.71-.68.47-1.22,1.16-1.62,2.05v10.23h-3Z"/>
    </g>
    <path class="cls-25" d="m843.14,752.24v-30.16h-23.08l-12.3-12.37v-23.01h-30.16v30.16h23.08l12.37,12.37h0v15.94h0l-12.37,12.37h-23.08v30.16h30.16v-23.01l12.37-12.37h23.01v-.07Zm-55.48-55.48h10.05v10.05h-10.05v-10.05Zm10.05,80.81h-10.05v-10.05h10.05v10.05Z"/>
  </g>
</svg>