<?xml version="1.0" encoding="UTF-8"?>
<svg id="Ebene_2" data-name="Ebene 2" xmlns="http://www.w3.org/2000/svg" width="1620" height="568.52" xmlns:xlink="http://www.w3.org/1999/xlink" viewBox="0 0 1620 568.52">
  <defs>
    <style>
      .cls-1 {
        fill: url(#Unbenannter_Verlauf_15-3);
      }

      .cls-1, .cls-2, .cls-3, .cls-4, .cls-5, .cls-6, .cls-7, .cls-8, .cls-9, .cls-10, .cls-11, .cls-12, .cls-13, .cls-14, .cls-15, .cls-16, .cls-17, .cls-18, .cls-19, .cls-20, .cls-21, .cls-22, .cls-23, .cls-24, .cls-25, .cls-26 {
        stroke-width: 0px;
      }

      .cls-2 {
        fill: url(#Unbenannter_Verlauf_15-2);
      }

      .cls-3 {
        fill: url(#Unbenannter_Verlauf_15-4);
      }

      .cls-4 {
        fill: url(#Unbenannter_Verlauf_22-2);
      }

      .cls-5 {
        fill: url(#Unbenannter_Verlauf_11-2);
      }

      .cls-6 {
        fill: url(#Unbenannter_Verlauf_24-3);
      }

      .cls-7 {
        fill: url(#Unbenannter_Verlauf_24-4);
      }

      .cls-8 {
        fill: url(#Unbenannter_Verlauf_25-3);
      }

      .cls-9 {
        fill: url(#Unbenannter_Verlauf_25-2);
      }

      .cls-10 {
        fill: url(#Unbenannter_Verlauf_25-5);
      }

      .cls-11 {
        fill: url(#Unbenannter_Verlauf_25-4);
      }

      .cls-27 {
        fill: url(#Unbenannter_Verlauf_5-2);
        opacity: .3;
      }

      .cls-27, .cls-28, .cls-29, .cls-30, .cls-31 {
        stroke-miterlimit: 3.73;
      }

      .cls-27, .cls-32, .cls-33, .cls-34 {
        stroke: #000;
      }

      .cls-27, .cls-14, .cls-35, .cls-18, .cls-36, .cls-37 {
        isolation: isolate;
      }

      .cls-27, .cls-31 {
        stroke-width: .85px;
      }

      .cls-28 {
        stroke: url(#Unbenannter_Verlauf_24-5);
      }

      .cls-28, .cls-29, .cls-12, .cls-32, .cls-30, .cls-31, .cls-33, .cls-34 {
        fill: none;
      }

      .cls-28, .cls-29, .cls-30 {
        stroke-width: .43px;
      }

      .cls-29 {
        stroke: url(#Unbenannter_Verlauf_27-2);
      }

      .cls-38 {
        clip-path: url(#clippath);
      }

      .cls-13 {
        fill: url(#Unbenannter_Verlauf_7-2);
      }

      .cls-32 {
        stroke-linejoin: round;
      }

      .cls-32, .cls-34 {
        stroke-linecap: round;
        stroke-width: 2.84px;
      }

      .cls-14 {
        fill: url(#Unbenannter_Verlauf_24-2);
      }

      .cls-14, .cls-18 {
        opacity: .87;
      }

      .cls-30 {
        stroke: url(#Unbenannter_Verlauf_27);
      }

      .cls-31 {
        stroke: url(#Unbenannter_Verlauf_2);
      }

      .cls-35 {
        opacity: .71;
      }

      .cls-33 {
        stroke-width: 2px;
      }

      .cls-33, .cls-34 {
        stroke-miterlimit: 10;
      }

      .cls-15 {
        fill: url(#Unbenannter_Verlauf_7);
      }

      .cls-16 {
        fill: url(#Unbenannter_Verlauf_5);
      }

      .cls-17 {
        fill: url(#Unbenannter_Verlauf_3);
      }

      .cls-18 {
        fill: url(#Unbenannter_Verlauf_24);
      }

      .cls-19 {
        fill: url(#Unbenannter_Verlauf_15);
      }

      .cls-20 {
        fill: url(#Unbenannter_Verlauf_20);
      }

      .cls-21 {
        fill: url(#Unbenannter_Verlauf_22);
      }

      .cls-22 {
        fill: url(#Unbenannter_Verlauf_11);
      }

      .cls-23 {
        fill: url(#Unbenannter_Verlauf_25);
      }

      .cls-25 {
        fill: #275c88;
      }

      .cls-26 {
        fill: #2e3436;
      }

      .cls-37 {
        opacity: .54;
      }
    </style>
    <radialGradient id="Unbenannter_Verlauf_3" data-name="Unbenannter Verlauf 3" cx="684.98" cy="5036.01" fx="684.98" fy="5036.01" r="102.15" gradientTransform="translate(548.78 -1000) scale(.91 .27)" gradientUnits="userSpaceOnUse">
      <stop offset="0" stop-color="#f2da06"/>
      <stop offset=".45" stop-color="#fcee72"/>
      <stop offset="1" stop-color="#f2da06"/>
    </radialGradient>
    <radialGradient id="Unbenannter_Verlauf_2" data-name="Unbenannter Verlauf 2" cx="79.73" cy="2025.16" fx="79.73" fy="2025.16" r="90.02" gradientTransform="translate(594.89 -934.4) rotate(-22.5) scale(.76 .71)" gradientUnits="userSpaceOnUse">
      <stop offset="0" stop-color="#eeeeec"/>
      <stop offset="1" stop-color="#eeeeec" stop-opacity="0"/>
    </radialGradient>
    <linearGradient id="Unbenannter_Verlauf_25" data-name="Unbenannter Verlauf 25" x1="337.82" y1="-14.13" x2="341.41" y2="-14.13" gradientTransform="translate(674.69 318.41) rotate(4.97) scale(1.64 1.68) skewX(-.69)" gradientUnits="userSpaceOnUse">
      <stop offset="0" stop-color="#edd60c"/>
      <stop offset="1" stop-color="#ad9c08"/>
    </linearGradient>
    <radialGradient id="Unbenannter_Verlauf_5" data-name="Unbenannter Verlauf 5" cx="604.11" cy="812.52" fx="604.11" fy="786.29" r="90.04" gradientTransform="translate(576.45 -577.84) rotate(10.81) scale(1.21 .93)" gradientUnits="userSpaceOnUse">
      <stop offset="0" stop-color="#e9d012"/>
      <stop offset=".46" stop-color="#efd840"/>
      <stop offset=".77" stop-color="#d2b828"/>
      <stop offset="1" stop-color="#eacf4e"/>
    </radialGradient>
    <clipPath id="clippath">
      <path class="cls-12" d="m1138.59,237.2c-11.61,0-21.99,3.28-31.07,8.99h0c-12.82,4.31-21.99,11.42-28.83,21.06-12.17,17.13-21.99,56.16-20.97,79.74,26.49,41.74,153.21,40.9,175.77,2.9-9.83-34.44-6.65-63.55-22.28-83.49-8.33-10.67-20.31-17.78-33.51-21.62q-.09,0-.19-.09c-6.08-2.34-21.25-7.49-36.69-7.49h-2.25Zm27.42,4.96c.37.09.84.09,1.22.19-.37-.09-.75-.09-1.22-.19Zm-42.49.28c-.94.09-1.78.28-2.71.37.94-.09,1.87-.28,2.71-.37Z"/>
    </clipPath>
    <radialGradient id="Unbenannter_Verlauf_5-2" data-name="Unbenannter Verlauf 5" cx="604.11" cy="812.52" fx="604.11" fy="786.29" r="90.04" xlink:href="#Unbenannter_Verlauf_5"/>
    <radialGradient id="Unbenannter_Verlauf_7" data-name="Unbenannter Verlauf 7" cx="-706.69" cy="-497.67" fx="-706.69" fy="-497.67" r="8.15" gradientTransform="translate(-2720.7 888.33) rotate(-165) scale(4.84 -3.12) skewX(3.99)" gradientUnits="userSpaceOnUse">
      <stop offset="0" stop-color="#f5e789"/>
      <stop offset="1" stop-color="#eed73f" stop-opacity="0"/>
    </radialGradient>
    <radialGradient id="Unbenannter_Verlauf_7-2" data-name="Unbenannter Verlauf 7" cx="-706.34" cy="-496.41" fx="-706.34" fy="-496.41" r="8.15" gradientTransform="translate(-2663.69 881.77) rotate(-165) scale(4.84 -3.12) skewX(3.99)" xlink:href="#Unbenannter_Verlauf_7"/>
    <linearGradient id="Unbenannter_Verlauf_25-2" data-name="Unbenannter Verlauf 25" x1="-949.17" y1="470.65" x2="-945.58" y2="470.65" gradientTransform="translate(-637.58 -305.63) rotate(-179.52) scale(1.88 -1.13) skewX(1.76)" xlink:href="#Unbenannter_Verlauf_25"/>
    <linearGradient id="Unbenannter_Verlauf_25-3" data-name="Unbenannter Verlauf 25" x1="-1203.05" y1="256.43" x2="-1199.46" y2="256.43" gradientTransform="translate(-673.93 -460.79) rotate(-167.62) scale(1.62 -1.13) skewX(1.66)" xlink:href="#Unbenannter_Verlauf_25"/>
    <radialGradient id="Unbenannter_Verlauf_11" data-name="Unbenannter Verlauf 11" cx="-1457.42" cy="-6763.62" fx="-1457.42" fy="-6763.62" r="78.16" gradientTransform="translate(-383.75 -1412.08) rotate(177.35) scale(1 .25)" gradientUnits="userSpaceOnUse">
      <stop offset="0" stop-color="#efdd52"/>
      <stop offset="1" stop-color="#f2e26d" stop-opacity="0"/>
    </radialGradient>
    <radialGradient id="Unbenannter_Verlauf_11-2" data-name="Unbenannter Verlauf 11" cx="256.7" cy="-2153.65" fx="256.7" fy="-2153.65" r="78.16" gradientTransform="translate(-742.49 -1169.86) rotate(121.04) scale(1.03 1.08)" xlink:href="#Unbenannter_Verlauf_11"/>
    <linearGradient id="Unbenannter_Verlauf_15" data-name="Unbenannter Verlauf 15" x1="617.29" y1="1042.38" x2="576.79" y2="1144" gradientTransform="translate(548.78 -684.74) scale(.91)" gradientUnits="userSpaceOnUse">
      <stop offset="0" stop-color="#ddbe0c"/>
      <stop offset="1" stop-color="#ddbe0c" stop-opacity="0"/>
    </linearGradient>
    <linearGradient id="Unbenannter_Verlauf_15-2" data-name="Unbenannter Verlauf 15" x1="678.27" y1="1030.97" x2="720.63" y2="1130.21" xlink:href="#Unbenannter_Verlauf_15"/>
    <linearGradient id="Unbenannter_Verlauf_15-3" data-name="Unbenannter Verlauf 15" x1="626.4" y1="1048.2" x2="649.58" y2="1108.49" xlink:href="#Unbenannter_Verlauf_15"/>
    <linearGradient id="Unbenannter_Verlauf_15-4" data-name="Unbenannter Verlauf 15" x1="643.38" y1="1031.87" x2="701.64" y2="1032.88" xlink:href="#Unbenannter_Verlauf_15"/>
    <radialGradient id="Unbenannter_Verlauf_24" data-name="Unbenannter Verlauf 24" cx="-854.43" cy="-417.89" fx="-854.43" fy="-417.89" r="8.86" gradientTransform="translate(-1154.18 2724.55) rotate(-180) scale(2.75 -5.86)" gradientUnits="userSpaceOnUse">
      <stop offset="0" stop-color="#fff"/>
      <stop offset="1" stop-color="#fff" stop-opacity="0"/>
    </radialGradient>
    <radialGradient id="Unbenannter_Verlauf_24-2" data-name="Unbenannter Verlauf 24" cx="-951.26" cy="-416.57" fx="-951.26" fy="-416.57" r="8.86" gradientTransform="translate(-1267.32 2452.01) rotate(-176.3) scale(2.39 -5.56)" xlink:href="#Unbenannter_Verlauf_24"/>
    <radialGradient id="Unbenannter_Verlauf_24-3" data-name="Unbenannter Verlauf 24" cx="-1033.32" cy="63.73" fx="-1033.32" fy="63.73" r="11.18" gradientTransform="translate(-776.15 -300.49) rotate(-165.42) scale(1.92 -1.27) skewX(-2.38)" xlink:href="#Unbenannter_Verlauf_24"/>
    <radialGradient id="Unbenannter_Verlauf_24-4" data-name="Unbenannter Verlauf 24" cx="-914.76" cy="224.16" fx="-914.76" fy="224.16" r="11.18" gradientTransform="translate(-561.18 -178.48) rotate(-174.72) scale(1.92 -1.27) skewX(-2.38)" xlink:href="#Unbenannter_Verlauf_24"/>
    <radialGradient id="Unbenannter_Verlauf_20" data-name="Unbenannter Verlauf 20" cx="-892.43" cy="-385.93" fx="-892.43" fy="-385.93" r="5.39" gradientTransform="translate(-1283.51 2472.87) rotate(-180) scale(2.8 -5.66)" gradientUnits="userSpaceOnUse">
      <stop offset="0" stop-color="#f9f1b8"/>
      <stop offset="1" stop-color="#f9f1b8" stop-opacity="0"/>
    </radialGradient>
    <radialGradient id="Unbenannter_Verlauf_22" data-name="Unbenannter Verlauf 22" cx="-1073.43" cy="-534.81" fx="-1073.43" fy="-534.81" r="10.07" gradientTransform="translate(181.35 2611.55) rotate(177.86) scale(1.18 -4.25) skewX(-20.43)" gradientUnits="userSpaceOnUse">
      <stop offset="0" stop-color="#ddbe0c"/>
      <stop offset="1" stop-color="#ddbe0c" stop-opacity="0"/>
    </radialGradient>
    <radialGradient id="Unbenannter_Verlauf_22-2" data-name="Unbenannter Verlauf 22" cx="-876.46" cy="-563.56" fx="-876.46" fy="-563.56" r="10.06" gradientTransform="translate(500.47 3038.83) rotate(175.14) scale(1.42 -4.75) skewX(-22.77)" xlink:href="#Unbenannter_Verlauf_22"/>
    <linearGradient id="Unbenannter_Verlauf_25-4" data-name="Unbenannter Verlauf 25" x1="-810.42" y1="-342.76" x2="-806.83" y2="-342.76" gradientTransform="translate(-1651.1 741.84) rotate(-169.76) scale(3.11 -2.54) skewX(4.41)" xlink:href="#Unbenannter_Verlauf_25"/>
    <radialGradient id="Unbenannter_Verlauf_24-5" data-name="Unbenannter Verlauf 24" cx="676.03" cy="4740.24" fx="676.03" fy="4740.24" r="101.85" gradientTransform="translate(548.78 -990.74) scale(.91 .29)" xlink:href="#Unbenannter_Verlauf_24"/>
    <linearGradient id="Unbenannter_Verlauf_25-5" data-name="Unbenannter Verlauf 25" x1="-871.73" y1="-319.48" x2="-868.13" y2="-319.48" gradientTransform="translate(-1387.14 643.41) rotate(-168.71) scale(2.67 -2.39) skewX(2.62)" xlink:href="#Unbenannter_Verlauf_25"/>
    <radialGradient id="Unbenannter_Verlauf_27" data-name="Unbenannter Verlauf 27" cx="104.67" cy="3649.07" fx="104.67" fy="3649.07" r="101.79" gradientTransform="translate(729.11 -1020.17) rotate(-8.57) scale(1.27 .4)" gradientUnits="userSpaceOnUse">
      <stop offset="0" stop-color="#000" stop-opacity=".33"/>
      <stop offset="1" stop-color="#000" stop-opacity="0"/>
    </radialGradient>
    <radialGradient id="Unbenannter_Verlauf_27-2" data-name="Unbenannter Verlauf 27" cx="225.57" cy="3677.3" fx="225.57" fy="3677.3" r="101.81" xlink:href="#Unbenannter_Verlauf_27"/>
  </defs>
  <g>
    <path class="cls-24" d="m37.52,60.41v-21h2.16l7.83,16.53,7.8-16.53h2.16v21h-1.38v-19.68l-8.58,18.18-8.61-18.12v19.62h-1.38Z"/>
    <path class="cls-24" d="m68.66,60.71c-1.36,0-2.6-.34-3.72-1.02-1.12-.68-2.01-1.61-2.65-2.78-.65-1.17-.98-2.46-.98-3.88s.32-2.74.98-3.9c.65-1.16,1.53-2.08,2.65-2.76,1.12-.68,2.36-1.02,3.72-1.02s2.62.34,3.73,1.02c1.11.68,1.99,1.6,2.64,2.76.65,1.16.97,2.46.97,3.9s-.33,2.71-.97,3.88c-.65,1.17-1.53,2.1-2.64,2.78s-2.35,1.02-3.73,1.02Zm0-1.26c1.12,0,2.13-.29,3.04-.86.91-.57,1.63-1.34,2.16-2.31.53-.97.8-2.05.8-3.25s-.27-2.29-.8-3.25-1.25-1.74-2.16-2.31c-.91-.57-1.93-.85-3.04-.85s-2.14.29-3.05.85c-.91.57-1.63,1.34-2.16,2.31-.53.97-.79,2.05-.79,3.25s.26,2.29.79,3.25c.53.97,1.25,1.74,2.16,2.31.91.57,1.92.86,3.05.86Z"/>
    <path class="cls-24" d="m79.4,60.41v-14.76h1.32v2.07c1.2-1.58,2.83-2.37,4.89-2.37,1.12,0,2.1.24,2.96.7.85.47,1.51,1.13,1.98,1.98.47.85.71,1.83.71,2.96v9.42h-1.32v-9.06c0-1.48-.41-2.65-1.23-3.5-.82-.85-1.95-1.28-3.39-1.28-1,0-1.9.24-2.7.71-.8.47-1.43,1.15-1.89,2.03v11.1h-1.32Z"/>
    <path class="cls-24" d="m95.93,42.32c-.32,0-.59-.11-.81-.33-.22-.22-.33-.49-.33-.81s.11-.59.33-.81c.22-.22.49-.33.81-.33.34,0,.61.11.82.33.21.22.31.49.31.81s-.1.59-.31.81c-.21.22-.48.33-.82.33Zm-.66,18.09v-14.76h1.32v14.76h-1.32Z"/>
    <path class="cls-24" d="m105.86,60.71c-1.12,0-1.98-.28-2.58-.84s-.9-1.34-.9-2.34v-10.68h-3.24v-1.2h3.24v-3.72l1.32-.42v4.14h4.56v1.2h-4.56v10.23c0,.84.19,1.45.56,1.82.37.37.98.55,1.85.55.46,0,.85-.04,1.17-.11.32-.07.65-.17.99-.31v1.29c-.38.14-.77.24-1.17.3-.4.06-.81.09-1.23.09Z"/>
    <path class="cls-24" d="m116.87,60.71c-1.36,0-2.6-.34-3.72-1.02-1.12-.68-2.01-1.61-2.65-2.78-.65-1.17-.98-2.46-.98-3.88s.32-2.74.98-3.9c.65-1.16,1.53-2.08,2.65-2.76,1.12-.68,2.36-1.02,3.72-1.02s2.62.34,3.73,1.02c1.11.68,1.99,1.6,2.64,2.76.65,1.16.97,2.46.97,3.9s-.32,2.71-.97,3.88-1.53,2.1-2.64,2.78c-1.11.68-2.35,1.02-3.73,1.02Zm0-1.26c1.12,0,2.13-.29,3.04-.86.91-.57,1.63-1.34,2.16-2.31.53-.97.79-2.05.79-3.25s-.27-2.29-.79-3.25-1.25-1.74-2.16-2.31c-.91-.57-1.92-.85-3.04-.85s-2.14.29-3.05.85c-.91.57-1.63,1.34-2.16,2.31-.53.97-.79,2.05-.79,3.25s.26,2.29.79,3.25c.53.97,1.25,1.74,2.16,2.31.91.57,1.92.86,3.05.86Z"/>
    <path class="cls-24" d="m127.64,60.38v-14.76h1.32v2.34c.42-.82,1-1.46,1.73-1.93.73-.47,1.55-.71,2.47-.71.4,0,.83.04,1.29.12v1.35c-.22-.08-.44-.13-.66-.17s-.43-.04-.63-.04c-.98,0-1.83.29-2.54.88-.71.59-1.26,1.45-1.67,2.57v10.35h-1.32Z"/>
    <path class="cls-24" d="m137.81,42.32c-.32,0-.59-.11-.81-.33-.22-.22-.33-.49-.33-.81s.11-.59.33-.81c.22-.22.49-.33.81-.33.34,0,.62.11.83.33.21.22.31.49.31.81s-.1.59-.31.81c-.21.22-.49.33-.83.33Zm-.66,18.09v-14.76h1.32v14.76h-1.32Z"/>
    <path class="cls-24" d="m142.55,60.41v-14.76h1.32v2.07c1.2-1.58,2.83-2.37,4.89-2.37,1.12,0,2.1.24,2.96.7.85.47,1.51,1.13,1.98,1.98.47.85.71,1.83.71,2.96v9.42h-1.32v-9.06c0-1.48-.41-2.65-1.23-3.5-.82-.85-1.95-1.28-3.39-1.28-1,0-1.9.24-2.7.71s-1.43,1.15-1.89,2.03v11.1h-1.32Z"/>
    <path class="cls-24" d="m165.53,66.83c-.98,0-1.95-.14-2.91-.42s-1.84-.67-2.64-1.17l.75-1.08c.88.5,1.69.86,2.42,1.08.73.22,1.5.33,2.29.33,1.54,0,2.71-.37,3.51-1.11.8-.74,1.2-1.84,1.2-3.3v-2.52c-1.34,1.38-3.03,2.07-5.07,2.07-1.36,0-2.6-.34-3.72-1.02-1.12-.68-2.01-1.6-2.66-2.76-.65-1.16-.98-2.46-.98-3.9s.33-2.74.98-3.9c.65-1.16,1.53-2.08,2.66-2.76,1.12-.68,2.36-1.02,3.72-1.02.94,0,1.85.18,2.73.55s1.66.87,2.34,1.49v-1.74h1.32v15.45c0,1.88-.51,3.3-1.54,4.27s-2.5,1.46-4.39,1.46Zm-.45-7.38c1.1,0,2.09-.22,2.98-.67s1.58-1.04,2.08-1.79v-7.92c-.52-.7-1.23-1.29-2.13-1.75-.9-.47-1.88-.71-2.94-.71-1.12,0-2.14.29-3.04.85-.91.57-1.63,1.34-2.16,2.31-.53.97-.79,2.05-.79,3.25s.26,2.29.79,3.25c.53.97,1.25,1.74,2.16,2.31.91.57,1.92.86,3.04.86Z"/>
  </g>
  <g>
    <rect class="cls-33" x="971.73" y="200.99" width="613.27" height="242.53" rx="29.16" ry="29.16"/>
    <g id="foreman_logo-black">
      <g id="g34599">
        <g id="text6578">
          <path id="path34993" class="cls-24" d="m1271.68,286.03h-17.06v18.4h17.06v7.57h-17.06v26.07h-7.57v-59.61h24.63v7.57h0"/>
          <path id="path34995" class="cls-24" d="m1291.23,337.97c-2.88,0-5.18-.48-6.9-1.53-1.73-1.05-2.97-2.11-3.83-3.16-2.3-2.88-3.35-7-3.35-12.27v-25.69c0-5.27,1.15-9.39,3.35-12.27.38-.58.96-1.05,1.53-1.63.67-.58,1.44-1.05,2.3-1.44.96-.48,1.92-.86,3.07-1.15s2.4-.48,3.83-.48c2.88,0,5.18.48,6.9,1.53,1.73,1.05,2.97,2.11,3.83,3.16,2.3,2.88,3.35,7,3.35,12.27v25.59c0,5.27-1.15,9.39-3.35,12.27-.86,1.05-2.2,2.11-3.83,3.16-1.73,1.05-4.03,1.63-6.9,1.63m0-51.95c-.58,0-1.25.1-2.01.19-.67.1-1.44.48-2.11,1.05-.67.58-1.34,1.44-1.82,2.78-.48,1.25-.67,3.07-.67,5.37v25.59c0,2.4.19,4.22.67,5.46.48,1.25,1.05,2.2,1.82,2.78.67.58,1.44.86,2.11.96.77.1,1.44.19,2.01.19s1.15-.1,1.92-.19c.77-.1,1.44-.38,2.2-.96.67-.58,1.25-1.53,1.73-2.78s.77-3.16.77-5.46v-25.69c0-2.3-.29-4.12-.77-5.37s-.96-2.2-1.73-2.78c-.67-.58-1.44-.96-2.2-1.05-.77,0-1.44-.1-1.92-.1"/>
          <path id="path34997" class="cls-24" d="m1332.83,308.64c1.44,1.44,2.59,3.07,3.35,4.98s1.25,4.12,1.25,6.61v17.63h-7.67v-17.54c0-5.27-2.49-7.86-7.57-7.86h-4.79v25.49h-7.57v-59.61h12.36c5.08,0,9.01,1.53,11.6,4.5,2.4,2.78,3.55,6.9,3.55,12.46s-1.15,9.68-3.55,12.56c-.1.1-.29.29-.38.38-.19.19-.38.29-.58.38m-10.73-3.83c2.01,0,3.45-.29,4.22-.77s1.34-.86,1.53-1.15c1.15-1.53,1.82-4.03,1.82-7.57,0-2.01-.19-3.55-.48-4.79-.29-1.25-.77-2.2-1.44-2.88-.58-.67-1.34-1.15-2.3-1.34-.96-.19-2.01-.29-3.26-.29h-4.79v18.78h4.7"/>
          <path id="path34999" class="cls-24" d="m1368.1,286.03h-17.06v18.4h17.06v7.57h-17.06v18.4h17.06v7.57h-24.73v-59.52h24.63l.1,7.57h0"/>
          <path id="path35001" class="cls-24" d="m1381.03,309.41v28.56h-7.57v-59.61h6.71l12.08,41.98,11.98-41.98h6.71v59.61h-7.57v-28.56l-8.24,28.56h-5.75l-8.34-28.56h0"/>
          <path id="path35003" class="cls-24" d="m1424.64,338.07h-7.86l13.8-59.61h6.04l13.9,59.61h-7.95l-3.83-16.68h-10.35l-3.74,16.68m9.01-38.91l-3.35,14.66h6.8l-3.45-14.66"/>
          <path id="path35005" class="cls-24" d="m1459.81,301.94v36.04h-7.57v-59.61h6.42l14.57,36.04v-36.04h7.67v59.61h-6.52l-14.57-36.04h0"/>
        </g>
      </g>
      <g id="g17157" class="cls-36">
        <g id="path5756" class="cls-37">
          <path class="cls-26" d="m1056.98,354.19c-23.12,6.83,28.17,39.31,49.79,45.58,44.08,12.82,72.72,16.38,135.52-24.24,25.36-22.37-18.25-23.68-75.9-20.03-97.43-5.15-104.64-19.75-109.41-1.31Z"/>
        </g>
        <path id="path5611" class="cls-17" d="m1056.98,348.57c-23.12,6.83,28.17,39.31,49.79,45.58,44.08,12.82,72.72,16.38,135.52-24.24,25.36-22.37-18.25-23.68-75.9-20.03-97.43-5.15-104.64-19.75-109.41-1.31Z"/>
        <path id="path9655" class="cls-31" d="m1148.04,242.44c-36.5-.84-56.81,8.33-69.35,26.02-12.17,17.13-21.99,56.16-20.97,79.74,26.49,41.74,153.21,40.9,175.77,2.9-9.83-34.44-6.65-63.55-22.28-83.49-14.41-18.53-39.96-26.3-63.18-25.18Z"/>
        <path id="path5782" class="cls-23" d="m1231.15,333.41c3.18-.09,3.46,16.38,3.46,16.38,0,0-2.62,2.53-5.8,2.53-3.18.09-6.93-2.34-6.93-2.34,0,0,6.08-16.47,9.27-16.57h0Z"/>
        <path id="path5653" class="cls-16" d="m1148.04,241.22c-36.5-.84-56.81,8.33-69.35,26.02-12.17,17.13-21.99,56.16-20.97,79.74,26.49,41.74,153.21,40.9,175.77,2.9-9.83-34.44-6.65-63.55-22.28-83.49-14.41-18.44-39.96-26.21-63.18-25.18Z"/>
        <g class="cls-38">
          <path id="path5547" class="cls-27" d="m1138.59,237.2c-11.61,0-21.99,3.28-31.07,8.99h0c-12.82,4.31-21.99,11.42-28.83,21.06-12.17,17.13-21.99,56.16-20.97,79.74,26.49,41.74,153.21,40.9,175.77,2.9-9.83-34.44-6.65-63.55-22.28-83.49-8.33-10.67-20.31-17.78-33.51-21.62q-.09,0-.19-.09c-6.08-2.34-21.25-7.49-36.69-7.49h-2.25Zm27.42,4.96c.37.09.84.09,1.22.19-.37-.09-.75-.09-1.22-.19Zm-42.49.28c-.94.09-1.78.28-2.71.37.94-.09,1.87-.28,2.71-.37Z"/>
        </g>
        <path id="path5437" class="cls-15" d="m1139.99,316.66l-.47,11.14,22.18-1.68-1.03-10.76-20.68,1.31Z"/>
        <path id="path5448" class="cls-13" d="m1194.75,311.23l-.66,10.3,18.16-1.59,1.78-9.92-19.28,1.22Z"/>
        <path id="path5602" class="cls-9" d="m1116.69,236.35c-3.65-.28-6.46,10.76-6.46,10.76,0,0,2.53,1.87,6.18,2.06,3.65.19,8.33-1.12,8.33-1.12,0,0-4.4-11.42-8.05-11.7Z"/>
        <path id="path5598" class="cls-8" d="m1161.43,233.08c-3-.94-7.67,9.36-7.67,9.36,0,0,1.87,2.25,4.87,3.18,3,.94,7.21.37,7.21.37,0,0-1.4-11.98-4.4-12.92h0Z"/>
        <path id="path5786" class="cls-22" d="m1140.84,316.84l20.87-1.31c-2.53-23.68-13.38-41.18-26.77-61.49,6.18-1.4,18.53-5.15,27.98,0,15.26,19,24.33,35,30.79,57.56l21.15-1.31c-11.79-27.7-15.35-47.17-34.44-64.58,0,0-19.75-8.61-39.59-8.61-48.2-1.78-75.16,52.97-78.06,99.02-.94,25.83-2.15,23.68,7.58,29.76,7.96,4.96,6.93-1.68,6.93-1.68-4.02-50.07,25.27-89.2,38.37-102.2,11.89,16.38,19.56,36.69,25.18,54.85h0Z"/>
        <path id="path5452" class="cls-5" d="m1140.84,316.84l20.87-1.31c-2.53-23.68-13.38-41.18-26.77-61.49,6.18-1.4,18.53-5.15,27.98,0,15.26,19,24.33,35,30.79,57.56l21.15-1.31c-11.79-27.7-15.35-47.17-34.44-64.58,0,0-19.75-8.61-39.59-8.61-48.2-1.78-75.16,52.97-78.06,99.02-.94,25.83-2.15,23.68,7.58,29.76,7.96,4.96,6.93-1.68,6.93-1.68-4.02-50.07,25.27-89.2,38.37-102.2,11.89,16.38,19.56,36.69,25.18,54.85h0Z"/>
        <path id="path4622" class="cls-19" d="m1115.85,262.19l-.09,7.21c-32.76,23.96-37.91,73.1-37.81,83.21.66-24.43,3.28-61.12,37.91-90.41Z"/>
        <path id="path5441" class="cls-2" d="m1161.52,255.63c18.06,19,29.29,54,32.29,66.36l.84-5.33c-3.46-23.96-20.4-54.66-32.38-64.95l-.75,3.93Z"/>
        <path id="path4624" class="cls-1" d="m1115.57,269.21c1.59,1.22,14.98,27.33,23.77,59.15l1.12-7.58c-13.2-40.53-16.85-46.89-24.9-58.59v7.02Z"/>
        <path id="rect5445" class="cls-3" d="m1133.91,253.76c9.17-4.31,18.91-4.68,28.45-2.34v4.12c-19.28-1.59-24.99,3.28-25.46,2.06-.66-.94-2.34-2.9-3-3.84Z"/>
        <path id="path5466" class="cls-18" d="m1222.17,350.44c-6.27-50.26-22.09-93.78-52.32-111.56,33.6,22.93,44.27,66.73,52.32,111.56Z"/>
        <path id="path5470" class="cls-14" d="m1165.26,357.37c-2.34-47.92-13.48-90.04-38.56-108.57,27.8,23.59,34.26,65.61,38.56,108.57Z"/>
        <g id="path5506" class="cls-35">
          <path class="cls-6" d="m1130.17,260.13c14.79,3.84,25.46,13.76,23.77,22.18-1.4,7.3-11.61,11.04-23.87,9.45-4.49-16.75-11.61-27.42-18.53-32.38,5.24-1.22,11.79-1.03,18.63.75Z"/>
        </g>
        <g id="path5535" class="cls-35">
          <path class="cls-7" d="m1177.99,250.49c15.26,1.4,27.33,9.55,27.14,18.06-.19,7.39-9.64,12.73-21.99,13.1-7.21-15.72-15.91-25.08-23.59-28.83,4.87-2.06,11.42-2.9,18.44-2.34Z"/>
        </g>
        <g id="path5586">
          <path class="cls-20" d="m1195.4,254.23c22.56,17.22,26.58,51.01,32.48,83.11-9.36-30.23-17.69-61.96-32.48-83.11h0Z"/>
        </g>
        <path id="path5590" class="cls-21" d="m1146.45,344.45c-10.39-46.61-21.99-80.3-38.47-90.69,6.83,3.84,19.94,7.02,36.31,79.55l2.15,11.14h0Z"/>
        <path id="path5594" class="cls-4" d="m1206.82,343.33c-15.54-51.29-31.63-88.17-52.23-98.65,8.52,3.84,24.43,6.65,48.95,86.48l3.28,12.17h0Z"/>
        <path id="path5663" class="cls-11" d="m1072.42,336.03c-5.8-1.5-16.94,17.5-16.94,17.5,1.03,3.18,8.61,5.24,12.82,4.31,0,0,9.83-20.31,4.12-21.81h0Z"/>
        <path id="path5722" class="cls-28" d="m1056.98,346.7c-23.12,6.83,28.17,39.31,49.79,45.58,44.08,12.82,72.72,16.38,135.52-24.24,25.36-22.37-18.25-23.68-75.9-20.03-97.43-5.15-104.64-19.75-109.41-1.31Z"/>
        <path id="path5667" class="cls-10" d="m1082.15,342.96c-4.96-1.5-13.66,20.5-13.66,20.5,0,0,2.81,4.49,7.67,5.9,4.96,1.5,12.07-.09,12.07-.09,0,0-1.12-24.9-6.08-26.3h0Z"/>
        <g id="g5770">
          <path id="path5740" class="cls-30" d="m1056.98,348.57c-23.12,6.83,28.17,39.31,49.79,45.58,44.08,12.82,72.72,16.38,135.52-24.24,12.64-11.23,8.14-17.13-6.83-19.84"/>
          <path id="path5750" class="cls-29" d="m1056.98,348.57c-23.12,6.83,28.17,39.31,49.79,45.58,44.08,12.82,72.72,16.38,135.52-24.24,12.64-11.23,8.14-17.13-6.83-19.84"/>
        </g>
      </g>
    </g>
  </g>
  <g>
    <path class="cls-25" d="m770.87,285.48c-.72-.72-1.57-1.07-2.53-1.07h-93.71c-.99,0-1.81.35-2.53,1.07-.72.72-1.07,1.57-1.07,2.53v11.7c0,.99.35,1.81,1.05,2.54.72.72,1.55,1.07,2.53,1.07h93.73c.99,0,1.81-.35,2.53-1.07.72-.72,1.07-1.55,1.07-2.53v-11.71c0-.99-.35-1.81-1.07-2.53Zm-87.24,11.54h-6.31v-6.31h6.31v6.31Zm12.62,0h-6.31v-6.31h6.31v6.31Zm12.62,0h-6.31v-6.31h6.31v6.31Zm12.62,0h-6.31v-6.31h6.31v6.31Zm44.16,0h-6.31v-6.31h6.31v6.31Zm-94.62-19.99c0-.91.12-1.03.95-1.84,0,0,13.95-13.82,14.98-15.03,1.04-1.21,2.36-.97,2.36-.97h64.57s1.16-.14,2.22,1.01c1.03,1.14,14.82,14.98,14.82,14.98.83.83,1.03.96,1.03,1.85,0,.95-1.15,1.06-2.3,1.06h-96.45c-1.11,0-2.18-.16-2.18-1.07Zm99.85,58.91c-.72-.72-1.57-1.07-2.53-1.07h-93.71c-.99,0-1.81.35-2.53,1.07-.72.72-1.07,1.57-1.07,2.53v11.7c0,.99.35,1.81,1.05,2.54.72.72,1.55,1.07,2.53,1.07h93.73c.99,0,1.81-.35,2.53-1.07.72-.72,1.07-1.55,1.07-2.53v-11.71c0-.99-.35-1.81-1.07-2.53Zm-87.24,11.54h-6.31v-6.31h6.31v6.31Zm12.62,0h-6.31v-6.31h6.31v6.31Zm12.62,0h-6.31v-6.31h6.31v6.31Zm12.62,0h-6.31v-6.31h6.31v6.31Zm44.16,0h-6.31v-6.31h6.31v6.31Zm5.23-36.77c-.72-.72-1.57-1.07-2.53-1.07h-93.71c-.99,0-1.81.35-2.53,1.07-.72.72-1.07,1.57-1.07,2.53v11.7c0,.99.35,1.81,1.05,2.54.72.72,1.55,1.07,2.53,1.07h93.73c.99,0,1.81-.35,2.53-1.07.72-.72,1.07-1.55,1.07-2.53v-11.71c0-.99-.35-1.81-1.07-2.53Zm-87.24,11.54h-6.31v-6.31h6.31v6.31Zm12.62,0h-6.31v-6.31h6.31v6.31Zm12.62,0h-6.31v-6.31h6.31v6.31Zm12.62,0h-6.31v-6.31h6.31v6.31Zm44.16,0h-6.31v-6.31h6.31v6.31Z"/>
    <g>
      <path class="cls-24" d="m646.5,391.1c-1.68,0-3.3-.32-4.86-.97-1.56-.65-2.94-1.58-4.14-2.81l1.92-2.22c1.14,1.12,2.3,1.95,3.49,2.49s2.45.81,3.77.81c1,0,1.88-.15,2.64-.45.76-.3,1.35-.71,1.79-1.25.43-.53.65-1.13.65-1.82,0-.94-.33-1.67-.99-2.17s-1.75-.88-3.27-1.12l-3.48-.6c-1.94-.32-3.39-.93-4.33-1.83-.95-.9-1.42-2.1-1.42-3.6,0-1.2.32-2.26.96-3.18.64-.92,1.54-1.63,2.71-2.13s2.52-.75,4.06-.75,3.02.25,4.48.75c1.47.5,2.79,1.2,3.98,2.1l-1.74,2.43c-2.26-1.72-4.55-2.58-6.87-2.58-.92,0-1.73.13-2.42.39s-1.22.62-1.59,1.09c-.37.47-.56,1.03-.56,1.67,0,.82.29,1.46.87,1.92.58.46,1.53.8,2.85,1.02l3.42.54c2.22.36,3.85,1.01,4.89,1.95,1.04.94,1.56,2.23,1.56,3.87,0,1.28-.34,2.41-1.03,3.39-.69.98-1.67,1.74-2.94,2.26-1.27.53-2.73.79-4.39.79Z"/>
      <path class="cls-24" d="m657.42,390.8v-15.27h3v1.44c1.14-1.16,2.57-1.74,4.29-1.74,1.04,0,1.97.23,2.79.69.82.46,1.46,1.09,1.92,1.89.62-.86,1.36-1.5,2.23-1.93s1.85-.65,2.93-.65c1.14,0,2.13.25,2.98.75.85.5,1.52,1.2,2,2.08.48.89.72,1.94.72,3.14v9.6h-2.97v-9.09c0-1.2-.31-2.15-.95-2.83-.63-.69-1.48-1.04-2.53-1.04-.76,0-1.44.17-2.04.53-.6.35-1.12.87-1.56,1.54.04.2.07.41.09.63.02.22.03.44.03.66v9.6h-2.97v-9.09c0-1.2-.32-2.15-.96-2.83-.64-.69-1.48-1.04-2.52-1.04-.74,0-1.4.16-1.98.46-.58.31-1.08.78-1.5,1.4v11.1h-3Z"/>
      <path class="cls-24" d="m688.62,391.07c-1.12,0-2.1-.19-2.94-.58-.84-.39-1.5-.93-1.98-1.63-.48-.7-.72-1.51-.72-2.43,0-1.44.55-2.57,1.66-3.39,1.11-.82,2.61-1.23,4.52-1.23,1.5,0,2.88.27,4.14.81v-1.59c0-1.1-.31-1.92-.93-2.46-.62-.54-1.54-.81-2.76-.81-.7,0-1.43.1-2.18.31s-1.6.54-2.53.98l-1.14-2.25c1.14-.54,2.21-.93,3.23-1.19,1.01-.25,2.02-.38,3.04-.38,1.98,0,3.51.47,4.6,1.41,1.09.94,1.63,2.28,1.63,4.02v10.14h-2.97v-1.32c-.66.54-1.38.94-2.16,1.2-.78.26-1.62.39-2.52.39Zm-2.79-4.74c0,.76.32,1.37.96,1.83s1.47.69,2.49.69c.8,0,1.54-.12,2.22-.36.68-.24,1.28-.61,1.8-1.11v-2.58c-.56-.32-1.16-.56-1.8-.72s-1.33-.24-2.07-.24c-1.12,0-2,.23-2.64.69s-.96,1.06-.96,1.8Z"/>
      <path class="cls-24" d="m699.72,390.8v-15.3h3v1.98c.48-.72,1.07-1.28,1.79-1.68.71-.4,1.51-.6,2.42-.6.62,0,1.13.08,1.53.24v2.7c-.28-.12-.57-.21-.87-.25-.3-.05-.61-.08-.93-.08-.86,0-1.63.24-2.31.71-.68.47-1.22,1.16-1.62,2.05v10.23h-3Z"/>
      <path class="cls-24" d="m717.36,391.07c-1.46,0-2.58-.34-3.36-1.02-.78-.68-1.17-1.69-1.17-3.03v-8.97h-3.24v-2.52h3.24v-3.87l2.97-.75v4.62h4.53v2.52h-4.53v8.31c0,.76.17,1.31.52,1.64.35.33.92.5,1.73.5.42,0,.79-.03,1.12-.09.33-.06.68-.16,1.06-.3v2.55c-.4.14-.87.25-1.4.32-.53.07-1.03.1-1.49.1Z"/>
      <path class="cls-24" d="m729.18,390.8v-21h9.69c1.38,0,2.58.26,3.6.78s1.82,1.25,2.4,2.21.87,2.05.87,3.31-.29,2.29-.87,3.23c-.58.93-1.38,1.67-2.42,2.21-1.03.54-2.22.81-3.58.81h-6.54v8.46h-3.15Zm3.15-11.13h6.24c1.22,0,2.19-.32,2.91-.96.72-.64,1.08-1.51,1.08-2.61s-.36-1.94-1.08-2.58c-.72-.64-1.69-.96-2.91-.96h-6.24v7.11Z"/>
      <path class="cls-24" d="m748.5,390.8v-15.3h3v1.98c.48-.72,1.08-1.28,1.79-1.68.71-.4,1.52-.6,2.42-.6.62,0,1.13.08,1.53.24v2.7c-.28-.12-.57-.21-.87-.25s-.61-.08-.93-.08c-.86,0-1.63.24-2.31.71-.68.47-1.22,1.16-1.62,2.05v10.23h-3Z"/>
      <path class="cls-24" d="m766.02,391.1c-1.48,0-2.83-.34-4.04-1.04-1.21-.69-2.17-1.64-2.88-2.85-.71-1.21-1.07-2.55-1.07-4.04s.35-2.84,1.05-4.04c.7-1.19,1.66-2.14,2.88-2.85,1.22-.71,2.57-1.07,4.05-1.07s2.82.36,4.04,1.07c1.21.71,2.16,1.66,2.86,2.85.7,1.19,1.05,2.54,1.05,4.04s-.35,2.83-1.05,4.04-1.66,2.16-2.86,2.85c-1.21.69-2.56,1.04-4.04,1.04Zm0-2.64c.94,0,1.79-.24,2.55-.71.76-.47,1.36-1.1,1.8-1.91.44-.8.66-1.7.66-2.7s-.22-1.86-.66-2.65c-.44-.79-1.04-1.43-1.8-1.91-.76-.48-1.61-.72-2.55-.72s-1.77.24-2.54.72c-.77.48-1.38,1.12-1.82,1.91-.44.79-.66,1.67-.66,2.65s.22,1.9.66,2.7c.44.8,1.04,1.44,1.82,1.91.77.47,1.61.71,2.54.71Z"/>
      <path class="cls-24" d="m773.76,390.8l5.94-7.83-5.7-7.44h3.54l3.93,5.22,3.9-5.22h3.39l-5.64,7.41,6,7.86h-3.51l-4.2-5.64-4.26,5.64h-3.39Z"/>
      <path class="cls-24" d="m792.06,397.22c-.3,0-.59-.01-.87-.04s-.51-.06-.69-.08v-2.67c.36.08.8.12,1.32.12,1.38,0,2.4-.75,3.06-2.25l.63-1.44-6.12-15.33h3.3l4.47,11.61,4.92-11.61h3.24l-7.38,17.16c-.48,1.1-1,1.98-1.54,2.64s-1.17,1.14-1.86,1.44c-.69.3-1.52.45-2.48.45Z"/>
    </g>
    <rect class="cls-33" x="598.28" y="233.83" width="245.89" height="176.86" rx="15.77" ry="15.77"/>
  </g>
  <g>
    <g>
      <path class="cls-24" d="m127.68,390.8v-21h3.15v9h11.13v-9h3.15v21h-3.15v-9.15h-11.13v9.15h-3.15Z"/>
      <path class="cls-24" d="m156.3,391.1c-1.48,0-2.82-.34-4.03-1.04-1.21-.69-2.17-1.64-2.88-2.85-.71-1.21-1.07-2.55-1.07-4.04s.35-2.84,1.05-4.04c.7-1.19,1.66-2.14,2.88-2.85,1.22-.71,2.57-1.07,4.05-1.07s2.82.36,4.04,1.07c1.21.71,2.16,1.66,2.87,2.85.7,1.19,1.05,2.54,1.05,4.04s-.35,2.83-1.05,4.04c-.7,1.21-1.66,2.16-2.87,2.85-1.21.69-2.56,1.04-4.04,1.04Zm0-2.64c.94,0,1.79-.24,2.55-.71.76-.47,1.36-1.1,1.8-1.91.44-.8.66-1.7.66-2.7s-.22-1.86-.66-2.65-1.04-1.43-1.8-1.91c-.76-.48-1.61-.72-2.55-.72s-1.77.24-2.53.72c-.77.48-1.38,1.12-1.81,1.91-.44.79-.66,1.67-.66,2.65s.22,1.9.66,2.7c.44.8,1.04,1.44,1.81,1.91.77.47,1.61.71,2.53.71Z"/>
      <path class="cls-24" d="m172.35,391.1c-1.32,0-2.56-.19-3.71-.58-1.15-.39-2.15-.96-2.98-1.7l1.62-1.98c.8.64,1.61,1.12,2.44,1.44.83.32,1.67.48,2.54.48,1.08,0,1.96-.21,2.64-.62.68-.41,1.02-.95,1.02-1.63,0-.56-.2-1-.6-1.32-.4-.32-1.02-.54-1.86-.66l-2.76-.39c-1.54-.22-2.69-.69-3.44-1.41-.75-.72-1.12-1.68-1.12-2.88,0-.9.25-1.7.75-2.4.5-.7,1.2-1.24,2.1-1.62.9-.38,1.94-.57,3.12-.57s2.19.16,3.21.46c1.02.31,2,.81,2.94,1.49l-1.5,1.98c-.86-.56-1.68-.97-2.46-1.23-.78-.26-1.58-.39-2.4-.39-.92,0-1.66.2-2.22.59-.56.39-.84.89-.84,1.51,0,.58.2,1.02.6,1.3.4.29,1.03.51,1.89.65l2.79.42c1.52.2,2.67.66,3.45,1.38.78.72,1.17,1.68,1.17,2.88,0,.9-.29,1.71-.86,2.45-.57.73-1.33,1.3-2.28,1.72-.95.42-2.04.63-3.26.63Z"/>
      <path class="cls-24" d="m187.26,391.07c-1.46,0-2.58-.34-3.36-1.02s-1.17-1.69-1.17-3.03v-8.97h-3.24v-2.52h3.24v-3.87l2.97-.75v4.62h4.53v2.52h-4.53v8.31c0,.76.17,1.31.53,1.64.35.33.92.5,1.72.5.42,0,.79-.03,1.12-.09.33-.06.69-.16,1.07-.3v2.55c-.4.14-.87.25-1.4.32-.53.07-1.02.1-1.48.1Z"/>
    </g>
    <rect class="cls-33" x="35.03" y="233.83" width="245.89" height="176.86" rx="15.77" ry="15.77"/>
    <g>
      <path class="cls-25" d="m205.08,324.95h-93.71c-.99,0-1.81.51-2.53,1.53-.72,1.03-1.07,2.24-1.07,3.61v16.69c0,1.41.35,2.59,1.05,3.63.72,1.03,1.55,1.53,2.53,1.53h93.73c.99,0,1.81-.51,2.53-1.53.72-1.03,1.07-2.21,1.07-3.61v-16.71c0-1.41-.35-2.59-1.07-3.61-.72-1.03-1.57-1.53-2.53-1.53Z"/>
      <path class="cls-25" d="m207.61,292.94c-.72-1.03-1.56-1.53-2.53-1.53h-93.71c-.99,0-1.82.5-2.53,1.53-.72,1.03-1.08,2.24-1.08,3.62v16.69c0,1.4.36,2.58,1.06,3.63.72,1.02,1.54,1.53,2.53,1.53h93.73c.99,0,1.81-.51,2.53-1.53.72-1.03,1.08-2.21,1.08-3.62v-16.7c0-1.41-.36-2.59-1.08-3.62Zm-27.19,16.58c-2.55,0-4.61-2.06-4.61-4.61s2.06-4.61,4.61-4.61,4.61,2.06,4.61,4.61-2.06,4.61-4.61,4.61Zm13.78,0c-2.55,0-4.61-2.06-4.61-4.61s2.06-4.61,4.61-4.61,4.61,2.06,4.61,4.61-2.07,4.61-4.61,4.61Z"/>
      <path class="cls-25" d="m208.69,277.04c0-.89-.21-1.02-1.03-1.85,0,0-13.79-13.84-14.82-14.98-1.05-1.14-2.22-1.01-2.22-1.01h-64.57s-1.32-.25-2.36.97c-1.04,1.21-14.98,15.03-14.98,15.03-.83.81-.95.94-.95,1.84v3.73c0,2.21,1.79,4,4,4h92.93c2.21,0,4-1.79,4-4v-3.73h0Z"/>
    </g>
  </g>
  <g>
    <path class="cls-34" d="m946.08,335.59l10.64-10.64-10.64-10.64"/>
    <line class="cls-32" x1="859.18" y1="324.92" x2="946.08" y2="324.92"/>
  </g>
  <g>
    <path class="cls-34" d="m572.64,288.89l10.64-10.64-10.64-10.64"/>
    <path class="cls-34" d="m306.57,267.6l-10.64,10.64,10.64,10.64"/>
    <line class="cls-32" x1="306.57" y1="278.22" x2="572.64" y2="278.22"/>
  </g>
  <g>
    <path class="cls-34" d="m572.64,335.59l10.64-10.64-10.64-10.64"/>
    <path class="cls-34" d="m306.57,314.31l-10.64,10.64,10.64,10.64"/>
    <line class="cls-32" x1="306.57" y1="324.92" x2="572.64" y2="324.92"/>
  </g>
  <g>
    <path class="cls-34" d="m572.64,382.29l10.64-10.64-10.64-10.64"/>
    <path class="cls-34" d="m306.57,361.01l-10.64,10.64,10.64,10.64"/>
    <line class="cls-32" x1="306.57" y1="371.63" x2="572.64" y2="371.63"/>
  </g>
  <g>
    <polyline class="cls-34" points="155.97 218.83 155.97 103.09 1286.49 103.14 1286.49 175.29"/>
    <path class="cls-34" d="m1275.85,175.29l10.64,10.7,10.64-10.7"/>
  </g>
  <g>
    <polyline class="cls-34" points="155.92 425.69 155.92 533.52 1286.49 533.52 1286.49 469.17"/>
    <path class="cls-34" d="m1275.85,469.17l10.64-10.64,10.64,10.64"/>
  </g>
  <g>
    <path class="cls-24" d="m612,128.11v-10.5h4.84c.69,0,1.29.13,1.8.39.51.26.91.63,1.2,1.1.29.48.44,1.03.44,1.66s-.15,1.15-.44,1.61-.69.83-1.21,1.1c-.52.27-1.11.4-1.79.4h-3.27v4.23h-1.58Zm1.58-5.57h3.12c.61,0,1.09-.16,1.46-.48.36-.32.54-.75.54-1.3s-.18-.97-.54-1.29c-.36-.32-.85-.48-1.46-.48h-3.12v3.55Z"/>
    <path class="cls-24" d="m621.91,128.11v-10.5h4.74c.7,0,1.31.13,1.84.39.53.26.94.62,1.23,1.09s.44,1.01.44,1.64c0,.68-.2,1.27-.59,1.78-.39.5-.91.86-1.55,1.07l2.33,4.53h-1.75l-2.16-4.3h-2.94v4.3h-1.58Zm1.58-5.62h3.04c.62,0,1.11-.16,1.48-.47.37-.31.56-.74.56-1.28s-.19-.95-.56-1.27-.86-.47-1.48-.47h-3.04v3.5Z"/>
    <path class="cls-24" d="m636.78,128.28c-.75,0-1.46-.14-2.12-.41-.67-.28-1.25-.66-1.75-1.16-.5-.5-.89-1.07-1.16-1.73-.28-.65-.41-1.36-.41-2.12s.14-1.47.41-2.12c.28-.66.66-1.23,1.16-1.73.5-.5,1.08-.88,1.75-1.16.67-.27,1.37-.41,2.12-.41s1.49.14,2.15.41c.66.28,1.25.66,1.75,1.16s.89,1.07,1.17,1.73c.28.65.42,1.36.42,2.12s-.14,1.47-.42,2.12c-.28.66-.67,1.23-1.17,1.73s-1.08.88-1.75,1.16c-.67.27-1.38.41-2.15.41Zm.03-1.46c.54,0,1.04-.1,1.51-.3s.88-.48,1.23-.83c.36-.35.63-.77.83-1.26.2-.48.29-1.01.29-1.57s-.1-1.08-.3-1.57c-.2-.49-.47-.91-.82-1.26-.35-.36-.76-.63-1.22-.83s-.97-.3-1.52-.3-1.04.1-1.52.3c-.47.2-.88.48-1.23.83-.35.35-.62.77-.82,1.26-.2.49-.29,1.01-.29,1.57s.1,1.08.29,1.57c.19.49.47.91.82,1.26.35.36.76.63,1.24.83s.98.3,1.52.3Z"/>
    <path class="cls-24" d="m646.62,128.11l-4.29-10.5h1.72l3.54,8.96,3.62-8.96h1.62l-4.35,10.5h-1.86Z"/>
    <path class="cls-24" d="m653.92,128.11v-10.5h1.58v10.5h-1.58Z"/>
    <path class="cls-24" d="m661.18,128.26c-.84,0-1.65-.16-2.43-.49-.78-.32-1.47-.79-2.07-1.4l.96-1.11c.57.56,1.15.97,1.75,1.24.59.27,1.22.41,1.88.41.5,0,.94-.08,1.32-.22.38-.15.68-.36.89-.62.21-.26.32-.57.32-.91,0-.47-.17-.83-.5-1.09-.33-.25-.88-.44-1.63-.56l-1.74-.3c-.97-.16-1.69-.46-2.17-.92-.47-.45-.71-1.05-.71-1.8,0-.6.16-1.13.48-1.59.32-.46.77-.82,1.36-1.07.59-.25,1.26-.38,2.03-.38s1.51.13,2.24.38c.74.25,1.4.6,1.99,1.05l-.87,1.21c-1.13-.86-2.27-1.29-3.43-1.29-.46,0-.86.07-1.21.19-.34.13-.61.31-.79.55-.18.24-.28.51-.28.83,0,.41.15.73.44.96.29.23.76.4,1.42.51l1.71.27c1.11.18,1.92.51,2.45.98.52.47.78,1.12.78,1.93,0,.64-.17,1.21-.52,1.7-.34.49-.83.87-1.47,1.13-.63.26-1.37.4-2.2.4Z"/>
    <path class="cls-24" d="m666.84,128.11v-10.5h1.58v10.5h-1.58Z"/>
    <path class="cls-24" d="m675.54,128.28c-.75,0-1.46-.14-2.12-.41-.67-.28-1.25-.66-1.75-1.16-.5-.5-.89-1.07-1.16-1.73-.28-.65-.41-1.36-.41-2.12s.14-1.47.41-2.12c.28-.66.66-1.23,1.16-1.73.5-.5,1.08-.88,1.75-1.16.67-.27,1.37-.41,2.12-.41s1.49.14,2.15.41c.66.28,1.25.66,1.75,1.16s.89,1.07,1.17,1.73c.28.65.42,1.36.42,2.12s-.14,1.47-.42,2.12c-.28.66-.67,1.23-1.17,1.73s-1.08.88-1.75,1.16c-.67.27-1.38.41-2.15.41Zm.03-1.46c.54,0,1.04-.1,1.51-.3s.88-.48,1.23-.83c.36-.35.63-.77.83-1.26.2-.48.29-1.01.29-1.57s-.1-1.08-.3-1.57c-.2-.49-.47-.91-.82-1.26-.35-.36-.76-.63-1.22-.83s-.97-.3-1.52-.3-1.04.1-1.52.3c-.47.2-.88.48-1.23.83-.35.35-.62.77-.82,1.26-.2.49-.29,1.01-.29,1.57s.1,1.08.29,1.57c.19.49.47.91.82,1.26.35.36.76.63,1.24.83s.98.3,1.52.3Z"/>
    <path class="cls-24" d="m682.71,128.11v-10.5h1.53l5.85,7.8v-7.8h1.49v10.5h-1.4l-5.98-8.03v8.03h-1.49Z"/>
    <path class="cls-24" d="m693.73,128.11v-10.5h1.58v10.5h-1.58Z"/>
    <path class="cls-24" d="m697.45,128.11v-10.5h1.53l5.85,7.8v-7.8h1.49v10.5h-1.4l-5.98-8.03v8.03h-1.49Z"/>
    <path class="cls-24" d="m713.5,128.28c-.77,0-1.49-.14-2.15-.42-.67-.28-1.25-.67-1.75-1.16-.5-.49-.89-1.07-1.17-1.72-.28-.65-.42-1.36-.42-2.11s.14-1.45.41-2.11.66-1.23,1.16-1.72c.5-.5,1.08-.88,1.75-1.16.67-.28,1.38-.42,2.14-.42.84,0,1.63.16,2.36.48.74.32,1.36.77,1.87,1.35l-1.08,1.04c-.39-.46-.86-.81-1.41-1.05-.55-.24-1.13-.36-1.74-.36-.54,0-1.04.1-1.52.3-.47.2-.88.48-1.23.84-.35.36-.62.78-.82,1.26-.2.48-.29,1-.29,1.56s.1,1.08.29,1.56c.19.48.47.9.82,1.27.35.37.76.65,1.24.85s.98.3,1.52.3c.63,0,1.2-.13,1.7-.39.5-.26.92-.62,1.24-1.07.32-.46.51-.97.58-1.55h-3.48v-1.37h5.13v.56c0,.74-.13,1.43-.39,2.07-.26.64-.62,1.2-1.09,1.68-.46.48-1.01.85-1.64,1.12-.63.26-1.31.4-2.04.4Z"/>
    <path class="cls-24" d="m724.26,122.23c-.26,0-.48-.09-.67-.28-.18-.19-.28-.41-.28-.68s.09-.49.28-.67c.19-.19.41-.29.67-.29s.48.09.67.29c.18.19.28.42.28.67s-.09.5-.28.68c-.19.18-.41.28-.67.28Zm0,6c-.26,0-.48-.09-.67-.28-.18-.19-.28-.41-.28-.68s.09-.49.28-.67c.19-.19.41-.29.67-.29s.48.09.67.29c.18.19.28.42.28.67s-.09.5-.28.68c-.19.18-.41.28-.67.28Z"/>
    <path class="cls-24" d="m730.51,128.11v-10.5h3.95c.68,0,1.26.11,1.74.32.48.22.85.52,1.1.91.25.39.38.85.38,1.38,0,.58-.16,1.08-.49,1.5-.32.42-.78.71-1.37.88.74.16,1.31.46,1.72.92.4.45.61,1.01.61,1.7,0,.57-.14,1.07-.42,1.51-.28.44-.68.78-1.2,1.02-.52.25-1.15.37-1.89.37h-4.11Zm.69-5.8h3.24c.79,0,1.41-.19,1.87-.56.45-.38.68-.86.68-1.46s-.23-1.09-.68-1.46c-.46-.38-1.08-.56-1.87-.56h-3.24v4.05Zm0,5.16h3.36c.88,0,1.58-.21,2.09-.63.51-.42.77-.96.77-1.63s-.26-1.21-.77-1.63c-.52-.42-1.21-.62-2.09-.62h-3.36v4.52Z"/>
    <path class="cls-24" d="m742.47,128.26c-.55,0-1.04-.12-1.46-.35-.43-.24-.76-.57-1-.99-.24-.42-.36-.92-.36-1.48v-4.71h.66v4.53c0,.73.2,1.31.61,1.74.41.43.98.65,1.7.65.5,0,.95-.12,1.35-.36.4-.24.71-.58.95-1v-5.55h.66v7.38h-.66v-1.02c-.58.78-1.39,1.17-2.45,1.17Z"/>
    <path class="cls-24" d="m747.94,119.07c-.16,0-.29-.05-.4-.17-.11-.11-.17-.25-.17-.41s.05-.29.17-.4c.11-.11.24-.17.4-.17.17,0,.31.05.41.17.1.11.16.25.16.4s-.05.29-.16.41c-.11.11-.24.17-.41.17Zm-.33,9.04v-7.38h.66v7.38h-.66Z"/>
    <path class="cls-24" d="m750.31,128.11v-10.5l.66-.17v10.67h-.66Z"/>
    <path class="cls-24" d="m755.61,128.26c-.56,0-.99-.14-1.29-.42-.3-.28-.45-.67-.45-1.17v-5.34h-1.62v-.6h1.62v-1.86l.66-.21v2.07h2.28v.6h-2.28v5.12c0,.42.09.72.28.91.18.19.49.28.92.28.23,0,.42-.02.58-.05.16-.04.32-.09.5-.16v.65c-.19.07-.39.12-.58.15-.2.03-.41.04-.62.04Z"/>
    <path class="cls-24" d="m763.5,128.26c-.57,0-1.11-.1-1.63-.31-.51-.21-.95-.5-1.3-.89l.51-.42c.3.31.66.55,1.09.73.42.18.87.27,1.33.27.68,0,1.23-.15,1.64-.44s.62-.68.62-1.15c0-.35-.12-.64-.38-.87-.25-.23-.66-.38-1.21-.45l-1.21-.15c-.7-.08-1.23-.28-1.6-.61s-.55-.77-.55-1.32c0-.41.11-.77.33-1.08.22-.31.53-.55.92-.73.39-.17.85-.26,1.37-.26s.98.08,1.44.23c.46.15.92.39,1.39.73l-.39.54c-.42-.3-.82-.52-1.21-.67-.39-.15-.79-.22-1.22-.22-.58,0-1.06.12-1.42.37-.37.25-.56.61-.56,1.09,0,.36.12.65.37.87.24.22.64.37,1.19.43l1.2.15c.74.09,1.29.3,1.65.64.36.34.54.78.54,1.31,0,.42-.12.8-.38,1.13-.25.34-.59.6-1.03.79-.44.19-.94.29-1.52.29Z"/>
    <path class="cls-24" d="m770.04,128.26c-.56,0-.99-.14-1.29-.42-.3-.28-.45-.67-.45-1.17v-5.34h-1.62v-.6h1.62v-1.86l.66-.21v2.07h2.28v.6h-2.28v5.12c0,.42.09.72.28.91.18.19.49.28.92.28.23,0,.42-.02.58-.05.16-.04.32-.09.5-.16v.65c-.19.07-.39.12-.58.15-.2.03-.41.04-.62.04Z"/>
    <path class="cls-24" d="m774.73,128.26c-.54,0-1.02-.09-1.42-.28-.41-.18-.73-.44-.96-.78-.23-.33-.35-.72-.35-1.16,0-.68.26-1.23.79-1.64.53-.41,1.24-.62,2.12-.62s1.66.21,2.34.64v-1.23c0-.68-.18-1.19-.55-1.52s-.9-.5-1.59-.5c-.34,0-.7.06-1.07.17-.37.11-.79.29-1.27.54l-.29-.58c.47-.24.92-.42,1.35-.53s.86-.17,1.29-.17c.89,0,1.58.21,2.06.64s.73,1.04.73,1.85v5.04h-.66v-.83c-.34.31-.72.55-1.14.72s-.88.26-1.38.26Zm-2.07-2.24c0,.48.2.88.6,1.18.4.31.91.47,1.52.47.53,0,1-.09,1.39-.28.4-.18.76-.45,1.08-.79v-1.53c-.33-.25-.69-.43-1.08-.55-.39-.12-.83-.18-1.33-.18-.65,0-1.17.16-1.58.46-.4.31-.6.71-.6,1.21Z"/>
    <path class="cls-24" d="m782.22,128.26c-.56,0-.99-.14-1.29-.42-.3-.28-.45-.67-.45-1.17v-5.34h-1.62v-.6h1.62v-1.86l.66-.21v2.07h2.28v.6h-2.28v5.12c0,.42.09.72.28.91.18.19.49.28.92.28.23,0,.42-.02.58-.05.16-.04.32-.09.5-.16v.65c-.19.07-.39.12-.58.15-.2.03-.41.04-.62.04Z"/>
    <path class="cls-24" d="m787.48,128.26c-.55,0-1.04-.12-1.46-.35-.43-.24-.76-.57-1-.99-.24-.42-.36-.92-.36-1.48v-4.71h.66v4.53c0,.73.2,1.31.61,1.74.41.43.98.65,1.7.65.5,0,.95-.12,1.35-.36.4-.24.71-.58.95-1v-5.55h.66v7.38h-.66v-1.02c-.58.78-1.39,1.17-2.45,1.17Z"/>
    <path class="cls-24" d="m794.73,128.26c-.57,0-1.11-.1-1.63-.31-.51-.21-.95-.5-1.3-.89l.51-.42c.3.31.66.55,1.09.73.42.18.87.27,1.33.27.68,0,1.23-.15,1.64-.44s.62-.68.62-1.15c0-.35-.12-.64-.38-.87-.25-.23-.66-.38-1.21-.45l-1.21-.15c-.7-.08-1.23-.28-1.6-.61s-.55-.77-.55-1.32c0-.41.11-.77.33-1.08.22-.31.53-.55.92-.73.39-.17.85-.26,1.37-.26s.98.08,1.44.23c.46.15.92.39,1.39.73l-.39.54c-.42-.3-.82-.52-1.21-.67-.39-.15-.79-.22-1.22-.22-.58,0-1.06.12-1.42.37-.37.25-.56.61-.56,1.09,0,.36.12.65.37.87.24.22.64.37,1.19.43l1.2.15c.74.09,1.29.3,1.65.64.36.34.54.78.54,1.31,0,.42-.12.8-.38,1.13-.25.34-.59.6-1.03.79-.44.19-.94.29-1.52.29Z"/>
  </g>
  <g>
    <path class="cls-24" d="m326.16,268.81c-.78,0-1.5-.14-2.17-.41-.67-.28-1.25-.66-1.75-1.16s-.89-1.07-1.17-1.73c-.28-.65-.41-1.36-.41-2.12s.14-1.48.41-2.14c.28-.65.67-1.23,1.17-1.72.5-.49,1.09-.87,1.76-1.15.67-.27,1.39-.41,2.16-.41.55,0,1.09.07,1.61.22.53.14,1.01.35,1.46.62.45.27.84.6,1.18.99l-1.07,1.07c-.39-.47-.87-.83-1.42-1.07-.56-.25-1.15-.37-1.75-.37-.56,0-1.08.1-1.54.3-.47.2-.88.48-1.24.84-.36.36-.63.78-.83,1.26-.2.48-.29,1-.29,1.56s.1,1.08.29,1.56c.19.48.47.9.83,1.26.35.36.77.64,1.26.84.48.2,1,.3,1.55.3.61,0,1.19-.12,1.74-.38s1.02-.59,1.4-1.04l1.04,1.05c-.34.37-.73.69-1.18.97-.45.28-.92.49-1.44.63-.51.15-1.04.22-1.58.22Z"/>
    <path class="cls-24" d="m336.68,268.81c-.75,0-1.46-.14-2.12-.41-.67-.28-1.25-.66-1.75-1.16-.5-.5-.89-1.07-1.16-1.73-.28-.65-.41-1.36-.41-2.12s.14-1.47.41-2.12c.28-.66.66-1.23,1.16-1.73.5-.5,1.08-.88,1.75-1.16.67-.27,1.37-.41,2.12-.41s1.49.14,2.15.41c.66.28,1.25.66,1.75,1.16s.89,1.07,1.17,1.73c.28.65.42,1.36.42,2.12s-.14,1.47-.42,2.12c-.28.66-.67,1.23-1.17,1.73s-1.08.88-1.75,1.16c-.67.27-1.38.41-2.15.41Zm.03-1.46c.54,0,1.04-.1,1.51-.3s.88-.48,1.23-.83c.36-.35.63-.77.83-1.26.2-.48.29-1.01.29-1.57s-.1-1.08-.3-1.57c-.2-.49-.47-.91-.82-1.26-.35-.36-.76-.63-1.22-.83s-.97-.3-1.52-.3-1.04.1-1.52.3c-.47.2-.88.48-1.23.83-.35.35-.62.77-.82,1.26-.2.49-.29,1.01-.29,1.57s.1,1.08.29,1.57c.19.49.47.91.82,1.26.35.36.76.63,1.24.83s.98.3,1.52.3Z"/>
    <path class="cls-24" d="m343.85,268.64v-10.5h1.53l5.85,7.8v-7.8h1.49v10.5h-1.4l-5.98-8.03v8.03h-1.49Z"/>
    <path class="cls-24" d="m354.87,268.64v-10.5h7.74v1.38h-6.17v3.23h4.06v1.33h-4.06v4.56h-1.58Z"/>
    <path class="cls-24" d="m364.17,268.64v-10.5h1.58v10.5h-1.58Z"/>
    <path class="cls-24" d="m372.92,268.81c-.77,0-1.49-.14-2.15-.42-.67-.28-1.25-.67-1.75-1.16-.5-.49-.89-1.07-1.17-1.72-.28-.65-.42-1.36-.42-2.11s.14-1.45.41-2.11.66-1.23,1.16-1.72c.5-.5,1.08-.88,1.75-1.16.67-.28,1.38-.42,2.14-.42.84,0,1.63.16,2.36.48.74.32,1.36.77,1.87,1.35l-1.08,1.04c-.39-.46-.86-.81-1.41-1.05-.55-.24-1.13-.36-1.74-.36-.54,0-1.04.1-1.52.3-.47.2-.88.48-1.23.84-.35.36-.62.78-.82,1.26-.2.48-.29,1-.29,1.56s.1,1.08.29,1.56c.19.48.47.9.82,1.27.35.37.76.65,1.24.85s.98.3,1.52.3c.63,0,1.2-.13,1.7-.39.5-.26.92-.62,1.24-1.07.32-.46.51-.97.58-1.55h-3.48v-1.37h5.13v.56c0,.74-.13,1.43-.39,2.07-.26.64-.62,1.2-1.09,1.68-.46.48-1.01.85-1.64,1.12-.63.26-1.31.4-2.04.4Z"/>
    <path class="cls-24" d="m384.02,268.81c-.93,0-1.73-.19-2.4-.57-.67-.38-1.19-.92-1.54-1.61-.36-.7-.54-1.52-.54-2.47v-6.01h1.58v6.01c0,.65.12,1.21.36,1.69.24.48.58.85,1.01,1.11.44.26.95.4,1.54.4s1.08-.13,1.51-.4c.43-.26.76-.63,1-1.11.24-.47.36-1.04.36-1.69v-6.01h1.57v6.01c0,.95-.18,1.77-.55,2.47-.37.7-.88,1.23-1.54,1.61-.67.38-1.45.57-2.36.57Z"/>
    <path class="cls-24" d="m390.44,268.64v-10.5h4.74c.7,0,1.31.13,1.84.39.53.26.94.62,1.23,1.09s.44,1.01.44,1.64c0,.68-.2,1.27-.59,1.78-.39.5-.91.86-1.55,1.07l2.33,4.53h-1.75l-2.16-4.3h-2.94v4.3h-1.58Zm1.58-5.62h3.04c.62,0,1.11-.16,1.48-.47.37-.31.56-.74.56-1.28s-.19-.95-.56-1.27-.86-.47-1.48-.47h-3.04v3.5Z"/>
    <path class="cls-24" d="m399.41,268.64l4.33-10.5h1.85l4.3,10.5h-1.71l-1.21-3.08h-4.71l-1.21,3.08h-1.64Zm3.38-4.38h3.68l-1.83-4.62-1.85,4.62Z"/>
    <path class="cls-24" d="m411.96,268.64v-9.11h-3.69v-1.39h8.96v1.39h-3.69v9.11h-1.57Z"/>
    <path class="cls-24" d="m418.56,268.64v-10.5h1.58v10.5h-1.58Z"/>
    <path class="cls-24" d="m427.26,268.81c-.75,0-1.46-.14-2.12-.41-.67-.28-1.25-.66-1.75-1.16-.5-.5-.89-1.07-1.16-1.73-.28-.65-.41-1.36-.41-2.12s.14-1.47.41-2.12c.28-.66.66-1.23,1.16-1.73.5-.5,1.08-.88,1.75-1.16.67-.27,1.37-.41,2.12-.41s1.49.14,2.15.41c.66.28,1.25.66,1.75,1.16s.89,1.07,1.17,1.73c.28.65.42,1.36.42,2.12s-.14,1.47-.42,2.12c-.28.66-.67,1.23-1.17,1.73s-1.08.88-1.75,1.16c-.67.27-1.38.41-2.15.41Zm.03-1.46c.54,0,1.04-.1,1.51-.3s.88-.48,1.23-.83c.36-.35.63-.77.83-1.26.2-.48.29-1.01.29-1.57s-.1-1.08-.3-1.57c-.2-.49-.47-.91-.82-1.26-.35-.36-.76-.63-1.22-.83s-.97-.3-1.52-.3-1.04.1-1.52.3c-.47.2-.88.48-1.23.83-.35.35-.62.77-.82,1.26-.2.49-.29,1.01-.29,1.57s.1,1.08.29,1.57c.19.49.47.91.82,1.26.35.36.76.63,1.24.83s.98.3,1.52.3Z"/>
    <path class="cls-24" d="m434.43,268.64v-10.5h1.53l5.85,7.8v-7.8h1.49v10.5h-1.4l-5.98-8.03v8.03h-1.49Z"/>
    <path class="cls-24" d="m451.73,268.64v-10.5h2.08l3.3,6.72,3.29-6.72h2.12v10.5h-1.52v-8.58l-3.9,7.83-3.92-7.83v8.58h-1.46Z"/>
    <path class="cls-24" d="m463.58,268.64l4.33-10.5h1.85l4.3,10.5h-1.71l-1.21-3.08h-4.71l-1.21,3.08h-1.64Zm3.38-4.38h3.68l-1.83-4.62-1.85,4.62Z"/>
    <path class="cls-24" d="m475.16,268.64v-10.5h1.53l5.85,7.8v-7.8h1.49v10.5h-1.4l-5.98-8.03v8.03h-1.49Z"/>
    <path class="cls-24" d="m485.12,268.64l4.33-10.5h1.85l4.3,10.5h-1.71l-1.21-3.08h-4.71l-1.21,3.08h-1.64Zm3.38-4.38h3.68l-1.83-4.62-1.85,4.62Z"/>
    <path class="cls-24" d="m501.18,268.81c-.77,0-1.49-.14-2.15-.42-.67-.28-1.25-.67-1.75-1.16-.5-.49-.89-1.07-1.17-1.72-.28-.65-.42-1.36-.42-2.11s.14-1.45.41-2.11.66-1.23,1.16-1.72c.5-.5,1.08-.88,1.75-1.16.67-.28,1.38-.42,2.14-.42.84,0,1.63.16,2.36.48.74.32,1.36.77,1.87,1.35l-1.08,1.04c-.39-.46-.86-.81-1.41-1.05-.55-.24-1.13-.36-1.74-.36-.54,0-1.04.1-1.52.3-.47.2-.88.48-1.23.84-.35.36-.62.78-.82,1.26-.2.48-.29,1-.29,1.56s.1,1.08.29,1.56c.19.48.47.9.82,1.27.35.37.76.65,1.24.85s.98.3,1.52.3c.63,0,1.2-.13,1.7-.39.5-.26.92-.62,1.24-1.07.32-.46.51-.97.58-1.55h-3.48v-1.37h5.13v.56c0,.74-.13,1.43-.39,2.07-.26.64-.62,1.2-1.09,1.68-.46.48-1.01.85-1.64,1.12-.63.26-1.31.4-2.04.4Z"/>
    <path class="cls-24" d="m508.01,268.64v-10.5h7.74v1.38h-6.17v3.15h4.02v1.33h-4.02v3.25h6.22v1.38h-7.8Z"/>
    <path class="cls-24" d="m517.43,268.64v-10.5h2.08l3.3,6.72,3.29-6.72h2.12v10.5h-1.52v-8.58l-3.9,7.83-3.92-7.83v8.58h-1.46Z"/>
    <path class="cls-24" d="m530.34,268.64v-10.5h7.74v1.38h-6.17v3.15h4.02v1.33h-4.02v3.25h6.22v1.38h-7.8Z"/>
    <path class="cls-24" d="m539.76,268.64v-10.5h1.53l5.85,7.8v-7.8h1.49v10.5h-1.4l-5.98-8.03v8.03h-1.49Z"/>
    <path class="cls-24" d="m553.65,268.64v-9.11h-3.69v-1.39h8.96v1.39h-3.69v9.11h-1.57Z"/>
  </g>
  <g>
    <path class="cls-24" d="m382.37,315.93c-.75,0-1.46-.14-2.12-.41-.67-.28-1.25-.66-1.75-1.16-.5-.5-.89-1.07-1.16-1.73-.28-.65-.41-1.36-.41-2.12s.14-1.47.41-2.12c.28-.66.66-1.23,1.16-1.73.5-.5,1.08-.88,1.75-1.16.67-.27,1.37-.41,2.12-.41s1.49.14,2.15.41c.66.28,1.25.66,1.75,1.16s.89,1.07,1.17,1.73c.28.65.42,1.36.42,2.12s-.14,1.47-.42,2.12c-.28.66-.67,1.23-1.17,1.73s-1.08.88-1.75,1.16c-.67.27-1.38.41-2.15.41Zm.03-1.46c.54,0,1.04-.1,1.51-.3s.88-.48,1.23-.83c.36-.35.63-.77.83-1.26.2-.48.29-1.01.29-1.57s-.1-1.08-.3-1.57c-.2-.49-.47-.91-.82-1.26-.35-.36-.76-.63-1.22-.83s-.97-.3-1.52-.3-1.04.1-1.52.3c-.47.2-.88.48-1.23.83-.35.35-.62.77-.82,1.26-.2.49-.29,1.01-.29,1.57s.1,1.08.29,1.57c.19.49.47.91.82,1.26.35.36.76.63,1.24.83s.98.3,1.52.3Z"/>
    <path class="cls-24" d="m389.54,315.77v-10.5h4.74c.7,0,1.31.13,1.84.39.53.26.94.62,1.23,1.09s.44,1.01.44,1.64c0,.68-.2,1.27-.59,1.78-.39.5-.91.86-1.55,1.07l2.33,4.53h-1.75l-2.16-4.3h-2.94v4.3h-1.58Zm1.58-5.62h3.04c.62,0,1.11-.16,1.48-.47.37-.31.56-.74.56-1.28s-.19-.95-.56-1.27-.86-.47-1.48-.47h-3.04v3.5Z"/>
    <path class="cls-24" d="m404.47,315.93c-.78,0-1.5-.14-2.17-.41-.67-.28-1.25-.66-1.75-1.16s-.89-1.07-1.17-1.73c-.28-.65-.41-1.36-.41-2.12s.14-1.48.41-2.14c.28-.65.67-1.23,1.17-1.72.5-.49,1.09-.87,1.76-1.15.67-.27,1.39-.41,2.16-.41.55,0,1.09.07,1.61.22.53.14,1.01.35,1.46.62.45.27.84.6,1.18.99l-1.07,1.07c-.39-.47-.87-.83-1.42-1.07-.56-.25-1.15-.37-1.75-.37-.56,0-1.08.1-1.54.3-.47.2-.88.48-1.24.84-.36.36-.63.78-.83,1.26-.2.48-.29,1-.29,1.56s.1,1.08.29,1.56c.19.48.47.9.83,1.26.35.36.77.64,1.26.84.48.2,1,.3,1.55.3.61,0,1.19-.12,1.74-.38s1.02-.59,1.4-1.04l1.04,1.05c-.34.37-.73.69-1.18.97-.45.28-.92.49-1.44.63-.51.15-1.04.22-1.58.22Z"/>
    <path class="cls-24" d="m410.23,315.77v-10.5h1.58v4.5h5.56v-4.5h1.58v10.5h-1.58v-4.58h-5.56v4.58h-1.58Z"/>
    <path class="cls-24" d="m421.1,315.77v-10.5h7.74v1.38h-6.17v3.15h4.02v1.33h-4.02v3.25h6.22v1.38h-7.8Z"/>
    <path class="cls-24" d="m434.06,315.92c-.84,0-1.65-.16-2.43-.49-.78-.32-1.47-.79-2.07-1.4l.96-1.11c.57.56,1.15.97,1.75,1.24.59.27,1.22.41,1.88.41.5,0,.94-.08,1.32-.22.38-.15.68-.36.89-.62.21-.26.32-.57.32-.91,0-.47-.17-.83-.5-1.09-.33-.25-.88-.44-1.63-.56l-1.74-.3c-.97-.16-1.69-.46-2.17-.92-.47-.45-.71-1.05-.71-1.8,0-.6.16-1.13.48-1.59.32-.46.77-.82,1.36-1.07.59-.25,1.26-.38,2.03-.38s1.51.13,2.24.38c.74.25,1.4.6,1.99,1.05l-.87,1.21c-1.13-.86-2.27-1.29-3.43-1.29-.46,0-.86.07-1.21.19-.34.13-.61.31-.79.55-.18.24-.28.51-.28.83,0,.41.15.73.44.96.29.23.76.4,1.42.51l1.71.27c1.11.18,1.92.51,2.45.98.52.47.78,1.12.78,1.93,0,.64-.17,1.21-.52,1.7-.34.49-.83.87-1.47,1.13-.63.26-1.37.4-2.2.4Z"/>
    <path class="cls-24" d="m442.36,315.77v-9.11h-3.69v-1.39h8.96v1.39h-3.69v9.11h-1.57Z"/>
    <path class="cls-24" d="m448.96,315.77v-10.5h4.74c.7,0,1.31.13,1.84.39.53.26.94.62,1.23,1.09s.44,1.01.44,1.64c0,.68-.2,1.27-.59,1.78-.39.5-.91.86-1.55,1.07l2.33,4.53h-1.75l-2.16-4.3h-2.94v4.3h-1.58Zm1.58-5.62h3.04c.62,0,1.11-.16,1.48-.47.37-.31.56-.74.56-1.28s-.19-.95-.56-1.27-.86-.47-1.48-.47h-3.04v3.5Z"/>
    <path class="cls-24" d="m457.93,315.77l4.33-10.5h1.85l4.3,10.5h-1.71l-1.21-3.08h-4.71l-1.21,3.08h-1.64Zm3.38-4.38h3.68l-1.83-4.62-1.85,4.62Z"/>
    <path class="cls-24" d="m470.48,315.77v-9.11h-3.69v-1.39h8.96v1.39h-3.69v9.11h-1.57Z"/>
    <path class="cls-24" d="m477.08,315.77v-10.5h1.58v10.5h-1.58Z"/>
    <path class="cls-24" d="m485.78,315.93c-.75,0-1.46-.14-2.12-.41-.67-.28-1.25-.66-1.75-1.16-.5-.5-.89-1.07-1.16-1.73-.28-.65-.41-1.36-.41-2.12s.14-1.47.41-2.12c.28-.66.66-1.23,1.16-1.73.5-.5,1.08-.88,1.75-1.16.67-.27,1.37-.41,2.12-.41s1.49.14,2.15.41c.66.28,1.25.66,1.75,1.16s.89,1.07,1.17,1.73c.28.65.42,1.36.42,2.12s-.14,1.47-.42,2.12c-.28.66-.67,1.23-1.17,1.73s-1.08.88-1.75,1.16c-.67.27-1.38.41-2.15.41Zm.03-1.46c.54,0,1.04-.1,1.51-.3s.88-.48,1.23-.83c.36-.35.63-.77.83-1.26.2-.48.29-1.01.29-1.57s-.1-1.08-.3-1.57c-.2-.49-.47-.91-.82-1.26-.35-.36-.76-.63-1.22-.83s-.97-.3-1.52-.3-1.04.1-1.52.3c-.47.2-.88.48-1.23.83-.35.35-.62.77-.82,1.26-.2.49-.29,1.01-.29,1.57s.1,1.08.29,1.57c.19.49.47.91.82,1.26.35.36.76.63,1.24.83s.98.3,1.52.3Z"/>
    <path class="cls-24" d="m492.95,315.77v-10.5h1.53l5.85,7.8v-7.8h1.49v10.5h-1.4l-5.98-8.03v8.03h-1.49Z"/>
  </g>
  <g>
    <path class="cls-24" d="m351.31,361.34c-.84,0-1.65-.16-2.43-.49-.78-.32-1.47-.79-2.07-1.4l.96-1.11c.57.56,1.15.97,1.75,1.24.59.27,1.22.41,1.88.41.5,0,.94-.08,1.32-.22.38-.15.68-.36.89-.62.21-.26.32-.57.32-.91,0-.47-.17-.83-.5-1.09-.33-.25-.88-.44-1.63-.56l-1.74-.3c-.97-.16-1.69-.46-2.17-.92-.47-.45-.71-1.05-.71-1.8,0-.6.16-1.13.48-1.59.32-.46.77-.82,1.36-1.07.59-.25,1.26-.38,2.03-.38s1.51.13,2.24.38c.74.25,1.4.6,1.99,1.05l-.87,1.21c-1.13-.86-2.27-1.29-3.43-1.29-.46,0-.86.07-1.21.19-.34.13-.61.31-.79.55-.18.24-.28.51-.28.83,0,.41.15.73.44.96.29.23.76.4,1.42.51l1.71.27c1.11.18,1.92.51,2.45.98.52.47.78,1.12.78,1.93,0,.64-.17,1.21-.52,1.7-.34.49-.83.87-1.47,1.13-.63.26-1.37.4-2.2.4Z"/>
    <path class="cls-24" d="m356.96,361.19v-10.5h7.74v1.38h-6.17v3.15h4.02v1.33h-4.02v3.25h6.22v1.38h-7.8Z"/>
    <path class="cls-24" d="m370.76,361.35c-.78,0-1.5-.14-2.17-.41-.67-.28-1.25-.66-1.75-1.16s-.89-1.07-1.17-1.73c-.28-.65-.41-1.36-.41-2.12s.14-1.48.41-2.14c.28-.65.67-1.23,1.17-1.72.5-.49,1.09-.87,1.76-1.15.67-.27,1.39-.41,2.16-.41.55,0,1.09.07,1.61.22.53.14,1.01.35,1.46.62.45.27.84.6,1.18.99l-1.07,1.07c-.39-.47-.87-.83-1.42-1.07-.56-.25-1.15-.37-1.75-.37-.56,0-1.08.1-1.54.3-.47.2-.88.48-1.24.84-.36.36-.63.78-.83,1.26-.2.48-.29,1-.29,1.56s.1,1.08.29,1.56c.19.48.47.9.83,1.26.35.36.77.64,1.26.84.48.2,1,.3,1.55.3.61,0,1.19-.12,1.74-.38s1.02-.59,1.4-1.04l1.04,1.05c-.34.37-.73.69-1.18.97-.45.28-.92.49-1.44.63-.51.15-1.04.22-1.58.22Z"/>
    <path class="cls-24" d="m380.8,361.35c-.93,0-1.73-.19-2.4-.57-.67-.38-1.19-.92-1.54-1.61-.36-.7-.54-1.52-.54-2.47v-6.01h1.58v6.01c0,.65.12,1.21.36,1.69.24.48.58.85,1.01,1.11.44.26.95.4,1.54.4s1.08-.13,1.51-.4c.43-.26.76-.63,1-1.11.24-.47.36-1.04.36-1.69v-6.01h1.57v6.01c0,.95-.18,1.77-.55,2.47-.37.7-.88,1.23-1.54,1.61-.67.38-1.45.57-2.36.57Z"/>
    <path class="cls-24" d="m387.22,361.19v-10.5h4.74c.7,0,1.31.13,1.84.39.53.26.94.62,1.23,1.09s.44,1.01.44,1.64c0,.68-.2,1.27-.59,1.78-.39.5-.91.86-1.55,1.07l2.33,4.53h-1.75l-2.16-4.3h-2.94v4.3h-1.58Zm1.58-5.62h3.04c.62,0,1.11-.16,1.48-.47.37-.31.56-.74.56-1.28s-.19-.95-.56-1.27-.86-.47-1.48-.47h-3.04v3.5Z"/>
    <path class="cls-24" d="m397.1,361.19v-10.5h1.58v10.5h-1.58Z"/>
    <path class="cls-24" d="m403.69,361.19v-9.11h-3.69v-1.39h8.96v1.39h-3.69v9.11h-1.57Z"/>
    <path class="cls-24" d="m413.57,361.19v-4.17l-4.23-6.33h1.83l3.22,4.95,3.24-4.95h1.74l-4.23,6.38v4.12h-1.58Z"/>
    <path class="cls-24" d="m428.6,361.35c-.78,0-1.5-.14-2.17-.41-.67-.28-1.25-.66-1.75-1.16s-.89-1.07-1.17-1.73c-.28-.65-.41-1.36-.41-2.12s.14-1.48.41-2.14c.28-.65.67-1.23,1.17-1.72.5-.49,1.09-.87,1.76-1.15.67-.27,1.39-.41,2.16-.41.55,0,1.09.07,1.61.22.53.14,1.01.35,1.46.62.45.27.84.6,1.18.99l-1.07,1.07c-.39-.47-.87-.83-1.42-1.07-.56-.25-1.15-.37-1.75-.37-.56,0-1.08.1-1.54.3-.47.2-.88.48-1.24.84-.36.36-.63.78-.83,1.26-.2.48-.29,1-.29,1.56s.1,1.08.29,1.56c.19.48.47.9.83,1.26.35.36.77.64,1.26.84.48.2,1,.3,1.55.3.61,0,1.19-.12,1.74-.38s1.02-.59,1.4-1.04l1.04,1.05c-.34.37-.73.69-1.18.97-.45.28-.92.49-1.44.63-.51.15-1.04.22-1.58.22Z"/>
    <path class="cls-24" d="m439.12,361.35c-.75,0-1.46-.14-2.12-.41-.67-.28-1.25-.66-1.75-1.16-.5-.5-.89-1.07-1.16-1.73-.28-.65-.41-1.36-.41-2.12s.14-1.47.41-2.12c.28-.66.66-1.23,1.16-1.73.5-.5,1.08-.88,1.75-1.16.67-.27,1.37-.41,2.12-.41s1.49.14,2.15.41c.66.28,1.25.66,1.75,1.16s.89,1.07,1.17,1.73c.28.65.42,1.36.42,2.12s-.14,1.47-.42,2.12c-.28.66-.67,1.23-1.17,1.73s-1.08.88-1.75,1.16c-.67.27-1.38.41-2.15.41Zm.03-1.46c.54,0,1.04-.1,1.51-.3s.88-.48,1.23-.83c.36-.35.63-.77.83-1.26.2-.48.29-1.01.29-1.57s-.1-1.08-.3-1.57c-.2-.49-.47-.91-.82-1.26-.35-.36-.76-.63-1.22-.83s-.97-.3-1.52-.3-1.04.1-1.52.3c-.47.2-.88.48-1.23.83-.35.35-.62.77-.82,1.26-.2.49-.29,1.01-.29,1.57s.1,1.08.29,1.57c.19.49.47.91.82,1.26.35.36.76.63,1.24.83s.98.3,1.52.3Z"/>
    <path class="cls-24" d="m446.29,361.19v-10.5h1.53l5.85,7.8v-7.8h1.49v10.5h-1.4l-5.98-8.03v8.03h-1.49Z"/>
    <path class="cls-24" d="m457.31,361.19v-10.5h7.74v1.38h-6.17v3.23h4.06v1.33h-4.06v4.56h-1.58Z"/>
    <path class="cls-24" d="m466.61,361.19v-10.5h1.58v10.5h-1.58Z"/>
    <path class="cls-24" d="m470.33,361.19v-10.5h1.53l5.85,7.8v-7.8h1.49v10.5h-1.4l-5.98-8.03v8.03h-1.49Z"/>
    <path class="cls-24" d="m481.36,361.19v-10.5h7.74v1.38h-6.17v3.15h4.02v1.33h-4.02v3.25h6.22v1.38h-7.8Z"/>
    <path class="cls-24" d="m490.78,361.19v-10.5h2.08l3.3,6.72,3.29-6.72h2.12v10.5h-1.52v-8.58l-3.9,7.83-3.92-7.83v8.58h-1.46Z"/>
    <path class="cls-24" d="m503.69,361.19v-10.5h7.74v1.38h-6.17v3.15h4.02v1.33h-4.02v3.25h6.22v1.38h-7.8Z"/>
    <path class="cls-24" d="m513.11,361.19v-10.5h1.53l5.85,7.8v-7.8h1.49v10.5h-1.4l-5.98-8.03v8.03h-1.49Z"/>
    <path class="cls-24" d="m527,361.19v-9.11h-3.69v-1.39h8.96v1.39h-3.69v9.11h-1.57Z"/>
  </g>
  <g>
    <path class="cls-24" d="m878.5,314.31v-10.5h4.23c.71,0,1.31.13,1.81.38s.87.6,1.12,1.04c.25.43.38.93.38,1.49,0,.68-.2,1.27-.58,1.79-.39.51-.96.85-1.7,1.02l2.33,4.79h-.75l-2.26-4.68h-3.89v4.68h-.69Zm.69-5.33h3.5c.86,0,1.52-.22,1.97-.65s.68-.97.68-1.61-.23-1.19-.68-1.62-1.11-.65-1.97-.65h-3.5v4.53Z"/>
    <path class="cls-24" d="m890.52,314.46c-.68,0-1.3-.17-1.86-.51-.56-.34-1-.8-1.33-1.38-.32-.58-.49-1.23-.49-1.95s.16-1.37.47-1.95.75-1.04,1.3-1.38c.55-.34,1.16-.51,1.84-.51.64,0,1.21.17,1.71.51s.9.79,1.19,1.36c.29.56.44,1.19.44,1.88v.27h-6.29c.03.57.18,1.08.45,1.54.27.46.63.82,1.07,1.09.45.27.94.4,1.48.4.42,0,.83-.07,1.25-.2s.76-.32,1.05-.55l.39.53c-.4.29-.83.5-1.28.65-.45.14-.92.21-1.41.21Zm-2.97-4.29h5.55c-.05-.51-.19-.97-.43-1.39s-.55-.75-.93-1c-.38-.25-.81-.38-1.29-.38-.51,0-.97.12-1.39.36s-.75.57-1.02.98c-.26.42-.43.89-.49,1.42Z"/>
    <path class="cls-24" d="m895.42,317.37v-10.44h.66v.88c.67-.69,1.52-1.04,2.54-1.04.69,0,1.31.16,1.87.5.56.34,1,.81,1.32,1.39s.49,1.23.49,1.95-.16,1.36-.49,1.94-.76,1.05-1.32,1.39c-.55.34-1.18.51-1.87.51-.47,0-.92-.09-1.36-.28-.43-.18-.83-.43-1.18-.74v3.93h-.66Zm3.2-3.54c.56,0,1.07-.14,1.52-.43s.82-.67,1.08-1.16.4-1.03.4-1.63-.13-1.14-.4-1.63-.62-.87-1.08-1.16-.96-.43-1.52-.43-1.05.11-1.49.34c-.45.22-.79.52-1.04.89v3.96c.26.35.62.64,1.07.88.45.23.94.35,1.47.35Z"/>
    <path class="cls-24" d="m907.32,314.46c-.68,0-1.3-.17-1.86-.51-.56-.34-1-.8-1.33-1.39-.32-.58-.49-1.23-.49-1.94s.16-1.37.49-1.95c.33-.58.77-1.04,1.33-1.38.56-.34,1.18-.51,1.86-.51s1.31.17,1.87.51c.55.34,1,.8,1.32,1.38.33.58.49,1.23.49,1.95s-.16,1.36-.49,1.94c-.32.58-.76,1.05-1.32,1.39-.56.34-1.18.51-1.87.51Zm0-.63c.56,0,1.07-.14,1.52-.43s.82-.67,1.08-1.16c.27-.49.4-1.03.4-1.63s-.13-1.14-.4-1.63c-.26-.49-.62-.87-1.08-1.16s-.96-.43-1.52-.43-1.07.14-1.52.43-.81.67-1.08,1.16c-.26.49-.4,1.03-.4,1.63s.13,1.14.4,1.63c.27.49.62.87,1.08,1.16s.96.43,1.52.43Z"/>
    <path class="cls-24" d="m912.71,314.29v-7.38h.66v1.17c.21-.41.5-.73.86-.97s.78-.35,1.24-.35c.2,0,.42.02.65.06v.68c-.11-.04-.22-.07-.33-.08-.11-.01-.22-.02-.32-.02-.49,0-.91.15-1.27.44-.35.29-.63.72-.83,1.28v5.18h-.66Z"/>
    <path class="cls-24" d="m920.05,314.46c-.56,0-.99-.14-1.29-.42-.3-.28-.45-.67-.45-1.17v-5.34h-1.62v-.6h1.62v-1.86l.66-.21v2.07h2.28v.6h-2.28v5.12c0,.42.09.72.28.91.18.19.49.28.92.28.23,0,.42-.02.58-.05.16-.04.32-.09.5-.16v.65c-.19.07-.39.12-.58.15-.2.03-.41.04-.62.04Z"/>
    <path class="cls-24" d="m924.78,314.46c-.57,0-1.11-.1-1.63-.31-.51-.21-.95-.5-1.3-.89l.51-.42c.3.31.66.55,1.09.73.42.18.87.27,1.33.27.68,0,1.23-.15,1.64-.44s.62-.68.62-1.15c0-.35-.12-.64-.38-.87-.25-.23-.66-.38-1.21-.45l-1.21-.15c-.7-.08-1.23-.28-1.6-.61s-.55-.77-.55-1.32c0-.41.11-.77.33-1.08.22-.31.53-.55.92-.73.39-.17.85-.26,1.37-.26s.98.08,1.44.23c.46.15.92.39,1.39.73l-.39.54c-.42-.3-.82-.52-1.21-.67-.39-.15-.79-.22-1.22-.22-.58,0-1.06.12-1.42.37-.37.25-.56.61-.56,1.09,0,.36.12.65.37.87.24.22.64.37,1.19.43l1.2.15c.74.09,1.29.3,1.65.64.36.34.54.78.54,1.31,0,.42-.12.8-.38,1.13-.25.34-.59.6-1.03.79-.44.19-.94.29-1.52.29Z"/>
  </g>
  <g>
    <path class="cls-24" d="m557.06,523.03c-.78,0-1.5-.14-2.17-.41-.67-.28-1.25-.66-1.75-1.16s-.89-1.07-1.17-1.73c-.28-.65-.41-1.36-.41-2.12s.14-1.48.41-2.14c.28-.65.67-1.23,1.17-1.72.5-.49,1.09-.87,1.76-1.15.67-.27,1.39-.41,2.16-.41.55,0,1.09.07,1.61.22.53.14,1.01.35,1.46.62.45.27.84.6,1.18.99l-1.07,1.07c-.39-.47-.87-.83-1.42-1.07-.56-.25-1.15-.37-1.75-.37-.56,0-1.08.1-1.54.3-.47.2-.88.48-1.24.84-.36.36-.63.78-.83,1.26-.2.48-.29,1-.29,1.56s.1,1.08.29,1.56c.19.48.47.9.83,1.26.35.36.77.64,1.26.84.48.2,1,.3,1.55.3.61,0,1.19-.12,1.74-.38s1.02-.59,1.4-1.04l1.04,1.05c-.34.37-.73.69-1.18.97-.45.28-.92.49-1.44.63-.51.15-1.04.22-1.58.22Z"/>
    <path class="cls-24" d="m567.58,523.03c-.75,0-1.46-.14-2.12-.41-.67-.28-1.25-.66-1.75-1.16-.5-.5-.89-1.07-1.16-1.73-.28-.65-.41-1.36-.41-2.12s.14-1.47.41-2.12c.28-.66.66-1.23,1.16-1.73.5-.5,1.08-.88,1.75-1.16.67-.27,1.37-.41,2.12-.41s1.49.14,2.15.41c.66.28,1.25.66,1.75,1.16s.89,1.07,1.17,1.73c.28.65.42,1.36.42,2.12s-.14,1.47-.42,2.12c-.28.66-.67,1.23-1.17,1.73s-1.08.88-1.75,1.16c-.67.27-1.38.41-2.15.41Zm.03-1.46c.54,0,1.04-.1,1.51-.3s.88-.48,1.23-.83c.36-.35.63-.77.83-1.26.2-.48.29-1.01.29-1.57s-.1-1.08-.3-1.57c-.2-.49-.47-.91-.82-1.26-.35-.36-.76-.63-1.22-.83s-.97-.3-1.52-.3-1.04.1-1.52.3c-.47.2-.88.48-1.23.83-.35.35-.62.77-.82,1.26-.2.49-.29,1.01-.29,1.57s.1,1.08.29,1.57c.19.49.47.91.82,1.26.35.36.76.63,1.24.83s.98.3,1.52.3Z"/>
    <path class="cls-24" d="m574.75,522.86v-10.5h1.53l5.85,7.8v-7.8h1.49v10.5h-1.4l-5.98-8.03v8.03h-1.49Z"/>
    <path class="cls-24" d="m588.64,522.86v-9.11h-3.69v-1.39h8.96v1.39h-3.69v9.11h-1.57Z"/>
    <path class="cls-24" d="m595.24,522.86v-10.5h7.74v1.38h-6.17v3.15h4.02v1.33h-4.02v3.25h6.22v1.38h-7.8Z"/>
    <path class="cls-24" d="m604.66,522.86v-10.5h1.53l5.85,7.8v-7.8h1.49v10.5h-1.4l-5.98-8.03v8.03h-1.49Z"/>
    <path class="cls-24" d="m618.55,522.86v-9.11h-3.69v-1.39h8.96v1.39h-3.69v9.11h-1.57Z"/>
    <path class="cls-24" d="m628.28,522.86v-10.5h2.08l3.3,6.72,3.29-6.72h2.12v10.5h-1.52v-8.58l-3.9,7.83-3.92-7.83v8.58h-1.46Z"/>
    <path class="cls-24" d="m640.13,522.86l4.33-10.5h1.85l4.3,10.5h-1.71l-1.21-3.08h-4.71l-1.21,3.08h-1.64Zm3.38-4.38h3.68l-1.83-4.62-1.85,4.62Z"/>
    <path class="cls-24" d="m651.71,522.86v-10.5h1.53l5.85,7.8v-7.8h1.49v10.5h-1.4l-5.98-8.03v8.03h-1.49Z"/>
    <path class="cls-24" d="m661.67,522.86l4.33-10.5h1.85l4.3,10.5h-1.71l-1.21-3.08h-4.71l-1.21,3.08h-1.64Zm3.38-4.38h3.68l-1.83-4.62-1.85,4.62Z"/>
    <path class="cls-24" d="m677.74,523.03c-.77,0-1.49-.14-2.15-.42-.67-.28-1.25-.67-1.75-1.16-.5-.49-.89-1.07-1.17-1.72-.28-.65-.42-1.36-.42-2.11s.14-1.45.41-2.11.66-1.23,1.16-1.72c.5-.5,1.08-.88,1.75-1.16.67-.28,1.38-.42,2.14-.42.84,0,1.63.16,2.36.48.74.32,1.36.77,1.87,1.35l-1.08,1.04c-.39-.46-.86-.81-1.41-1.05-.55-.24-1.13-.36-1.74-.36-.54,0-1.04.1-1.52.3-.47.2-.88.48-1.23.84-.35.36-.62.78-.82,1.26-.2.48-.29,1-.29,1.56s.1,1.08.29,1.56c.19.48.47.9.82,1.27.35.37.76.65,1.24.85s.98.3,1.52.3c.63,0,1.2-.13,1.7-.39.5-.26.92-.62,1.24-1.07.32-.46.51-.97.58-1.55h-3.48v-1.37h5.13v.56c0,.74-.13,1.43-.39,2.07-.26.64-.62,1.2-1.09,1.68-.46.48-1.01.85-1.64,1.12-.63.26-1.31.4-2.04.4Z"/>
    <path class="cls-24" d="m684.56,522.86v-10.5h7.74v1.38h-6.17v3.15h4.02v1.33h-4.02v3.25h6.22v1.38h-7.8Z"/>
    <path class="cls-24" d="m693.98,522.86v-10.5h2.08l3.3,6.72,3.29-6.72h2.12v10.5h-1.52v-8.58l-3.9,7.83-3.92-7.83v8.58h-1.46Z"/>
    <path class="cls-24" d="m706.9,522.86v-10.5h7.74v1.38h-6.17v3.15h4.02v1.33h-4.02v3.25h6.22v1.38h-7.8Z"/>
    <path class="cls-24" d="m716.31,522.86v-10.5h1.53l5.85,7.8v-7.8h1.49v10.5h-1.4l-5.98-8.03v8.03h-1.49Z"/>
    <path class="cls-24" d="m730.2,522.86v-9.11h-3.69v-1.39h8.96v1.39h-3.69v9.11h-1.57Z"/>
    <path class="cls-24" d="m740.73,516.98c-.26,0-.48-.09-.67-.28-.18-.19-.28-.41-.28-.68s.09-.49.28-.67c.19-.19.41-.29.67-.29s.48.09.67.29c.18.19.28.42.28.67s-.09.5-.28.68c-.19.18-.41.28-.67.28Zm0,6c-.26,0-.48-.09-.67-.28-.18-.19-.28-.41-.28-.68s.09-.49.28-.67c.19-.19.41-.29.67-.29s.48.09.67.29c.18.19.28.42.28.67s-.09.5-.28.68c-.19.18-.41.28-.67.28Z"/>
    <path class="cls-24" d="m746.99,522.86v-10.5h4.25c.69,0,1.28.12,1.79.36.5.24.88.58,1.15,1.01.26.44.4.95.4,1.54s-.13,1.11-.4,1.55c-.27.44-.65.79-1.15,1.03-.5.25-1.1.37-1.79.37h-3.56v4.63h-.69Zm.69-5.28h3.53c.86,0,1.52-.21,1.97-.63s.68-.98.68-1.68-.23-1.23-.68-1.64-1.11-.62-1.97-.62h-3.53v4.58Z"/>
    <path class="cls-24" d="m757.93,523.01c-.54,0-1.02-.09-1.42-.28-.41-.18-.73-.44-.96-.78-.23-.33-.35-.72-.35-1.16,0-.68.26-1.23.79-1.64.53-.41,1.24-.62,2.12-.62s1.66.21,2.34.64v-1.23c0-.68-.18-1.19-.55-1.52s-.9-.5-1.59-.5c-.34,0-.7.06-1.07.17-.37.11-.79.29-1.27.54l-.29-.58c.47-.24.92-.42,1.35-.53s.86-.17,1.29-.17c.89,0,1.58.21,2.06.64s.73,1.04.73,1.85v5.04h-.66v-.83c-.34.31-.72.55-1.14.72s-.88.26-1.38.26Zm-2.07-2.24c0,.48.2.88.6,1.18.4.31.91.47,1.52.47.53,0,1-.09,1.39-.28.4-.18.76-.45,1.08-.79v-1.53c-.33-.25-.69-.43-1.08-.55-.39-.12-.83-.18-1.33-.18-.65,0-1.17.16-1.58.46-.4.31-.6.71-.6,1.21Z"/>
    <path class="cls-24" d="m766.44,523.01c-.68,0-1.3-.17-1.86-.51-.56-.34-1-.8-1.33-1.38-.32-.58-.49-1.23-.49-1.95s.16-1.37.49-1.95c.33-.58.77-1.04,1.33-1.38.56-.34,1.18-.51,1.86-.51.5,0,1,.1,1.51.3.5.2.95.48,1.33.83l-.45.54c-.32-.32-.69-.57-1.1-.76-.42-.19-.84-.28-1.28-.28-.56,0-1.07.14-1.52.43s-.81.67-1.08,1.16c-.26.49-.4,1.03-.4,1.63s.13,1.14.4,1.63c.27.49.62.87,1.08,1.16s.96.43,1.52.43c.44,0,.87-.09,1.28-.28.41-.19.78-.44,1.1-.75l.45.54c-.38.35-.82.62-1.33.82-.5.2-1.01.3-1.51.3Z"/>
    <path class="cls-24" d="m770.67,522.86v-10.5l.66-.17v6.72l4.17-3.43h.93l-4.35,3.57,4.53,3.81h-1l-4.28-3.63v3.63h-.66Z"/>
    <path class="cls-24" d="m779.51,523.01c-.54,0-1.02-.09-1.42-.28-.41-.18-.73-.44-.96-.78-.23-.33-.35-.72-.35-1.16,0-.68.26-1.23.79-1.64.53-.41,1.24-.62,2.12-.62s1.66.21,2.34.64v-1.23c0-.68-.18-1.19-.55-1.52s-.9-.5-1.59-.5c-.34,0-.7.06-1.07.17-.37.11-.79.29-1.27.54l-.29-.58c.47-.24.92-.42,1.35-.53s.86-.17,1.29-.17c.89,0,1.58.21,2.06.64s.73,1.04.73,1.85v5.04h-.66v-.83c-.34.31-.72.55-1.14.72s-.88.26-1.38.26Zm-2.07-2.24c0,.48.2.88.6,1.18.4.31.91.47,1.52.47.53,0,1-.09,1.39-.28.4-.18.76-.45,1.08-.79v-1.53c-.33-.25-.69-.43-1.08-.55-.39-.12-.83-.18-1.33-.18-.65,0-1.17.16-1.58.46-.4.31-.6.71-.6,1.21Z"/>
    <path class="cls-24" d="m788.25,526.07c-.49,0-.98-.07-1.46-.21-.48-.14-.92-.33-1.32-.58l.38-.54c.44.25.84.43,1.21.54.36.11.75.17,1.15.17.77,0,1.35-.19,1.75-.55.4-.37.6-.92.6-1.65v-1.26c-.67.69-1.51,1.04-2.54,1.04-.68,0-1.3-.17-1.86-.51-.56-.34-1-.8-1.33-1.38-.32-.58-.49-1.23-.49-1.95s.16-1.37.49-1.95c.33-.58.77-1.04,1.33-1.38.56-.34,1.18-.51,1.86-.51.47,0,.92.09,1.37.28.44.19.83.43,1.17.74v-.87h.66v7.72c0,.94-.26,1.65-.77,2.14s-1.25.73-2.2.73Zm-.23-3.69c.55,0,1.05-.11,1.49-.34.44-.23.79-.52,1.04-.89v-3.96c-.26-.35-.62-.64-1.06-.88-.45-.23-.94-.35-1.47-.35-.56,0-1.07.14-1.52.43s-.81.67-1.08,1.16c-.26.49-.4,1.03-.4,1.63s.13,1.14.4,1.63c.27.49.62.87,1.08,1.16s.96.43,1.52.43Z"/>
    <path class="cls-24" d="m796.59,523.01c-.68,0-1.3-.17-1.86-.51-.56-.34-1-.8-1.33-1.38-.32-.58-.49-1.23-.49-1.95s.16-1.37.47-1.95.75-1.04,1.3-1.38c.55-.34,1.16-.51,1.84-.51.64,0,1.21.17,1.71.51s.9.79,1.19,1.36c.29.56.44,1.19.44,1.88v.27h-6.29c.03.57.18,1.08.45,1.54.27.46.63.82,1.07,1.09.45.27.94.4,1.48.4.42,0,.83-.07,1.25-.2s.76-.32,1.05-.55l.39.53c-.4.29-.83.5-1.28.65-.45.14-.92.21-1.41.21Zm-2.97-4.29h5.55c-.05-.51-.19-.97-.43-1.39s-.55-.75-.93-1c-.38-.25-.81-.38-1.29-.38-.51,0-.97.12-1.39.36s-.75.57-1.02.98c-.26.42-.43.89-.49,1.42Z"/>
    <path class="cls-24" d="m803.67,523.01c-.57,0-1.11-.1-1.63-.31-.51-.21-.95-.5-1.3-.89l.51-.42c.3.31.66.55,1.09.73.42.18.87.27,1.33.27.68,0,1.23-.15,1.64-.44s.62-.68.62-1.15c0-.35-.12-.64-.38-.87-.25-.23-.66-.38-1.21-.45l-1.21-.15c-.7-.08-1.23-.28-1.6-.61s-.55-.77-.55-1.32c0-.41.11-.77.33-1.08.22-.31.53-.55.92-.73.39-.17.85-.26,1.37-.26s.98.08,1.44.23c.46.15.92.39,1.39.73l-.39.54c-.42-.3-.82-.52-1.21-.67-.39-.15-.79-.22-1.22-.22-.58,0-1.06.12-1.42.37-.37.25-.56.61-.56,1.09,0,.36.12.65.37.87.24.22.64.37,1.19.43l1.2.15c.74.09,1.29.3,1.65.64.36.34.54.78.54,1.31,0,.42-.12.8-.38,1.13-.25.34-.59.6-1.03.79-.44.19-.94.29-1.52.29Z"/>
    <path class="cls-24" d="m805.68,525.92l6.3-13.56h.71l-6.3,13.56h-.71Z"/>
    <path class="cls-24" d="m817.32,522.86v-9.86h-3.9v-.64h8.49v.64h-3.9v9.86h-.69Z"/>
    <path class="cls-24" d="m822.08,522.85v-7.38h.66v1.17c.21-.41.5-.73.86-.97s.78-.35,1.24-.35c.2,0,.41.02.64.06v.68c-.11-.04-.22-.07-.33-.08s-.21-.02-.31-.02c-.49,0-.91.15-1.27.44s-.63.72-.83,1.28v5.18h-.66Z"/>
    <path class="cls-24" d="m828.53,523.01c-.54,0-1.02-.09-1.43-.28-.41-.18-.73-.44-.96-.78-.23-.33-.35-.72-.35-1.16,0-.68.26-1.23.79-1.64.53-.41,1.23-.62,2.12-.62s1.66.21,2.34.64v-1.23c0-.68-.19-1.19-.55-1.52-.37-.33-.9-.5-1.59-.5-.34,0-.7.06-1.07.17-.37.11-.79.29-1.27.54l-.29-.58c.47-.24.92-.42,1.35-.53s.86-.17,1.29-.17c.89,0,1.58.21,2.06.64.49.42.73,1.04.73,1.85v5.04h-.66v-.83c-.34.31-.72.55-1.14.72s-.88.26-1.38.26Zm-2.07-2.24c0,.48.2.88.6,1.18.4.31.9.47,1.52.47.53,0,.99-.09,1.39-.28.4-.18.76-.45,1.08-.79v-1.53c-.33-.25-.69-.43-1.08-.55s-.84-.18-1.34-.18c-.65,0-1.17.16-1.57.46s-.6.71-.6,1.21Z"/>
    <path class="cls-24" d="m837.05,523.01c-.68,0-1.3-.17-1.86-.51-.56-.34-1-.8-1.33-1.38s-.49-1.23-.49-1.95.16-1.37.49-1.95.77-1.04,1.33-1.38c.56-.34,1.18-.51,1.86-.51.5,0,1,.1,1.51.3.5.2.95.48,1.33.83l-.45.54c-.32-.32-.69-.57-1.1-.76-.42-.19-.84-.28-1.28-.28-.56,0-1.07.14-1.52.43s-.81.67-1.08,1.16c-.26.49-.4,1.03-.4,1.63s.13,1.14.4,1.63c.27.49.62.87,1.08,1.16s.96.43,1.52.43c.44,0,.87-.09,1.28-.28.41-.19.78-.44,1.1-.75l.45.54c-.38.35-.82.62-1.33.82-.51.2-1.01.3-1.51.3Z"/>
    <path class="cls-24" d="m844.31,523.01c-.68,0-1.3-.17-1.86-.51-.56-.34-1-.8-1.33-1.38s-.49-1.23-.49-1.95.16-1.37.47-1.95c.32-.58.75-1.04,1.3-1.38.55-.34,1.16-.51,1.84-.51.64,0,1.21.17,1.71.51s.9.79,1.19,1.36c.29.56.44,1.19.44,1.88v.27h-6.29c.03.57.18,1.08.45,1.54.27.46.63.82,1.07,1.09.45.27.94.4,1.48.4.42,0,.83-.07,1.24-.2s.76-.32,1.05-.55l.39.53c-.4.29-.83.5-1.28.65-.45.14-.92.21-1.41.21Zm-2.97-4.29h5.55c-.05-.51-.2-.97-.44-1.39s-.55-.75-.93-1c-.38-.25-.81-.38-1.29-.38-.51,0-.97.12-1.39.36-.41.24-.75.57-1.02.98s-.43.89-.49,1.42Z"/>
    <path class="cls-24" d="m851.39,523.01c-.57,0-1.11-.1-1.63-.31-.52-.21-.95-.5-1.3-.89l.51-.42c.3.31.66.55,1.09.73.42.18.87.27,1.33.27.68,0,1.23-.15,1.64-.44.42-.29.62-.68.62-1.15,0-.35-.12-.64-.38-.87-.25-.23-.66-.38-1.21-.45l-1.21-.15c-.7-.08-1.23-.28-1.6-.61s-.55-.77-.55-1.32c0-.41.11-.77.33-1.08.22-.31.53-.55.92-.73.39-.17.85-.26,1.37-.26s.98.08,1.44.23c.46.15.92.39,1.39.73l-.39.54c-.42-.3-.82-.52-1.21-.67-.38-.15-.79-.22-1.22-.22-.58,0-1.05.12-1.42.37-.37.25-.56.61-.56,1.09,0,.36.12.65.37.87.24.22.64.37,1.19.43l1.2.15c.74.09,1.29.3,1.65.64.36.34.54.78.54,1.31,0,.42-.12.8-.38,1.13-.25.34-.59.6-1.03.79-.44.19-.94.29-1.52.29Z"/>
  </g>
</svg>