<?xml version="1.0" encoding="UTF-8"?>
<svg id="Ebene_2" data-name="Ebene 2" xmlns="http://www.w3.org/2000/svg" width="1620" height="1215.05" xmlns:xlink="http://www.w3.org/1999/xlink" viewBox="0 0 1620 1215.05">
  <defs>
    <style>
      .cls-1 {
        fill: url(#Unbenannter_Verlauf_15-3);
      }

      .cls-1, .cls-2, .cls-3, .cls-4, .cls-5, .cls-6, .cls-7, .cls-8, .cls-9, .cls-10, .cls-11, .cls-12, .cls-13, .cls-14, .cls-15, .cls-16, .cls-17, .cls-18, .cls-19, .cls-20, .cls-21, .cls-22, .cls-23, .cls-24, .cls-25, .cls-26, .cls-27 {
        stroke-width: 0px;
      }

      .cls-2 {
        fill: url(#Unbenannter_Verlauf_15-2);
      }

      .cls-3 {
        fill: url(#Unbenannter_Verlauf_15-4);
      }

      .cls-4 {
        fill: url(#Unbenannter_Verlauf_22-2);
      }

      .cls-5 {
        fill: url(#Unbenannter_Verlauf_11-2);
      }

      .cls-6 {
        fill: url(#Unbenannter_Verlauf_24-3);
      }

      .cls-7 {
        fill: url(#Unbenannter_Verlauf_24-4);
      }

      .cls-8 {
        fill: url(#Unbenannter_Verlauf_25-3);
      }

      .cls-9 {
        fill: url(#Unbenannter_Verlauf_25-2);
      }

      .cls-10 {
        fill: url(#Unbenannter_Verlauf_25-5);
      }

      .cls-11 {
        fill: url(#Unbenannter_Verlauf_25-4);
      }

      .cls-28 {
        fill: url(#Unbenannter_Verlauf_5-2);
        opacity: .3;
      }

      .cls-28, .cls-29, .cls-30, .cls-31, .cls-32 {
        stroke-miterlimit: 3.73;
      }

      .cls-28, .cls-33, .cls-34, .cls-35, .cls-36, .cls-37, .cls-38, .cls-39 {
        stroke: #000;
      }

      .cls-28, .cls-14, .cls-40, .cls-18, .cls-41, .cls-42 {
        isolation: isolate;
      }

      .cls-28, .cls-32 {
        stroke-width: .85px;
      }

      .cls-29 {
        stroke: url(#Unbenannter_Verlauf_24-5);
      }

      .cls-29, .cls-30, .cls-12, .cls-33, .cls-31, .cls-32, .cls-34, .cls-35, .cls-36, .cls-37, .cls-38, .cls-39 {
        fill: none;
      }

      .cls-29, .cls-30, .cls-31 {
        stroke-width: .43px;
      }

      .cls-30 {
        stroke: url(#Unbenannter_Verlauf_27-2);
      }

      .cls-43 {
        clip-path: url(#clippath);
      }

      .cls-13 {
        fill: url(#Unbenannter_Verlauf_7-2);
      }

      .cls-33, .cls-34, .cls-36, .cls-37, .cls-38, .cls-39 {
        stroke-linecap: round;
      }

      .cls-33, .cls-34, .cls-36, .cls-37, .cls-39 {
        stroke-linejoin: round;
      }

      .cls-33, .cls-38 {
        stroke-width: 2.84px;
      }

      .cls-14 {
        fill: url(#Unbenannter_Verlauf_24-2);
      }

      .cls-14, .cls-18 {
        opacity: .87;
      }

      .cls-31 {
        stroke: url(#Unbenannter_Verlauf_27);
      }

      .cls-32 {
        stroke: url(#Unbenannter_Verlauf_2);
      }

      .cls-40 {
        opacity: .71;
      }

      .cls-34 {
        stroke-dasharray: 0 0 0 14.05;
      }

      .cls-34, .cls-36, .cls-37, .cls-39 {
        stroke-width: 5.68px;
      }

      .cls-35 {
        stroke-width: 2px;
      }

      .cls-35, .cls-38 {
        stroke-miterlimit: 10;
      }

      .cls-36 {
        stroke-dasharray: 0 0 0 14.22;
      }

      .cls-15 {
        fill: url(#Unbenannter_Verlauf_7);
      }

      .cls-16 {
        fill: url(#Unbenannter_Verlauf_5);
      }

      .cls-17 {
        fill: url(#Unbenannter_Verlauf_3);
      }

      .cls-18 {
        fill: url(#Unbenannter_Verlauf_24);
      }

      .cls-19 {
        fill-rule: evenodd;
      }

      .cls-19, .cls-26 {
        fill: #275c88;
      }

      .cls-20 {
        fill: url(#Unbenannter_Verlauf_15);
      }

      .cls-21 {
        fill: url(#Unbenannter_Verlauf_20);
      }

      .cls-22 {
        fill: url(#Unbenannter_Verlauf_22);
      }

      .cls-23 {
        fill: url(#Unbenannter_Verlauf_11);
      }

      .cls-24 {
        fill: url(#Unbenannter_Verlauf_25);
      }

      .cls-39 {
        stroke-dasharray: 0 0 0 14.79;
      }

      .cls-27 {
        fill: #2e3436;
      }

      .cls-42 {
        opacity: .54;
      }
    </style>
    <radialGradient id="Unbenannter_Verlauf_3" data-name="Unbenannter Verlauf 3" cx="93.41" cy="9236.62" fx="93.41" fy="9236.62" r="102.15" gradientTransform="translate(548.78 -1945.29) scale(.91 .27)" gradientUnits="userSpaceOnUse">
      <stop offset="0" stop-color="#f2da06"/>
      <stop offset=".45" stop-color="#fcee72"/>
      <stop offset="1" stop-color="#f2da06"/>
    </radialGradient>
    <radialGradient id="Unbenannter_Verlauf_2" data-name="Unbenannter Verlauf 2" cx="-1337.4" cy="2386.79" fx="-1337.4" fy="2386.79" r="90.02" gradientTransform="translate(948.33 -1380.89) rotate(-22.5) scale(.76 .71)" gradientUnits="userSpaceOnUse">
      <stop offset="0" stop-color="#eeeeec"/>
      <stop offset="1" stop-color="#eeeeec" stop-opacity="0"/>
    </radialGradient>
    <linearGradient id="Unbenannter_Verlauf_25" data-name="Unbenannter Verlauf 25" x1="101.29" y1="-398.02" x2="104.89" y2="-398.02" gradientTransform="translate(459.5 1195.91) rotate(4.97) scale(1.64 1.68) skewX(-.69)" gradientUnits="userSpaceOnUse">
      <stop offset="0" stop-color="#edd60c"/>
      <stop offset="1" stop-color="#ad9c08"/>
    </linearGradient>
    <radialGradient id="Unbenannter_Verlauf_5" data-name="Unbenannter Verlauf 5" cx="399.53" cy="1201.73" fx="399.53" fy="1175.5" r="90.04" gradientTransform="translate(349.2 -687.15) rotate(10.81) scale(1.21 .93)" gradientUnits="userSpaceOnUse">
      <stop offset="0" stop-color="#e9d012"/>
      <stop offset=".46" stop-color="#efd840"/>
      <stop offset=".77" stop-color="#d2b828"/>
      <stop offset="1" stop-color="#eacf4e"/>
    </radialGradient>
    <clipPath id="clippath">
      <path class="cls-12" d="m600.56,438.04c-11.61,0-21.99,3.28-31.07,8.99h0c-12.82,4.31-21.99,11.42-28.83,21.06-12.17,17.13-21.99,56.16-20.97,79.74,26.49,41.74,153.21,40.9,175.77,2.9-9.83-34.44-6.65-63.55-22.28-83.49-8.33-10.67-20.31-17.78-33.51-21.62q-.09,0-.19-.09c-6.08-2.34-21.25-7.49-36.69-7.49h-2.25Zm27.42,4.96c.37.09.84.09,1.22.19-.37-.09-.75-.09-1.22-.19Zm-42.49.28c-.94.09-1.78.28-2.71.37.94-.09,1.87-.28,2.71-.37Z"/>
    </clipPath>
    <radialGradient id="Unbenannter_Verlauf_5-2" data-name="Unbenannter Verlauf 5" cx="399.53" cy="1201.73" fx="399.53" fy="1175.5" r="90.04" xlink:href="#Unbenannter_Verlauf_5"/>
    <radialGradient id="Unbenannter_Verlauf_7" data-name="Unbenannter Verlauf 7" cx="-715.08" cy="-1288.1" fx="-715.08" fy="-1288.1" r="8.15" gradientTransform="translate(-4193.36 3390.45) rotate(-165) scale(4.84 -3.12) skewX(3.99)" gradientUnits="userSpaceOnUse">
      <stop offset="0" stop-color="#f5e789"/>
      <stop offset="1" stop-color="#eed73f" stop-opacity="0"/>
    </radialGradient>
    <radialGradient id="Unbenannter_Verlauf_7-2" data-name="Unbenannter Verlauf 7" cx="-714.74" cy="-1286.84" fx="-714.74" fy="-1286.84" r="8.15" gradientTransform="translate(-4136.34 3383.89) rotate(-165) scale(4.84 -3.12) skewX(3.99)" xlink:href="#Unbenannter_Verlauf_7"/>
    <linearGradient id="Unbenannter_Verlauf_25-2" data-name="Unbenannter Verlauf 25" x1="-710.91" y1="498.17" x2="-707.32" y2="498.17" gradientTransform="translate(-725.17 -132.22) rotate(-179.52) scale(1.88 -1.13) skewX(1.76)" xlink:href="#Unbenannter_Verlauf_25"/>
    <linearGradient id="Unbenannter_Verlauf_25-3" data-name="Unbenannter Verlauf 25" x1="-1118.12" y1="350.95" x2="-1114.52" y2="350.95" gradientTransform="translate(-1049.84 -334.09) rotate(-167.62) scale(1.62 -1.13) skewX(1.66)" xlink:href="#Unbenannter_Verlauf_25"/>
    <radialGradient id="Unbenannter_Verlauf_11" data-name="Unbenannter Verlauf 11" cx="-853.18" cy="-13853.05" fx="-853.18" fy="-13853.05" r="78.16" gradientTransform="translate(-399.06 -3042.79) rotate(177.35) scale(1 .25)" gradientUnits="userSpaceOnUse">
      <stop offset="0" stop-color="#efdd52"/>
      <stop offset="1" stop-color="#f2e26d" stop-opacity="0"/>
    </radialGradient>
    <radialGradient id="Unbenannter_Verlauf_11-2" data-name="Unbenannter Verlauf 11" cx="1769.35" cy="-3743.01" fx="1769.35" fy="-3743.01" r="78.16" gradientTransform="translate(-1946.89 -3194.63) rotate(121.04) scale(1.03 1.08)" xlink:href="#Unbenannter_Verlauf_11"/>
    <linearGradient id="Unbenannter_Verlauf_15" data-name="Unbenannter Verlauf 15" x1="25.71" y1="1392.62" x2="-14.79" y2="1494.24" gradientTransform="translate(548.78 -802.43) scale(.91)" gradientUnits="userSpaceOnUse">
      <stop offset="0" stop-color="#ddbe0c"/>
      <stop offset="1" stop-color="#ddbe0c" stop-opacity="0"/>
    </linearGradient>
    <linearGradient id="Unbenannter_Verlauf_15-2" data-name="Unbenannter Verlauf 15" x1="86.69" y1="1381.21" x2="129.05" y2="1480.45" xlink:href="#Unbenannter_Verlauf_15"/>
    <linearGradient id="Unbenannter_Verlauf_15-3" data-name="Unbenannter Verlauf 15" x1="34.82" y1="1398.44" x2="58" y2="1458.73" xlink:href="#Unbenannter_Verlauf_15"/>
    <linearGradient id="Unbenannter_Verlauf_15-4" data-name="Unbenannter Verlauf 15" x1="51.8" y1="1382.11" x2="110.06" y2="1383.12" xlink:href="#Unbenannter_Verlauf_15"/>
    <radialGradient id="Unbenannter_Verlauf_24" data-name="Unbenannter Verlauf 24" cx="-658.91" cy="-1461.75" fx="-658.91" fy="-1461.75" r="8.86" gradientTransform="translate(-1154.18 9041.87) rotate(-180) scale(2.75 -5.86)" gradientUnits="userSpaceOnUse">
      <stop offset="0" stop-color="#fff"/>
      <stop offset="1" stop-color="#fff" stop-opacity="0"/>
    </radialGradient>
    <radialGradient id="Unbenannter_Verlauf_24-2" data-name="Unbenannter Verlauf 24" cx="-766.9" cy="-1441.16" fx="-766.9" fy="-1441.16" r="8.86" gradientTransform="translate(-1734 8370.19) rotate(-176.3) scale(2.39 -5.56)" xlink:href="#Unbenannter_Verlauf_24"/>
    <radialGradient id="Unbenannter_Verlauf_24-3" data-name="Unbenannter Verlauf 24" cx="-907.04" cy="10.7" fx="-907.04" fy="10.7" r="11.18" gradientTransform="translate(-1092.39 27.81) rotate(-165.42) scale(1.92 -1.27) skewX(-2.38)" xlink:href="#Unbenannter_Verlauf_24"/>
    <radialGradient id="Unbenannter_Verlauf_24-4" data-name="Unbenannter Verlauf 24" cx="-657.28" cy="136.64" fx="-657.28" fy="136.64" r="11.18" gradientTransform="translate(-610.14 179.53) rotate(-174.72) scale(1.92 -1.27) skewX(-2.38)" xlink:href="#Unbenannter_Verlauf_24"/>
    <radialGradient id="Unbenannter_Verlauf_20" data-name="Unbenannter Verlauf 20" cx="-700.33" cy="-1420.63" fx="-700.33" fy="-1420.63" r="5.39" gradientTransform="translate(-1283.51 8527.39) rotate(-180) scale(2.8 -5.66)" gradientUnits="userSpaceOnUse">
      <stop offset="0" stop-color="#f9f1b8"/>
      <stop offset="1" stop-color="#f9f1b8" stop-opacity="0"/>
    </radialGradient>
    <radialGradient id="Unbenannter_Verlauf_22" data-name="Unbenannter Verlauf 22" cx="-440.7" cy="-1487.03" fx="-440.7" fy="-1487.03" r="10.07" gradientTransform="translate(959.2 6817.38) rotate(177.86) scale(1.18 -4.25) skewX(-20.43)" gradientUnits="userSpaceOnUse">
      <stop offset="0" stop-color="#ddbe0c"/>
      <stop offset="1" stop-color="#ddbe0c" stop-opacity="0"/>
    </radialGradient>
    <radialGradient id="Unbenannter_Verlauf_22-2" data-name="Unbenannter Verlauf 22" cx="-282.14" cy="-1558.37" fx="-282.14" fy="-1558.37" r="10.06" gradientTransform="translate(1797.17 7826.87) rotate(175.14) scale(1.42 -4.75) skewX(-22.77)" xlink:href="#Unbenannter_Verlauf_22"/>
    <linearGradient id="Unbenannter_Verlauf_25-4" data-name="Unbenannter Verlauf 25" x1="-773.66" y1="-1024.49" x2="-770.07" y2="-1024.49" gradientTransform="translate(-2545.74 2640.3) rotate(-169.76) scale(3.11 -2.54) skewX(4.41)" xlink:href="#Unbenannter_Verlauf_25"/>
    <radialGradient id="Unbenannter_Verlauf_24-5" data-name="Unbenannter Verlauf 24" cx="84.45" cy="8563.13" fx="84.45" fy="8563.13" r="101.85" gradientTransform="translate(548.78 -1909.88) scale(.91 .29)" xlink:href="#Unbenannter_Verlauf_24"/>
    <linearGradient id="Unbenannter_Verlauf_25-5" data-name="Unbenannter Verlauf 25" x1="-814.2" y1="-960.26" x2="-810.61" y2="-960.26" gradientTransform="translate(-2151.4 2362.35) rotate(-168.71) scale(2.67 -2.39) skewX(2.62)" xlink:href="#Unbenannter_Verlauf_25"/>
    <radialGradient id="Unbenannter_Verlauf_27" data-name="Unbenannter Verlauf 27" cx="-488.68" cy="5887.25" fx="-488.68" fy="5887.25" r="101.79" gradientTransform="translate(805.94 -1810.07) rotate(-8.57) scale(1.27 .4)" gradientUnits="userSpaceOnUse">
      <stop offset="0" stop-color="#000" stop-opacity=".33"/>
      <stop offset="1" stop-color="#000" stop-opacity="0"/>
    </radialGradient>
    <radialGradient id="Unbenannter_Verlauf_27-2" data-name="Unbenannter Verlauf 27" cx="-367.78" cy="5915.48" fx="-367.78" fy="5915.48" r="101.81" xlink:href="#Unbenannter_Verlauf_27"/>
  </defs>
  <g>
    <path class="cls-25" d="m42.13,55.63c-1.48,0-2.87-.28-4.16-.83s-2.42-1.32-3.4-2.31c-.98-.99-1.75-2.14-2.29-3.45-.55-1.31-.83-2.72-.83-4.25s.27-2.93.83-4.25c.55-1.31,1.31-2.46,2.29-3.45.98-.99,2.11-1.76,3.4-2.31s2.67-.83,4.16-.83,2.87.28,4.16.83,2.42,1.32,3.41,2.31c.98.99,1.74,2.14,2.29,3.45.55,1.31.82,2.73.82,4.25s-.27,2.94-.82,4.25c-.55,1.31-1.32,2.46-2.29,3.45-.98.99-2.12,1.76-3.41,2.31s-2.68.83-4.16.83Zm0-1.29c1.3,0,2.51-.25,3.65-.74,1.13-.49,2.11-1.16,2.96-2.02.84-.86,1.49-1.87,1.96-3.03.47-1.16.71-2.41.71-3.75s-.24-2.59-.71-3.75c-.47-1.16-1.12-2.17-1.96-3.03-.84-.86-1.83-1.53-2.96-2.02-1.13-.49-2.35-.74-3.65-.74s-2.52.25-3.64.74c-1.13.49-2.12,1.17-2.96,2.02-.84.86-1.5,1.87-1.96,3.03-.47,1.16-.71,2.41-.71,3.75s.23,2.59.71,3.75c.47,1.16,1.12,2.17,1.96,3.03s1.82,1.54,2.96,2.02c1.13.49,2.34.74,3.64.74Z"/>
    <path class="cls-25" d="m56.32,55.27v-14.76h1.32v2.34c.42-.82,1-1.46,1.73-1.93.73-.47,1.55-.71,2.47-.71.4,0,.83.04,1.29.12v1.35c-.22-.08-.44-.13-.66-.17-.22-.03-.43-.04-.63-.04-.98,0-1.83.29-2.54.88-.71.59-1.26,1.45-1.67,2.57v10.35h-1.32Z"/>
    <path class="cls-25" d="m70.99,55.6c-1.36,0-2.6-.34-3.72-1.02-1.12-.68-2.01-1.6-2.66-2.76-.65-1.16-.97-2.46-.97-3.9s.32-2.74.97-3.9c.65-1.16,1.54-2.08,2.66-2.76,1.12-.68,2.36-1.02,3.72-1.02,1,0,2,.2,3.01.6,1.01.4,1.9.95,2.66,1.65l-.9,1.08c-.64-.64-1.38-1.14-2.21-1.51-.83-.37-1.69-.55-2.57-.55-1.12,0-2.13.29-3.04.85-.91.57-1.63,1.34-2.16,2.31s-.79,2.05-.79,3.25.26,2.29.79,3.25c.53.97,1.25,1.74,2.16,2.31.91.57,1.92.86,3.04.86.88,0,1.74-.19,2.57-.57.83-.38,1.56-.88,2.21-1.5l.9,1.08c-.76.7-1.65,1.25-2.66,1.65-1.01.4-2.01.6-3.01.6Z"/>
    <path class="cls-25" d="m79.45,55.3v-21l1.32-.33v8.64c1.2-1.58,2.83-2.37,4.89-2.37,1.12,0,2.1.24,2.96.7.85.47,1.51,1.13,1.98,1.98.47.85.71,1.83.71,2.96v9.42h-1.32v-9.06c0-1.48-.41-2.65-1.23-3.5-.82-.85-1.95-1.28-3.39-1.28-1,0-1.9.24-2.7.71-.8.47-1.43,1.15-1.89,2.03v11.1h-1.32Z"/>
    <path class="cls-25" d="m101.98,55.6c-1.36,0-2.6-.34-3.72-1.02s-2-1.6-2.65-2.76c-.65-1.16-.98-2.46-.98-3.9s.32-2.74.95-3.9c.63-1.16,1.5-2.08,2.59-2.76,1.1-.68,2.33-1.02,3.69-1.02,1.28,0,2.42.34,3.42,1.02,1,.68,1.79,1.58,2.38,2.71s.88,2.38.88,3.77v.54h-12.57c.06,1.14.36,2.17.9,3.07.54.91,1.25,1.64,2.15,2.18.89.54,1.88.81,2.96.81.84,0,1.67-.13,2.49-.41.82-.27,1.52-.63,2.1-1.09l.78,1.05c-.8.58-1.65,1.01-2.55,1.29-.9.28-1.84.42-2.82.42Zm-5.94-8.58h11.1c-.1-1.02-.39-1.94-.87-2.77-.48-.83-1.1-1.5-1.86-2-.76-.5-1.62-.75-2.58-.75-1.02,0-1.95.24-2.78.72-.83.48-1.51,1.14-2.04,1.96-.53.83-.85,1.78-.97,2.83Z"/>
    <path class="cls-25" d="m116.14,55.6c-1.14,0-2.23-.21-3.26-.62-1.03-.41-1.89-1-2.59-1.78l1.02-.84c.6.62,1.32,1.11,2.17,1.47.85.36,1.73.54,2.66.54,1.36,0,2.45-.29,3.28-.89.83-.59,1.25-1.35,1.25-2.29,0-.7-.25-1.28-.75-1.74s-1.31-.76-2.43-.9l-2.43-.3c-1.4-.16-2.47-.57-3.2-1.23-.73-.66-1.09-1.54-1.09-2.64,0-.82.22-1.54.66-2.16.44-.62,1.05-1.1,1.85-1.46.79-.35,1.71-.52,2.75-.52s1.96.15,2.88.45c.92.3,1.85.79,2.79,1.47l-.78,1.08c-.84-.6-1.65-1.04-2.42-1.33-.77-.29-1.58-.44-2.45-.44-1.16,0-2.11.25-2.85.74-.74.49-1.11,1.21-1.11,2.17,0,.72.25,1.3.74,1.74.49.44,1.29.73,2.38.87l2.4.3c1.48.18,2.58.61,3.3,1.29s1.08,1.55,1.08,2.61c0,.84-.25,1.6-.75,2.27s-1.19,1.2-2.05,1.58c-.87.38-1.89.57-3.04.57Z"/>
    <path class="cls-25" d="m129.22,55.6c-1.12,0-1.98-.28-2.58-.84-.6-.56-.9-1.34-.9-2.34v-10.68h-3.24v-1.2h3.24v-3.72l1.32-.42v4.14h4.56v1.2h-4.56v10.23c0,.84.18,1.45.55,1.82s.99.55,1.85.55c.46,0,.85-.04,1.17-.11.32-.07.65-.17.99-.31v1.29c-.38.14-.77.24-1.17.3s-.81.09-1.23.09Z"/>
    <path class="cls-25" d="m134.2,55.27v-14.76h1.32v2.34c.42-.82,1-1.46,1.73-1.93.73-.47,1.55-.71,2.47-.71.4,0,.83.04,1.29.12v1.35c-.22-.08-.44-.13-.66-.17s-.43-.04-.63-.04c-.98,0-1.83.29-2.54.88-.71.59-1.26,1.45-1.67,2.57v10.35h-1.32Z"/>
    <path class="cls-25" d="m147.1,55.6c-1.08,0-2.03-.18-2.85-.55s-1.46-.89-1.92-1.56c-.46-.67-.69-1.44-.69-2.32,0-1.36.53-2.46,1.59-3.29,1.06-.83,2.47-1.25,4.23-1.25s3.32.43,4.68,1.29v-2.46c0-1.36-.37-2.38-1.11-3.04-.74-.67-1.8-1-3.18-1-.68,0-1.39.11-2.13.33-.74.22-1.59.58-2.55,1.08l-.57-1.17c.94-.48,1.84-.83,2.7-1.06.86-.23,1.72-.34,2.58-.34,1.78,0,3.16.42,4.12,1.27.97.85,1.46,2.08,1.46,3.71v10.08h-1.32v-1.65c-.68.62-1.44,1.1-2.28,1.44s-1.76.51-2.76.51Zm-4.14-4.47c0,.96.4,1.75,1.2,2.37s1.81.93,3.03.93c1.06,0,1.99-.18,2.79-.55.8-.37,1.52-.9,2.16-1.58v-3.06c-.66-.5-1.38-.87-2.16-1.11-.78-.24-1.67-.36-2.67-.36-1.3,0-2.35.31-3.15.93s-1.2,1.43-1.2,2.43Z"/>
    <path class="cls-25" d="m162.07,55.6c-1.12,0-1.98-.28-2.58-.84-.6-.56-.9-1.34-.9-2.34v-10.68h-3.24v-1.2h3.24v-3.72l1.32-.42v4.14h4.56v1.2h-4.56v10.23c0,.84.18,1.45.55,1.82s.98.55,1.84.55c.46,0,.85-.04,1.17-.11.32-.07.65-.17.99-.31v1.29c-.38.14-.77.24-1.17.3-.4.06-.81.09-1.23.09Z"/>
    <path class="cls-25" d="m167.68,37.21c-.32,0-.59-.11-.81-.33-.22-.22-.33-.49-.33-.81s.11-.59.33-.81c.22-.22.49-.33.81-.33.34,0,.62.11.83.33.21.22.31.49.31.81s-.1.59-.31.81c-.21.22-.49.33-.83.33Zm-.66,18.09v-14.76h1.32v14.76h-1.32Z"/>
    <path class="cls-25" d="m179.08,55.6c-1.36,0-2.6-.34-3.72-1.02-1.12-.68-2.01-1.61-2.66-2.78-.65-1.17-.98-2.46-.98-3.88s.33-2.74.98-3.9c.65-1.16,1.53-2.08,2.66-2.76,1.12-.68,2.36-1.02,3.72-1.02s2.62.34,3.73,1.02c1.11.68,1.99,1.6,2.64,2.76.65,1.16.97,2.46.97,3.9s-.33,2.71-.97,3.88c-.65,1.17-1.53,2.1-2.64,2.78-1.11.68-2.35,1.02-3.73,1.02Zm0-1.26c1.12,0,2.13-.29,3.04-.86.91-.57,1.63-1.34,2.16-2.31.53-.97.79-2.05.79-3.25s-.27-2.29-.79-3.25c-.53-.97-1.25-1.74-2.16-2.31-.91-.57-1.92-.85-3.04-.85s-2.14.29-3.04.85c-.91.57-1.63,1.34-2.16,2.31-.53.97-.79,2.05-.79,3.25s.26,2.29.79,3.25c.53.97,1.25,1.74,2.16,2.31.91.57,1.92.86,3.04.86Z"/>
    <path class="cls-25" d="m189.81,55.3v-14.76h1.32v2.07c1.2-1.58,2.83-2.37,4.89-2.37,1.12,0,2.1.24,2.96.7.85.47,1.51,1.13,1.98,1.98.47.85.71,1.83.71,2.96v9.42h-1.32v-9.06c0-1.48-.41-2.65-1.23-3.5-.82-.85-1.95-1.28-3.39-1.28-1,0-1.9.24-2.7.71s-1.43,1.15-1.89,2.03v11.1h-1.32Z"/>
  </g>
  <g>
    <path class="cls-38" d="m729.7,376.2l10.64,10.64,10.64-10.64"/>
    <line class="cls-38" x1="740.09" y1="281.93" x2="740.09" y2="376.2"/>
  </g>
  <g>
    <rect class="cls-35" x="433.7" y="401.84" width="613.27" height="242.53" rx="29.16" ry="29.16"/>
    <g id="foreman_logo-black">
      <g id="g34599">
        <g id="text6578">
          <path id="path34993" class="cls-25" d="m733.65,486.87h-17.06v18.4h17.06v7.57h-17.06v26.07h-7.57v-59.61h24.63v7.57h0"/>
          <path id="path34995" class="cls-25" d="m753.21,538.82c-2.88,0-5.18-.48-6.9-1.53-1.73-1.05-2.97-2.11-3.83-3.16-2.3-2.88-3.35-7-3.35-12.27v-25.69c0-5.27,1.15-9.39,3.35-12.27.38-.58.96-1.05,1.53-1.63.67-.58,1.44-1.05,2.3-1.44.96-.48,1.92-.86,3.07-1.15s2.4-.48,3.83-.48c2.88,0,5.18.48,6.9,1.53,1.73,1.05,2.97,2.11,3.83,3.16,2.3,2.88,3.35,7,3.35,12.27v25.59c0,5.27-1.15,9.39-3.35,12.27-.86,1.05-2.2,2.11-3.83,3.16-1.73,1.05-4.03,1.63-6.9,1.63m0-51.95c-.58,0-1.25.1-2.01.19-.67.1-1.44.48-2.11,1.05s-1.34,1.44-1.82,2.78c-.48,1.25-.67,3.07-.67,5.37v25.59c0,2.4.19,4.22.67,5.46.48,1.25,1.05,2.2,1.82,2.78.67.58,1.44.86,2.11.96.77.1,1.44.19,2.01.19s1.15-.1,1.92-.19,1.44-.38,2.2-.96c.67-.58,1.25-1.53,1.73-2.78s.77-3.16.77-5.46v-25.69c0-2.3-.29-4.12-.77-5.37-.48-1.25-.96-2.2-1.73-2.78-.67-.58-1.44-.96-2.2-1.05-.77,0-1.44-.1-1.92-.1"/>
          <path id="path34997" class="cls-25" d="m794.8,509.49c1.44,1.44,2.59,3.07,3.35,4.98.77,1.92,1.25,4.12,1.25,6.61v17.63h-7.67v-17.54c0-5.27-2.49-7.86-7.57-7.86h-4.79v25.49h-7.57v-59.61h12.36c5.08,0,9.01,1.53,11.6,4.5,2.4,2.78,3.55,6.9,3.55,12.46s-1.15,9.68-3.55,12.56c-.1.1-.29.29-.38.38-.19.19-.38.29-.58.38m-10.73-3.83c2.01,0,3.45-.29,4.22-.77s1.34-.86,1.53-1.15c1.15-1.53,1.82-4.03,1.82-7.57,0-2.01-.19-3.55-.48-4.79s-.77-2.2-1.44-2.88c-.58-.67-1.34-1.15-2.3-1.34-.96-.19-2.01-.29-3.26-.29h-4.79v18.78h4.7"/>
          <path id="path34999" class="cls-25" d="m830.07,486.87h-17.06v18.4h17.06v7.57h-17.06v18.4h17.06v7.57h-24.73v-59.52h24.63l.1,7.57h0"/>
          <path id="path35001" class="cls-25" d="m843.01,510.26v28.56h-7.57v-59.61h6.71l12.08,41.98,11.98-41.98h6.71v59.61h-7.57v-28.56l-8.24,28.56h-5.75l-8.34-28.56h0"/>
          <path id="path35003" class="cls-25" d="m886.62,538.92h-7.86l13.8-59.61h6.04l13.9,59.61h-7.95l-3.83-16.68h-10.35l-3.74,16.68m9.01-38.91l-3.35,14.66h6.8l-3.45-14.66"/>
          <path id="path35005" class="cls-25" d="m921.79,502.78v36.04h-7.57v-59.61h6.42l14.57,36.04v-36.04h7.67v59.61h-6.52l-14.57-36.04h0"/>
        </g>
      </g>
      <g id="g17157" class="cls-41">
        <g id="path5756" class="cls-42">
          <path class="cls-27" d="m518.95,555.04c-23.12,6.83,28.17,39.31,49.79,45.58,44.08,12.82,72.72,16.38,135.52-24.24,25.36-22.37-18.25-23.68-75.9-20.03-97.43-5.15-104.64-19.75-109.41-1.31Z"/>
        </g>
        <path id="path5611" class="cls-17" d="m518.95,549.42c-23.12,6.83,28.17,39.31,49.79,45.58,44.08,12.82,72.72,16.38,135.52-24.24,25.36-22.37-18.25-23.68-75.9-20.03-97.43-5.15-104.64-19.75-109.41-1.31Z"/>
        <path id="path9655" class="cls-32" d="m610.02,443.29c-36.5-.84-56.81,8.33-69.35,26.02-12.17,17.13-21.99,56.16-20.97,79.74,26.49,41.74,153.21,40.9,175.77,2.9-9.83-34.44-6.65-63.55-22.28-83.49-14.41-18.53-39.96-26.3-63.18-25.18Z"/>
        <path id="path5782" class="cls-24" d="m693.13,534.26c3.18-.09,3.46,16.38,3.46,16.38,0,0-2.62,2.53-5.8,2.53-3.18.09-6.93-2.34-6.93-2.34,0,0,6.08-16.47,9.27-16.57h0Z"/>
        <path id="path5653" class="cls-16" d="m610.02,442.07c-36.5-.84-56.81,8.33-69.35,26.02-12.17,17.13-21.99,56.16-20.97,79.74,26.49,41.74,153.21,40.9,175.77,2.9-9.83-34.44-6.65-63.55-22.28-83.49-14.41-18.44-39.96-26.21-63.18-25.18Z"/>
        <g class="cls-43">
          <path id="path5547" class="cls-28" d="m600.56,438.04c-11.61,0-21.99,3.28-31.07,8.99h0c-12.82,4.31-21.99,11.42-28.83,21.06-12.17,17.13-21.99,56.16-20.97,79.74,26.49,41.74,153.21,40.9,175.77,2.9-9.83-34.44-6.65-63.55-22.28-83.49-8.33-10.67-20.31-17.78-33.51-21.62q-.09,0-.19-.09c-6.08-2.34-21.25-7.49-36.69-7.49h-2.25Zm27.42,4.96c.37.09.84.09,1.22.19-.37-.09-.75-.09-1.22-.19Zm-42.49.28c-.94.09-1.78.28-2.71.37.94-.09,1.87-.28,2.71-.37Z"/>
        </g>
        <path id="path5437" class="cls-15" d="m601.97,517.51l-.47,11.14,22.18-1.68-1.03-10.76-20.68,1.31Z"/>
        <path id="path5448" class="cls-13" d="m656.72,512.08l-.66,10.3,18.16-1.59,1.78-9.92-19.28,1.22Z"/>
        <path id="path5602" class="cls-9" d="m578.66,437.2c-3.65-.28-6.46,10.76-6.46,10.76,0,0,2.53,1.87,6.18,2.06,3.65.19,8.33-1.12,8.33-1.12,0,0-4.4-11.42-8.05-11.7Z"/>
        <path id="path5598" class="cls-8" d="m623.4,433.93c-3-.94-7.67,9.36-7.67,9.36,0,0,1.87,2.25,4.87,3.18,3,.94,7.21.37,7.21.37,0,0-1.4-11.98-4.4-12.92h0Z"/>
        <path id="path5786" class="cls-23" d="m602.81,517.69l20.87-1.31c-2.53-23.68-13.38-41.18-26.77-61.49,6.18-1.4,18.53-5.15,27.98,0,15.26,19,24.33,35,30.79,57.56l21.15-1.31c-11.79-27.7-15.35-47.17-34.44-64.58,0,0-19.75-8.61-39.59-8.61-48.2-1.78-75.16,52.97-78.06,99.02-.94,25.83-2.15,23.68,7.58,29.76,7.96,4.96,6.93-1.68,6.93-1.68-4.02-50.07,25.27-89.2,38.37-102.2,11.89,16.38,19.56,36.69,25.18,54.85h0Z"/>
        <path id="path5452" class="cls-5" d="m602.81,517.69l20.87-1.31c-2.53-23.68-13.38-41.18-26.77-61.49,6.18-1.4,18.53-5.15,27.98,0,15.26,19,24.33,35,30.79,57.56l21.15-1.31c-11.79-27.7-15.35-47.17-34.44-64.58,0,0-19.75-8.61-39.59-8.61-48.2-1.78-75.16,52.97-78.06,99.02-.94,25.83-2.15,23.68,7.58,29.76,7.96,4.96,6.93-1.68,6.93-1.68-4.02-50.07,25.27-89.2,38.37-102.2,11.89,16.38,19.56,36.69,25.18,54.85h0Z"/>
        <path id="path4622" class="cls-20" d="m577.82,463.03l-.09,7.21c-32.76,23.96-37.91,73.1-37.81,83.21.66-24.43,3.28-61.12,37.91-90.41Z"/>
        <path id="path5441" class="cls-2" d="m623.49,456.48c18.06,19,29.29,54,32.29,66.36l.84-5.33c-3.46-23.96-20.4-54.66-32.38-64.95l-.75,3.93Z"/>
        <path id="path4624" class="cls-1" d="m577.54,470.05c1.59,1.22,14.98,27.33,23.77,59.15l1.12-7.58c-13.2-40.53-16.85-46.89-24.9-58.59v7.02Z"/>
        <path id="rect5445" class="cls-3" d="m595.88,454.61c9.17-4.31,18.91-4.68,28.45-2.34v4.12c-19.28-1.59-24.99,3.28-25.46,2.06-.66-.94-2.34-2.9-3-3.84Z"/>
        <path id="path5466" class="cls-18" d="m684.14,551.29c-6.27-50.26-22.09-93.78-52.32-111.56,33.6,22.93,44.27,66.73,52.32,111.56Z"/>
        <path id="path5470" class="cls-14" d="m627.24,558.22c-2.34-47.92-13.48-90.04-38.56-108.57,27.8,23.59,34.26,65.61,38.56,108.57Z"/>
        <g id="path5506" class="cls-40">
          <path class="cls-6" d="m592.14,460.97c14.79,3.84,25.46,13.76,23.77,22.18-1.4,7.3-11.61,11.04-23.87,9.45-4.49-16.75-11.61-27.42-18.53-32.38,5.24-1.22,11.79-1.03,18.63.75Z"/>
        </g>
        <g id="path5535" class="cls-40">
          <path class="cls-7" d="m639.97,451.33c15.26,1.4,27.33,9.55,27.14,18.06-.19,7.39-9.64,12.73-21.99,13.1-7.21-15.72-15.91-25.08-23.59-28.83,4.87-2.06,11.42-2.9,18.44-2.34Z"/>
        </g>
        <g id="path5586">
          <path class="cls-21" d="m657.38,455.08c22.56,17.22,26.58,51.01,32.48,83.11-9.36-30.23-17.69-61.96-32.48-83.11h0Z"/>
        </g>
        <path id="path5590" class="cls-22" d="m608.43,545.3c-10.39-46.61-21.99-80.3-38.47-90.69,6.83,3.84,19.94,7.02,36.31,79.55l2.15,11.14h0Z"/>
        <path id="path5594" class="cls-4" d="m668.79,544.18c-15.54-51.29-31.63-88.17-52.23-98.65,8.52,3.84,24.43,6.65,48.95,86.48l3.28,12.17h0Z"/>
        <path id="path5663" class="cls-11" d="m534.39,536.88c-5.8-1.5-16.94,17.5-16.94,17.5,1.03,3.18,8.61,5.24,12.82,4.31,0,0,9.83-20.31,4.12-21.81h0Z"/>
        <path id="path5722" class="cls-29" d="m518.95,547.55c-23.12,6.83,28.17,39.31,49.79,45.58,44.08,12.82,72.72,16.38,135.52-24.24,25.36-22.37-18.25-23.68-75.9-20.03-97.43-5.15-104.64-19.75-109.41-1.31Z"/>
        <path id="path5667" class="cls-10" d="m544.13,543.81c-4.96-1.5-13.66,20.5-13.66,20.5,0,0,2.81,4.49,7.67,5.9,4.96,1.5,12.07-.09,12.07-.09,0,0-1.12-24.9-6.08-26.3h0Z"/>
        <g id="g5770">
          <path id="path5740" class="cls-31" d="m518.95,549.42c-23.12,6.83,28.17,39.31,49.79,45.58,44.08,12.82,72.72,16.38,135.52-24.24,12.64-11.23,8.14-17.13-6.83-19.84"/>
          <path id="path5750" class="cls-30" d="m518.95,549.42c-23.12,6.83,28.17,39.31,49.79,45.58,44.08,12.82,72.72,16.38,135.52-24.24,12.64-11.23,8.14-17.13-6.83-19.84"/>
        </g>
      </g>
    </g>
  </g>
  <g>
    <path class="cls-26" d="m306.3,730.43c-.72-.72-1.57-1.07-2.53-1.07h-93.71c-.99,0-1.81.35-2.53,1.07-.72.72-1.07,1.57-1.07,2.53v11.7c0,.99.35,1.81,1.05,2.54.72.72,1.55,1.07,2.53,1.07h93.73c.99,0,1.81-.35,2.53-1.07.72-.72,1.07-1.55,1.07-2.53v-11.71c0-.99-.35-1.81-1.07-2.53Zm-87.24,11.54h-6.31v-6.31h6.31v6.31Zm12.62,0h-6.31v-6.31h6.31v6.31Zm12.62,0h-6.31v-6.31h6.31v6.31Zm12.62,0h-6.31v-6.31h6.31v6.31Zm44.16,0h-6.31v-6.31h6.31v6.31Zm-94.62-19.99c0-.91.12-1.03.95-1.84,0,0,13.95-13.82,14.98-15.03,1.04-1.21,2.36-.97,2.36-.97h64.57s1.16-.14,2.22,1.01c1.03,1.14,14.82,14.98,14.82,14.98.83.83,1.03.96,1.03,1.85,0,.95-1.15,1.06-2.3,1.06h-96.45c-1.11,0-2.18-.16-2.18-1.07Zm99.85,58.91c-.72-.72-1.57-1.07-2.53-1.07h-93.71c-.99,0-1.81.35-2.53,1.07-.72.72-1.07,1.57-1.07,2.53v11.7c0,.99.35,1.81,1.05,2.54.72.72,1.55,1.07,2.53,1.07h93.73c.99,0,1.81-.35,2.53-1.07.72-.72,1.07-1.55,1.07-2.53v-11.71c0-.99-.35-1.81-1.07-2.53Zm-87.24,11.54h-6.31v-6.31h6.31v6.31Zm12.62,0h-6.31v-6.31h6.31v6.31Zm12.62,0h-6.31v-6.31h6.31v6.31Zm12.62,0h-6.31v-6.31h6.31v6.31Zm44.16,0h-6.31v-6.31h6.31v6.31Zm5.23-36.77c-.72-.72-1.57-1.07-2.53-1.07h-93.71c-.99,0-1.81.35-2.53,1.07-.72.72-1.07,1.57-1.07,2.53v11.7c0,.99.35,1.81,1.05,2.54.72.72,1.55,1.07,2.53,1.07h93.73c.99,0,1.81-.35,2.53-1.07.72-.72,1.07-1.55,1.07-2.53v-11.71c0-.99-.35-1.81-1.07-2.53Zm-87.24,11.54h-6.31v-6.31h6.31v6.31Zm12.62,0h-6.31v-6.31h6.31v6.31Zm12.62,0h-6.31v-6.31h6.31v6.31Zm12.62,0h-6.31v-6.31h6.31v6.31Zm44.16,0h-6.31v-6.31h6.31v6.31Z"/>
    <g>
      <path class="cls-25" d="m181.93,836.04c-1.68,0-3.3-.32-4.86-.97s-2.94-1.59-4.14-2.81l1.92-2.22c1.14,1.12,2.3,1.95,3.49,2.49,1.19.54,2.45.81,3.77.81,1,0,1.88-.15,2.64-.45.76-.3,1.35-.71,1.79-1.24.43-.53.65-1.13.65-1.82,0-.94-.33-1.66-.99-2.17s-1.75-.88-3.27-1.12l-3.48-.6c-1.94-.32-3.39-.93-4.33-1.83-.95-.9-1.42-2.1-1.42-3.6,0-1.2.32-2.26.96-3.18.64-.92,1.54-1.63,2.71-2.13s2.52-.75,4.06-.75,3.02.25,4.48.75c1.47.5,2.79,1.2,3.98,2.1l-1.74,2.43c-2.26-1.72-4.55-2.58-6.87-2.58-.92,0-1.73.13-2.42.39s-1.22.62-1.59,1.09c-.37.47-.56,1.03-.56,1.67,0,.82.29,1.46.87,1.92.58.46,1.53.8,2.85,1.02l3.42.54c2.22.36,3.85,1.01,4.89,1.95s1.56,2.23,1.56,3.87c0,1.28-.34,2.41-1.03,3.39-.69.98-1.67,1.74-2.94,2.27s-2.73.79-4.39.79Z"/>
      <path class="cls-25" d="m192.85,835.74v-15.27h3v1.44c1.14-1.16,2.57-1.74,4.29-1.74,1.04,0,1.97.23,2.79.69.82.46,1.46,1.09,1.92,1.89.62-.86,1.36-1.5,2.23-1.93s1.85-.65,2.93-.65c1.14,0,2.13.25,2.98.75.85.5,1.52,1.2,2,2.09s.72,1.94.72,3.13v9.6h-2.97v-9.09c0-1.2-.31-2.14-.95-2.83-.63-.69-1.48-1.04-2.53-1.04-.76,0-1.44.17-2.04.53-.6.35-1.12.87-1.56,1.54.04.2.07.41.09.63.02.22.03.44.03.66v9.6h-2.97v-9.09c0-1.2-.32-2.14-.96-2.83-.64-.69-1.48-1.04-2.52-1.04-.74,0-1.4.15-1.98.46-.58.31-1.08.78-1.5,1.39v11.1h-3Z"/>
      <path class="cls-25" d="m224.05,836.01c-1.12,0-2.1-.19-2.94-.58s-1.5-.94-1.98-1.63-.72-1.51-.72-2.43c0-1.44.55-2.57,1.66-3.39,1.11-.82,2.61-1.23,4.52-1.23,1.5,0,2.88.27,4.14.81v-1.59c0-1.1-.31-1.92-.93-2.46-.62-.54-1.54-.81-2.76-.81-.7,0-1.43.1-2.18.31-.75.21-1.6.54-2.53.97l-1.14-2.25c1.14-.54,2.21-.93,3.23-1.19,1.01-.25,2.02-.38,3.04-.38,1.98,0,3.51.47,4.6,1.41,1.09.94,1.63,2.28,1.63,4.02v10.14h-2.97v-1.32c-.66.54-1.38.94-2.16,1.2-.78.26-1.62.39-2.52.39Zm-2.79-4.74c0,.76.32,1.37.96,1.83.64.46,1.47.69,2.49.69.8,0,1.54-.12,2.22-.36.68-.24,1.28-.61,1.8-1.11v-2.58c-.56-.32-1.16-.56-1.8-.72s-1.33-.24-2.07-.24c-1.12,0-2,.23-2.64.69-.64.46-.96,1.06-.96,1.8Z"/>
      <path class="cls-25" d="m235.15,835.74v-15.3h3v1.98c.48-.72,1.07-1.28,1.79-1.68.71-.4,1.51-.6,2.42-.6.62,0,1.13.08,1.53.24v2.7c-.28-.12-.57-.21-.87-.25-.3-.05-.61-.08-.93-.08-.86,0-1.63.24-2.31.71-.68.47-1.22,1.16-1.62,2.05v10.23h-3Z"/>
      <path class="cls-25" d="m252.79,836.01c-1.46,0-2.58-.34-3.36-1.02-.78-.68-1.17-1.69-1.17-3.03v-8.97h-3.24v-2.52h3.24v-3.87l2.97-.75v4.62h4.53v2.52h-4.53v8.31c0,.76.17,1.3.52,1.63.35.33.92.5,1.73.5.42,0,.79-.03,1.12-.09.33-.06.68-.16,1.06-.3v2.55c-.4.14-.87.25-1.4.32-.53.07-1.03.1-1.49.1Z"/>
      <path class="cls-25" d="m264.61,835.74v-21h9.69c1.38,0,2.58.26,3.6.78,1.02.52,1.82,1.25,2.4,2.21.58.95.87,2.05.87,3.31s-.29,2.29-.87,3.22-1.38,1.67-2.42,2.21c-1.03.54-2.22.81-3.58.81h-6.54v8.46h-3.15Zm3.15-11.13h6.24c1.22,0,2.19-.32,2.91-.96.72-.64,1.08-1.51,1.08-2.61s-.36-1.94-1.08-2.58c-.72-.64-1.69-.96-2.91-.96h-6.24v7.11Z"/>
      <path class="cls-25" d="m283.93,835.74v-15.3h3v1.98c.48-.72,1.08-1.28,1.79-1.68.71-.4,1.52-.6,2.42-.6.62,0,1.13.08,1.53.24v2.7c-.28-.12-.57-.21-.87-.25-.3-.05-.61-.08-.93-.08-.86,0-1.63.24-2.31.71-.68.47-1.22,1.16-1.62,2.05v10.23h-3Z"/>
      <path class="cls-25" d="m301.45,836.04c-1.48,0-2.83-.35-4.04-1.04s-2.17-1.64-2.88-2.85c-.71-1.21-1.07-2.55-1.07-4.04s.35-2.85,1.05-4.04,1.66-2.14,2.88-2.85c1.22-.71,2.57-1.07,4.05-1.07s2.82.36,4.04,1.07c1.21.71,2.16,1.66,2.86,2.85s1.05,2.54,1.05,4.04-.35,2.82-1.05,4.04c-.7,1.21-1.66,2.16-2.86,2.85-1.21.69-2.56,1.04-4.04,1.04Zm0-2.64c.94,0,1.79-.23,2.55-.71.76-.47,1.36-1.1,1.8-1.9.44-.8.66-1.7.66-2.7s-.22-1.86-.66-2.65c-.44-.79-1.04-1.43-1.8-1.9-.76-.48-1.61-.72-2.55-.72s-1.77.24-2.54.72c-.77.48-1.38,1.12-1.82,1.9-.44.79-.66,1.68-.66,2.65s.22,1.9.66,2.7c.44.8,1.04,1.44,1.82,1.9.77.47,1.61.71,2.54.71Z"/>
      <path class="cls-25" d="m309.19,835.74l5.94-7.83-5.7-7.44h3.54l3.93,5.22,3.9-5.22h3.39l-5.64,7.41,6,7.86h-3.51l-4.2-5.64-4.26,5.64h-3.39Z"/>
      <path class="cls-25" d="m327.49,842.16c-.3,0-.59-.01-.87-.04-.28-.03-.51-.05-.69-.07v-2.67c.36.08.8.12,1.32.12,1.38,0,2.4-.75,3.06-2.25l.63-1.44-6.12-15.33h3.3l4.47,11.61,4.92-11.61h3.24l-7.38,17.16c-.48,1.1-1,1.98-1.54,2.64s-1.17,1.14-1.86,1.44c-.69.3-1.52.45-2.48.45Z"/>
    </g>
    <rect class="cls-35" x="133.71" y="678.77" width="245.89" height="176.86" rx="15.77" ry="15.77"/>
  </g>
  <g>
    <path class="cls-26" d="m1217.65,730.43c-.72-.72-1.57-1.07-2.53-1.07h-93.71c-.99,0-1.81.35-2.53,1.07-.72.72-1.07,1.57-1.07,2.53v11.7c0,.99.35,1.81,1.05,2.54.72.72,1.55,1.07,2.53,1.07h93.73c.99,0,1.81-.35,2.53-1.07.72-.72,1.07-1.55,1.07-2.53v-11.71c0-.99-.35-1.81-1.07-2.53Zm-87.24,11.54h-6.31v-6.31h6.31v6.31Zm12.62,0h-6.31v-6.31h6.31v6.31Zm12.62,0h-6.31v-6.31h6.31v6.31Zm12.62,0h-6.31v-6.31h6.31v6.31Zm44.16,0h-6.31v-6.31h6.31v6.31Zm-94.62-19.99c0-.91.12-1.03.95-1.84,0,0,13.95-13.82,14.98-15.03,1.04-1.21,2.36-.97,2.36-.97h64.57s1.16-.14,2.22,1.01c1.03,1.14,14.82,14.98,14.82,14.98.83.83,1.03.96,1.03,1.85,0,.95-1.15,1.06-2.3,1.06h-96.45c-1.11,0-2.18-.16-2.18-1.07Zm99.85,58.91c-.72-.72-1.57-1.07-2.53-1.07h-93.71c-.99,0-1.81.35-2.53,1.07-.72.72-1.07,1.57-1.07,2.53v11.7c0,.99.35,1.81,1.05,2.54.72.72,1.55,1.07,2.53,1.07h93.73c.99,0,1.81-.35,2.53-1.07.72-.72,1.07-1.55,1.07-2.53v-11.71c0-.99-.35-1.81-1.07-2.53Zm-87.24,11.54h-6.31v-6.31h6.31v6.31Zm12.62,0h-6.31v-6.31h6.31v6.31Zm12.62,0h-6.31v-6.31h6.31v6.31Zm12.62,0h-6.31v-6.31h6.31v6.31Zm44.16,0h-6.31v-6.31h6.31v6.31Zm5.23-36.77c-.72-.72-1.57-1.07-2.53-1.07h-93.71c-.99,0-1.81.35-2.53,1.07-.72.72-1.07,1.57-1.07,2.53v11.7c0,.99.35,1.81,1.05,2.54.72.72,1.55,1.07,2.53,1.07h93.73c.99,0,1.81-.35,2.53-1.07.72-.72,1.07-1.55,1.07-2.53v-11.71c0-.99-.35-1.81-1.07-2.53Zm-87.24,11.54h-6.31v-6.31h6.31v6.31Zm12.62,0h-6.31v-6.31h6.31v6.31Zm12.62,0h-6.31v-6.31h6.31v6.31Zm12.62,0h-6.31v-6.31h6.31v6.31Zm44.16,0h-6.31v-6.31h6.31v6.31Z"/>
    <g>
      <path class="cls-25" d="m1093.29,836.04c-1.68,0-3.3-.32-4.86-.97-1.56-.65-2.94-1.58-4.14-2.81l1.92-2.22c1.14,1.12,2.3,1.95,3.49,2.49,1.19.54,2.45.81,3.77.81,1,0,1.88-.15,2.64-.45.76-.3,1.35-.71,1.79-1.25.43-.53.65-1.13.65-1.82,0-.94-.33-1.67-.99-2.17s-1.75-.88-3.27-1.12l-3.48-.6c-1.94-.32-3.39-.93-4.33-1.83-.95-.9-1.42-2.1-1.42-3.6,0-1.2.32-2.26.96-3.18.64-.92,1.54-1.63,2.71-2.13s2.52-.75,4.06-.75,3.02.25,4.49.75,2.79,1.2,3.97,2.1l-1.74,2.43c-2.26-1.72-4.55-2.58-6.87-2.58-.92,0-1.73.13-2.42.39-.69.26-1.22.62-1.59,1.09-.37.47-.56,1.03-.56,1.67,0,.82.29,1.46.87,1.92.58.46,1.53.8,2.85,1.02l3.42.54c2.22.36,3.85,1.01,4.89,1.95,1.04.94,1.56,2.23,1.56,3.87,0,1.28-.34,2.41-1.03,3.39-.69.98-1.67,1.74-2.94,2.26-1.27.53-2.74.79-4.39.79Z"/>
      <path class="cls-25" d="m1104.21,835.74v-15.27h3v1.44c1.14-1.16,2.57-1.74,4.29-1.74,1.04,0,1.97.23,2.79.69s1.46,1.09,1.92,1.89c.62-.86,1.37-1.5,2.24-1.93s1.84-.65,2.92-.65c1.14,0,2.13.25,2.99.75.85.5,1.51,1.2,2,2.08.48.89.72,1.94.72,3.14v9.6h-2.97v-9.09c0-1.2-.32-2.15-.95-2.83-.63-.69-1.48-1.04-2.54-1.04-.76,0-1.44.17-2.04.53-.6.35-1.12.87-1.56,1.54.04.2.07.41.09.63.02.22.03.44.03.66v9.6h-2.97v-9.09c0-1.2-.32-2.15-.96-2.83-.64-.69-1.48-1.04-2.52-1.04-.74,0-1.4.16-1.98.46-.58.31-1.08.78-1.5,1.4v11.1h-3Z"/>
      <path class="cls-25" d="m1135.41,836.01c-1.12,0-2.1-.19-2.94-.58-.84-.39-1.5-.93-1.98-1.63-.48-.7-.72-1.51-.72-2.43,0-1.44.55-2.57,1.66-3.39,1.11-.82,2.62-1.23,4.52-1.23,1.5,0,2.88.27,4.14.81v-1.59c0-1.1-.31-1.92-.93-2.46-.62-.54-1.54-.81-2.76-.81-.7,0-1.43.1-2.18.31s-1.59.54-2.53.98l-1.14-2.25c1.14-.54,2.21-.93,3.23-1.19,1.01-.25,2.02-.38,3.04-.38,1.98,0,3.51.47,4.6,1.41,1.09.94,1.63,2.28,1.63,4.02v10.14h-2.97v-1.32c-.66.54-1.38.94-2.16,1.2-.78.26-1.62.39-2.52.39Zm-2.79-4.74c0,.76.32,1.37.96,1.83.64.46,1.47.69,2.49.69.8,0,1.54-.12,2.22-.36.68-.24,1.28-.61,1.8-1.11v-2.58c-.56-.32-1.16-.56-1.8-.72-.64-.16-1.33-.24-2.07-.24-1.12,0-2,.23-2.64.69-.64.46-.96,1.06-.96,1.8Z"/>
      <path class="cls-25" d="m1146.51,835.74v-15.3h3v1.98c.48-.72,1.08-1.28,1.79-1.68.71-.4,1.51-.6,2.42-.6.62,0,1.13.08,1.53.24v2.7c-.28-.12-.57-.21-.87-.25s-.61-.08-.93-.08c-.86,0-1.63.24-2.31.71-.68.47-1.22,1.16-1.62,2.05v10.23h-3Z"/>
      <path class="cls-25" d="m1164.15,836.01c-1.46,0-2.58-.34-3.36-1.02-.78-.68-1.17-1.69-1.17-3.03v-8.97h-3.24v-2.52h3.24v-3.87l2.97-.75v4.62h4.53v2.52h-4.53v8.31c0,.76.17,1.31.52,1.64s.92.5,1.73.5c.42,0,.79-.03,1.12-.09.33-.06.68-.16,1.06-.3v2.55c-.4.14-.87.25-1.39.32-.53.07-1.03.1-1.49.1Z"/>
      <path class="cls-25" d="m1175.97,835.74v-21h9.69c1.38,0,2.58.26,3.6.78s1.82,1.25,2.4,2.21.87,2.05.87,3.31-.29,2.29-.87,3.23c-.58.93-1.38,1.67-2.42,2.21-1.03.54-2.22.81-3.58.81h-6.54v8.46h-3.15Zm3.15-11.13h6.24c1.22,0,2.19-.32,2.91-.96.72-.64,1.08-1.51,1.08-2.61s-.36-1.94-1.08-2.58c-.72-.64-1.69-.96-2.91-.96h-6.24v7.11Z"/>
      <path class="cls-25" d="m1195.29,835.74v-15.3h3v1.98c.48-.72,1.08-1.28,1.79-1.68.71-.4,1.52-.6,2.42-.6.62,0,1.13.08,1.53.24v2.7c-.28-.12-.57-.21-.87-.25s-.61-.08-.93-.08c-.86,0-1.63.24-2.31.71-.68.47-1.22,1.16-1.62,2.05v10.23h-3Z"/>
      <path class="cls-25" d="m1212.81,836.04c-1.48,0-2.83-.34-4.04-1.04-1.21-.69-2.17-1.64-2.88-2.85-.71-1.21-1.07-2.55-1.07-4.04s.35-2.84,1.05-4.04c.7-1.19,1.66-2.14,2.88-2.85,1.22-.71,2.57-1.07,4.05-1.07s2.82.36,4.04,1.07c1.21.71,2.16,1.66,2.86,2.85.7,1.19,1.05,2.54,1.05,4.04s-.35,2.83-1.05,4.04-1.66,2.16-2.86,2.85c-1.21.69-2.56,1.04-4.04,1.04Zm0-2.64c.94,0,1.79-.24,2.55-.71.76-.47,1.36-1.1,1.8-1.91.44-.8.66-1.7.66-2.7s-.22-1.86-.66-2.65c-.44-.79-1.04-1.43-1.8-1.91-.76-.48-1.61-.72-2.55-.72s-1.77.24-2.54.72c-.77.48-1.38,1.12-1.82,1.91-.44.79-.66,1.67-.66,2.65s.22,1.9.66,2.7c.44.8,1.04,1.44,1.82,1.91.77.47,1.61.71,2.54.71Z"/>
      <path class="cls-25" d="m1220.55,835.74l5.94-7.83-5.7-7.44h3.54l3.93,5.22,3.9-5.22h3.39l-5.64,7.41,6,7.86h-3.51l-4.2-5.64-4.26,5.64h-3.39Z"/>
      <path class="cls-25" d="m1238.85,842.16c-.3,0-.59-.01-.87-.04s-.51-.06-.69-.08v-2.67c.36.08.8.12,1.32.12,1.38,0,2.4-.75,3.06-2.25l.63-1.44-6.12-15.33h3.3l4.47,11.61,4.92-11.61h3.24l-7.38,17.16c-.48,1.1-1,1.98-1.54,2.64s-1.17,1.14-1.86,1.44c-.69.3-1.52.45-2.48.45Z"/>
    </g>
    <rect class="cls-35" x="1045.07" y="678.77" width="245.89" height="176.86" rx="15.77" ry="15.77"/>
  </g>
  <g>
    <g>
      <path class="cls-25" d="m221.54,1135.14v-21h3.15v9h11.13v-9h3.15v21h-3.15v-9.15h-11.13v9.15h-3.15Z"/>
      <path class="cls-25" d="m250.16,1135.44c-1.48,0-2.82-.34-4.03-1.04-1.21-.69-2.17-1.64-2.88-2.85-.71-1.21-1.07-2.55-1.07-4.04s.35-2.84,1.05-4.04c.7-1.19,1.66-2.14,2.88-2.85,1.22-.71,2.57-1.07,4.05-1.07s2.82.36,4.04,1.07c1.21.71,2.16,1.66,2.87,2.85.7,1.19,1.05,2.54,1.05,4.04s-.35,2.83-1.05,4.04c-.7,1.21-1.66,2.16-2.87,2.85-1.21.69-2.56,1.04-4.04,1.04Zm0-2.64c.94,0,1.79-.24,2.55-.71.76-.47,1.36-1.1,1.8-1.91.44-.8.66-1.7.66-2.7s-.22-1.86-.66-2.65-1.04-1.43-1.8-1.91c-.76-.48-1.61-.72-2.55-.72s-1.77.24-2.53.72c-.77.48-1.38,1.12-1.81,1.91-.44.79-.66,1.67-.66,2.65s.22,1.9.66,2.7c.44.8,1.04,1.44,1.81,1.91.77.47,1.61.71,2.53.71Z"/>
      <path class="cls-25" d="m266.21,1135.44c-1.32,0-2.56-.19-3.71-.58-1.15-.39-2.15-.96-2.98-1.7l1.62-1.98c.8.64,1.61,1.12,2.44,1.44.83.32,1.67.48,2.54.48,1.08,0,1.96-.21,2.64-.62.68-.41,1.02-.95,1.02-1.63,0-.56-.2-1-.6-1.32-.4-.32-1.02-.54-1.86-.66l-2.76-.39c-1.54-.22-2.69-.69-3.44-1.41-.75-.72-1.12-1.68-1.12-2.88,0-.9.25-1.7.75-2.4.5-.7,1.2-1.24,2.1-1.62.9-.38,1.94-.57,3.12-.57s2.19.16,3.21.46c1.02.31,2,.81,2.94,1.49l-1.5,1.98c-.86-.56-1.68-.97-2.46-1.23-.78-.26-1.58-.39-2.4-.39-.92,0-1.66.2-2.22.59-.56.39-.84.89-.84,1.51,0,.58.2,1.02.6,1.3.4.29,1.03.51,1.89.65l2.79.42c1.52.2,2.67.66,3.45,1.38.78.72,1.17,1.68,1.17,2.88,0,.9-.29,1.71-.86,2.45-.57.73-1.33,1.3-2.28,1.72-.95.42-2.04.63-3.26.63Z"/>
      <path class="cls-25" d="m281.12,1135.41c-1.46,0-2.58-.34-3.36-1.02s-1.17-1.69-1.17-3.03v-8.97h-3.24v-2.52h3.24v-3.87l2.97-.75v4.62h4.53v2.52h-4.53v8.31c0,.76.17,1.31.53,1.64.35.33.92.5,1.72.5.42,0,.79-.03,1.12-.09.33-.06.69-.16,1.07-.3v2.55c-.4.14-.87.25-1.4.32-.53.07-1.02.1-1.48.1Z"/>
    </g>
    <rect class="cls-35" x="128.89" y="978.17" width="245.89" height="176.86" rx="15.77" ry="15.77"/>
    <g>
      <path class="cls-26" d="m298.94,1069.29h-93.71c-.99,0-1.81.51-2.53,1.53-.72,1.03-1.07,2.24-1.07,3.61v16.69c0,1.41.35,2.59,1.05,3.63.72,1.03,1.55,1.53,2.53,1.53h93.73c.99,0,1.81-.51,2.53-1.53.72-1.03,1.07-2.21,1.07-3.61v-16.71c0-1.41-.35-2.59-1.07-3.61-.72-1.03-1.57-1.53-2.53-1.53Z"/>
      <path class="cls-26" d="m301.47,1037.28c-.72-1.03-1.56-1.53-2.53-1.53h-93.71c-.99,0-1.82.5-2.53,1.53-.72,1.03-1.08,2.24-1.08,3.62v16.69c0,1.4.36,2.58,1.06,3.63.72,1.02,1.54,1.53,2.53,1.53h93.73c.99,0,1.81-.51,2.53-1.53.72-1.03,1.08-2.21,1.08-3.62v-16.7c0-1.41-.36-2.59-1.08-3.62Zm-27.19,16.58c-2.55,0-4.61-2.06-4.61-4.61s2.06-4.61,4.61-4.61,4.61,2.06,4.61,4.61-2.06,4.61-4.61,4.61Zm13.78,0c-2.55,0-4.61-2.06-4.61-4.61s2.06-4.61,4.61-4.61,4.61,2.06,4.61,4.61-2.07,4.61-4.61,4.61Z"/>
      <path class="cls-26" d="m302.55,1021.38c0-.89-.21-1.02-1.03-1.85,0,0-13.79-13.84-14.82-14.98-1.05-1.14-2.22-1.01-2.22-1.01h-64.57s-1.32-.25-2.36.97c-1.04,1.21-14.98,15.03-14.98,15.03-.83.81-.95.94-.95,1.84v3.73c0,2.21,1.79,4,4,4h92.93c2.21,0,4-1.79,4-4v-3.73h0Z"/>
    </g>
  </g>
  <g>
    <g>
      <path class="cls-25" d="m1360.17,1135.14v-21h3.15v9h11.13v-9h3.15v21h-3.15v-9.15h-11.13v9.15h-3.15Z"/>
      <path class="cls-25" d="m1388.79,1135.44c-1.48,0-2.83-.34-4.04-1.04-1.21-.69-2.17-1.64-2.88-2.85s-1.07-2.55-1.07-4.04.35-2.84,1.05-4.04c.7-1.19,1.66-2.14,2.88-2.85,1.22-.71,2.57-1.07,4.05-1.07s2.82.36,4.04,1.07c1.21.71,2.16,1.66,2.87,2.85.7,1.19,1.05,2.54,1.05,4.04s-.35,2.83-1.05,4.04c-.7,1.21-1.66,2.16-2.87,2.85-1.21.69-2.56,1.04-4.04,1.04Zm0-2.64c.94,0,1.79-.24,2.55-.71s1.36-1.1,1.8-1.91c.44-.8.66-1.7.66-2.7s-.22-1.86-.66-2.65c-.44-.79-1.04-1.43-1.8-1.91-.76-.48-1.61-.72-2.55-.72s-1.77.24-2.54.72c-.77.48-1.38,1.12-1.81,1.91-.44.79-.66,1.67-.66,2.65s.22,1.9.66,2.7c.44.8,1.04,1.44,1.81,1.91.77.47,1.62.71,2.54.71Z"/>
      <path class="cls-25" d="m1404.83,1135.44c-1.32,0-2.55-.19-3.71-.58-1.15-.39-2.14-.96-2.98-1.7l1.62-1.98c.8.64,1.61,1.12,2.44,1.44.83.32,1.67.48,2.54.48,1.08,0,1.96-.21,2.64-.62.68-.41,1.02-.95,1.02-1.63,0-.56-.2-1-.6-1.32-.4-.32-1.02-.54-1.86-.66l-2.76-.39c-1.54-.22-2.69-.69-3.44-1.41-.75-.72-1.12-1.68-1.12-2.88,0-.9.25-1.7.75-2.4s1.2-1.24,2.1-1.62c.9-.38,1.94-.57,3.12-.57s2.19.16,3.21.46c1.02.31,2,.81,2.94,1.49l-1.5,1.98c-.86-.56-1.68-.97-2.46-1.23-.78-.26-1.58-.39-2.4-.39-.92,0-1.66.2-2.22.59-.56.39-.84.89-.84,1.51,0,.58.2,1.02.6,1.3.4.29,1.03.51,1.89.65l2.79.42c1.52.2,2.67.66,3.45,1.38.78.72,1.17,1.68,1.17,2.88,0,.9-.29,1.71-.86,2.45-.57.73-1.33,1.3-2.28,1.72-.95.42-2.04.63-3.26.63Z"/>
      <path class="cls-25" d="m1419.75,1135.41c-1.46,0-2.58-.34-3.36-1.02s-1.17-1.69-1.17-3.03v-8.97h-3.24v-2.52h3.24v-3.87l2.97-.75v4.62h4.53v2.52h-4.53v8.31c0,.76.17,1.31.53,1.64.35.33.92.5,1.72.5.42,0,.79-.03,1.12-.09.33-.06.69-.16,1.07-.3v2.55c-.4.14-.87.25-1.4.32-.53.07-1.02.1-1.48.1Z"/>
    </g>
    <rect class="cls-35" x="1267.52" y="978.17" width="245.89" height="176.86" rx="15.77" ry="15.77"/>
    <g>
      <path class="cls-26" d="m1437.57,1069.29h-93.71c-.99,0-1.81.51-2.53,1.53-.72,1.03-1.07,2.24-1.07,3.61v16.69c0,1.41.35,2.59,1.05,3.63.72,1.03,1.55,1.53,2.53,1.53h93.73c.99,0,1.81-.51,2.53-1.53.72-1.03,1.07-2.21,1.07-3.61v-16.71c0-1.41-.35-2.59-1.07-3.61-.72-1.03-1.57-1.53-2.53-1.53Z"/>
      <path class="cls-26" d="m1440.1,1037.28c-.72-1.03-1.56-1.53-2.53-1.53h-93.71c-.99,0-1.82.5-2.53,1.53-.72,1.03-1.08,2.24-1.08,3.62v16.69c0,1.4.36,2.58,1.06,3.63.72,1.02,1.54,1.53,2.53,1.53h93.73c.99,0,1.81-.51,2.53-1.53.72-1.03,1.08-2.21,1.08-3.62v-16.7c0-1.41-.36-2.59-1.08-3.62Zm-27.19,16.58c-2.55,0-4.61-2.06-4.61-4.61s2.06-4.61,4.61-4.61,4.61,2.06,4.61,4.61-2.06,4.61-4.61,4.61Zm13.78,0c-2.55,0-4.61-2.06-4.61-4.61s2.06-4.61,4.61-4.61,4.61,2.06,4.61,4.61-2.07,4.61-4.61,4.61Z"/>
      <path class="cls-26" d="m1441.17,1021.38c0-.89-.21-1.02-1.03-1.85,0,0-13.79-13.84-14.82-14.98-1.05-1.14-2.22-1.01-2.22-1.01h-64.57s-1.32-.25-2.36.97c-1.04,1.21-14.98,15.03-14.98,15.03-.83.81-.95.94-.95,1.84v3.73c0,2.21,1.79,4,4,4h92.93c2.21,0,4-1.79,4-4v-3.73h0Z"/>
    </g>
  </g>
  <g>
    <g>
      <path class="cls-25" d="m839.44,1135.14v-21h4.17l6.6,13.44,6.57-13.44h4.23v21h-3.03v-17.16l-7.8,15.66-7.83-15.66v17.16h-2.91Z"/>
      <path class="cls-25" d="m872.19,1135.41c-1.5,0-2.85-.34-4.06-1.03-1.21-.69-2.17-1.64-2.9-2.85-.72-1.21-1.08-2.55-1.08-4.04s.35-2.81,1.04-3.99c.69-1.18,1.62-2.12,2.78-2.83,1.16-.71,2.46-1.07,3.9-1.07s2.66.36,3.77,1.07c1.11.71,1.99,1.67,2.64,2.88.65,1.21.98,2.58.98,4.09v.81h-12.06c.14.86.45,1.62.92,2.27.47.65,1.07,1.17,1.8,1.56.73.39,1.54.58,2.42.58.76,0,1.48-.12,2.16-.36.68-.24,1.25-.56,1.71-.96l1.89,1.86c-.88.68-1.8,1.19-2.75,1.52-.95.33-2,.49-3.14.49Zm-4.98-9.21h9.06c-.14-.78-.42-1.47-.85-2.08-.43-.61-.96-1.09-1.58-1.44s-1.31-.53-2.07-.53-1.46.18-2.1.53c-.64.35-1.17.83-1.61,1.42-.43.6-.71,1.3-.85,2.1Z"/>
      <path class="cls-25" d="m887.46,1135.44c-1.32,0-2.56-.19-3.71-.58-1.15-.39-2.15-.96-2.99-1.7l1.62-1.98c.8.64,1.62,1.12,2.45,1.44.83.32,1.67.48,2.54.48,1.08,0,1.96-.21,2.64-.62.68-.41,1.02-.95,1.02-1.63,0-.56-.2-1-.6-1.32-.4-.32-1.02-.54-1.86-.66l-2.76-.39c-1.54-.22-2.68-.69-3.43-1.41-.75-.72-1.12-1.68-1.12-2.88,0-.9.25-1.7.75-2.4.5-.7,1.2-1.24,2.1-1.62s1.94-.57,3.12-.57,2.19.16,3.21.46c1.02.31,2,.81,2.94,1.49l-1.5,1.98c-.86-.56-1.68-.97-2.46-1.23-.78-.26-1.58-.39-2.4-.39-.92,0-1.66.2-2.22.59-.56.39-.84.89-.84,1.51,0,.58.2,1.02.6,1.3.4.29,1.03.51,1.89.65l2.79.42c1.52.2,2.67.66,3.45,1.38s1.17,1.68,1.17,2.88c0,.9-.29,1.71-.85,2.45-.57.73-1.33,1.3-2.28,1.72-.95.42-2.04.63-3.25.63Z"/>
      <path class="cls-25" d="m901.41,1135.44c-1.32,0-2.55-.19-3.71-.58-1.15-.39-2.14-.96-2.98-1.7l1.62-1.98c.8.64,1.61,1.12,2.44,1.44.83.32,1.67.48,2.54.48,1.08,0,1.96-.21,2.64-.62.68-.41,1.02-.95,1.02-1.63,0-.56-.2-1-.6-1.32-.4-.32-1.02-.54-1.86-.66l-2.76-.39c-1.54-.22-2.69-.69-3.44-1.41-.75-.72-1.12-1.68-1.12-2.88,0-.9.25-1.7.75-2.4s1.2-1.24,2.1-1.62c.9-.38,1.94-.57,3.12-.57s2.19.16,3.21.46c1.02.31,2,.81,2.94,1.49l-1.5,1.98c-.86-.56-1.68-.97-2.46-1.23s-1.58-.39-2.4-.39c-.92,0-1.66.2-2.22.59-.56.39-.84.89-.84,1.51,0,.58.2,1.02.6,1.3.4.29,1.03.51,1.89.65l2.79.42c1.52.2,2.67.66,3.45,1.38.78.72,1.17,1.68,1.17,2.88,0,.9-.29,1.71-.86,2.45s-1.33,1.3-2.28,1.72-2.04.63-3.25.63Z"/>
      <path class="cls-25" d="m915.12,1135.41c-1.12,0-2.1-.19-2.94-.58-.84-.39-1.5-.93-1.98-1.63-.48-.7-.72-1.51-.72-2.43,0-1.44.55-2.57,1.66-3.39,1.11-.82,2.62-1.23,4.52-1.23,1.5,0,2.88.27,4.14.81v-1.59c0-1.1-.31-1.92-.93-2.46-.62-.54-1.54-.81-2.76-.81-.7,0-1.43.1-2.18.31s-1.59.54-2.53.98l-1.14-2.25c1.14-.54,2.21-.93,3.23-1.19,1.01-.25,2.02-.38,3.04-.38,1.98,0,3.51.47,4.6,1.41,1.09.94,1.63,2.28,1.63,4.02v10.14h-2.97v-1.32c-.66.54-1.38.94-2.16,1.2-.78.26-1.62.39-2.52.39Zm-2.79-4.74c0,.76.32,1.37.96,1.83.64.46,1.47.69,2.49.69.8,0,1.54-.12,2.22-.36.68-.24,1.28-.61,1.8-1.11v-2.58c-.56-.32-1.16-.56-1.8-.72-.64-.16-1.33-.24-2.07-.24-1.12,0-2,.23-2.64.69-.64.46-.96,1.06-.96,1.8Z"/>
      <path class="cls-25" d="m933.75,1141.56c-1.1,0-2.18-.13-3.24-.39-1.06-.26-2.02-.63-2.88-1.11l1.17-2.34c.88.44,1.71.76,2.5.97s1.58.32,2.36.32c1.36,0,2.38-.3,3.08-.9.69-.6,1.03-1.5,1.03-2.7v-1.74c-1.32,1.06-2.85,1.59-4.59,1.59-1.42,0-2.71-.35-3.87-1.05s-2.08-1.65-2.77-2.83c-.69-1.19-1.04-2.5-1.04-3.95s.35-2.79,1.05-3.97c.7-1.19,1.63-2.13,2.8-2.82,1.17-.69,2.48-1.04,3.92-1.04.84,0,1.65.13,2.42.39.77.26,1.49.65,2.15,1.17v-1.29h2.94v15.51c0,2-.6,3.53-1.8,4.59-1.2,1.06-2.94,1.59-5.22,1.59Zm-.18-8.88c.86,0,1.65-.16,2.38-.48.73-.32,1.33-.76,1.81-1.32v-6.9c-.46-.54-1.06-.97-1.8-1.29-.74-.32-1.54-.48-2.4-.48-.96,0-1.83.22-2.6.67-.77.45-1.38,1.07-1.83,1.86-.45.79-.67,1.68-.67,2.68s.23,1.87.67,2.66c.45.79,1.07,1.42,1.85,1.89.78.47,1.64.71,2.58.71Z"/>
      <path class="cls-25" d="m951.63,1135.41c-1.5,0-2.86-.34-4.07-1.03-1.21-.69-2.17-1.64-2.89-2.85-.72-1.21-1.08-2.55-1.08-4.04s.34-2.81,1.04-3.99c.69-1.18,1.61-2.12,2.77-2.83s2.46-1.07,3.9-1.07,2.66.36,3.76,1.07c1.11.71,1.99,1.67,2.64,2.88.65,1.21.97,2.58.97,4.09v.81h-12.06c.14.86.44,1.62.92,2.27.47.65,1.07,1.17,1.8,1.56.73.39,1.53.58,2.42.58.76,0,1.48-.12,2.16-.36.68-.24,1.25-.56,1.71-.96l1.89,1.86c-.88.68-1.79,1.19-2.75,1.52s-2,.49-3.13.49Zm-4.98-9.21h9.06c-.14-.78-.43-1.47-.86-2.08-.43-.61-.96-1.09-1.57-1.44-.62-.35-1.31-.53-2.07-.53s-1.46.18-2.1.53c-.64.35-1.17.83-1.6,1.42-.43.6-.72,1.3-.86,2.1Z"/>
      <path class="cls-25" d="m968.16,1135.14v-21h9.06c1.4,0,2.61.23,3.62.69s1.8,1.1,2.37,1.93.85,1.8.85,2.92c0,1-.27,1.9-.81,2.7s-1.26,1.41-2.16,1.83c1.16.44,2.08,1.08,2.75,1.93.67.85,1,1.85,1,2.99,0,1.2-.29,2.25-.88,3.17s-1.43,1.61-2.52,2.1c-1.09.49-2.37.74-3.82.74h-9.45Zm3.15-12.09h5.7c1.2,0,2.16-.28,2.87-.84s1.07-1.32,1.07-2.28-.36-1.72-1.07-2.28c-.71-.56-1.67-.84-2.87-.84h-5.7v6.24Zm0,9.42h6.06c1.3,0,2.34-.31,3.12-.93.78-.62,1.17-1.46,1.17-2.52s-.39-1.88-1.17-2.5c-.78-.63-1.82-.95-3.12-.95h-6.06v6.9Z"/>
      <path class="cls-25" d="m987.9,1135.14v-15.3h3v1.98c.48-.72,1.08-1.28,1.79-1.68.71-.4,1.52-.6,2.42-.6.62,0,1.13.08,1.53.24v2.7c-.28-.12-.57-.21-.87-.25s-.61-.08-.93-.08c-.86,0-1.63.24-2.31.71-.68.47-1.22,1.16-1.62,2.05v10.23h-3Z"/>
      <path class="cls-25" d="m1005.42,1135.44c-1.48,0-2.83-.34-4.04-1.04-1.21-.69-2.17-1.64-2.88-2.85-.71-1.21-1.07-2.55-1.07-4.04s.35-2.84,1.05-4.04c.7-1.19,1.66-2.14,2.88-2.85,1.22-.71,2.57-1.07,4.05-1.07s2.82.36,4.04,1.07c1.21.71,2.16,1.66,2.86,2.85.7,1.19,1.05,2.54,1.05,4.04s-.35,2.83-1.05,4.04-1.66,2.16-2.86,2.85c-1.21.69-2.56,1.04-4.04,1.04Zm0-2.64c.94,0,1.79-.24,2.55-.71.76-.47,1.36-1.1,1.8-1.91.44-.8.66-1.7.66-2.7s-.22-1.86-.66-2.65c-.44-.79-1.04-1.43-1.8-1.91-.76-.48-1.61-.72-2.55-.72s-1.77.24-2.54.72c-.77.48-1.38,1.12-1.82,1.91-.44.79-.66,1.67-.66,2.65s.22,1.9.66,2.7c.44.8,1.04,1.44,1.82,1.91.77.47,1.61.71,2.54.71Z"/>
      <path class="cls-25" d="m1016.22,1135.14v-21l3-.57v12.99l7.41-6.69h3.51l-7.89,7.14,8.31,8.13h-3.96l-7.38-7.2v7.2h-3Z"/>
      <path class="cls-25" d="m1037.91,1135.41c-1.5,0-2.86-.34-4.06-1.03-1.21-.69-2.18-1.64-2.9-2.85-.72-1.21-1.08-2.55-1.08-4.04s.34-2.81,1.04-3.99c.69-1.18,1.62-2.12,2.78-2.83,1.16-.71,2.46-1.07,3.9-1.07s2.66.36,3.77,1.07c1.11.71,1.99,1.67,2.64,2.88.65,1.21.97,2.58.97,4.09v.81h-12.06c.14.86.44,1.62.92,2.27.47.65,1.07,1.17,1.8,1.56.73.39,1.54.58,2.42.58.76,0,1.48-.12,2.16-.36.68-.24,1.25-.56,1.71-.96l1.89,1.86c-.88.68-1.79,1.19-2.75,1.52s-1.99.49-3.13.49Zm-4.98-9.21h9.06c-.14-.78-.42-1.47-.85-2.08-.43-.61-.96-1.09-1.58-1.44-.62-.35-1.31-.53-2.07-.53s-1.46.18-2.1.53c-.64.35-1.18.83-1.61,1.42s-.71,1.3-.85,2.1Z"/>
      <path class="cls-25" d="m1047.78,1135.14v-15.3h3v1.98c.48-.72,1.08-1.28,1.79-1.68.71-.4,1.52-.6,2.42-.6.62,0,1.13.08,1.53.24v2.7c-.28-.12-.57-.21-.87-.25s-.61-.08-.93-.08c-.86,0-1.63.24-2.31.71-.68.47-1.22,1.16-1.62,2.05v10.23h-3Z"/>
    </g>
    <rect class="cls-35" x="824.15" y="978.17" width="245.89" height="176.86" rx="15.77" ry="15.77"/>
    <g>
      <path class="cls-26" d="m998.48,1009.33l-54.1,44.65-54.1-44.65c1.48-.66,3.12-1.03,4.84-1.03h98.52c1.72,0,3.36.37,4.84,1.03Z"/>
      <path class="cls-26" d="m1005.64,1016.3v61.9c0,6.6-5.4,12-12,12h-98.52c-6.6,0-12-5.4-12-12v-61.9c0-1.38.23-2.7.67-3.93.3.61.73,1.15,1.25,1.58l56.22,46.41c.78.64,1.67.95,2.56.95.19,0,.38-.01.56-.05.18.04.37.05.56.05.89,0,1.78-.31,2.56-.95l56.22-46.41c.52-.43.95-.97,1.25-1.58.44,1.23.67,2.55.67,3.93Z"/>
    </g>
  </g>
  <g>
    <g>
      <g>
        <path class="cls-25" d="m502.35,248.41l-4.56-21h3.18l3.27,16.05,4.77-16.05h3l4.74,16.02,3.3-16.02h3.09l-4.59,21h-3.24l-4.86-16.5-4.83,16.5h-3.27Z"/>
        <path class="cls-25" d="m531.81,248.68c-1.5,0-2.85-.35-4.06-1.04-1.21-.69-2.17-1.64-2.9-2.85-.72-1.21-1.08-2.55-1.08-4.03s.35-2.81,1.04-3.99c.69-1.18,1.61-2.12,2.77-2.83,1.16-.71,2.46-1.07,3.9-1.07s2.66.36,3.77,1.07,1.99,1.67,2.64,2.88c.65,1.21.98,2.58.98,4.09v.81h-12.06c.14.86.44,1.62.92,2.26.47.65,1.07,1.17,1.8,1.56.73.39,1.53.59,2.42.59.76,0,1.48-.12,2.16-.36.68-.24,1.25-.56,1.71-.96l1.89,1.86c-.88.68-1.8,1.19-2.75,1.52-.95.33-2,.5-3.14.5Zm-4.98-9.21h9.06c-.14-.78-.43-1.47-.85-2.08-.43-.61-.96-1.09-1.57-1.44-.62-.35-1.31-.53-2.07-.53s-1.46.18-2.1.53c-.64.35-1.17.83-1.6,1.42-.43.6-.72,1.3-.85,2.1Z"/>
        <path class="cls-25" d="m541.68,248.41v-21l3-.57v7.74c1.28-1.12,2.83-1.68,4.65-1.68,1.44,0,2.75.35,3.92,1.05,1.17.7,2.09,1.65,2.77,2.83.68,1.19,1.02,2.52,1.02,3.98s-.34,2.82-1.02,4c-.68,1.19-1.61,2.13-2.79,2.83s-2.51,1.05-3.99,1.05c-.84,0-1.66-.13-2.45-.41-.79-.27-1.5-.65-2.14-1.15v1.32h-2.97Zm7.26-2.37c.98,0,1.85-.22,2.62-.67s1.38-1.07,1.85-1.88c.46-.8.69-1.7.69-2.7s-.23-1.9-.69-2.7c-.46-.8-1.08-1.44-1.85-1.91s-1.65-.71-2.62-.71c-.86,0-1.66.17-2.4.5-.74.33-1.36.79-1.86,1.37v6.9c.5.54,1.12.98,1.88,1.3.75.33,1.54.5,2.38.5Z"/>
        <path class="cls-25" d="m575.1,248.74c-1.86,0-3.46-.38-4.8-1.14-1.34-.76-2.37-1.83-3.09-3.23-.72-1.39-1.08-3.03-1.08-4.93v-12.03h3.15v12.03c0,1.3.24,2.42.72,3.38s1.16,1.69,2.02,2.22c.87.53,1.9.79,3.08.79s2.17-.26,3.03-.79c.86-.53,1.53-1.27,2.01-2.22s.72-2.08.72-3.38v-12.03h3.15v12.03c0,1.9-.37,3.54-1.1,4.93-.73,1.39-1.76,2.47-3.09,3.23-1.33.76-2.91,1.14-4.73,1.14Z"/>
        <path class="cls-25" d="m592.95,248.71c-1.32,0-2.56-.19-3.71-.58-1.15-.39-2.15-.95-2.98-1.69l1.62-1.98c.8.64,1.61,1.12,2.44,1.44.83.32,1.67.48,2.54.48,1.08,0,1.96-.2,2.64-.61.68-.41,1.02-.96,1.02-1.64,0-.56-.2-1-.6-1.32-.4-.32-1.02-.54-1.86-.66l-2.76-.39c-1.54-.22-2.69-.69-3.44-1.41-.75-.72-1.12-1.68-1.12-2.88,0-.9.25-1.7.75-2.4.5-.7,1.2-1.24,2.1-1.62.9-.38,1.94-.57,3.12-.57s2.19.16,3.21.46c1.02.31,2,.81,2.94,1.49l-1.5,1.98c-.86-.56-1.68-.97-2.46-1.23-.78-.26-1.58-.39-2.4-.39-.92,0-1.66.19-2.22.58-.56.39-.84.9-.84,1.51,0,.58.2,1.02.6,1.3.4.29,1.03.51,1.89.65l2.79.42c1.52.2,2.67.66,3.45,1.38.78.72,1.17,1.68,1.17,2.88,0,.9-.29,1.72-.85,2.45-.57.73-1.33,1.3-2.28,1.72-.95.42-2.04.63-3.25.63Z"/>
        <path class="cls-25" d="m609.12,248.68c-1.5,0-2.85-.35-4.06-1.04-1.21-.69-2.17-1.64-2.9-2.85-.72-1.21-1.08-2.55-1.08-4.03s.35-2.81,1.04-3.99c.69-1.18,1.61-2.12,2.77-2.83,1.16-.71,2.46-1.07,3.9-1.07s2.66.36,3.77,1.07,1.99,1.67,2.64,2.88c.65,1.21.98,2.58.98,4.09v.81h-12.06c.14.86.44,1.62.92,2.26.47.65,1.07,1.17,1.8,1.56.73.39,1.53.59,2.42.59.76,0,1.48-.12,2.16-.36.68-.24,1.25-.56,1.71-.96l1.89,1.86c-.88.68-1.8,1.19-2.75,1.52-.95.33-2,.5-3.14.5Zm-4.98-9.21h9.06c-.14-.78-.43-1.47-.85-2.08-.43-.61-.96-1.09-1.57-1.44-.62-.35-1.31-.53-2.07-.53s-1.46.18-2.1.53c-.64.35-1.17.83-1.6,1.42-.43.6-.72,1.3-.85,2.1Z"/>
        <path class="cls-25" d="m618.99,248.41v-15.3h3v1.98c.48-.72,1.07-1.28,1.79-1.68.71-.4,1.51-.6,2.42-.6.62,0,1.13.08,1.53.24v2.7c-.28-.12-.57-.2-.87-.25-.3-.05-.61-.08-.93-.08-.86,0-1.63.24-2.31.71-.68.47-1.22,1.16-1.62,2.06v10.23h-3Z"/>
      </g>
      <path class="cls-26" d="m565.15,156.42c13.94,0,25.23-11.3,25.23-25.23s-11.3-25.23-25.23-25.23-25.23,11.3-25.23,25.23,11.3,25.23,25.23,25.23Zm17.66,6.31h-3.29c-4.38,2.01-9.25,3.15-14.37,3.15s-9.97-1.14-14.37-3.15h-3.29c-14.63,0-26.49,11.87-26.49,26.49v8.2c0,5.22,4.24,9.46,9.46,9.46h69.39c5.22,0,9.46-4.24,9.46-9.46v-8.2c0-14.63-11.87-26.49-26.49-26.49Z"/>
    </g>
    <g>
      <path class="cls-26" d="m785.47,174.56l-8.27-4.77c.83-4.5.83-9.12,0-13.62l8.27-4.77c.95-.54,1.38-1.67,1.07-2.72-2.15-6.91-5.82-13.16-10.61-18.36-.74-.8-1.94-.99-2.87-.45l-8.27,4.77c-3.47-2.99-7.47-5.3-11.8-6.81v-9.53c0-1.09-.76-2.04-1.82-2.27-7.12-1.59-14.42-1.51-21.19,0-1.07.23-1.82,1.18-1.82,2.27v9.55c-4.31,1.53-8.31,3.84-11.8,6.81l-8.25-4.77c-.95-.54-2.13-.37-2.87.45-4.79,5.18-8.46,11.43-10.61,18.36-.33,1.05.12,2.17,1.07,2.72l8.27,4.77c-.83,4.5-.83,9.12,0,13.62l-8.27,4.77c-.95.54-1.38,1.67-1.07,2.72,2.15,6.91,5.82,13.16,10.61,18.36.74.8,1.94.99,2.87.45l8.27-4.77c3.47,2.99,7.47,5.3,11.8,6.81v9.55c0,1.09.76,2.04,1.82,2.27,7.12,1.59,14.42,1.51,21.19,0,1.07-.23,1.82-1.18,1.82-2.27v-9.55c4.31-1.53,8.31-3.84,11.8-6.81l8.27,4.77c.95.54,2.13.37,2.87-.45,4.79-5.18,8.46-11.43,10.61-18.36.29-1.07-.14-2.19-1.09-2.74Zm-44.9,3.94c-8.56,0-15.52-6.97-15.52-15.52s6.97-15.52,15.52-15.52,15.52,6.97,15.52,15.52-6.97,15.52-15.52,15.52Z"/>
      <g>
        <path class="cls-25" d="m716.39,247.34l8.65-20.94h3.68l8.59,20.94h-3.41l-2.42-6.13h-9.4l-2.42,6.13h-3.26Zm6.73-8.74h7.33l-3.65-9.22-3.68,9.22Z"/>
        <path class="cls-25" d="m739.49,247.34v-20.94h9.66c1.38,0,2.57.26,3.59.78,1.02.52,1.81,1.25,2.39,2.2.58.95.87,2.05.87,3.31s-.29,2.29-.87,3.22c-.58.93-1.38,1.66-2.41,2.2-1.03.54-2.22.81-3.58.81h-6.52v8.44h-3.14Zm3.14-11.1h6.22c1.22,0,2.18-.32,2.9-.96s1.08-1.51,1.08-2.6-.36-1.93-1.08-2.57c-.72-.64-1.69-.96-2.9-.96h-6.22v7.09Z"/>
        <path class="cls-25" d="m759.26,247.34v-20.94h3.14v20.94h-3.14Z"/>
      </g>
      <rect class="cls-35" x="477.28" y="92.82" width="526.12" height="174.11" rx="22.88" ry="22.88"/>
    </g>
    <g>
      <g>
        <path class="cls-25" d="m903.93,248.74c-1.56,0-3.01-.28-4.33-.83-1.33-.55-2.5-1.32-3.51-2.31s-1.79-2.14-2.34-3.45c-.55-1.31-.82-2.72-.82-4.25s.27-2.96.82-4.27,1.33-2.46,2.34-3.44c1.01-.98,2.19-1.74,3.53-2.29,1.34-.55,2.78-.83,4.32-.83,1.1,0,2.17.15,3.22.44s2.02.71,2.91,1.25c.89.54,1.67,1.2,2.36,1.98l-2.13,2.13c-.78-.94-1.73-1.65-2.85-2.14s-2.29-.74-3.51-.74c-1.12,0-2.15.2-3.09.6-.94.4-1.77.96-2.48,1.68s-1.26,1.56-1.65,2.52c-.39.96-.58,2-.58,3.12s.19,2.16.58,3.12c.39.96.94,1.8,1.65,2.52.71.72,1.55,1.28,2.52,1.68.97.4,2,.6,3.1.6,1.22,0,2.38-.25,3.48-.75,1.1-.5,2.03-1.19,2.79-2.07l2.07,2.1c-.68.74-1.46,1.38-2.35,1.93-.89.55-1.85.97-2.88,1.26-1.03.29-2.08.43-3.17.43Z"/>
        <path class="cls-25" d="m915.45,248.41v-21h3.15v18.21h12.06v2.79h-15.21Z"/>
        <path class="cls-25" d="m933.87,248.41v-21h3.15v21h-3.15Z"/>
      </g>
      <g>
        <path class="cls-19" d="m925.29,152.57l-13.68,11.31-1.81-2.33c-1.12-1.45-1.18-3.28-.13-4.16l9.61-7.95c1.05-.87,2.84-.47,4.05.91l1.96,2.22Z"/>
        <path class="cls-19" d="m960.18,226.56l-46.17-59.59c2.77-2.29,7.66-6.33,13.87-11.47l49.78,56.59c10.19,11.58-7.85,26.89-17.48,14.47Z"/>
        <path class="cls-19" d="m861.52,146.01l7.19-5.95c1.26-1.04,3.05-1.23,4.99-.76,7.04,1.73,10.49-2.12,11.2-7.04.39-3.07,1.04-3.9,3.14-5.6,19.65-16.64,38.41-21.15,56.29-1.23.39.41.37.47-.02.79l-1.8,1.49c-.36.31-.47.32-.89,0-7.87-6.12-22.22-4.27-27.43,3.52-2.25,3.38-1.88,7.72,2.57,12.91l.87,1.02-12.4,10.25-1.2-1.45c-4.12-4.99-8.5-5.52-11.67-2.75-5.15,4.51-1.81,7.84-5.46,10.86l-7.19,5.95c-1.85,1.53-4.62,1.27-6.16-.58l-12.63-15.28c-1.53-1.85-1.27-4.62.58-6.16Z"/>
      </g>
    </g>
    <line class="cls-35" x1="653.59" y1="108.36" x2="653.59" y2="249.75"/>
    <line class="cls-35" x1="827.39" y1="108.36" x2="827.39" y2="249.75"/>
  </g>
  <g>
    <g>
      <line class="cls-37" x1="1061.97" y1="498.25" x2="1061.97" y2="498.25"/>
      <line class="cls-34" x1="1076.03" y1="498.25" x2="1125.21" y2="498.25"/>
      <line class="cls-37" x1="1132.24" y1="498.25" x2="1132.24" y2="498.25"/>
      <line class="cls-36" x1="1132.23" y1="484.03" x2="1132.23" y2="448.48"/>
      <line class="cls-37" x1="1132.23" y1="441.37" x2="1132.23" y2="441.37"/>
      <line class="cls-39" x1="1117.45" y1="441.37" x2="1080.48" y2="441.37"/>
      <line class="cls-37" x1="1073.09" y1="441.37" x2="1073.09" y2="441.37"/>
    </g>
    <path class="cls-38" d="m1073.09,452.01l-10.64-10.64,10.64-10.64"/>
  </g>
  <path class="cls-33" d="m103.28,1077.24l10.64-10.64-10.64-10.64"/>
  <polyline class="cls-38" points="1168.02 653.13 1168.02 547.43 1061.97 547.43"/>
  <path class="cls-38" d="m1157.38,653.13l10.64,10.64,10.64-10.64"/>
  <polyline class="cls-38" points="256.66 653.13 256.66 521.69 418.7 521.69"/>
  <path class="cls-38" d="m267.3,653.13l-10.64,10.64-10.64-10.64"/>
  <polyline class="cls-38" points="1316.6 739.45 1415.3 739.45 1415.3 963.17"/>
  <path class="cls-38" d="m1316.6,750.1l-10.64-10.64,10.64-10.64"/>
  <polyline class="cls-38" points="1316.6 788.64 1366.12 788.64 1366.12 963.17"/>
  <path class="cls-38" d="m1316.6,799.28l-10.64-10.64,10.64-10.64"/>
  <polyline class="cls-38" points="1030.07 813.23 944.38 813.23 944.38 952.53"/>
  <path class="cls-38" d="m933.74,952.53l10.64,10.64,10.64-10.64"/>
  <polyline class="cls-38" points="1030.07 764.05 764.68 764.05 764.68 670.01"/>
  <polyline class="cls-38" points="394.61 764.05 715.5 764.05 715.5 670.01"/>
  <path class="cls-38" d="m726.14,670.01l-10.64-10.64-10.64,10.64"/>
  <path class="cls-38" d="m775.32,670.01l-10.64-10.64-10.64,10.64"/>
  <path class="cls-38" d="m1241.87,1077.24l10.64-10.64-10.64-10.64"/>
  <line class="cls-33" x1="1085.05" y1="1066.58" x2="1241.87" y2="1066.58"/>
  <g>
    <path class="cls-38" d="m242.71,881.28l-10.64-10.64-10.64,10.64"/>
    <line class="cls-33" x1="232.04" y1="963.17" x2="232.04" y2="881.28"/>
  </g>
  <g>
    <path class="cls-38" d="m270.61,952.53l10.64,10.64,10.64-10.64"/>
    <line class="cls-33" x1="281.27" y1="870.64" x2="281.27" y2="952.53"/>
  </g>
  <g>
    <path class="cls-25" d="m757.95,338.16c-.85,0-1.59-.21-2.21-.64-.62-.42-1.1-1.05-1.43-1.87l.63-.29c.29.69.69,1.22,1.2,1.59.51.37,1.12.55,1.83.55.95,0,1.7-.31,2.26-.92.56-.62.84-1.45.84-2.5v-6.6h.69v6.6c0,.84-.16,1.56-.46,2.17-.31.61-.75,1.07-1.32,1.4s-1.25.5-2.03.5Z"/>
    <path class="cls-25" d="m767.12,338.14c-.68,0-1.3-.17-1.86-.51-.56-.34-1-.8-1.33-1.39-.32-.58-.49-1.23-.49-1.94s.16-1.37.49-1.95c.33-.58.77-1.04,1.33-1.38.56-.34,1.18-.51,1.86-.51s1.31.17,1.87.51c.55.34,1,.8,1.32,1.38.33.58.49,1.23.49,1.95s-.16,1.36-.49,1.94c-.32.58-.76,1.05-1.32,1.39-.56.34-1.18.51-1.87.51Zm0-.63c.56,0,1.07-.14,1.52-.43s.82-.67,1.08-1.16c.27-.49.4-1.03.4-1.63s-.13-1.14-.4-1.63c-.26-.49-.62-.87-1.08-1.16s-.96-.43-1.52-.43-1.07.14-1.52.43-.81.67-1.08,1.16c-.26.49-.4,1.03-.4,1.63s.13,1.14.4,1.63c.27.49.62.87,1.08,1.16s.96.43,1.52.43Z"/>
    <path class="cls-25" d="m772.5,337.99v-10.5l.66-.17v4.17c.67-.69,1.52-1.04,2.54-1.04.69,0,1.31.16,1.87.5.56.34,1,.81,1.32,1.39s.49,1.23.49,1.95-.16,1.36-.49,1.94-.76,1.05-1.32,1.39c-.55.34-1.18.51-1.87.51-.47,0-.92-.09-1.36-.28-.43-.18-.83-.43-1.18-.74v.87h-.66Zm3.2-.48c.56,0,1.07-.14,1.52-.43s.82-.67,1.08-1.16.4-1.03.4-1.63-.13-1.14-.4-1.63-.62-.87-1.08-1.16-.96-.43-1.52-.43-1.05.11-1.49.34c-.45.22-.79.52-1.04.89v3.96c.26.35.62.64,1.07.88.45.23.94.35,1.47.35Z"/>
  </g>
  <g>
    <path class="cls-25" d="m324.73,511.79v-10.5h4.25c.69,0,1.28.12,1.79.36.5.24.88.58,1.15,1.01.26.44.4.95.4,1.54s-.13,1.11-.4,1.55c-.27.44-.65.79-1.15,1.03-.5.25-1.1.37-1.79.37h-3.56v4.63h-.69Zm.69-5.28h3.53c.86,0,1.52-.21,1.97-.63s.68-.98.68-1.68-.23-1.23-.68-1.64-1.11-.62-1.97-.62h-3.53v4.58Z"/>
    <path class="cls-25" d="m336.54,511.94c-.55,0-1.04-.12-1.46-.35-.43-.24-.76-.57-1-.99-.24-.42-.36-.92-.36-1.48v-4.71h.66v4.53c0,.73.2,1.31.61,1.74.41.43.98.65,1.7.65.5,0,.95-.12,1.35-.36.4-.24.71-.58.95-1v-5.55h.66v7.38h-.66v-1.02c-.58.78-1.39,1.17-2.45,1.17Z"/>
    <path class="cls-25" d="m343.78,511.94c-.57,0-1.11-.1-1.63-.31-.51-.21-.95-.5-1.3-.89l.51-.42c.3.31.66.55,1.09.73.42.18.87.27,1.33.27.68,0,1.23-.15,1.64-.44s.62-.68.62-1.15c0-.35-.12-.64-.38-.87-.25-.23-.66-.38-1.21-.45l-1.21-.15c-.7-.08-1.23-.28-1.6-.61s-.55-.77-.55-1.32c0-.41.11-.77.33-1.08.22-.31.53-.55.92-.73.39-.17.85-.26,1.37-.26s.98.08,1.44.23c.46.15.92.39,1.39.73l-.39.54c-.42-.3-.82-.52-1.21-.67-.39-.15-.79-.22-1.22-.22-.58,0-1.06.12-1.42.37-.37.25-.56.61-.56,1.09,0,.36.12.65.37.87.24.22.64.37,1.19.43l1.2.15c.74.09,1.29.3,1.65.64.36.34.54.78.54,1.31,0,.42-.12.8-.38,1.13-.25.34-.59.6-1.03.79-.44.19-.94.29-1.52.29Z"/>
    <path class="cls-25" d="m348.03,511.79v-10.5l.66-.17v4.32c.6-.79,1.42-1.19,2.45-1.19.56,0,1.05.12,1.48.35.42.24.75.57.99.99.23.42.35.92.35,1.48v4.71h-.66v-4.53c0-.74-.21-1.32-.62-1.75s-.97-.64-1.7-.64c-.5,0-.95.12-1.35.35-.4.24-.71.57-.95,1.01v5.55h-.66Z"/>
  </g>
  <g>
    <path class="cls-25" d="m1104.95,538.19v-10.5h4.25c.69,0,1.28.12,1.79.36.5.24.88.58,1.15,1.01.26.44.4.95.4,1.54s-.13,1.11-.4,1.55c-.27.44-.65.79-1.15,1.03-.5.25-1.1.37-1.79.37h-3.56v4.63h-.69Zm.69-5.28h3.53c.86,0,1.52-.21,1.97-.63s.68-.98.68-1.68-.23-1.23-.68-1.64-1.11-.62-1.97-.62h-3.53v4.58Z"/>
    <path class="cls-25" d="m1116.76,538.34c-.55,0-1.04-.12-1.46-.35-.43-.24-.76-.57-1-.99-.24-.42-.36-.92-.36-1.48v-4.71h.66v4.53c0,.73.2,1.31.61,1.74.41.43.98.65,1.7.65.5,0,.95-.12,1.35-.36.4-.24.71-.58.95-1v-5.55h.66v7.38h-.66v-1.02c-.58.78-1.39,1.17-2.45,1.17Z"/>
    <path class="cls-25" d="m1121.9,538.19v-10.5l.66-.17v10.67h-.66Z"/>
    <path class="cls-25" d="m1124.6,538.19v-10.5l.66-.17v10.67h-.66Z"/>
  </g>
  <g>
    <path class="cls-25" d="m537.77,754.75c-.74,0-1.43-.14-2.08-.41-.64-.28-1.21-.66-1.7-1.16-.49-.5-.87-1.07-1.15-1.73-.28-.65-.41-1.36-.41-2.12s.14-1.47.41-2.12c.27-.66.66-1.23,1.15-1.73.49-.5,1.06-.88,1.7-1.16.65-.27,1.34-.41,2.08-.41s1.43.14,2.08.41c.64.28,1.21.66,1.7,1.16s.87,1.07,1.15,1.73c.28.65.41,1.36.41,2.12s-.14,1.47-.41,2.12c-.28.66-.66,1.23-1.15,1.73s-1.06.88-1.7,1.16c-.65.27-1.34.41-2.08.41Zm0-.65c.65,0,1.26-.12,1.82-.37.56-.25,1.06-.58,1.48-1.01.42-.43.75-.93.98-1.51.23-.58.35-1.21.35-1.88s-.12-1.29-.35-1.88c-.24-.58-.56-1.08-.98-1.51-.42-.43-.91-.77-1.48-1.01-.57-.25-1.17-.37-1.82-.37s-1.26.12-1.82.37c-.56.25-1.06.58-1.48,1.01-.42.43-.75.93-.98,1.51s-.35,1.21-.35,1.88.12,1.29.35,1.88.56,1.08.98,1.51c.42.43.91.77,1.48,1.01.57.25,1.17.37,1.82.37Z"/>
    <path class="cls-25" d="m547.64,754.73c-.55,0-1.04-.12-1.46-.35-.43-.24-.76-.57-1-.99-.24-.42-.36-.92-.36-1.48v-4.71h.66v4.53c0,.73.2,1.31.61,1.74.41.43.98.65,1.7.65.5,0,.95-.12,1.35-.36.4-.24.71-.58.95-1v-5.55h.66v7.38h-.66v-1.02c-.58.78-1.39,1.17-2.45,1.17Z"/>
    <path class="cls-25" d="m555.38,754.73c-.56,0-.99-.14-1.29-.42-.3-.28-.45-.67-.45-1.17v-5.34h-1.62v-.6h1.62v-1.86l.66-.21v2.07h2.28v.6h-2.28v5.12c0,.42.09.72.28.91.18.19.49.28.92.28.23,0,.42-.02.58-.05.16-.04.32-.09.5-.16v.65c-.19.07-.39.12-.58.15-.2.03-.41.04-.62.04Z"/>
    <path class="cls-25" d="m557.85,757.64v-10.44h.66v.88c.67-.69,1.52-1.04,2.54-1.04.69,0,1.31.16,1.87.5.56.34,1,.81,1.32,1.39s.49,1.23.49,1.95-.16,1.36-.49,1.94-.76,1.05-1.32,1.39c-.55.34-1.18.51-1.87.51-.47,0-.92-.09-1.36-.28-.43-.18-.83-.43-1.18-.74v3.93h-.66Zm3.2-3.54c.56,0,1.07-.14,1.52-.43s.82-.67,1.08-1.16.4-1.03.4-1.63-.13-1.14-.4-1.63-.62-.87-1.08-1.16-.96-.43-1.52-.43-1.05.11-1.49.34c-.45.22-.79.52-1.04.89v3.96c.26.35.62.64,1.07.88.45.23.94.35,1.47.35Z"/>
    <path class="cls-25" d="m569.21,754.73c-.55,0-1.04-.12-1.46-.35-.43-.24-.76-.57-1-.99-.24-.42-.36-.92-.36-1.48v-4.71h.66v4.53c0,.73.2,1.31.61,1.74.41.43.98.65,1.7.65.5,0,.95-.12,1.35-.36.4-.24.71-.58.95-1v-5.55h.66v7.38h-.66v-1.02c-.58.78-1.39,1.17-2.45,1.17Z"/>
    <path class="cls-25" d="m576.95,754.73c-.56,0-.99-.14-1.29-.42-.3-.28-.45-.67-.45-1.17v-5.34h-1.62v-.6h1.62v-1.86l.66-.21v2.07h2.28v.6h-2.28v5.12c0,.42.09.72.28.91.18.19.49.28.92.28.23,0,.42-.02.58-.05.16-.04.32-.09.5-.16v.65c-.19.07-.39.12-.58.15-.2.03-.41.04-.62.04Z"/>
  </g>
  <g>
    <path class="cls-25" d="m877,754.75c-.74,0-1.43-.14-2.08-.41s-1.21-.66-1.7-1.15c-.49-.5-.87-1.07-1.15-1.73-.28-.65-.41-1.36-.41-2.12s.14-1.47.41-2.12c.27-.65.66-1.23,1.15-1.72.49-.5,1.06-.88,1.7-1.16.64-.27,1.34-.41,2.08-.41s1.43.14,2.08.41c.64.28,1.21.66,1.7,1.16.49.49.87,1.07,1.15,1.72s.41,1.36.41,2.12-.14,1.47-.41,2.12c-.28.66-.66,1.23-1.15,1.73-.49.49-1.06.88-1.7,1.15s-1.34.41-2.08.41Zm0-.64c.65,0,1.26-.12,1.82-.37.56-.25,1.06-.58,1.48-1.01.42-.43.75-.93.98-1.51s.35-1.21.35-1.88-.12-1.29-.35-1.88-.56-1.09-.98-1.52-.91-.77-1.48-1.01c-.57-.25-1.17-.37-1.82-.37s-1.26.12-1.82.37c-.56.24-1.06.58-1.48,1.01s-.75.94-.98,1.52c-.24.58-.35,1.21-.35,1.88s.12,1.29.35,1.88c.23.58.56,1.08.98,1.51.42.43.91.77,1.48,1.01.57.24,1.17.37,1.82.37Z"/>
    <path class="cls-25" d="m886.88,754.73c-.55,0-1.04-.12-1.46-.35s-.76-.56-1-.99c-.24-.42-.36-.92-.36-1.48v-4.71h.66v4.53c0,.73.21,1.31.62,1.74.41.43.97.65,1.7.65.5,0,.95-.12,1.35-.36s.71-.57.95-1v-5.55h.66v7.38h-.66v-1.02c-.58.78-1.39,1.17-2.45,1.17Z"/>
    <path class="cls-25" d="m894.62,754.73c-.56,0-.99-.14-1.29-.42-.3-.28-.45-.67-.45-1.17v-5.34h-1.62v-.6h1.62v-1.86l.66-.21v2.07h2.28v.6h-2.28v5.12c0,.42.09.72.28.91.18.19.49.28.92.28.23,0,.43-.02.59-.05.16-.04.32-.09.49-.16v.65c-.19.07-.38.12-.58.15-.2.03-.41.04-.62.04Z"/>
    <path class="cls-25" d="m897.09,757.64v-10.44h.66v.88c.67-.69,1.52-1.04,2.54-1.04.69,0,1.31.16,1.87.5.55.34.99.81,1.32,1.39.32.58.49,1.23.49,1.95s-.16,1.36-.49,1.94c-.33.59-.77,1.05-1.32,1.39-.55.34-1.18.51-1.87.51-.47,0-.92-.09-1.36-.28-.44-.18-.83-.43-1.18-.74v3.93h-.66Zm3.2-3.54c.56,0,1.07-.14,1.52-.43s.82-.67,1.08-1.15c.27-.49.4-1.03.4-1.63s-.13-1.14-.4-1.63c-.26-.48-.62-.87-1.08-1.15s-.96-.43-1.52-.43-1.05.11-1.49.34c-.45.22-.79.52-1.04.89v3.96c.26.35.62.64,1.06.88.45.23.94.35,1.47.35Z"/>
    <path class="cls-25" d="m908.44,754.73c-.55,0-1.04-.12-1.46-.35-.43-.23-.76-.56-1-.99-.24-.42-.36-.92-.36-1.48v-4.71h.66v4.53c0,.73.2,1.31.61,1.74.41.43.98.65,1.7.65.5,0,.95-.12,1.35-.36.4-.24.71-.57.95-1v-5.55h.66v7.38h-.66v-1.02c-.58.78-1.39,1.17-2.45,1.17Z"/>
    <path class="cls-25" d="m916.19,754.73c-.56,0-.99-.14-1.29-.42-.3-.28-.45-.67-.45-1.17v-5.34h-1.62v-.6h1.62v-1.86l.66-.21v2.07h2.28v.6h-2.28v5.12c0,.42.09.72.28.91.18.19.49.28.92.28.23,0,.43-.02.59-.05.16-.04.32-.09.49-.16v.65c-.19.07-.38.12-.58.15-.2.03-.41.04-.62.04Z"/>
  </g>
  <g>
    <path class="cls-25" d="m831.46,887.68c-.85,0-1.59-.21-2.21-.64-.62-.42-1.1-1.05-1.43-1.87l.63-.29c.29.69.69,1.22,1.2,1.59.51.37,1.12.55,1.83.55.95,0,1.7-.31,2.26-.92.56-.62.84-1.45.84-2.5v-6.6h.69v6.6c0,.84-.16,1.56-.46,2.17-.31.61-.75,1.07-1.32,1.4s-1.25.5-2.03.5Z"/>
    <path class="cls-25" d="m840.64,887.67c-.68,0-1.3-.17-1.86-.51-.56-.34-1-.8-1.33-1.39-.32-.58-.49-1.23-.49-1.94s.16-1.37.49-1.95c.33-.58.77-1.04,1.33-1.38.56-.34,1.18-.51,1.86-.51s1.31.17,1.87.51c.55.34,1,.8,1.32,1.38.33.58.49,1.23.49,1.95s-.16,1.36-.49,1.94c-.32.58-.76,1.05-1.32,1.39-.56.34-1.18.51-1.87.51Zm0-.63c.56,0,1.07-.14,1.52-.43s.82-.67,1.08-1.16c.27-.49.4-1.03.4-1.63s-.13-1.14-.4-1.63c-.26-.49-.62-.87-1.08-1.16s-.96-.43-1.52-.43-1.07.14-1.52.43-.81.67-1.08,1.16c-.26.49-.4,1.03-.4,1.63s.13,1.14.4,1.63c.27.49.62.87,1.08,1.16s.96.43,1.52.43Z"/>
    <path class="cls-25" d="m846.01,887.52v-10.5l.66-.17v4.17c.67-.69,1.52-1.04,2.54-1.04.69,0,1.31.16,1.87.5.56.34,1,.81,1.32,1.39s.49,1.23.49,1.95-.16,1.36-.49,1.94-.76,1.05-1.32,1.39c-.55.34-1.18.51-1.87.51-.47,0-.92-.09-1.36-.28-.43-.18-.83-.43-1.18-.74v.87h-.66Zm3.2-.48c.56,0,1.07-.14,1.52-.43s.82-.67,1.08-1.16.4-1.03.4-1.63-.13-1.14-.4-1.63-.62-.87-1.08-1.16-.96-.43-1.52-.43-1.05.11-1.49.34c-.45.22-.79.52-1.04.89v3.96c.26.35.62.64,1.07.88.45.23.94.35,1.47.35Z"/>
    <path class="cls-25" d="m858.22,878.47c-.16,0-.29-.05-.4-.17-.11-.11-.17-.25-.17-.41s.05-.29.17-.4c.11-.11.24-.17.4-.17.17,0,.31.05.41.17.1.11.16.25.16.4s-.05.29-.16.41c-.11.11-.24.17-.41.17Zm-.33,9.04v-7.38h.66v7.38h-.66Z"/>
    <path class="cls-25" d="m860.59,887.52v-7.38h.66v1.04c.6-.79,1.42-1.19,2.45-1.19.56,0,1.05.12,1.48.35.42.24.75.57.99.99.23.42.35.92.35,1.48v4.71h-.66v-4.53c0-.74-.21-1.32-.62-1.75s-.97-.64-1.7-.64c-.5,0-.95.12-1.35.35-.4.24-.71.57-.95,1.01v5.55h-.66Z"/>
    <path class="cls-25" d="m869.23,887.52v-6.78h-1.77v-.6h1.77v-1.63c0-.67.17-1.19.52-1.54.35-.36.86-.54,1.52-.54.19,0,.35,0,.49.03.13.02.27.06.41.11v.64c-.17-.05-.32-.09-.46-.11-.14-.02-.29-.04-.46-.04-.46,0-.8.12-1.03.34-.22.23-.34.61-.34,1.12v1.62h2.28v.6h-2.28v6.78h-.66Z"/>
    <path class="cls-25" d="m876.25,887.67c-.68,0-1.3-.17-1.86-.51-.56-.34-1-.8-1.33-1.39-.32-.58-.49-1.23-.49-1.94s.16-1.37.49-1.95c.33-.58.77-1.04,1.33-1.38.56-.34,1.18-.51,1.86-.51s1.31.17,1.87.51c.55.34,1,.8,1.32,1.38.33.58.49,1.23.49,1.95s-.16,1.36-.49,1.94c-.32.58-.76,1.05-1.32,1.39-.56.34-1.18.51-1.87.51Zm0-.63c.56,0,1.07-.14,1.52-.43s.82-.67,1.08-1.16c.27-.49.4-1.03.4-1.63s-.13-1.14-.4-1.63c-.26-.49-.62-.87-1.08-1.16s-.96-.43-1.52-.43-1.07.14-1.52.43-.81.67-1.08,1.16c-.26.49-.4,1.03-.4,1.63s.13,1.14.4,1.63c.27.49.62.87,1.08,1.16s.96.43,1.52.43Z"/>
    <path class="cls-25" d="m881.63,887.5v-7.38h.66v1.17c.21-.41.5-.73.86-.97s.78-.35,1.24-.35c.2,0,.42.02.65.06v.68c-.11-.04-.22-.07-.33-.08-.11-.01-.22-.02-.32-.02-.49,0-.91.15-1.27.44-.35.29-.63.72-.83,1.28v5.18h-.66Z"/>
    <path class="cls-25" d="m886.39,887.52v-7.38h.66v.96c.57-.74,1.33-1.11,2.28-1.11.53,0,1,.13,1.42.4.42.27.74.62.96,1.07.31-.48.68-.85,1.1-1.1s.91-.38,1.46-.38,1,.12,1.39.35c.4.24.71.57.94.99.23.42.34.92.34,1.48v4.71h-.66v-4.53c0-.74-.19-1.32-.57-1.75s-.91-.64-1.59-.64c-.49,0-.92.13-1.29.38s-.68.6-.93,1.04c.03.13.05.26.07.38s.02.26.02.4v4.71h-.66v-4.53c0-.74-.19-1.32-.57-1.75-.38-.42-.91-.64-1.59-.64-.46,0-.87.11-1.22.34-.36.22-.66.54-.91.95v5.62h-.66Z"/>
    <path class="cls-25" d="m901.18,887.67c-.54,0-1.02-.09-1.42-.28-.41-.18-.73-.44-.96-.78-.23-.33-.35-.72-.35-1.16,0-.68.26-1.23.79-1.64.53-.41,1.24-.62,2.12-.62s1.66.21,2.34.64v-1.23c0-.68-.18-1.19-.55-1.52s-.9-.5-1.59-.5c-.34,0-.7.06-1.07.17-.37.11-.79.29-1.27.54l-.29-.58c.47-.24.92-.42,1.35-.53s.86-.17,1.29-.17c.89,0,1.58.21,2.06.64s.73,1.04.73,1.85v5.04h-.66v-.83c-.34.31-.72.55-1.14.72s-.88.26-1.38.26Zm-2.07-2.24c0,.48.2.88.6,1.18.4.31.91.47,1.52.47.53,0,1-.09,1.39-.28.4-.18.76-.45,1.08-.79v-1.53c-.33-.25-.69-.43-1.08-.55-.39-.12-.83-.18-1.33-.18-.65,0-1.17.16-1.58.46-.4.31-.6.71-.6,1.21Z"/>
    <path class="cls-25" d="m908.66,887.67c-.56,0-.99-.14-1.29-.42-.3-.28-.45-.67-.45-1.17v-5.34h-1.62v-.6h1.62v-1.86l.66-.21v2.07h2.28v.6h-2.28v5.12c0,.42.09.72.28.91.18.19.49.28.92.28.23,0,.42-.02.58-.05.16-.04.32-.09.5-.16v.65c-.19.07-.39.12-.58.15-.2.03-.41.04-.62.04Z"/>
    <path class="cls-25" d="m911.47,878.47c-.16,0-.29-.05-.4-.17-.11-.11-.17-.25-.17-.41s.05-.29.17-.4c.11-.11.24-.17.4-.17.17,0,.31.05.41.17.1.11.16.25.16.4s-.05.29-.16.41c-.11.11-.24.17-.41.17Zm-.33,9.04v-7.38h.66v7.38h-.66Z"/>
    <path class="cls-25" d="m917.17,887.67c-.68,0-1.3-.17-1.86-.51-.56-.34-1-.8-1.33-1.39-.32-.58-.49-1.23-.49-1.94s.16-1.37.49-1.95c.33-.58.77-1.04,1.33-1.38.56-.34,1.18-.51,1.86-.51s1.31.17,1.87.51c.55.34,1,.8,1.32,1.38.33.58.49,1.23.49,1.95s-.16,1.36-.49,1.94c-.32.58-.76,1.05-1.32,1.39-.56.34-1.18.51-1.87.51Zm0-.63c.56,0,1.07-.14,1.52-.43s.82-.67,1.08-1.16c.27-.49.4-1.03.4-1.63s-.13-1.14-.4-1.63c-.26-.49-.62-.87-1.08-1.16s-.96-.43-1.52-.43-1.07.14-1.52.43-.81.67-1.08,1.16c-.26.49-.4,1.03-.4,1.63s.13,1.14.4,1.63c.27.49.62.87,1.08,1.16s.96.43,1.52.43Z"/>
    <path class="cls-25" d="m922.54,887.52v-7.38h.66v1.04c.6-.79,1.42-1.19,2.45-1.19.56,0,1.05.12,1.48.35.42.24.75.57.99.99.23.42.35.92.35,1.48v4.71h-.66v-4.53c0-.74-.21-1.32-.62-1.75s-.97-.64-1.7-.64c-.5,0-.95.12-1.35.35-.4.24-.71.57-.95,1.01v5.55h-.66Z"/>
  </g>
  <g>
    <path class="cls-25" d="m1116.41,1059.01c-.85,0-1.59-.21-2.21-.64-.62-.43-1.1-1.05-1.43-1.87l.63-.29c.29.69.69,1.22,1.2,1.59.51.37,1.12.55,1.83.55.95,0,1.7-.31,2.26-.92.56-.62.84-1.45.84-2.5v-6.6h.69v6.6c0,.84-.16,1.56-.46,2.17-.31.61-.75,1.07-1.32,1.4s-1.25.49-2.03.49Z"/>
    <path class="cls-25" d="m1125.59,1059c-.68,0-1.3-.17-1.86-.51-.56-.34-1-.8-1.33-1.39-.32-.58-.49-1.23-.49-1.94s.16-1.37.49-1.95c.33-.58.77-1.04,1.33-1.38.56-.34,1.18-.51,1.86-.51s1.31.17,1.87.51c.55.34,1,.8,1.32,1.38.33.58.49,1.23.49,1.95s-.16,1.36-.49,1.94c-.32.59-.76,1.05-1.32,1.39-.56.34-1.18.51-1.87.51Zm0-.63c.56,0,1.07-.14,1.52-.43s.82-.67,1.08-1.15c.27-.49.4-1.03.4-1.63s-.13-1.14-.4-1.63c-.26-.48-.62-.87-1.08-1.15s-.96-.43-1.52-.43-1.07.14-1.52.43-.81.67-1.08,1.15c-.26.49-.4,1.03-.4,1.63s.13,1.14.4,1.63c.27.48.62.87,1.08,1.15s.96.43,1.52.43Z"/>
    <path class="cls-25" d="m1130.96,1058.85v-10.5l.66-.17v4.17c.67-.69,1.52-1.04,2.54-1.04.69,0,1.31.16,1.87.5.56.34,1,.81,1.32,1.39s.49,1.23.49,1.95-.16,1.36-.49,1.94c-.33.59-.76,1.05-1.32,1.39-.55.34-1.18.51-1.87.51-.47,0-.92-.09-1.36-.28-.43-.18-.83-.43-1.18-.74v.87h-.66Zm3.2-.48c.56,0,1.07-.14,1.52-.43s.82-.67,1.08-1.15c.26-.49.4-1.03.4-1.63s-.13-1.14-.4-1.63c-.26-.48-.62-.87-1.08-1.15s-.96-.43-1.52-.43-1.05.11-1.49.34c-.45.22-.79.52-1.04.89v3.96c.26.35.62.64,1.07.88.45.23.94.35,1.47.35Z"/>
    <path class="cls-25" d="m1143.17,1049.8c-.16,0-.29-.05-.4-.17-.11-.11-.17-.24-.17-.4s.05-.29.17-.4c.11-.11.24-.17.4-.17.17,0,.31.05.41.17.1.11.16.24.16.4s-.05.29-.16.4c-.11.11-.24.17-.41.17Zm-.33,9.04v-7.38h.66v7.38h-.66Z"/>
    <path class="cls-25" d="m1145.54,1058.85v-7.38h.66v1.04c.6-.79,1.42-1.19,2.45-1.19.56,0,1.05.12,1.48.35s.75.56.99.99c.23.42.35.92.35,1.48v4.71h-.66v-4.53c0-.74-.21-1.32-.62-1.75-.41-.43-.97-.64-1.7-.64-.5,0-.95.12-1.35.35-.4.23-.71.57-.95,1.01v5.55h-.66Z"/>
    <path class="cls-25" d="m1154.18,1058.85v-6.78h-1.77v-.6h1.77v-1.63c0-.67.17-1.19.52-1.54.35-.36.86-.54,1.52-.54.19,0,.35,0,.49.03s.27.05.41.11v.64c-.17-.05-.32-.09-.46-.11-.14-.02-.29-.04-.46-.04-.46,0-.8.12-1.03.35s-.34.61-.34,1.12v1.62h2.28v.6h-2.28v6.78h-.66Z"/>
    <path class="cls-25" d="m1161.2,1059c-.68,0-1.3-.17-1.86-.51-.56-.34-1-.8-1.33-1.39-.32-.58-.49-1.23-.49-1.94s.16-1.37.49-1.95c.33-.58.77-1.04,1.33-1.38.56-.34,1.18-.51,1.86-.51s1.31.17,1.87.51c.55.34,1,.8,1.32,1.38.33.58.49,1.23.49,1.95s-.16,1.36-.49,1.94c-.32.59-.76,1.05-1.32,1.39-.56.34-1.18.51-1.87.51Zm0-.63c.56,0,1.07-.14,1.52-.43s.82-.67,1.08-1.15c.27-.49.4-1.03.4-1.63s-.13-1.14-.4-1.63c-.26-.48-.62-.87-1.08-1.15s-.96-.43-1.52-.43-1.07.14-1.52.43-.81.67-1.08,1.15c-.26.49-.4,1.03-.4,1.63s.13,1.14.4,1.63c.27.48.62.87,1.08,1.15s.96.43,1.52.43Z"/>
    <path class="cls-25" d="m1166.58,1058.83v-7.38h.66v1.17c.21-.41.5-.73.86-.97.37-.23.78-.35,1.24-.35.2,0,.42.02.65.06v.68c-.11-.04-.22-.07-.33-.08-.11-.02-.22-.02-.32-.02-.49,0-.91.15-1.27.44-.35.29-.63.72-.83,1.28v5.18h-.66Z"/>
    <path class="cls-25" d="m1171.34,1058.85v-7.38h.66v.96c.57-.74,1.33-1.11,2.28-1.11.53,0,1,.13,1.42.4s.74.62.96,1.07c.31-.48.68-.85,1.1-1.1s.91-.38,1.46-.38,1,.12,1.39.35c.4.23.71.56.94.99.23.42.34.92.34,1.48v4.71h-.66v-4.53c0-.74-.19-1.32-.57-1.75-.38-.43-.91-.64-1.59-.64-.49,0-.92.13-1.29.38-.37.26-.68.6-.93,1.04.03.13.05.26.07.38s.02.26.02.4v4.71h-.66v-4.53c0-.74-.19-1.32-.57-1.75-.38-.43-.91-.64-1.59-.64-.46,0-.87.11-1.22.34-.36.22-.66.54-.91.95v5.62h-.66Z"/>
    <path class="cls-25" d="m1186.13,1059c-.54,0-1.02-.09-1.42-.28-.41-.18-.73-.44-.96-.78-.23-.33-.35-.72-.35-1.16,0-.68.26-1.23.79-1.64s1.24-.62,2.12-.62,1.66.21,2.34.64v-1.23c0-.68-.18-1.19-.55-1.52-.37-.33-.9-.5-1.59-.5-.34,0-.7.05-1.07.16-.37.11-.79.29-1.27.54l-.29-.59c.47-.24.92-.42,1.35-.53s.86-.17,1.29-.17c.89,0,1.58.21,2.06.64.49.42.73,1.04.73,1.85v5.04h-.66v-.83c-.34.31-.72.55-1.14.72s-.88.26-1.38.26Zm-2.07-2.24c0,.48.2.88.6,1.19.4.31.91.46,1.52.46.53,0,1-.09,1.39-.28.4-.19.76-.45,1.08-.79v-1.53c-.33-.25-.69-.43-1.08-.55-.39-.12-.83-.18-1.33-.18-.65,0-1.17.16-1.58.46-.4.31-.6.71-.6,1.21Z"/>
    <path class="cls-25" d="m1193.61,1059c-.56,0-.99-.14-1.29-.42-.3-.28-.45-.67-.45-1.17v-5.34h-1.62v-.6h1.62v-1.86l.66-.21v2.07h2.28v.6h-2.28v5.12c0,.42.09.72.28.91.18.19.49.28.92.28.23,0,.42-.02.58-.05.16-.04.32-.09.5-.16v.65c-.19.07-.39.12-.58.15-.2.03-.41.04-.62.04Z"/>
    <path class="cls-25" d="m1196.42,1049.8c-.16,0-.29-.05-.4-.17-.11-.11-.17-.24-.17-.4s.05-.29.17-.4c.11-.11.24-.17.4-.17.17,0,.31.05.41.17.1.11.16.24.16.4s-.05.29-.16.4c-.11.11-.24.17-.41.17Zm-.33,9.04v-7.38h.66v7.38h-.66Z"/>
    <path class="cls-25" d="m1202.12,1059c-.68,0-1.3-.17-1.86-.51-.56-.34-1-.8-1.33-1.39-.32-.58-.49-1.23-.49-1.94s.16-1.37.49-1.95c.33-.58.77-1.04,1.33-1.38.56-.34,1.18-.51,1.86-.51s1.31.17,1.87.51c.55.34,1,.8,1.32,1.38.33.58.49,1.23.49,1.95s-.16,1.36-.49,1.94c-.32.59-.76,1.05-1.32,1.39-.56.34-1.18.51-1.87.51Zm0-.63c.56,0,1.07-.14,1.52-.43s.82-.67,1.08-1.15c.27-.49.4-1.03.4-1.63s-.13-1.14-.4-1.63c-.26-.48-.62-.87-1.08-1.15s-.96-.43-1.52-.43-1.07.14-1.52.43-.81.67-1.08,1.15c-.26.49-.4,1.03-.4,1.63s.13,1.14.4,1.63c.27.48.62.87,1.08,1.15s.96.43,1.52.43Z"/>
    <path class="cls-25" d="m1207.49,1058.85v-7.38h.66v1.04c.6-.79,1.42-1.19,2.45-1.19.56,0,1.05.12,1.48.35s.75.56.99.99c.23.42.35.92.35,1.48v4.71h-.66v-4.53c0-.74-.21-1.32-.62-1.75-.41-.43-.97-.64-1.7-.64-.5,0-.95.12-1.35.35-.4.23-.71.57-.95,1.01v5.55h-.66Z"/>
  </g>
  <g>
    <path class="cls-25" d="m1335.2,896.62c-.85,0-1.59-.21-2.21-.64-.62-.42-1.1-1.05-1.43-1.87l.63-.29c.29.69.69,1.22,1.2,1.59.51.37,1.12.55,1.83.55.95,0,1.7-.31,2.26-.92.56-.62.84-1.45.84-2.5v-6.6h.69v6.6c0,.84-.16,1.56-.46,2.17-.31.61-.75,1.07-1.32,1.4s-1.25.5-2.03.5Z"/>
    <path class="cls-25" d="m1344.38,896.61c-.68,0-1.3-.17-1.86-.51-.56-.34-1-.8-1.33-1.39-.32-.58-.49-1.23-.49-1.94s.16-1.37.49-1.95c.33-.58.77-1.04,1.33-1.38.56-.34,1.18-.51,1.86-.51s1.31.17,1.87.51c.55.34,1,.8,1.32,1.38.33.58.49,1.23.49,1.95s-.16,1.36-.49,1.94c-.32.58-.76,1.05-1.32,1.39-.56.34-1.18.51-1.87.51Zm0-.63c.56,0,1.07-.14,1.52-.43s.82-.67,1.08-1.16c.27-.49.4-1.03.4-1.63s-.13-1.14-.4-1.63c-.26-.49-.62-.87-1.08-1.16s-.96-.43-1.52-.43-1.07.14-1.52.43-.81.67-1.08,1.16c-.26.49-.4,1.03-.4,1.63s.13,1.14.4,1.63c.27.49.62.87,1.08,1.16s.96.43,1.52.43Z"/>
    <path class="cls-25" d="m1349.75,896.46v-10.5l.66-.17v4.17c.67-.69,1.52-1.04,2.54-1.04.69,0,1.31.16,1.87.5.56.34,1,.81,1.32,1.39s.49,1.23.49,1.95-.16,1.36-.49,1.94-.76,1.05-1.32,1.39c-.55.34-1.18.51-1.87.51-.47,0-.92-.09-1.36-.28-.43-.18-.83-.43-1.18-.74v.87h-.66Zm3.2-.48c.56,0,1.07-.14,1.52-.43s.82-.67,1.08-1.16.4-1.03.4-1.63-.13-1.14-.4-1.63-.62-.87-1.08-1.16-.96-.43-1.52-.43-1.05.11-1.49.34c-.45.22-.79.52-1.04.89v3.96c.26.35.62.64,1.07.88.45.23.94.35,1.47.35Z"/>
  </g>
  <g>
    <path class="cls-25" d="m1428.87,896.62c-.74,0-1.43-.14-2.08-.41-.64-.28-1.21-.66-1.7-1.16-.49-.5-.87-1.07-1.15-1.73-.28-.65-.41-1.36-.41-2.12s.14-1.47.41-2.12c.27-.66.66-1.23,1.15-1.73.49-.5,1.06-.88,1.7-1.16.65-.27,1.34-.41,2.08-.41s1.43.14,2.08.41c.64.28,1.21.66,1.7,1.16s.87,1.07,1.15,1.73c.28.65.41,1.36.41,2.12s-.14,1.47-.41,2.12c-.28.66-.66,1.23-1.15,1.73s-1.06.88-1.7,1.16c-.65.27-1.34.41-2.08.41Zm0-.65c.65,0,1.26-.12,1.82-.37.56-.25,1.06-.58,1.48-1.01.42-.43.75-.93.98-1.51.23-.58.35-1.21.35-1.88s-.12-1.29-.35-1.88c-.24-.58-.56-1.08-.98-1.51-.42-.43-.91-.77-1.48-1.01-.57-.25-1.17-.37-1.82-.37s-1.26.12-1.82.37c-.56.25-1.06.58-1.48,1.01-.42.43-.75.93-.98,1.51s-.35,1.21-.35,1.88.12,1.29.35,1.88.56,1.08.98,1.51c.42.43.91.77,1.48,1.01.57.25,1.17.37,1.82.37Z"/>
    <path class="cls-25" d="m1438.74,896.61c-.55,0-1.04-.12-1.46-.35-.43-.24-.76-.57-1-.99-.24-.42-.36-.92-.36-1.48v-4.71h.66v4.53c0,.73.2,1.31.61,1.74.41.43.98.65,1.7.65.5,0,.95-.12,1.35-.36.4-.24.71-.58.95-1v-5.55h.66v7.38h-.66v-1.02c-.58.78-1.39,1.17-2.45,1.17Z"/>
    <path class="cls-25" d="m1446.48,896.61c-.56,0-.99-.14-1.29-.42-.3-.28-.45-.67-.45-1.17v-5.34h-1.62v-.6h1.62v-1.86l.66-.21v2.07h2.28v.6h-2.28v5.12c0,.42.09.72.28.91.18.19.49.28.92.28.23,0,.42-.02.58-.05.16-.04.32-.09.5-.16v.65c-.19.07-.39.12-.58.15-.2.03-.41.04-.62.04Z"/>
    <path class="cls-25" d="m1448.95,899.52v-10.44h.66v.88c.67-.69,1.52-1.04,2.54-1.04.69,0,1.31.16,1.87.5.56.34,1,.81,1.32,1.39s.49,1.23.49,1.95-.16,1.36-.49,1.94-.76,1.05-1.32,1.39c-.55.34-1.18.51-1.87.51-.47,0-.92-.09-1.36-.28-.43-.18-.83-.43-1.18-.74v3.93h-.66Zm3.2-3.54c.56,0,1.07-.14,1.52-.43s.82-.67,1.08-1.16.4-1.03.4-1.63-.13-1.14-.4-1.63-.62-.87-1.08-1.16-.96-.43-1.52-.43-1.05.11-1.49.34c-.45.22-.79.52-1.04.89v3.96c.26.35.62.64,1.07.88.45.23.94.35,1.47.35Z"/>
    <path class="cls-25" d="m1460.31,896.61c-.55,0-1.04-.12-1.46-.35-.43-.24-.76-.57-1-.99-.24-.42-.36-.92-.36-1.48v-4.71h.66v4.53c0,.73.2,1.31.61,1.74.41.43.98.65,1.7.65.5,0,.95-.12,1.35-.36.4-.24.71-.58.95-1v-5.55h.66v7.38h-.66v-1.02c-.58.78-1.39,1.17-2.45,1.17Z"/>
    <path class="cls-25" d="m1468.05,896.61c-.56,0-.99-.14-1.29-.42-.3-.28-.45-.67-.45-1.17v-5.34h-1.62v-.6h1.62v-1.86l.66-.21v2.07h2.28v.6h-2.28v5.12c0,.42.09.72.28.91.18.19.49.28.92.28.23,0,.42-.02.58-.05.16-.04.32-.09.5-.16v.65c-.19.07-.39.12-.58.15-.2.03-.41.04-.62.04Z"/>
  </g>
  <g>
    <path class="cls-25" d="m1143.92,472.74v-10.5h4.23c.71,0,1.31.13,1.81.38.5.26.87.6,1.12,1.04s.38.93.38,1.49c0,.68-.2,1.28-.58,1.79s-.96.85-1.7,1.02l2.33,4.79h-.75l-2.26-4.68h-3.89v4.68h-.69Zm.69-5.32h3.5c.86,0,1.52-.22,1.97-.65.46-.44.68-.97.68-1.61s-.23-1.19-.68-1.62-1.11-.65-1.97-.65h-3.5v4.53Z"/>
    <path class="cls-25" d="m1155.93,472.89c-.68,0-1.3-.17-1.86-.51-.56-.34-1-.8-1.33-1.38-.32-.58-.49-1.23-.49-1.95s.16-1.37.47-1.95.75-1.04,1.3-1.38c.55-.34,1.16-.51,1.84-.51.64,0,1.21.17,1.71.51s.9.79,1.19,1.36.44,1.19.44,1.88v.27h-6.29c.03.57.18,1.08.45,1.54.27.46.63.82,1.07,1.09.45.27.94.4,1.48.4.42,0,.83-.07,1.25-.2s.76-.32,1.05-.55l.39.53c-.4.29-.83.51-1.28.65-.45.14-.92.21-1.41.21Zm-2.97-4.29h5.55c-.05-.51-.19-.97-.43-1.39-.24-.41-.55-.75-.93-1-.38-.25-.81-.38-1.29-.38-.51,0-.97.12-1.39.36s-.75.57-1.02.98c-.26.41-.43.89-.49,1.42Z"/>
    <path class="cls-25" d="m1164.17,472.89c-.68,0-1.3-.17-1.86-.51-.56-.34-1-.8-1.33-1.38-.32-.58-.49-1.23-.49-1.95s.16-1.37.49-1.95c.33-.58.77-1.04,1.33-1.38.56-.34,1.18-.51,1.86-.51.5,0,1,.1,1.51.3.5.2.95.48,1.33.83l-.45.54c-.32-.32-.69-.57-1.1-.76-.42-.19-.84-.28-1.28-.28-.56,0-1.07.14-1.52.43s-.81.67-1.08,1.16c-.26.48-.4,1.03-.4,1.63s.13,1.14.4,1.63c.27.49.62.87,1.08,1.16s.96.43,1.52.43c.44,0,.87-.09,1.28-.28.41-.19.78-.44,1.1-.75l.45.54c-.38.35-.82.62-1.33.82-.5.2-1.01.3-1.51.3Z"/>
    <path class="cls-25" d="m1171.18,472.89c-.55,0-1.04-.12-1.46-.35-.43-.24-.76-.57-1-.99-.24-.43-.36-.92-.36-1.48v-4.71h.66v4.53c0,.73.2,1.31.61,1.74s.98.64,1.7.64c.5,0,.95-.12,1.35-.36.4-.24.71-.58.95-1.01v-5.55h.66v7.38h-.66v-1.02c-.58.78-1.39,1.17-2.45,1.17Z"/>
    <path class="cls-25" d="m1176.34,472.73v-7.38h.66v1.17c.21-.41.5-.73.86-.97.37-.24.78-.35,1.24-.35.2,0,.42.02.65.06v.68c-.11-.04-.22-.07-.33-.08-.11-.01-.22-.02-.32-.02-.49,0-.91.15-1.27.44-.35.29-.63.72-.83,1.28v5.18h-.66Z"/>
    <path class="cls-25" d="m1181.12,472.73v-7.38h.66v1.17c.21-.41.5-.73.86-.97.37-.24.78-.35,1.24-.35.2,0,.42.02.65.06v.68c-.11-.04-.22-.07-.33-.08-.11-.01-.22-.02-.32-.02-.49,0-.91.15-1.27.44-.35.29-.63.72-.83,1.28v5.18h-.66Z"/>
    <path class="cls-25" d="m1186.2,463.7c-.16,0-.29-.05-.4-.16-.11-.11-.17-.25-.17-.41s.05-.29.17-.4c.11-.11.24-.16.4-.16.17,0,.31.05.41.16.1.11.16.25.16.4s-.05.29-.16.41c-.11.11-.24.16-.41.16Zm-.33,9.04v-7.38h.66v7.38h-.66Z"/>
    <path class="cls-25" d="m1188.57,472.74v-7.38h.66v1.04c.6-.79,1.42-1.19,2.45-1.19.56,0,1.05.12,1.48.35.42.24.75.57.99.99.23.43.35.92.35,1.48v4.71h-.66v-4.53c0-.74-.21-1.32-.62-1.75-.41-.42-.97-.64-1.7-.64-.5,0-.95.12-1.35.35-.4.24-.71.57-.95,1.01v5.55h-.66Z"/>
    <path class="cls-25" d="m1200.06,475.95c-.49,0-.98-.07-1.46-.21-.48-.14-.92-.33-1.32-.58l.38-.54c.44.25.84.43,1.21.54.36.11.75.16,1.15.16.77,0,1.35-.19,1.75-.55.4-.37.6-.92.6-1.65v-1.26c-.67.69-1.51,1.04-2.54,1.04-.68,0-1.3-.17-1.86-.51-.56-.34-1-.8-1.33-1.38-.32-.58-.49-1.23-.49-1.95s.16-1.37.49-1.95c.33-.58.77-1.04,1.33-1.38.56-.34,1.18-.51,1.86-.51.47,0,.92.09,1.37.28s.83.43,1.17.74v-.87h.66v7.72c0,.94-.26,1.65-.77,2.14-.51.49-1.25.73-2.2.73Zm-.23-3.69c.55,0,1.05-.11,1.49-.34.44-.23.79-.52,1.04-.89v-3.96c-.26-.35-.62-.64-1.06-.88-.45-.23-.94-.35-1.47-.35-.56,0-1.07.14-1.52.43s-.81.67-1.08,1.16c-.26.48-.4,1.03-.4,1.63s.13,1.14.4,1.63c.27.49.62.87,1.08,1.16s.96.43,1.52.43Z"/>
    <path class="cls-25" d="m1210.98,472.89c-.56,0-.99-.14-1.29-.42s-.45-.67-.45-1.17v-5.34h-1.62v-.6h1.62v-1.86l.66-.21v2.07h2.28v.6h-2.28v5.12c0,.42.09.72.28.91.18.19.49.28.92.28.23,0,.42-.02.58-.05.16-.04.32-.09.5-.16v.64c-.19.07-.39.12-.58.15-.2.03-.41.04-.62.04Z"/>
    <path class="cls-25" d="m1215.67,472.89c-.54,0-1.02-.09-1.42-.28-.41-.19-.73-.45-.96-.78-.23-.34-.35-.72-.35-1.16,0-.68.26-1.23.79-1.64.53-.41,1.24-.62,2.12-.62s1.66.21,2.34.64v-1.23c0-.68-.18-1.19-.55-1.52-.37-.34-.9-.5-1.59-.5-.34,0-.7.06-1.07.17s-.79.29-1.27.54l-.29-.58c.47-.24.92-.42,1.35-.53s.86-.17,1.29-.17c.89,0,1.58.21,2.06.64.49.43.73,1.04.73,1.85v5.04h-.66v-.82c-.34.31-.72.55-1.14.72s-.88.26-1.38.26Zm-2.07-2.23c0,.48.2.88.6,1.18.4.31.91.47,1.52.47.53,0,1-.09,1.39-.28.4-.18.76-.45,1.08-.79v-1.53c-.33-.25-.69-.44-1.08-.55-.39-.12-.83-.18-1.33-.18-.65,0-1.17.15-1.58.46-.4.31-.6.71-.6,1.21Z"/>
    <path class="cls-25" d="m1222.96,472.89c-.57,0-1.11-.1-1.63-.31-.51-.21-.95-.5-1.3-.89l.51-.42c.3.31.66.55,1.09.73.42.18.87.27,1.33.27.68,0,1.23-.15,1.64-.44s.62-.68.62-1.15c0-.35-.12-.64-.38-.87-.25-.23-.66-.38-1.21-.45l-1.21-.15c-.7-.08-1.23-.28-1.6-.61s-.55-.77-.55-1.32c0-.41.11-.77.33-1.08s.53-.55.92-.73c.39-.17.85-.26,1.37-.26s.98.07,1.44.22.92.39,1.39.73l-.39.54c-.42-.3-.82-.52-1.21-.67-.39-.14-.79-.22-1.22-.22-.58,0-1.06.12-1.42.37-.37.24-.56.61-.56,1.09,0,.36.12.65.37.87.24.22.64.37,1.19.44l1.2.15c.74.09,1.29.3,1.65.64s.54.78.54,1.3c0,.42-.12.8-.38,1.13s-.59.6-1.03.79c-.44.19-.94.29-1.52.29Z"/>
    <path class="cls-25" d="m1227.21,472.74v-10.5l.66-.16v6.72l4.17-3.43h.93l-4.35,3.57,4.53,3.81h-1l-4.28-3.63v3.63h-.66Z"/>
    <path class="cls-25" d="m1236.07,472.89c-.57,0-1.11-.1-1.63-.31-.51-.21-.95-.5-1.3-.89l.51-.42c.3.31.66.55,1.09.73.42.18.87.27,1.33.27.68,0,1.23-.15,1.64-.44s.62-.68.62-1.15c0-.35-.12-.64-.38-.87-.25-.23-.66-.38-1.21-.45l-1.21-.15c-.7-.08-1.23-.28-1.6-.61s-.55-.77-.55-1.32c0-.41.11-.77.33-1.08s.53-.55.92-.73c.39-.17.85-.26,1.37-.26s.98.07,1.44.22.92.39,1.39.73l-.39.54c-.42-.3-.82-.52-1.21-.67-.39-.14-.79-.22-1.22-.22-.58,0-1.06.12-1.42.37-.37.24-.56.61-.56,1.09,0,.36.12.65.37.87.24.22.64.37,1.19.44l1.2.15c.74.09,1.29.3,1.65.64s.54.78.54,1.3c0,.42-.12.8-.38,1.13s-.59.6-1.03.79c-.44.19-.94.29-1.52.29Z"/>
  </g>
  <g>
    <path class="cls-25" d="m61.08,1056.12c-.85,0-1.59-.21-2.21-.64-.62-.42-1.1-1.05-1.43-1.87l.63-.29c.29.69.69,1.22,1.2,1.59.51.37,1.12.55,1.83.55.95,0,1.7-.31,2.26-.92.56-.62.84-1.45.84-2.5v-6.6h.69v6.6c0,.84-.16,1.56-.46,2.17-.31.61-.75,1.07-1.32,1.4s-1.25.5-2.03.5Z"/>
    <path class="cls-25" d="m70.26,1056.11c-.68,0-1.3-.17-1.86-.51-.56-.34-1-.8-1.33-1.39-.32-.58-.49-1.23-.49-1.94s.16-1.37.49-1.95c.33-.58.77-1.04,1.33-1.38.56-.34,1.18-.51,1.86-.51s1.31.17,1.87.51c.55.34,1,.8,1.32,1.38.33.58.49,1.23.49,1.95s-.16,1.36-.49,1.94c-.32.58-.76,1.05-1.32,1.39-.56.34-1.18.51-1.87.51Zm0-.63c.56,0,1.07-.14,1.52-.43s.82-.67,1.08-1.16c.27-.49.4-1.03.4-1.63s-.13-1.14-.4-1.63c-.26-.49-.62-.87-1.08-1.16s-.96-.43-1.52-.43-1.07.14-1.52.43-.81.67-1.08,1.16c-.26.49-.4,1.03-.4,1.63s.13,1.14.4,1.63c.27.49.62.87,1.08,1.16s.96.43,1.52.43Z"/>
    <path class="cls-25" d="m75.63,1055.96v-10.5l.66-.17v4.17c.67-.69,1.52-1.04,2.54-1.04.69,0,1.31.16,1.87.5.56.34,1,.81,1.32,1.39s.49,1.23.49,1.95-.16,1.36-.49,1.94-.76,1.05-1.32,1.39c-.55.34-1.18.51-1.87.51-.47,0-.92-.09-1.36-.28-.43-.18-.83-.43-1.18-.74v.87h-.66Zm3.2-.48c.56,0,1.07-.14,1.52-.43s.82-.67,1.08-1.16.4-1.03.4-1.63-.13-1.14-.4-1.63-.62-.87-1.08-1.16-.96-.43-1.52-.43-1.05.11-1.49.34c-.45.22-.79.52-1.04.89v3.96c.26.35.62.64,1.07.88.45.23.94.35,1.47.35Z"/>
  </g>
  <g>
    <path class="cls-25" d="m293.44,920.48c-.85,0-1.59-.21-2.21-.64-.62-.42-1.1-1.05-1.43-1.87l.63-.29c.29.69.69,1.22,1.2,1.59.51.37,1.12.55,1.83.55.95,0,1.7-.31,2.26-.92.56-.62.84-1.45.84-2.5v-6.6h.69v6.6c0,.84-.16,1.56-.46,2.17-.31.61-.75,1.07-1.32,1.4s-1.25.5-2.03.5Z"/>
    <path class="cls-25" d="m302.62,920.46c-.68,0-1.3-.17-1.86-.51-.56-.34-1-.8-1.33-1.39-.32-.58-.49-1.23-.49-1.94s.16-1.37.49-1.95c.33-.58.77-1.04,1.33-1.38.56-.34,1.18-.51,1.86-.51s1.31.17,1.87.51c.55.34,1,.8,1.32,1.38.33.58.49,1.23.49,1.95s-.16,1.36-.49,1.94c-.32.58-.76,1.05-1.32,1.39-.56.34-1.18.51-1.87.51Zm0-.63c.56,0,1.07-.14,1.52-.43s.82-.67,1.08-1.16c.27-.49.4-1.03.4-1.63s-.13-1.14-.4-1.63c-.26-.49-.62-.87-1.08-1.16s-.96-.43-1.52-.43-1.07.14-1.52.43-.81.67-1.08,1.16c-.26.49-.4,1.03-.4,1.63s.13,1.14.4,1.63c.27.49.62.87,1.08,1.16s.96.43,1.52.43Z"/>
    <path class="cls-25" d="m307.99,920.31v-10.5l.66-.17v4.17c.67-.69,1.52-1.04,2.54-1.04.69,0,1.31.16,1.87.5.56.34,1,.81,1.32,1.39s.49,1.23.49,1.95-.16,1.36-.49,1.94-.76,1.05-1.32,1.39c-.55.34-1.18.51-1.87.51-.47,0-.92-.09-1.36-.28-.43-.18-.83-.43-1.18-.74v.87h-.66Zm3.2-.48c.56,0,1.07-.14,1.52-.43s.82-.67,1.08-1.16.4-1.03.4-1.63-.13-1.14-.4-1.63-.62-.87-1.08-1.16-.96-.43-1.52-.43-1.05.11-1.49.34c-.45.22-.79.52-1.04.89v3.96c.26.35.62.64,1.07.88.45.23.94.35,1.47.35Z"/>
  </g>
  <g>
    <path class="cls-25" d="m181.25,920.48c-.74,0-1.43-.14-2.08-.41-.64-.28-1.21-.66-1.7-1.16-.49-.5-.87-1.07-1.15-1.73-.28-.65-.41-1.36-.41-2.12s.14-1.47.41-2.12c.27-.66.66-1.23,1.15-1.73.49-.5,1.06-.88,1.7-1.16.65-.27,1.34-.41,2.08-.41s1.43.14,2.08.41c.64.28,1.21.66,1.7,1.16s.87,1.07,1.15,1.73c.28.65.41,1.36.41,2.12s-.14,1.47-.41,2.12c-.28.66-.66,1.23-1.15,1.73s-1.06.88-1.7,1.16c-.65.27-1.34.41-2.08.41Zm0-.65c.65,0,1.26-.12,1.82-.37.56-.25,1.06-.58,1.48-1.01.42-.43.75-.93.98-1.51.23-.58.35-1.21.35-1.88s-.12-1.29-.35-1.88c-.24-.58-.56-1.08-.98-1.51-.42-.43-.91-.77-1.48-1.01-.57-.25-1.17-.37-1.82-.37s-1.26.12-1.82.37c-.56.25-1.06.58-1.48,1.01-.42.43-.75.93-.98,1.51s-.35,1.21-.35,1.88.12,1.29.35,1.88.56,1.08.98,1.51c.42.43.91.77,1.48,1.01.57.25,1.17.37,1.82.37Z"/>
    <path class="cls-25" d="m191.12,920.46c-.55,0-1.04-.12-1.46-.35-.43-.24-.76-.57-1-.99-.24-.42-.36-.92-.36-1.48v-4.71h.66v4.53c0,.73.2,1.31.61,1.74.41.43.98.65,1.7.65.5,0,.95-.12,1.35-.36.4-.24.71-.58.95-1v-5.55h.66v7.38h-.66v-1.02c-.58.78-1.39,1.17-2.45,1.17Z"/>
    <path class="cls-25" d="m198.86,920.46c-.56,0-.99-.14-1.29-.42-.3-.28-.45-.67-.45-1.17v-5.34h-1.62v-.6h1.62v-1.86l.66-.21v2.07h2.28v.6h-2.28v5.12c0,.42.09.72.28.91.18.19.49.28.92.28.23,0,.42-.02.58-.05.16-.04.32-.09.5-.16v.65c-.19.07-.39.12-.58.15-.2.03-.41.04-.62.04Z"/>
    <path class="cls-25" d="m201.33,923.37v-10.44h.66v.88c.67-.69,1.52-1.04,2.54-1.04.69,0,1.31.16,1.87.5.56.34,1,.81,1.32,1.39s.49,1.23.49,1.95-.16,1.36-.49,1.94-.76,1.05-1.32,1.39c-.55.34-1.18.51-1.87.51-.47,0-.92-.09-1.36-.28-.43-.18-.83-.43-1.18-.74v3.93h-.66Zm3.2-3.54c.56,0,1.07-.14,1.52-.43s.82-.67,1.08-1.16.4-1.03.4-1.63-.13-1.14-.4-1.63-.62-.87-1.08-1.16-.96-.43-1.52-.43-1.05.11-1.49.34c-.45.22-.79.52-1.04.89v3.96c.26.35.62.64,1.07.88.45.23.94.35,1.47.35Z"/>
    <path class="cls-25" d="m212.69,920.46c-.55,0-1.04-.12-1.46-.35-.43-.24-.76-.57-1-.99-.24-.42-.36-.92-.36-1.48v-4.71h.66v4.53c0,.73.2,1.31.61,1.74.41.43.98.65,1.7.65.5,0,.95-.12,1.35-.36.4-.24.71-.58.95-1v-5.55h.66v7.38h-.66v-1.02c-.58.78-1.39,1.17-2.45,1.17Z"/>
    <path class="cls-25" d="m220.43,920.46c-.56,0-.99-.14-1.29-.42-.3-.28-.45-.67-.45-1.17v-5.34h-1.62v-.6h1.62v-1.86l.66-.21v2.07h2.28v.6h-2.28v5.12c0,.42.09.72.28.91.18.19.49.28.92.28.23,0,.42-.02.58-.05.16-.04.32-.09.5-.16v.65c-.19.07-.39.12-.58.15-.2.03-.41.04-.62.04Z"/>
  </g>
  <polyline class="cls-33" points="251.83 1170.03 251.83 1185.05 30 1185.05 30 1066.6 103.28 1066.6"/>
  <path class="cls-33" d="m1539.01,1077.24l-10.64-10.64,10.64-10.64"/>
  <g>
    <path class="cls-25" d="m1552.39,1056.12c-.85,0-1.59-.21-2.21-.64-.62-.42-1.1-1.05-1.43-1.87l.63-.29c.29.69.69,1.22,1.2,1.59.51.37,1.12.55,1.83.55.95,0,1.7-.31,2.26-.92.56-.62.84-1.45.84-2.5v-6.6h.69v6.6c0,.84-.16,1.56-.46,2.17-.31.61-.75,1.07-1.32,1.4s-1.25.5-2.03.5Z"/>
    <path class="cls-25" d="m1561.57,1056.11c-.68,0-1.3-.17-1.86-.51-.56-.34-1-.8-1.33-1.39-.32-.58-.49-1.23-.49-1.94s.16-1.37.49-1.95c.33-.58.77-1.04,1.33-1.38.56-.34,1.18-.51,1.86-.51s1.31.17,1.87.51c.55.34,1,.8,1.32,1.38.33.58.49,1.23.49,1.95s-.16,1.36-.49,1.94c-.32.58-.76,1.05-1.32,1.39-.56.34-1.18.51-1.87.51Zm0-.63c.56,0,1.07-.14,1.52-.43s.82-.67,1.08-1.16c.27-.49.4-1.03.4-1.63s-.13-1.14-.4-1.63c-.26-.49-.62-.87-1.08-1.16s-.96-.43-1.52-.43-1.07.14-1.52.43-.81.67-1.08,1.16c-.26.49-.4,1.03-.4,1.63s.13,1.14.4,1.63c.27.49.62.87,1.08,1.16s.96.43,1.52.43Z"/>
    <path class="cls-25" d="m1566.94,1055.96v-10.5l.66-.17v4.17c.67-.69,1.52-1.04,2.54-1.04.69,0,1.31.16,1.87.5.56.34,1,.81,1.32,1.39s.49,1.23.49,1.95-.16,1.36-.49,1.94-.76,1.05-1.32,1.39c-.55.34-1.18.51-1.87.51-.47,0-.92-.09-1.36-.28-.43-.18-.83-.43-1.18-.74v.87h-.66Zm3.2-.48c.56,0,1.07-.14,1.52-.43s.82-.67,1.08-1.16.4-1.03.4-1.63-.13-1.14-.4-1.63-.62-.87-1.08-1.16-.96-.43-1.52-.43-1.05.11-1.49.34c-.45.22-.79.52-1.04.89v3.96c.26.35.62.64,1.07.88.45.23.94.35,1.47.35Z"/>
  </g>
  <polyline class="cls-33" points="1539.01 1066.6 1590 1066.6 1590 1185.05 1390.46 1185.05 1390.46 1170.03"/>
</svg>