<svg id="Ebene_2" data-name="Ebene 2" xmlns="http://www.w3.org/2000/svg" xmlns:xlink="http://www.w3.org/1999/xlink" viewBox="0 0 1620 977.73"><defs><style>.cls-1,.cls-2,.cls-31,.cls-33,.cls-34,.cls-37,.cls-38,.cls-39,.cls-40,.cls-41,.cls-42,.cls-43,.cls-44,.cls-7{fill:none;}.cls-11,.cls-2,.cls-37,.cls-38,.cls-39,.cls-40,.cls-41,.cls-42,.cls-43,.cls-44{stroke:#000;}.cls-2,.cls-37,.cls-43{stroke-miterlimit:10;}.cls-2,.cls-43,.cls-44{stroke-width:2.84px;}.cls-11,.cls-22,.cls-23,.cls-24,.cls-3,.cls-4{isolation:isolate;}.cls-4{opacity:0.54;}.cls-5{fill:#2e3436;}.cls-6{fill:url(#Unbenannter_Verlauf_3);}.cls-11,.cls-31,.cls-33,.cls-34,.cls-7{stroke-miterlimit:3.73;}.cls-11,.cls-7{stroke-width:0.85px;}.cls-7{stroke:url(#Unbenannter_Verlauf_2);}.cls-8{fill:url(#Unbenannter_Verlauf_25);}.cls-11,.cls-9{fill:url(#Unbenannter_Verlauf_5);}.cls-10{clip-path:url(#clip-path);}.cls-11{opacity:0.3;}.cls-12{fill:url(#Unbenannter_Verlauf_7);}.cls-13{fill:url(#Unbenannter_Verlauf_7-2);}.cls-14{fill:url(#Unbenannter_Verlauf_25-2);}.cls-15{fill:url(#Unbenannter_Verlauf_25-3);}.cls-16{fill:url(#Unbenannter_Verlauf_11);}.cls-17{fill:url(#Unbenannter_Verlauf_11-2);}.cls-18{fill:url(#Unbenannter_Verlauf_15);}.cls-19{fill:url(#Unbenannter_Verlauf_15-2);}.cls-20{fill:url(#Unbenannter_Verlauf_15-3);}.cls-21{fill:url(#Unbenannter_Verlauf_15-4);}.cls-22,.cls-23{opacity:0.87;}.cls-22{fill:url(#Unbenannter_Verlauf_24);}.cls-23{fill:url(#Unbenannter_Verlauf_24-2);}.cls-24{opacity:0.71;}.cls-25{fill:url(#Unbenannter_Verlauf_24-3);}.cls-26{fill:url(#Unbenannter_Verlauf_24-4);}.cls-27{fill:url(#Unbenannter_Verlauf_20);}.cls-28{fill:url(#Unbenannter_Verlauf_22);}.cls-29{fill:url(#Unbenannter_Verlauf_22-2);}.cls-30{fill:url(#Unbenannter_Verlauf_25-4);}.cls-31,.cls-33,.cls-34{stroke-width:0.43px;}.cls-31{stroke:url(#Unbenannter_Verlauf_24-5);}.cls-32{fill:url(#Unbenannter_Verlauf_25-5);}.cls-33{stroke:url(#Unbenannter_Verlauf_27);}.cls-34{stroke:url(#Unbenannter_Verlauf_27-2);}.cls-35,.cls-36{fill:#275c88;}.cls-36{fill-rule:evenodd;}.cls-37,.cls-38,.cls-39,.cls-40,.cls-41,.cls-42,.cls-43,.cls-44{stroke-linecap:round;}.cls-37{stroke-width:4.26px;}.cls-38,.cls-39,.cls-40,.cls-41,.cls-42,.cls-44{stroke-linejoin:round;}.cls-38,.cls-39,.cls-40,.cls-41,.cls-42{stroke-width:5.68px;}.cls-39{stroke-dasharray:0 14.81;}.cls-40{stroke-dasharray:0 14.38;}.cls-41{stroke-dasharray:0 14.53;}.cls-42{stroke-dasharray:0 14.2;}</style><radialGradient id="Unbenannter_Verlauf_3" cx="156.56" cy="3135.76" r="102.15" gradientTransform="translate(548.77 -307.17) scale(0.91 0.27)" gradientUnits="userSpaceOnUse"><stop offset="0" stop-color="#f2da06"/><stop offset="0.45" stop-color="#fcee72"/><stop offset="1" stop-color="#f2da06"/></radialGradient><radialGradient id="Unbenannter_Verlauf_2" cx="-113.63" cy="1707.13" r="90.02" gradientTransform="matrix(0.7, -0.29, 0.27, 0.66, 335.81, -607.18)" gradientUnits="userSpaceOnUse"><stop offset="0" stop-color="#eeeeec"/><stop offset="1" stop-color="#eeeeec" stop-opacity="0"/></radialGradient><linearGradient id="Unbenannter_Verlauf_25" x1="-0.61" y1="502.64" x2="2.99" y2="502.64" gradientTransform="matrix(1.63, 0.14, -0.17, 1.67, 832.48, -324.71)" gradientUnits="userSpaceOnUse"><stop offset="0" stop-color="#edd60c"/><stop offset="1" stop-color="#ad9c08"/></linearGradient><radialGradient id="Unbenannter_Verlauf_5" cx="92.46" cy="1041.87" fy="1015.643920805642" r="90.04" gradientTransform="matrix(1.19, 0.23, -0.17, 0.92, 743.03, -497.7)" gradientUnits="userSpaceOnUse"><stop offset="0" stop-color="#e9d012"/><stop offset="0.46" stop-color="#efd840"/><stop offset="0.77" stop-color="#d2b828"/><stop offset="1" stop-color="#eacf4e"/></radialGradient><clipPath id="clip-path"><path class="cls-1" d="M658,411.54a57.51,57.51,0,0,0-31.07,9h0c-12.82,4.31-22,11.42-28.83,21.06-12.16,17.13-22,56.16-21,79.74,26.49,41.75,153.21,40.91,175.77,2.91-9.83-34.45-6.65-63.55-22.28-83.49-8.33-10.67-20.31-17.78-33.5-21.62-.1,0-.1,0-.19-.09-6.09-2.34-21.25-7.49-36.69-7.49Zm27.43,5c.37.09.84.09,1.21.19C686.26,416.59,685.88,416.59,685.42,416.5Zm-42.5.28c-.93.09-1.77.28-2.71.37C641.15,417.06,642.08,416.87,642.92,416.78Z"/></clipPath><radialGradient id="Unbenannter_Verlauf_7" cx="-555.15" cy="253.87" r="8.15" gradientTransform="matrix(-4.67, -1.25, -1.13, 2.92, -1642.03, -945.69)" gradientUnits="userSpaceOnUse"><stop offset="0" stop-color="#f5e789"/><stop offset="1" stop-color="#eed73f" stop-opacity="0"/></radialGradient><radialGradient id="Unbenannter_Verlauf_7-2" cx="-554.8" cy="255.13" r="8.15" gradientTransform="matrix(-4.67, -1.25, -1.13, 2.92, -1585.02, -952.25)" xlink:href="#Unbenannter_Verlauf_7"/><linearGradient id="Unbenannter_Verlauf_25-2" x1="-669.65" y1="740.51" x2="-666.05" y2="740.51" gradientTransform="matrix(-1.88, -0.02, -0.07, 1.13, -573.72, -432.74)" xlink:href="#Unbenannter_Verlauf_25"/><linearGradient id="Unbenannter_Verlauf_25-3" x1="-794.76" y1="629.5" x2="-791.17" y2="629.5" gradientTransform="matrix(-1.59, -0.35, -0.29, 1.1, -398.73, -553.69)" xlink:href="#Unbenannter_Verlauf_25"/><radialGradient id="Unbenannter_Verlauf_11" cx="-1015.46" cy="-2670.09" r="78.16" gradientTransform="matrix(-1, 0.05, -0.01, -0.25, -372.77, -216.88)" gradientUnits="userSpaceOnUse"><stop offset="0" stop-color="#efdd52"/><stop offset="1" stop-color="#f2e26d" stop-opacity="0"/></radialGradient><radialGradient id="Unbenannter_Verlauf_11-2" cx="-149.08" cy="-448.9" r="78.16" gradientTransform="matrix(-0.53, 0.89, -0.93, -0.56, 140.07, 314.26)" xlink:href="#Unbenannter_Verlauf_11"/><linearGradient id="Unbenannter_Verlauf_15" x1="88.86" y1="1139.24" x2="48.37" y2="1240.86" gradientTransform="translate(548.77 -598.48) scale(0.91)" gradientUnits="userSpaceOnUse"><stop offset="0" stop-color="#ddbe0c"/><stop offset="1" stop-color="#ddbe0c" stop-opacity="0"/></linearGradient><linearGradient id="Unbenannter_Verlauf_15-2" x1="149.85" y1="1127.82" x2="192.21" y2="1227.07" xlink:href="#Unbenannter_Verlauf_15"/><linearGradient id="Unbenannter_Verlauf_15-3" x1="97.98" y1="1145.05" x2="121.16" y2="1205.35" xlink:href="#Unbenannter_Verlauf_15"/><linearGradient id="Unbenannter_Verlauf_15-4" x1="114.95" y1="1128.72" x2="173.22" y2="1129.74" xlink:href="#Unbenannter_Verlauf_15"/><radialGradient id="Unbenannter_Verlauf_24" cx="-679.95" cy="402.06" r="8.86" gradientTransform="matrix(-2.75, 0, 0, 5.86, -1154.63, -1905.58)" gradientUnits="userSpaceOnUse"><stop offset="0" stop-color="#fff"/><stop offset="1" stop-color="#fff" stop-opacity="0"/></radialGradient><radialGradient id="Unbenannter_Verlauf_24-2" cx="-729.47" cy="402.18" r="8.86" gradientTransform="matrix(-2.38, -0.15, -0.36, 5.55, -925.69, -1885.6)" xlink:href="#Unbenannter_Verlauf_24"/><radialGradient id="Unbenannter_Verlauf_24-3" cx="-709.89" cy="519.87" r="11.18" gradientTransform="matrix(-1.86, -0.48, -0.24, 1.25, -544.71, -541.17)" xlink:href="#Unbenannter_Verlauf_24"/><radialGradient id="Unbenannter_Verlauf_24-4" cx="-652.31" cy="603.01" r="11.18" gradientTransform="matrix(-1.91, -0.18, -0.04, 1.28, -525.65, -440.89)" xlink:href="#Unbenannter_Verlauf_24"/><radialGradient id="Unbenannter_Verlauf_20" cx="-721" cy="429.28" r="5.39" gradientTransform="matrix(-2.8, 0, 0, 5.66, -1283.96, -1964.65)" gradientUnits="userSpaceOnUse"><stop offset="0" stop-color="#f9f1b8"/><stop offset="1" stop-color="#f9f1b8" stop-opacity="0"/></radialGradient><radialGradient id="Unbenannter_Verlauf_22" cx="-761.01" cy="230.94" r="10.07" gradientTransform="matrix(-1.18, 0.04, 0.6, 4.24, -389.01, -471.02)" xlink:href="#Unbenannter_Verlauf_15"/><radialGradient id="Unbenannter_Verlauf_22-2" cx="-658.53" cy="217.41" r="10.06" gradientTransform="matrix(-1.42, 0.12, 1, 4.68, -450.2, -470.44)" xlink:href="#Unbenannter_Verlauf_15"/><linearGradient id="Unbenannter_Verlauf_25-4" x1="-593.46" y1="342.42" x2="-589.87" y2="342.42" gradientTransform="matrix(-3.06, -0.55, -0.69, 2.46, -995.88, -649.66)" xlink:href="#Unbenannter_Verlauf_25"/><radialGradient id="Unbenannter_Verlauf_24-5" cx="147.61" cy="3035.89" r="101.85" gradientTransform="translate(548.77 -317.07) scale(0.91 0.29)" xlink:href="#Unbenannter_Verlauf_24"/><linearGradient id="Unbenannter_Verlauf_25-5" x1="-625.27" y1="353.54" x2="-621.68" y2="353.54" gradientTransform="matrix(-2.62, -0.52, -0.59, 2.32, -827.43, -616.52)" xlink:href="#Unbenannter_Verlauf_25"/><radialGradient id="Unbenannter_Verlauf_27" cx="-177.51" cy="2481.61" r="101.79" gradientTransform="matrix(1.26, -0.19, 0.06, 0.39, 672.83, -441.25)" gradientUnits="userSpaceOnUse"><stop offset="0" stop-opacity="0.33"/><stop offset="1" stop-opacity="0"/></radialGradient><radialGradient id="Unbenannter_Verlauf_27-2" cx="-56.62" cy="2509.84" r="101.81" xlink:href="#Unbenannter_Verlauf_27"/></defs><rect class="cls-2" x="491.13" y="375.33" width="613.27" height="242.53" rx="29.16"/><g id="foreman_logo-black"><g id="g34599"><g id="text6578"><path id="path34993" d="M791.08,460.37H774v18.4h17.06v7.57H774v26.07h-7.57V452.8h24.63v7.57h0"/><path id="path34995" d="M810.63,512.31a13.12,13.12,0,0,1-6.9-1.53,15,15,0,0,1-3.83-3.16c-2.3-2.88-3.35-7-3.35-12.27V469.67c0-5.28,1.15-9.4,3.35-12.27a11.47,11.47,0,0,1,1.53-1.63,9.13,9.13,0,0,1,2.3-1.44,14.68,14.68,0,0,1,3.07-1.15,15.42,15.42,0,0,1,3.83-.48,13.13,13.13,0,0,1,6.91,1.54,14.77,14.77,0,0,1,3.83,3.16c2.3,2.87,3.35,7,3.35,12.27v25.59c0,5.27-1.15,9.39-3.35,12.26a17,17,0,0,1-3.83,3.17,13.2,13.2,0,0,1-6.91,1.62m0-51.94a19.1,19.1,0,0,0-2,.19,4.39,4.39,0,0,0-2.11,1.06,6.31,6.31,0,0,0-1.82,2.77,15.92,15.92,0,0,0-.67,5.37v25.59a16.09,16.09,0,0,0,.67,5.46,6.13,6.13,0,0,0,1.82,2.78,4.08,4.08,0,0,0,2.11,1,16.74,16.74,0,0,0,2,.19,15.28,15.28,0,0,0,1.92-.19,4.37,4.37,0,0,0,2.21-1,6.88,6.88,0,0,0,1.72-2.78,16.09,16.09,0,0,0,.77-5.46V469.67a15.51,15.51,0,0,0-.77-5.37,6,6,0,0,0-1.72-2.78,4.23,4.23,0,0,0-2.21-1c-.77,0-1.44-.1-1.92-.1"/><path id="path34997" d="M852.23,483a14.59,14.59,0,0,1,3.35,5,17.61,17.61,0,0,1,1.25,6.61v17.64h-7.67V494.68c0-5.27-2.49-7.86-7.57-7.86H836.8v25.49h-7.57V452.7h12.36c5.08,0,9,1.54,11.6,4.51,2.39,2.78,3.54,6.9,3.54,12.46s-1.15,9.68-3.54,12.55l-.39.38a1.93,1.93,0,0,1-.57.39m-10.73-3.84a8.57,8.57,0,0,0,4.21-.76,6.5,6.5,0,0,0,1.54-1.15c1.15-1.54,1.82-4,1.82-7.57a21.62,21.62,0,0,0-.48-4.8,5.85,5.85,0,0,0-1.44-2.87,4,4,0,0,0-2.3-1.34,16.59,16.59,0,0,0-3.26-.29H836.8v18.78h4.7"/><path id="path34999" d="M887.5,460.37H870.44v18.4H887.5v7.57H870.44v18.4H887.5v7.57H862.77V452.8H887.4l.1,7.57h0"/><path id="path35001" d="M900.44,483.75v28.56h-7.57V452.7h6.7l12.08,42,12-42h6.71v59.61h-7.57V483.75l-8.24,28.56h-5.75l-8.34-28.56h0"/><path id="path35003" d="M944,512.41h-7.85L950,452.8h6l13.9,59.61H962l-3.84-16.68H947.78L944,512.41m9-38.91-3.35,14.66h6.8l-3.45-14.66"/><path id="path35005" d="M979.22,476.28v36h-7.57V452.7h6.42l14.57,36v-36h7.66v59.61h-6.51l-14.57-36h0"/></g></g><g id="g17157" class="cls-3"><g id="path5756" class="cls-4"><path class="cls-5" d="M576.38,528.53c-23.12,6.83,28.17,39.31,49.79,45.58,44.08,12.82,72.72,16.38,135.53-24.24,25.36-22.37-18.26-23.68-75.91-20C588.36,524.69,581.15,510.09,576.38,528.53Z"/></g><path id="path5611" class="cls-6" d="M576.38,522.92c-23.12,6.83,28.17,39.31,49.79,45.58,44.08,12.82,72.72,16.37,135.53-24.24,25.36-22.37-18.26-23.68-75.91-20C588.36,519.08,581.15,504.48,576.38,522.92Z"/><path id="path9655" class="cls-7" d="M667.45,416.78c-36.51-.84-56.82,8.33-69.36,26-12.16,17.13-22,56.16-21,79.74,26.49,41.74,153.21,40.9,175.77,2.9-9.83-34.44-6.65-63.55-22.28-83.48C716.21,423.43,690.66,415.66,667.45,416.78Z"/><path id="path5782" class="cls-8" d="M750.56,507.75c3.18-.09,3.46,16.38,3.46,16.38a9.55,9.55,0,0,1-5.8,2.53c-3.18.09-6.93-2.34-6.93-2.34s6.09-16.47,9.27-16.57Z"/><path id="path5653" class="cls-9" d="M667.45,415.56c-36.51-.84-56.82,8.33-69.36,26-12.16,17.13-22,56.16-21,79.74,26.49,41.75,153.21,40.91,175.77,2.91-9.83-34.45-6.65-63.55-22.28-83.49C716.21,422.3,690.66,414.53,667.45,415.56Z"/><g class="cls-10"><path id="path5547" class="cls-11" d="M658,411.54a57.51,57.51,0,0,0-31.07,9h0c-12.82,4.31-22,11.42-28.83,21.06-12.16,17.13-22,56.16-21,79.74,26.49,41.75,153.21,40.91,175.77,2.91-9.83-34.45-6.65-63.55-22.28-83.49-8.33-10.67-20.31-17.78-33.5-21.62-.1,0-.1,0-.19-.09-6.09-2.34-21.25-7.49-36.69-7.49Zm27.43,5c.37.09.84.09,1.21.19C686.26,416.59,685.88,416.59,685.42,416.5Zm-42.5.28c-.93.09-1.77.28-2.71.37C641.15,417.06,642.08,416.87,642.92,416.78Z"/></g><path id="path5437" class="cls-12" d="M659.4,491l-.47,11.14,22.18-1.69-1-10.76Z"/><path id="path5448" class="cls-13" d="M714.15,485.57l-.66,10.3,18.16-1.59,1.78-9.93Z"/><path id="path5602" class="cls-14" d="M636.09,410.7c-3.65-.28-6.46,10.76-6.46,10.76a12.39,12.39,0,0,0,6.18,2.06,31.47,31.47,0,0,0,8.33-1.12S639.74,411,636.09,410.7Z"/><path id="path5598" class="cls-15" d="M680.83,407.42c-3-.94-7.67,9.36-7.67,9.36A11.33,11.33,0,0,0,678,420a20.21,20.21,0,0,0,7.21.38s-1.4-12-4.4-12.92Z"/><path id="path5786" class="cls-16" d="M660.24,491.19l20.87-1.31c-2.53-23.68-13.38-41.18-26.77-61.49,6.18-1.41,18.53-5.15,28,0,15.25,19,24.33,35,30.79,57.56l21.15-1.31c-11.79-27.71-15.35-47.18-34.44-64.58,0,0-19.75-8.61-39.59-8.61-48.2-1.78-75.16,53-78.06,99-.93,25.83-2.15,23.68,7.58,29.76,8,5,6.93-1.68,6.93-1.68-4-50.08,25.27-89.2,38.37-102.21C647,452.72,654.62,473,660.24,491.19Z"/><path id="path5452" class="cls-17" d="M660.24,491.19l20.87-1.31c-2.53-23.68-13.38-41.18-26.77-61.49,6.18-1.41,18.53-5.15,28,0,15.25,19,24.33,35,30.79,57.56l21.15-1.31c-11.79-27.71-15.35-47.18-34.44-64.58,0,0-19.75-8.61-39.59-8.61-48.2-1.78-75.16,53-78.06,99-.93,25.83-2.15,23.68,7.58,29.76,8,5,6.93-1.68,6.93-1.68-4-50.08,25.27-89.2,38.37-102.21C647,452.72,654.62,473,660.24,491.19Z"/><path id="path4622" class="cls-18" d="M635.25,436.53l-.09,7.21c-32.76,24-37.91,73.09-37.82,83.2C598,502.51,600.62,465.82,635.25,436.53Z"/><path id="path5441" class="cls-19" d="M680.92,430c18.07,19,29.3,54,32.29,66.36l.85-5.34c-3.47-24-20.41-54.66-32.39-64.95Z"/><path id="path4624" class="cls-20" d="M635,443.55c1.59,1.21,15,27.33,23.77,59.15l1.13-7.58c-13.2-40.53-16.85-46.89-24.9-58.59Z"/><path id="rect5445" class="cls-21" d="M653.31,428.11c9.18-4.31,18.91-4.68,28.46-2.34v4.11c-19.28-1.59-25,3.28-25.46,2.06C655.65,431,654,429,653.31,428.11Z"/><path id="path5466" class="cls-22" d="M741.57,524.79c-6.27-50.26-22.09-93.78-52.32-111.57C722.85,436.15,733.52,480,741.57,524.79Z"/><path id="path5470" class="cls-23" d="M684.67,531.71c-2.34-47.92-13.48-90-38.56-108.57C673.9,446.73,680.36,488.75,684.67,531.71Z"/><g id="path5506" class="cls-24"><path class="cls-25" d="M649.57,434.47c14.79,3.84,25.46,13.76,23.77,22.18-1.4,7.3-11.6,11.05-23.86,9.45-4.5-16.75-11.61-27.42-18.54-32.38A39.87,39.87,0,0,1,649.57,434.47Z"/></g><g id="path5535" class="cls-24"><path class="cls-26" d="M697.4,424.83c15.25,1.4,27.33,9.55,27.14,18.06-.19,7.4-9.64,12.73-22,13.11-7.2-15.73-15.91-25.09-23.58-28.83C683.83,425.11,690.38,424.27,697.4,424.83Z"/></g><g id="path5586"><path class="cls-27" d="M714.8,428.57c22.56,17.22,26.59,51,32.48,83.11-9.36-30.23-17.69-61.95-32.48-83.11Z"/></g><path id="path5590" class="cls-28" d="M665.86,518.8c-10.39-46.61-22-80.31-38.47-90.69,6.83,3.83,19.93,7,36.31,79.55l2.16,11.14Z"/><path id="path5594" class="cls-29" d="M726.22,517.67C710.69,466.38,694.59,429.51,674,419c8.51,3.83,24.43,6.64,49,86.48l3.27,12.16Z"/><path id="path5663" class="cls-30" d="M591.82,510.37c-5.8-1.49-16.94,17.51-16.94,17.51,1,3.18,8.61,5.24,12.82,4.3,0,0,9.83-20.31,4.12-21.81Z"/><path id="path5722" class="cls-31" d="M576.38,521c-23.12,6.84,28.17,39.31,49.79,45.58,44.08,12.83,72.72,16.38,135.53-24.24,25.36-22.37-18.26-23.68-75.91-20C588.36,517.21,581.15,502.61,576.38,521Z"/><path id="path5667" class="cls-32" d="M601.56,517.3c-5-1.5-13.67,20.5-13.67,20.5a15.05,15.05,0,0,0,7.68,5.89c5,1.5,12.07-.09,12.07-.09s-1.12-24.9-6.08-26.3Z"/><g id="g5770"><path id="path5740" class="cls-33" d="M576.38,522.92c-23.12,6.83,28.17,39.31,49.79,45.58,44.08,12.82,72.72,16.37,135.53-24.24,12.63-11.24,8.14-17.13-6.84-19.85"/><path id="path5750" class="cls-34" d="M576.38,522.92c-23.12,6.83,28.17,39.31,49.79,45.58,44.08,12.82,72.72,16.37,135.53-24.24,12.63-11.24,8.14-17.13-6.84-19.85"/></g></g></g><path class="cls-35" d="M844.81,832a3.51,3.51,0,0,0-2.54-1.07H748.56a3.67,3.67,0,0,0-3.61,3.61v11.7a3.54,3.54,0,0,0,1.06,2.54,3.43,3.43,0,0,0,2.53,1.07h93.73a3.65,3.65,0,0,0,3.61-3.6V834.52A3.44,3.44,0,0,0,844.81,832Zm-87.24,11.55h-6.31v-6.31h6.31Zm12.62,0h-6.31v-6.31h6.31Zm12.61,0h-6.31v-6.31h6.31Zm12.62,0h-6.31v-6.31h6.31Zm44.15,0h-6.31v-6.31h6.31Zm-94.62-20c0-.91.12-1,.95-1.84,0,0,13.94-13.82,15-15a2.66,2.66,0,0,1,2.36-1h64.57a2.76,2.76,0,0,1,2.21,1c1,1.14,14.83,15,14.83,15,.82.83,1,.95,1,1.85s-1.15,1.07-2.3,1.07H747.13C746,824.61,745,824.44,745,823.54Zm99.86,58.91a3.48,3.48,0,0,0-2.54-1.08H748.56a3.43,3.43,0,0,0-2.53,1.08A3.48,3.48,0,0,0,745,885v11.7a3.52,3.52,0,0,0,1.06,2.54,3.44,3.44,0,0,0,2.53,1.08h93.73a3.67,3.67,0,0,0,3.61-3.61V885A3.43,3.43,0,0,0,844.81,882.45ZM757.57,894h-6.31v-6.31h6.31Zm12.62,0h-6.31v-6.31h6.31Zm12.61,0h-6.31v-6.31h6.31Zm12.62,0h-6.31v-6.31h6.31Zm44.15,0h-6.31v-6.31h6.31Zm5.24-36.77a3.48,3.48,0,0,0-2.54-1.08H748.56a3.69,3.69,0,0,0-3.61,3.61v11.7A3.54,3.54,0,0,0,746,874a3.44,3.44,0,0,0,2.53,1.08h93.73a3.67,3.67,0,0,0,3.61-3.61V859.75A3.42,3.42,0,0,0,844.81,857.22Zm-87.24,11.54h-6.31v-6.31h6.31Zm12.62,0h-6.31v-6.31h6.31Zm12.61,0h-6.31v-6.31h6.31Zm12.62,0h-6.31v-6.31h6.31Zm44.15,0h-6.31v-6.31h6.31Z"/><path class="cls-35" d="M1560.41,246.47v9c0,8-19.77,14.42-44.15,14.42s-44.16-6.47-44.16-14.42v-9c0-7.94,19.78-14.42,44.16-14.42S1560.41,238.53,1560.41,246.47Zm0,20.28V287c0,7.94-19.77,14.42-44.15,14.42S1472.1,295,1472.1,287V266.75c9.49,6.53,26.85,9.57,44.16,9.57S1550.93,273.28,1560.41,266.75Zm0,31.54v20.27c0,7.94-19.77,14.42-44.15,14.42s-44.16-6.48-44.16-14.42V298.29c9.49,6.53,26.85,9.57,44.16,9.57S1550.93,304.82,1560.41,298.29Z"/><path class="cls-35" d="M1517.83,564.12h-4.74V549.93a30,30,0,1,0-59.92,0v14.19h-4.73a9.46,9.46,0,0,0-9.46,9.46v37.85a9.45,9.45,0,0,0,9.46,9.46h69.39a9.46,9.46,0,0,0,9.46-9.46V573.58A9.47,9.47,0,0,0,1517.83,564.12Zm-20.51,0h-28.38V549.93a14.19,14.19,0,1,1,28.38,0Z"/><path d="M408.64,174.21,404,152.93h3.22l3.32,16.26,4.83-16.26h3l4.8,16.23,3.34-16.23h3.13l-4.65,21.28h-3.28l-4.92-16.72L412,174.21Z"/><path d="M438.49,174.48a8.17,8.17,0,0,1-4.12-1,7.89,7.89,0,0,1-2.93-2.89,7.8,7.8,0,0,1-1.1-4.08,7.89,7.89,0,0,1,1.05-4.05,8.22,8.22,0,0,1,2.81-2.87,7.42,7.42,0,0,1,3.95-1.08,7,7,0,0,1,3.82,1.08,7.76,7.76,0,0,1,2.67,2.92,8.63,8.63,0,0,1,1,4.15v.82H433.41a5.24,5.24,0,0,0,2.75,3.87,5.08,5.08,0,0,0,2.45.6,6.62,6.62,0,0,0,2.19-.37,5.34,5.34,0,0,0,1.73-1l1.92,1.88a10,10,0,0,1-2.79,1.54A9.71,9.71,0,0,1,438.49,174.48Zm-5.05-9.33h9.18a5.26,5.26,0,0,0-.86-2.11,4.84,4.84,0,0,0-1.6-1.46,4.15,4.15,0,0,0-2.1-.53,4.25,4.25,0,0,0-2.12.53,4.69,4.69,0,0,0-1.63,1.44A5.06,5.06,0,0,0,433.44,165.15Z"/><path d="M448.49,174.21V152.93l3-.58v7.84a6.9,6.9,0,0,1,4.71-1.7,7.54,7.54,0,0,1,4,1.07,7.76,7.76,0,0,1,2.82,2.87,8.44,8.44,0,0,1,0,8.08,7.73,7.73,0,0,1-6.87,3.94,7.72,7.72,0,0,1-2.48-.41,7.23,7.23,0,0,1-2.17-1.17v1.34Zm7.35-2.4a5.12,5.12,0,0,0,2.66-.69,5,5,0,0,0,1.87-1.9,5.48,5.48,0,0,0-1.87-7.4,5,5,0,0,0-2.66-.71,5.81,5.81,0,0,0-2.43.5,5.14,5.14,0,0,0-1.88,1.38v7a5.48,5.48,0,0,0,1.9,1.32A5.82,5.82,0,0,0,455.84,171.81Z"/><path d="M482.35,174.54a9.72,9.72,0,0,1-4.87-1.15,7.84,7.84,0,0,1-3.13-3.27,10.75,10.75,0,0,1-1.09-5V152.93h3.19v12.19a7.44,7.44,0,0,0,.73,3.42,5.51,5.51,0,0,0,2.05,2.25,5.93,5.93,0,0,0,3.12.8,5.83,5.83,0,0,0,3.07-.8,5.47,5.47,0,0,0,2-2.25,7.44,7.44,0,0,0,.73-3.42V152.93h3.19v12.19a10.63,10.63,0,0,1-1.11,5,7.9,7.9,0,0,1-3.13,3.27A9.45,9.45,0,0,1,482.35,174.54Z"/><path d="M500.43,174.51a11.7,11.7,0,0,1-3.75-.59,8.83,8.83,0,0,1-3-1.72l1.64-2a9.26,9.26,0,0,0,2.48,1.46,7,7,0,0,0,2.57.49,5.15,5.15,0,0,0,2.67-.62,1.89,1.89,0,0,0,1-1.66,1.64,1.64,0,0,0-.61-1.34,4.06,4.06,0,0,0-1.88-.67l-2.8-.39a6.16,6.16,0,0,1-3.48-1.43,3.86,3.86,0,0,1-1.14-2.92,4.06,4.06,0,0,1,.76-2.43A4.8,4.8,0,0,1,497,159a8.13,8.13,0,0,1,3.16-.58,11.25,11.25,0,0,1,3.25.47,10.22,10.22,0,0,1,3,1.51l-1.52,2a11.09,11.09,0,0,0-2.49-1.24,7.47,7.47,0,0,0-2.44-.4,3.78,3.78,0,0,0-2.24.6,1.78,1.78,0,0,0-.86,1.53,1.53,1.53,0,0,0,.61,1.32,4.68,4.68,0,0,0,1.92.66l2.82.42a6.23,6.23,0,0,1,3.5,1.4,3.78,3.78,0,0,1,1.18,2.92,3.87,3.87,0,0,1-.86,2.47,5.86,5.86,0,0,1-2.31,1.75A8,8,0,0,1,500.43,174.51Z"/><path d="M516.81,174.48a8.17,8.17,0,0,1-4.12-1,8,8,0,0,1-2.93-2.89,7.79,7.79,0,0,1-1.09-4.08,7.89,7.89,0,0,1,1.05-4.05,8,8,0,0,1,2.81-2.87,7.39,7.39,0,0,1,4-1.08,6.89,6.89,0,0,1,3.81,1.08,7.71,7.71,0,0,1,2.68,2.92,8.63,8.63,0,0,1,1,4.15v.82H511.74a5.17,5.17,0,0,0,2.75,3.87,5,5,0,0,0,2.44.6,6.62,6.62,0,0,0,2.19-.37,5.39,5.39,0,0,0,1.74-1l1.91,1.88A10,10,0,0,1,520,174,9.73,9.73,0,0,1,516.81,174.48Zm-5-9.33H521a5.28,5.28,0,0,0-.87-2.11,4.84,4.84,0,0,0-1.6-1.46,4.09,4.09,0,0,0-2.09-.53,4.32,4.32,0,0,0-2.13.53,4.79,4.79,0,0,0-1.63,1.44A5.18,5.18,0,0,0,511.77,165.15Z"/><path d="M526.81,174.21v-15.5h3v2a5.24,5.24,0,0,1,1.81-1.7,4.84,4.84,0,0,1,2.45-.61,4.31,4.31,0,0,1,1.55.24v2.74a4,4,0,0,0-.88-.26,5.9,5.9,0,0,0-.95-.07,4,4,0,0,0-2.34.71,4.89,4.89,0,0,0-1.64,2.08v10.37Z"/><rect class="cls-2" x="382.94" y="17.24" width="176.86" height="176.86" rx="13.37"/><path class="cls-35" d="M471.37,82.22A25.24,25.24,0,1,0,446.14,57,25.24,25.24,0,0,0,471.37,82.22ZM489,88.52h-3.29a34.28,34.28,0,0,1-28.75,0h-3.29A26.5,26.5,0,0,0,427.22,115v8.2a9.47,9.47,0,0,0,9.46,9.46h69.39a9.47,9.47,0,0,0,9.46-9.46V115A26.5,26.5,0,0,0,489,88.52Z"/><path class="cls-35" d="M840.31,100.36,832,95.58A37.56,37.56,0,0,0,832,82l8.27-4.77a2.35,2.35,0,0,0,1.06-2.72,48.3,48.3,0,0,0-10.61-18.36,2.33,2.33,0,0,0-2.87-.44l-8.27,4.77a36.47,36.47,0,0,0-11.8-6.81V44.1A2.31,2.31,0,0,0,806,41.83a48.86,48.86,0,0,0-21.19,0A2.32,2.32,0,0,0,783,44.1v9.55a37.87,37.87,0,0,0-11.8,6.81l-8.24-4.77a2.3,2.3,0,0,0-2.87.44,47.9,47.9,0,0,0-10.62,18.36,2.33,2.33,0,0,0,1.07,2.72L758.78,82a37.56,37.56,0,0,0,0,13.62l-8.26,4.78a2.34,2.34,0,0,0-1.07,2.71,48.19,48.19,0,0,0,10.62,18.36,2.33,2.33,0,0,0,2.87.45l8.26-4.78a36.68,36.68,0,0,0,11.8,6.81v9.55a2.32,2.32,0,0,0,1.83,2.27,48.7,48.7,0,0,0,21.19,0,2.32,2.32,0,0,0,1.82-2.27v-9.55a37.65,37.65,0,0,0,11.8-6.81l8.27,4.78a2.3,2.3,0,0,0,2.87-.45,48,48,0,0,0,10.61-18.36A2.39,2.39,0,0,0,840.31,100.36ZM795.4,104.3a15.53,15.53,0,1,1,15.53-15.53A15.54,15.54,0,0,1,795.4,104.3Z"/><path d="M771.22,173.14l8.65-20.94h3.68l8.59,20.94h-3.42L786.3,167h-9.39l-2.43,6.13ZM778,164.4h7.33l-3.65-9.21Z"/><path d="M794.32,173.14V152.2H804a7.89,7.89,0,0,1,3.59.77,5.94,5.94,0,0,1,2.4,2.2,6.22,6.22,0,0,1,.87,3.31,6,6,0,0,1-.87,3.22,6.09,6.09,0,0,1-2.41,2.19,7.59,7.59,0,0,1-3.58.81h-6.52v8.44Zm3.14-11.1h6.22a4.22,4.22,0,0,0,2.91-1,3.32,3.32,0,0,0,1.07-2.6,3.27,3.27,0,0,0-1.07-2.57,4.22,4.22,0,0,0-2.91-1h-6.22Z"/><path d="M814.1,173.14V152.2h3.14v20.94Z"/><rect class="cls-2" x="708.11" y="18.62" width="174.11" height="174.11" rx="13.16"/><path d="M1452.57,368.22V346.94h7.48a12.27,12.27,0,0,1,4.45.79A10.83,10.83,0,0,1,1468,350a10.73,10.73,0,0,1,2.37,11.85,10.39,10.39,0,0,1-5.9,5.61,12.12,12.12,0,0,1-4.46.79Zm3.19-2.86h4.35a8.3,8.3,0,0,0,3.1-.57,7.63,7.63,0,0,0,4.18-4.12,7.91,7.91,0,0,0,.59-3.06,7.79,7.79,0,0,0-.61-3.1,7.44,7.44,0,0,0-1.67-2.47,7.84,7.84,0,0,0-2.49-1.65,8.19,8.19,0,0,0-3.13-.59h-4.32Z"/><path d="M1478.89,368.49a7,7,0,0,1-3-.59,4.81,4.81,0,0,1-2-1.65,4.25,4.25,0,0,1-.73-2.47,4,4,0,0,1,1.68-3.43,7.56,7.56,0,0,1,4.58-1.25,10.62,10.62,0,0,1,4.19.82v-1.61a3.13,3.13,0,0,0-.94-2.49,4.14,4.14,0,0,0-2.8-.82,7.86,7.86,0,0,0-2.2.32,16.19,16.19,0,0,0-2.57,1L1474,354a17,17,0,0,1,3.26-1.2,12.57,12.57,0,0,1,3.09-.38,7,7,0,0,1,4.67,1.42,5.11,5.11,0,0,1,1.65,4.08v10.27h-3v-1.34a7,7,0,0,1-2.19,1.22A8.11,8.11,0,0,1,1478.89,368.49Zm-2.83-4.8a2.19,2.19,0,0,0,1,1.86,4.27,4.27,0,0,0,2.52.7,6.81,6.81,0,0,0,2.25-.37,4.85,4.85,0,0,0,1.82-1.13v-2.61a7.22,7.22,0,0,0-1.82-.73,8.77,8.77,0,0,0-2.1-.24,4.48,4.48,0,0,0-2.67.7A2.14,2.14,0,0,0,1476.06,363.69Z"/><path d="M1496.28,368.49a5,5,0,0,1-3.41-1,3.85,3.85,0,0,1-1.18-3.07V355.3h-3.29v-2.55h3.29v-3.92l3-.76v4.68h4.59v2.55h-4.59v8.42a2.19,2.19,0,0,0,.53,1.66,2.52,2.52,0,0,0,1.75.5,6.59,6.59,0,0,0,1.14-.09,6.48,6.48,0,0,0,1.07-.3v2.58a7,7,0,0,1-1.41.32A11.67,11.67,0,0,1,1496.28,368.49Z"/><path d="M1506.43,368.49a6.92,6.92,0,0,1-3-.59,4.9,4.9,0,0,1-2-1.65,4.33,4.33,0,0,1-.73-2.47,4,4,0,0,1,1.69-3.43,7.56,7.56,0,0,1,4.58-1.25,10.65,10.65,0,0,1,4.19.82v-1.61a3.13,3.13,0,0,0-.94-2.49,4.14,4.14,0,0,0-2.8-.82,7.86,7.86,0,0,0-2.2.32,16.19,16.19,0,0,0-2.57,1L1501.5,354a17.33,17.33,0,0,1,3.27-1.2,12.51,12.51,0,0,1,3.09-.38,6.92,6.92,0,0,1,4.66,1.42,5.09,5.09,0,0,1,1.66,4.08v10.27h-3v-1.34a7,7,0,0,1-2.19,1.22A8.11,8.11,0,0,1,1506.43,368.49Zm-2.83-4.8a2.19,2.19,0,0,0,1,1.86,4.28,4.28,0,0,0,2.53.7,6.81,6.81,0,0,0,2.25-.37,5,5,0,0,0,1.82-1.13v-2.61a7.38,7.38,0,0,0-1.82-.73,8.77,8.77,0,0,0-2.1-.24,4.49,4.49,0,0,0-2.68.7A2.13,2.13,0,0,0,1503.6,363.69Z"/><path d="M1517.67,368.22V346.94l3-.57v7.84a6.89,6.89,0,0,1,4.71-1.7,7.56,7.56,0,0,1,4,1.06,7.81,7.81,0,0,1,2.81,2.87,8.39,8.39,0,0,1,0,8.09,7.72,7.72,0,0,1-6.87,3.93,7.4,7.4,0,0,1-2.47-.41,7.28,7.28,0,0,1-2.18-1.17v1.34Zm7.36-2.4a5.24,5.24,0,0,0,2.66-.68,5.17,5.17,0,0,0,1.87-1.9,5.71,5.71,0,0,0,0-5.48,5.41,5.41,0,0,0-1.87-1.93,5.06,5.06,0,0,0-2.66-.71,6,6,0,0,0-2.43.5,5.5,5.5,0,0,0-1.89,1.38v7a5.87,5.87,0,0,0,1.9,1.32A6,6,0,0,0,1525,365.82Z"/><path d="M1541.2,368.49a6.92,6.92,0,0,1-3-.59,4.9,4.9,0,0,1-2-1.65,4.33,4.33,0,0,1-.73-2.47,4,4,0,0,1,1.69-3.43,7.56,7.56,0,0,1,4.58-1.25,10.65,10.65,0,0,1,4.19.82v-1.61a3.13,3.13,0,0,0-.94-2.49,4.14,4.14,0,0,0-2.8-.82,7.86,7.86,0,0,0-2.2.32,16.19,16.19,0,0,0-2.57,1l-1.16-2.28a17.33,17.33,0,0,1,3.27-1.2,12.51,12.51,0,0,1,3.09-.38,6.92,6.92,0,0,1,4.66,1.42A5.09,5.09,0,0,1,1549,358v10.27h-3v-1.34a7,7,0,0,1-2.19,1.22A8.11,8.11,0,0,1,1541.2,368.49Zm-2.83-4.8a2.21,2.21,0,0,0,1,1.86,4.28,4.28,0,0,0,2.53.7,6.81,6.81,0,0,0,2.25-.37,5,5,0,0,0,1.82-1.13v-2.61a7.38,7.38,0,0,0-1.82-.73,8.77,8.77,0,0,0-2.1-.24,4.49,4.49,0,0,0-2.68.7A2.15,2.15,0,0,0,1538.37,363.69Z"/><path d="M1557.76,368.52a11.43,11.43,0,0,1-3.75-.59,8.77,8.77,0,0,1-3-1.72l1.65-2a9.48,9.48,0,0,0,2.47,1.46,7.18,7.18,0,0,0,2.57.48,5.09,5.09,0,0,0,2.68-.62,1.87,1.87,0,0,0,1-1.66,1.6,1.6,0,0,0-.61-1.33,3.81,3.81,0,0,0-1.88-.67l-2.8-.4a6.16,6.16,0,0,1-3.48-1.43,3.83,3.83,0,0,1-1.14-2.91,4.07,4.07,0,0,1,.76-2.44,5,5,0,0,1,2.13-1.64,8.14,8.14,0,0,1,3.16-.57,10.92,10.92,0,0,1,3.25.47,10,10,0,0,1,3,1.5l-1.52,2a11.15,11.15,0,0,0-2.49-1.25,7.72,7.72,0,0,0-2.43-.39,3.82,3.82,0,0,0-2.25.59,1.79,1.79,0,0,0-.85,1.53,1.55,1.55,0,0,0,.6,1.33,4.69,4.69,0,0,0,1.92.65l2.83.42a6.27,6.27,0,0,1,3.49,1.4,3.8,3.8,0,0,1,1.19,2.92,3.93,3.93,0,0,1-.87,2.48,6,6,0,0,1-2.31,1.75A8.16,8.16,0,0,1,1557.76,368.52Z"/><path d="M1574.14,368.49a8.23,8.23,0,0,1-4.11-1,8,8,0,0,1-2.94-2.89,8.26,8.26,0,0,1,0-8.13,8,8,0,0,1,2.81-2.87,7.39,7.39,0,0,1,4-1.08,7,7,0,0,1,3.82,1.08,7.73,7.73,0,0,1,2.67,2.91,8.63,8.63,0,0,1,1,4.15v.82h-12.22a5.23,5.23,0,0,0,2.75,3.88,5.19,5.19,0,0,0,2.45.59,6.62,6.62,0,0,0,2.19-.36,5.47,5.47,0,0,0,1.73-1l1.91,1.89a9.67,9.67,0,0,1-2.78,1.53A9.47,9.47,0,0,1,1574.14,368.49Zm-5-9.33h9.18a5.14,5.14,0,0,0-.87-2.11,4.91,4.91,0,0,0-1.59-1.46,4.25,4.25,0,0,0-2.1-.53,4.43,4.43,0,0,0-2.13.53A4.79,4.79,0,0,0,1570,357,5,5,0,0,0,1569.1,359.16Z"/><path d="M1458.53,398.61V377.34h9.18a8.72,8.72,0,0,1,3.66.7,5.69,5.69,0,0,1,2.4,2,5.09,5.09,0,0,1,.87,3,4.85,4.85,0,0,1-.82,2.74,5.27,5.27,0,0,1-2.19,1.85,6.35,6.35,0,0,1,2.78,2,4.74,4.74,0,0,1,1,3,5.73,5.73,0,0,1-.9,3.2,5.84,5.84,0,0,1-2.55,2.13,9.36,9.36,0,0,1-3.88.74Zm3.19-12.24h5.77a4.56,4.56,0,0,0,2.91-.86,3,3,0,0,0,0-4.62,4.62,4.62,0,0,0-2.91-.85h-5.77Zm0,9.54h6.14A5,5,0,0,0,1471,395a3.33,3.33,0,0,0,0-5.09,4.88,4.88,0,0,0-3.16-1h-6.14Z"/><path d="M1483.45,398.89a7,7,0,0,1-3-.6,4.73,4.73,0,0,1-2-1.65,4.22,4.22,0,0,1-.73-2.46,4,4,0,0,1,1.68-3.44,7.56,7.56,0,0,1,4.58-1.24,10.44,10.44,0,0,1,4.19.82v-1.61a3.14,3.14,0,0,0-.94-2.5,4.2,4.2,0,0,0-2.8-.82,8.24,8.24,0,0,0-2.2.32,16.19,16.19,0,0,0-2.57,1l-1.15-2.28a17,17,0,0,1,3.26-1.2,13.07,13.07,0,0,1,3.09-.38,7,7,0,0,1,4.67,1.43,5.09,5.09,0,0,1,1.65,4.07v10.27h-3v-1.33a6.94,6.94,0,0,1-2.19,1.21A7.83,7.83,0,0,1,1483.45,398.89Zm-2.83-4.81a2.18,2.18,0,0,0,1,1.86,4.2,4.2,0,0,0,2.52.7,6.56,6.56,0,0,0,2.25-.37,4.83,4.83,0,0,0,1.82-1.12v-2.61a6.87,6.87,0,0,0-1.82-.73,8.28,8.28,0,0,0-2.1-.25,4.55,4.55,0,0,0-2.67.7A2.16,2.16,0,0,0,1480.62,394.08Z"/><path d="M1502,398.89a7.91,7.91,0,0,1-8-8,7.77,7.77,0,0,1,1.08-4.08,8.14,8.14,0,0,1,2.88-2.89,7.78,7.78,0,0,1,4.06-1.08,9,9,0,0,1,3.36.65,8,8,0,0,1,2.81,1.9l-1.88,2.1a6,6,0,0,0-2-1.46,5.63,5.63,0,0,0-2.28-.49,4.88,4.88,0,0,0-2.57.7,4.94,4.94,0,0,0-1.79,1.92,5.56,5.56,0,0,0-.65,2.7,5.64,5.64,0,0,0,.66,2.72,4.93,4.93,0,0,0,1.83,1.93,4.85,4.85,0,0,0,2.58.7,5.2,5.2,0,0,0,2.22-.47,6.58,6.58,0,0,0,2-1.38l1.85,2a8.67,8.67,0,0,1-6.11,2.56Z"/><path d="M1510.53,398.61V377.34l3-.58v13.16l7.51-6.78h3.55l-8,7.24,8.42,8.23h-4l-7.48-7.29v7.29Z"/><path d="M1532.5,398.89a8.14,8.14,0,0,1-4.11-1.05,7.91,7.91,0,0,1-2.94-2.89,8.26,8.26,0,0,1,0-8.13,8.13,8.13,0,0,1,2.81-2.87,7.39,7.39,0,0,1,4-1.08A7,7,0,0,1,1536,384a7.76,7.76,0,0,1,2.67,2.92,8.6,8.6,0,0,1,1,4.15v.82h-12.22a5.24,5.24,0,0,0,.93,2.29,5.15,5.15,0,0,0,1.82,1.58,5.07,5.07,0,0,0,2.45.59,6.62,6.62,0,0,0,2.19-.36,5.45,5.45,0,0,0,1.73-1l1.91,1.88a10,10,0,0,1-2.78,1.54A9.73,9.73,0,0,1,1532.5,398.89Zm-5-9.33h9.18a5.18,5.18,0,0,0-.87-2.12,4.88,4.88,0,0,0-1.59-1.45,4.16,4.16,0,0,0-2.1-.54,4.32,4.32,0,0,0-2.13.54,4.66,4.66,0,0,0-1.62,1.44A5.06,5.06,0,0,0,1527.46,389.56Z"/><path d="M1542.5,398.61V383.14h3v1.58a6.13,6.13,0,0,1,4.65-1.88,6.27,6.27,0,0,1,3.14.76,5.59,5.59,0,0,1,2.13,2.13,6.24,6.24,0,0,1,.77,3.16v9.72h-3v-9.2a3.92,3.92,0,0,0-1-2.88,3.79,3.79,0,0,0-2.83-1,4.34,4.34,0,0,0-2.17.54,4.63,4.63,0,0,0-1.62,1.5v11.09Z"/><path d="M1566.85,398.86a7.82,7.82,0,0,1-6.81-3.94,8.07,8.07,0,0,1-1-4.09,7.83,7.83,0,0,1,1-4,7.7,7.7,0,0,1,2.86-2.86,7.77,7.77,0,0,1,4-1.05,8.11,8.11,0,0,1,2.46.38,7.16,7.16,0,0,1,2.19,1.14v-7.08l3-.58v21.85h-3v-1.49A6.94,6.94,0,0,1,1566.85,398.86Zm.4-2.65a6.07,6.07,0,0,0,2.44-.48,5.25,5.25,0,0,0,1.87-1.37v-7a4.84,4.84,0,0,0-1.87-1.37,6.22,6.22,0,0,0-2.44-.49,5.22,5.22,0,0,0-2.66.69,4.93,4.93,0,0,0-1.89,1.9,5.84,5.84,0,0,0,0,5.47,5.22,5.22,0,0,0,1.89,1.93A5,5,0,0,0,1567.25,396.21Z"/><rect class="cls-2" x="1427.83" y="211.25" width="176.86" height="209.99" rx="14.57"/><path d="M1380.62,657.21l8.78-21.27h3.74l8.72,21.27h-3.46l-2.47-6.23h-9.54l-2.46,6.23Zm6.83-8.87h7.45l-3.71-9.36Z"/><path d="M1409.22,657.52a6.52,6.52,0,0,1-3.17-.76,5.46,5.46,0,0,1-2.14-2.15,6.27,6.27,0,0,1-.77-3.14v-9.73h3V651a3.93,3.93,0,0,0,1,2.86,3.78,3.78,0,0,0,2.82,1.06,4.62,4.62,0,0,0,2.2-.53,4.14,4.14,0,0,0,1.6-1.51V641.74h3v15.47h-3v-1.58A6.1,6.1,0,0,1,1409.22,657.52Z"/><path d="M1427.06,657.49a5,5,0,0,1-3.41-1,3.85,3.85,0,0,1-1.18-3.07v-9.09h-3.29v-2.55h3.29v-3.92l3-.76v4.68h4.59v2.55h-4.59v8.42a2.16,2.16,0,0,0,.53,1.66,2.52,2.52,0,0,0,1.75.5,6.59,6.59,0,0,0,1.14-.09,6.48,6.48,0,0,0,1.07-.3v2.58a7,7,0,0,1-1.41.32A11.78,11.78,0,0,1,1427.06,657.49Z"/><path d="M1432.28,657.21V635.94l3-.67v8.05a6.16,6.16,0,0,1,4.65-1.88,6.28,6.28,0,0,1,3.15.76,5.54,5.54,0,0,1,2.13,2.11,6.35,6.35,0,0,1,.77,3.18v9.72h-3V648a3.91,3.91,0,0,0-1-2.87,3.79,3.79,0,0,0-2.83-1,4.44,4.44,0,0,0-2.17.53,4.88,4.88,0,0,0-1.63,1.51v11.09Z"/><path d="M1456.93,657.49a8.17,8.17,0,0,1-4.12-1,8,8,0,0,1-2.93-2.89,8.26,8.26,0,0,1,0-8.13,8,8,0,0,1,2.81-2.87,7.39,7.39,0,0,1,3.95-1.08,6.89,6.89,0,0,1,3.81,1.08,7.71,7.71,0,0,1,2.68,2.92,8.59,8.59,0,0,1,1,4.14v.82h-12.22a5.17,5.17,0,0,0,2.75,3.88,5.15,5.15,0,0,0,2.44.59,6.62,6.62,0,0,0,2.19-.36,5.59,5.59,0,0,0,1.74-1l1.91,1.88a10,10,0,0,1-2.78,1.54A9.73,9.73,0,0,1,1456.93,657.49Zm-5-9.33h9.18a5.26,5.26,0,0,0-.87-2.12,4.94,4.94,0,0,0-1.6-1.46,4.19,4.19,0,0,0-2.09-.53,4.43,4.43,0,0,0-2.13.53,4.92,4.92,0,0,0-1.63,1.45A5.12,5.12,0,0,0,1451.89,648.16Z"/><path d="M1466.93,657.21V641.74h3v1.58a6.16,6.16,0,0,1,4.65-1.88,6.28,6.28,0,0,1,3.15.76,5.45,5.45,0,0,1,2.13,2.13,6.35,6.35,0,0,1,.77,3.16v9.72h-3V648a3.91,3.91,0,0,0-1-2.87,3.79,3.79,0,0,0-2.83-1,4.44,4.44,0,0,0-2.17.53,4.88,4.88,0,0,0-1.63,1.51v11.09Z"/><path d="M1490.31,657.49a5,5,0,0,1-3.41-1,3.85,3.85,0,0,1-1.18-3.07v-9.09h-3.29v-2.55h3.29v-3.92l3-.76v4.68h4.58v2.55h-4.58v8.42a2.16,2.16,0,0,0,.53,1.66,2.49,2.49,0,0,0,1.74.5,6.43,6.43,0,0,0,1.14-.09,6.31,6.31,0,0,0,1.08-.3v2.58a7,7,0,0,1-1.41.32A11.78,11.78,0,0,1,1490.31,657.49Z"/><path d="M1497.05,639.22a1.75,1.75,0,0,1-1.3-.55,1.8,1.8,0,0,1-.55-1.34,1.88,1.88,0,0,1,1.85-1.85,1.8,1.8,0,0,1,1.34.55,1.83,1.83,0,0,1,.55,1.33,1.88,1.88,0,0,1-1.89,1.86Zm-1.52,18V641.74h3v15.47Z"/><path d="M1509.45,657.49a7.94,7.94,0,0,1-7-4,8.24,8.24,0,0,1,0-8.12,8.17,8.17,0,0,1,2.89-2.89,7.72,7.72,0,0,1,4-1.08,9,9,0,0,1,3.36.65,7.9,7.9,0,0,1,2.81,1.9l-1.88,2.1a5.85,5.85,0,0,0-2-1.46,5.63,5.63,0,0,0-2.28-.49,4.82,4.82,0,0,0-2.56.7,5,5,0,0,0-1.8,1.92,5.67,5.67,0,0,0-.65,2.7,5.57,5.57,0,0,0,.67,2.72,4.91,4.91,0,0,0,1.82,1.93,4.85,4.85,0,0,0,2.58.7,5.17,5.17,0,0,0,2.22-.47,6.58,6.58,0,0,0,2-1.38l1.85,2a8.81,8.81,0,0,1-2.81,1.89A8.54,8.54,0,0,1,1509.45,657.49Z"/><path d="M1522.92,657.49a6.92,6.92,0,0,1-3-.6,4.83,4.83,0,0,1-2-1.65,4.3,4.3,0,0,1-.73-2.47,4.05,4.05,0,0,1,1.69-3.43,7.53,7.53,0,0,1,4.57-1.25,10.7,10.7,0,0,1,4.2.82V647.3a3.16,3.16,0,0,0-.94-2.49,4.14,4.14,0,0,0-2.8-.82,8.24,8.24,0,0,0-2.2.32,16.19,16.19,0,0,0-2.57,1L1518,643a17.33,17.33,0,0,1,3.27-1.2,12.94,12.94,0,0,1,3.09-.38,6.87,6.87,0,0,1,4.66,1.43,5.06,5.06,0,0,1,1.66,4.07v10.27h-3v-1.33a6.94,6.94,0,0,1-2.19,1.21A8.11,8.11,0,0,1,1522.92,657.49Zm-2.83-4.81a2.19,2.19,0,0,0,1,1.86,4.28,4.28,0,0,0,2.53.7,6.81,6.81,0,0,0,2.25-.37,5.13,5.13,0,0,0,1.82-1.12v-2.62a7.79,7.79,0,0,0-1.82-.73,8.77,8.77,0,0,0-2.1-.24,4.49,4.49,0,0,0-2.68.7A2.14,2.14,0,0,0,1520.09,652.68Z"/><path d="M1540.3,657.49a5,5,0,0,1-3.4-1,3.86,3.86,0,0,1-1.19-3.07v-9.09h-3.28v-2.55h3.28v-3.92l3-.76v4.68h4.59v2.55h-4.59v8.42a2.2,2.2,0,0,0,.53,1.66,2.54,2.54,0,0,0,1.75.5,6.43,6.43,0,0,0,1.14-.09,6.31,6.31,0,0,0,1.08-.3v2.58a7.18,7.18,0,0,1-1.41.32A11.8,11.8,0,0,1,1540.3,657.49Z"/><path d="M1547.05,639.22a1.78,1.78,0,0,1-1.31-.55,1.82,1.82,0,0,1-.54-1.34,1.86,1.86,0,0,1,1.85-1.85,1.86,1.86,0,0,1,1.88,1.88,1.79,1.79,0,0,1-.54,1.31A1.81,1.81,0,0,1,1547.05,639.22Zm-1.52,18V641.74h3v15.47Z"/><path d="M1559.51,657.52a8.11,8.11,0,0,1-4.09-1,7.76,7.76,0,0,1-2.91-2.89,7.94,7.94,0,0,1-1.08-4.09,7.86,7.86,0,0,1,1.06-4.08,8.08,8.08,0,0,1,15.08,4.08,8,8,0,0,1-1.07,4.09,7.66,7.66,0,0,1-2.9,2.89A8.11,8.11,0,0,1,1559.51,657.52Zm0-2.68a4.89,4.89,0,0,0,2.59-.71,5.19,5.19,0,0,0,1.82-1.93,5.64,5.64,0,0,0,.67-2.74,5.5,5.5,0,0,0-.67-2.69,5.35,5.35,0,0,0-1.82-1.93,4.92,4.92,0,0,0-5.16,0,5.32,5.32,0,0,0-1.84,1.93,5.5,5.5,0,0,0-.66,2.69,5.64,5.64,0,0,0,.66,2.74,5.17,5.17,0,0,0,1.84,1.93A4.9,4.9,0,0,0,1559.51,654.84Z"/><path d="M1570.45,657.21V641.74h3v1.58a6.16,6.16,0,0,1,4.65-1.88,6.28,6.28,0,0,1,3.15.76,5.45,5.45,0,0,1,2.13,2.13,6.35,6.35,0,0,1,.77,3.16v9.72h-3V648a3.91,3.91,0,0,0-1-2.87,3.79,3.79,0,0,0-2.83-1,4.44,4.44,0,0,0-2.17.53,4.88,4.88,0,0,0-1.63,1.51v11.09Z"/><path d="M1425.4,687.61V666.33h9.18a8.69,8.69,0,0,1,3.66.7,5.71,5.71,0,0,1,2.4,2,5.09,5.09,0,0,1,.87,3,4.75,4.75,0,0,1-.82,2.74,5.27,5.27,0,0,1-2.19,1.85,6.35,6.35,0,0,1,2.78,2,4.76,4.76,0,0,1,1,3,5.59,5.59,0,0,1-3.45,5.33,9.33,9.33,0,0,1-3.88.75Zm3.19-12.25h5.78a4.55,4.55,0,0,0,2.9-.85,3,3,0,0,0,0-4.62,4.55,4.55,0,0,0-2.9-.85h-5.78Zm0,9.54h6.14a4.92,4.92,0,0,0,3.16-.94,3.32,3.32,0,0,0,0-5.09,4.86,4.86,0,0,0-3.16-1h-6.14Z"/><path d="M1450.32,687.88a7.14,7.14,0,0,1-3-.59,4.89,4.89,0,0,1-2-1.66,4.22,4.22,0,0,1-.73-2.46,4,4,0,0,1,1.69-3.43,7.47,7.47,0,0,1,4.57-1.25,10.52,10.52,0,0,1,4.2.82V677.7a3.1,3.1,0,0,0-1-2.49,4.13,4.13,0,0,0-2.79-.82,8.29,8.29,0,0,0-2.21.31,18.88,18.88,0,0,0-2.57,1l-1.15-2.28a18.26,18.26,0,0,1,3.27-1.2,12.92,12.92,0,0,1,3.08-.38,7,7,0,0,1,4.67,1.43,5.09,5.09,0,0,1,1.65,4.07v10.28h-3v-1.34a7,7,0,0,1-2.19,1.22A8.13,8.13,0,0,1,1450.32,687.88Zm-2.82-4.8a2.16,2.16,0,0,0,1,1.85,4.2,4.2,0,0,0,2.52.7,6.81,6.81,0,0,0,2.25-.36,5.11,5.11,0,0,0,1.83-1.13v-2.61a6.93,6.93,0,0,0-1.83-.73,8.77,8.77,0,0,0-2.1-.24,4.55,4.55,0,0,0-2.67.69A2.16,2.16,0,0,0,1447.5,683.08Z"/><path d="M1468.86,687.88a7.91,7.91,0,0,1-8-8,7.81,7.81,0,0,1,1.08-4.09,8.17,8.17,0,0,1,2.89-2.89,7.72,7.72,0,0,1,4-1.08,8.82,8.82,0,0,1,3.36.66,7.77,7.77,0,0,1,2.81,1.9l-1.88,2.09a6,6,0,0,0-2-1.46,5.62,5.62,0,0,0-2.28-.48,4.76,4.76,0,0,0-2.56.7,4.94,4.94,0,0,0-1.8,1.91,5.68,5.68,0,0,0-.65,2.71,5.57,5.57,0,0,0,.67,2.72,4.91,4.91,0,0,0,4.4,2.63,5.32,5.32,0,0,0,2.22-.47,6.81,6.81,0,0,0,1.95-1.39l1.85,2a8.62,8.62,0,0,1-2.81,1.88A8.36,8.36,0,0,1,1468.86,687.88Z"/><path d="M1477.4,687.61V666.33l3-.58v13.16l7.51-6.77h3.56l-8,7.23,8.42,8.24h-4l-7.48-7.3v7.3Z"/><path d="M1499.38,687.88a8.17,8.17,0,0,1-4.12-1,7.89,7.89,0,0,1-2.93-2.89,7.8,7.8,0,0,1-1.1-4.08,7.89,7.89,0,0,1,1-4.05,8.22,8.22,0,0,1,2.81-2.87,7.44,7.44,0,0,1,4-1.08,7,7,0,0,1,3.82,1.08,7.76,7.76,0,0,1,2.67,2.92,8.6,8.6,0,0,1,1,4.15v.82H1494.3a5.24,5.24,0,0,0,2.75,3.87,5.08,5.08,0,0,0,2.45.6,6.62,6.62,0,0,0,2.19-.37,5.34,5.34,0,0,0,1.73-1l1.92,1.88a10,10,0,0,1-2.79,1.54A9.71,9.71,0,0,1,1499.38,687.88Zm-5.05-9.33h9.18a5.26,5.26,0,0,0-.86-2.11,4.84,4.84,0,0,0-1.6-1.46,4.15,4.15,0,0,0-2.1-.53,4.25,4.25,0,0,0-2.12.53,4.69,4.69,0,0,0-1.63,1.44A5.06,5.06,0,0,0,1494.33,678.55Z"/><path d="M1509.38,687.61V672.14h3v1.58a6.1,6.1,0,0,1,4.65-1.89,6.37,6.37,0,0,1,3.14.76,5.52,5.52,0,0,1,2.13,2.13,6.25,6.25,0,0,1,.78,3.16v9.73h-3V678.4a3.93,3.93,0,0,0-1-2.88,3.81,3.81,0,0,0-2.82-1,4.48,4.48,0,0,0-2.18.53,4.72,4.72,0,0,0-1.62,1.5v11.1Z"/><path d="M1533.72,687.85a7.76,7.76,0,0,1-6.8-3.94,8,8,0,0,1-1-4.08,7.87,7.87,0,0,1,1-4,7.7,7.7,0,0,1,2.86-2.86,7.8,7.8,0,0,1,4-1.05,8.12,8.12,0,0,1,2.47.38,7.44,7.44,0,0,1,2.18,1.14v-7.08l3-.58v21.86h-3v-1.49A6.94,6.94,0,0,1,1533.72,687.85Zm.4-2.64a6.12,6.12,0,0,0,2.45-.49,5.09,5.09,0,0,0,1.86-1.37v-7a4.81,4.81,0,0,0-1.86-1.37,6.26,6.26,0,0,0-2.45-.48,5.34,5.34,0,0,0-2.66.68,4.9,4.9,0,0,0-1.88,1.9,5.77,5.77,0,0,0,0,5.47,5.16,5.16,0,0,0,4.54,2.65Z"/><rect class="cls-2" x="1361.57" y="500.25" width="243.12" height="209.99" rx="17.08"/><path d="M64.27,547.61a11.51,11.51,0,0,1-4.39-.83,11.08,11.08,0,0,1-3.55-2.34,10.43,10.43,0,0,1-2.37-3.5,10.92,10.92,0,0,1-.84-4.3,11,11,0,0,1,.84-4.33,10.16,10.16,0,0,1,2.37-3.48,11.2,11.2,0,0,1,3.57-2.33,11.49,11.49,0,0,1,4.37-.83,12.34,12.34,0,0,1,3.27.44,11.61,11.61,0,0,1,2.95,1.26,10.26,10.26,0,0,1,2.39,2l-2.16,2.16a7.74,7.74,0,0,0-2.89-2.18,8.87,8.87,0,0,0-3.56-.74,7.87,7.87,0,0,0-3.13.61,7.65,7.65,0,0,0-2.5,1.7A7.86,7.86,0,0,0,57,533.48a8.76,8.76,0,0,0,0,6.32,7.67,7.67,0,0,0,4.23,4.26,8.25,8.25,0,0,0,3.15.6,8.5,8.5,0,0,0,3.52-.75,8.15,8.15,0,0,0,2.83-2.1l2.09,2.13a11.11,11.11,0,0,1-2.38,2,11.76,11.76,0,0,1-6.13,1.71Z"/><path d="M82.45,547.58a8.11,8.11,0,0,1-4.09-1.05,7.83,7.83,0,0,1-2.92-2.88,8,8,0,0,1,2.91-11.07,8.12,8.12,0,0,1,11.09,2.89,7.92,7.92,0,0,1,1.06,4.09,8,8,0,0,1-1.06,4.09,7.71,7.71,0,0,1-2.9,2.88A8.11,8.11,0,0,1,82.45,547.58Zm0-2.67a4.78,4.78,0,0,0,2.58-.72,5.07,5.07,0,0,0,1.83-1.93,5.63,5.63,0,0,0,.67-2.73,5.5,5.5,0,0,0-.67-2.69A5.38,5.38,0,0,0,85,534.91a4.91,4.91,0,0,0-5.15,0A5.32,5.32,0,0,0,78,536.84a5.5,5.5,0,0,0-.67,2.69,5.63,5.63,0,0,0,.67,2.73,5,5,0,0,0,1.84,1.93A4.82,4.82,0,0,0,82.45,544.91Z"/><path d="M93.39,547.28V531.81h3v1.46a5.83,5.83,0,0,1,4.35-1.77,5.72,5.72,0,0,1,2.82.7,5.14,5.14,0,0,1,2,1.92,6.1,6.1,0,0,1,2.26-2,6.55,6.55,0,0,1,3-.66,5.91,5.91,0,0,1,3,.76,5.35,5.35,0,0,1,2,2.12,6.54,6.54,0,0,1,.73,3.17v9.73h-3v-9.21a4.12,4.12,0,0,0-1-2.87,3.32,3.32,0,0,0-2.57-1.05,4.09,4.09,0,0,0-2.07.53,4.73,4.73,0,0,0-1.58,1.57,5.8,5.8,0,0,1,.09.64q0,.33,0,.66v9.73h-3v-9.21a4,4,0,0,0-1-2.87,3.32,3.32,0,0,0-2.55-1.05,4.26,4.26,0,0,0-2,.47A4.32,4.32,0,0,0,96.43,536v11.25Z"/><path d="M120.08,553.48V531.81h3v1.49a6.89,6.89,0,0,1,4.74-1.73,7.53,7.53,0,0,1,4,1.06,7.84,7.84,0,0,1,2.82,2.87,8.46,8.46,0,0,1,0,8.09,7.87,7.87,0,0,1-2.83,2.87,7.75,7.75,0,0,1-8.66-.49v7.51Zm7.35-8.6a5.15,5.15,0,0,0,2.66-.69A5.06,5.06,0,0,0,132,542.3a5.51,5.51,0,0,0-1.87-7.41,5.06,5.06,0,0,0-2.66-.71,6,6,0,0,0-2.43.5,5.37,5.37,0,0,0-1.88,1.38v7a5.76,5.76,0,0,0,1.9,1.32A6,6,0,0,0,127.43,544.88Z"/><path d="M144.51,547.58a6.37,6.37,0,0,1-3.16-.76,5.44,5.44,0,0,1-2.14-2.14,6.28,6.28,0,0,1-.78-3.14v-9.73h3V541a3.91,3.91,0,0,0,1.05,2.86,3.81,3.81,0,0,0,2.81,1.06,4.66,4.66,0,0,0,2.21-.53,4.19,4.19,0,0,0,1.59-1.51V531.81h3v15.47h-3V545.7A6.06,6.06,0,0,1,144.51,547.58Z"/><path d="M162.35,547.55a5,5,0,0,1-3.4-1,3.85,3.85,0,0,1-1.18-3.07v-9.09h-3.29v-2.55h3.29v-3.92l3-.76v4.68h4.59v2.55h-4.59v8.42a2.19,2.19,0,0,0,.54,1.66,2.49,2.49,0,0,0,1.74.5,6.43,6.43,0,0,0,1.14-.09,5.58,5.58,0,0,0,1.08-.31v2.59a7,7,0,0,1-1.41.32A11.7,11.7,0,0,1,162.35,547.55Z"/><path d="M174.73,547.55a8.15,8.15,0,0,1-4.12-1,8.12,8.12,0,0,1-3-11,8.08,8.08,0,0,1,2.81-2.88,7.48,7.48,0,0,1,3.95-1.07,7,7,0,0,1,3.82,1.07,7.84,7.84,0,0,1,2.67,2.92,8.63,8.63,0,0,1,1,4.15v.82H169.65a5.23,5.23,0,0,0,2.75,3.88,5.16,5.16,0,0,0,2.45.59,6.38,6.38,0,0,0,2.19-.37,5.26,5.26,0,0,0,1.73-1l1.91,1.89a9.67,9.67,0,0,1-2.78,1.53A9.45,9.45,0,0,1,174.73,547.55Zm-5-9.33h9.18a5.14,5.14,0,0,0-.87-2.11,4.8,4.8,0,0,0-1.59-1.46,4.25,4.25,0,0,0-2.1-.53,4.43,4.43,0,0,0-2.13.53,4.76,4.76,0,0,0-1.62,1.44A5.06,5.06,0,0,0,169.68,538.22Z"/><path d="M47.6,577.67V556.4h9.61a8.22,8.22,0,0,1,3.72.79,5.89,5.89,0,0,1,3.39,5.53,5.66,5.66,0,0,1-1.2,3.6A6.5,6.5,0,0,1,60,568.5l4.72,9.17H61.13L56.75,569h-6v8.72Zm3.2-11.39H57a4.47,4.47,0,0,0,3-1,3.52,3.52,0,0,0,0-5.17,4.47,4.47,0,0,0-3-1H50.8Z"/><path d="M73.74,578a8.17,8.17,0,0,1-4.12-1.05A8,8,0,0,1,66.69,574a8.26,8.26,0,0,1,0-8.13A8,8,0,0,1,69.46,563a7.39,7.39,0,0,1,4-1.08A6.89,6.89,0,0,1,77.22,563a7.71,7.71,0,0,1,2.68,2.92,8.59,8.59,0,0,1,1,4.15v.82H68.67a5.35,5.35,0,0,0,.92,2.29,5.28,5.28,0,0,0,1.83,1.58,5,5,0,0,0,2.44.59,6.62,6.62,0,0,0,2.19-.36,5.24,5.24,0,0,0,1.73-1l1.92,1.88a10,10,0,0,1-2.78,1.54A9.73,9.73,0,0,1,73.74,578Zm-5-9.33h9.18A5.47,5.47,0,0,0,77,566.5a4.91,4.91,0,0,0-1.6-1.45,4.09,4.09,0,0,0-2.09-.54,4.32,4.32,0,0,0-2.13.54,4.79,4.79,0,0,0-1.63,1.44A5.18,5.18,0,0,0,68.7,568.62Z"/><path d="M89.21,578a11.74,11.74,0,0,1-3.75-.59,8.93,8.93,0,0,1-3-1.72l1.65-2a9.21,9.21,0,0,0,2.47,1.46,7,7,0,0,0,2.57.49A5.19,5.19,0,0,0,91.8,575a1.9,1.9,0,0,0,1-1.66,1.62,1.62,0,0,0-.61-1.34,3.91,3.91,0,0,0-1.88-.67l-2.8-.39a6.23,6.23,0,0,1-3.48-1.43,3.86,3.86,0,0,1-1.14-2.92,4.06,4.06,0,0,1,.76-2.43,4.86,4.86,0,0,1,2.13-1.64,8,8,0,0,1,3.16-.58,11.25,11.25,0,0,1,3.25.47,10.22,10.22,0,0,1,3,1.51l-1.52,2a11.15,11.15,0,0,0-2.49-1.25,7.72,7.72,0,0,0-2.43-.39,3.87,3.87,0,0,0-2.25.59,1.8,1.8,0,0,0-.85,1.54,1.52,1.52,0,0,0,.6,1.32,4.69,4.69,0,0,0,1.92.65l2.83.43a6.2,6.2,0,0,1,3.49,1.4,3.78,3.78,0,0,1,1.19,2.91,3.91,3.91,0,0,1-.87,2.48,6,6,0,0,1-2.31,1.75A8.16,8.16,0,0,1,89.21,578Z"/><path d="M105.53,578a8.05,8.05,0,0,1-4.08-1.05A7.79,7.79,0,0,1,98.53,574a8,8,0,0,1,2.9-11.06,8,8,0,0,1,4.1-1.08,8,8,0,0,1,8.06,8.05,8,8,0,0,1-1.07,4.09,7.66,7.66,0,0,1-2.9,2.89A8.09,8.09,0,0,1,105.53,578Zm0-2.68a4.78,4.78,0,0,0,2.59-.71,5.19,5.19,0,0,0,1.82-1.93,5.53,5.53,0,0,0,.67-2.74,5.36,5.36,0,0,0-2.49-4.62,4.79,4.79,0,0,0-2.59-.72,4.84,4.84,0,0,0-2.57.72,5.21,5.21,0,0,0-1.83,1.93,5.4,5.4,0,0,0-.67,2.69,5.53,5.53,0,0,0,.67,2.74,5.07,5.07,0,0,0,1.83,1.93A4.83,4.83,0,0,0,105.53,575.3Z"/><path d="M122.46,578a6.37,6.37,0,0,1-3.16-.76,5.5,5.5,0,0,1-2.14-2.14,6.34,6.34,0,0,1-.78-3.15V562.2h3v9.21a3.89,3.89,0,0,0,1,2.86,3.77,3.77,0,0,0,2.81,1.06,4.54,4.54,0,0,0,2.21-.53,4.09,4.09,0,0,0,1.59-1.5V562.2h3v15.47h-3v-1.58A6.07,6.07,0,0,1,122.46,578Z"/><path d="M133.71,577.67v-15.5h3v2a5.15,5.15,0,0,1,1.81-1.7,4.83,4.83,0,0,1,2.44-.61,4.24,4.24,0,0,1,1.55.24v2.74a3.72,3.72,0,0,0-.88-.26,5.77,5.77,0,0,0-.94-.08,4,4,0,0,0-2.34.72,4.76,4.76,0,0,0-1.64,2.08v10.36Z"/><path d="M151.4,578a7.93,7.93,0,0,1-8-8,7.77,7.77,0,0,1,1.08-4.08,8.17,8.17,0,0,1,2.89-2.89,7.78,7.78,0,0,1,4.06-1.08,9.09,9.09,0,0,1,3.36.65,8,8,0,0,1,2.81,1.9l-1.89,2.1a5.72,5.72,0,0,0-2-1.46,5.63,5.63,0,0,0-2.28-.49,4.88,4.88,0,0,0-2.57.7,4.94,4.94,0,0,0-1.79,1.92,5.56,5.56,0,0,0-.66,2.7,5.65,5.65,0,0,0,.67,2.72,4.93,4.93,0,0,0,1.83,1.93,4.83,4.83,0,0,0,2.58.7,5.2,5.2,0,0,0,2.22-.47,6.42,6.42,0,0,0,1.94-1.38l1.86,2a8.78,8.78,0,0,1-2.81,1.88A8.43,8.43,0,0,1,151.4,578Z"/><path d="M166.9,578a8.17,8.17,0,0,1-4.12-1.05,8.13,8.13,0,0,1-3-11,8.22,8.22,0,0,1,2.81-2.87,7.44,7.44,0,0,1,3.95-1.08,7,7,0,0,1,3.82,1.08,7.76,7.76,0,0,1,2.67,2.92,8.6,8.6,0,0,1,1,4.15v.82H161.82a5.24,5.24,0,0,0,2.75,3.87,5.07,5.07,0,0,0,2.45.59,6.62,6.62,0,0,0,2.19-.36,5.34,5.34,0,0,0,1.73-1l1.92,1.88a10,10,0,0,1-2.79,1.54A9.71,9.71,0,0,1,166.9,578Zm-5.05-9.33H171a5.31,5.31,0,0,0-.86-2.12,4.91,4.91,0,0,0-1.6-1.45,4.16,4.16,0,0,0-2.1-.54,4.26,4.26,0,0,0-2.12.54,4.69,4.69,0,0,0-1.63,1.44A5.06,5.06,0,0,0,161.85,568.62Z"/><path d="M182.37,578a11.8,11.8,0,0,1-3.76-.59,8.88,8.88,0,0,1-3-1.72l1.64-2a9.26,9.26,0,0,0,2.48,1.46,7,7,0,0,0,2.57.49A5.17,5.17,0,0,0,185,575a1.89,1.89,0,0,0,1-1.66,1.64,1.64,0,0,0-.61-1.34,4,4,0,0,0-1.89-.67l-2.79-.39a6.23,6.23,0,0,1-3.48-1.43,3.86,3.86,0,0,1-1.14-2.92,4.06,4.06,0,0,1,.76-2.43,4.77,4.77,0,0,1,2.12-1.64,8,8,0,0,1,3.17-.58,11.3,11.3,0,0,1,3.25.47,10.35,10.35,0,0,1,3,1.51l-1.52,2a11.42,11.42,0,0,0-2.5-1.25,7.72,7.72,0,0,0-2.43-.39,3.91,3.91,0,0,0-2.25.59,1.83,1.83,0,0,0-.85,1.54,1.51,1.51,0,0,0,.61,1.32,4.63,4.63,0,0,0,1.92.65l2.82.43a6.23,6.23,0,0,1,3.5,1.4,3.77,3.77,0,0,1,1.18,2.91,4,4,0,0,1-.86,2.48,6,6,0,0,1-2.31,1.75A8.23,8.23,0,0,1,182.37,578Z"/><rect class="cls-2" x="16.48" y="388.48" width="201.85" height="216.23" rx="15.8"/><path d="M719.46,937.6a12.82,12.82,0,0,1-9.12-3.83l1.95-2.25a12.32,12.32,0,0,0,3.54,2.53,9.19,9.19,0,0,0,3.81.82,7.37,7.37,0,0,0,2.68-.46,4.27,4.27,0,0,0,1.81-1.26,2.87,2.87,0,0,0,.65-1.84,2.63,2.63,0,0,0-1-2.2,7.43,7.43,0,0,0-3.32-1.14l-3.52-.61a8.17,8.17,0,0,1-4.39-1.86,4.75,4.75,0,0,1-1.45-3.64,5.47,5.47,0,0,1,1-3.22,6.17,6.17,0,0,1,2.75-2.16,10.37,10.37,0,0,1,4.12-.76,14,14,0,0,1,4.55.76,13.79,13.79,0,0,1,4,2.12l-1.76,2.47a11.45,11.45,0,0,0-7-2.62,6.8,6.8,0,0,0-2.45.4,3.63,3.63,0,0,0-1.61,1.11,2.66,2.66,0,0,0-.56,1.68,2.34,2.34,0,0,0,.88,2,6.39,6.39,0,0,0,2.89,1l3.46.55a9.53,9.53,0,0,1,5,2,5,5,0,0,1,1.58,3.92,5.81,5.81,0,0,1-1.05,3.43,6.72,6.72,0,0,1-3,2.3A11.59,11.59,0,0,1,719.46,937.6Z"/><path d="M730.52,937.3V921.83h3v1.46a5.85,5.85,0,0,1,4.35-1.77,5.79,5.79,0,0,1,2.83.7,5.11,5.11,0,0,1,1.94,1.92,6.1,6.1,0,0,1,2.26-2,6.58,6.58,0,0,1,3-.66,5.91,5.91,0,0,1,3,.76,5.29,5.29,0,0,1,2,2.12,6.54,6.54,0,0,1,.73,3.17v9.73h-3v-9.21a4.06,4.06,0,0,0-.95-2.87,3.32,3.32,0,0,0-2.57-1.05,4,4,0,0,0-2.07.53,4.79,4.79,0,0,0-1.58,1.56c0,.21.07.42.09.64s0,.45,0,.67v9.73h-3v-9.21a4,4,0,0,0-1-2.87,3.32,3.32,0,0,0-2.55-1.05,4,4,0,0,0-3.53,1.88V937.3Z"/><path d="M762.13,937.57a7.11,7.11,0,0,1-3-.59,4.83,4.83,0,0,1-2-1.66,4.22,4.22,0,0,1-.73-2.46,4,4,0,0,1,1.69-3.44,7.51,7.51,0,0,1,4.57-1.24,10.44,10.44,0,0,1,4.19.82v-1.61a3.1,3.1,0,0,0-.94-2.49,4.13,4.13,0,0,0-2.79-.82,7.93,7.93,0,0,0-2.21.32,17.49,17.49,0,0,0-2.57,1l-1.15-2.28a18.26,18.26,0,0,1,3.27-1.2,12.92,12.92,0,0,1,3.08-.38,7,7,0,0,1,4.67,1.43,5.09,5.09,0,0,1,1.65,4.07V937.3h-3V936a6.82,6.82,0,0,1-2.18,1.22A8.17,8.17,0,0,1,762.13,937.57Zm-2.82-4.8a2.16,2.16,0,0,0,1,1.85,4.2,4.2,0,0,0,2.52.7,6.81,6.81,0,0,0,2.25-.36,5,5,0,0,0,1.82-1.13v-2.61a7.08,7.08,0,0,0-1.82-.73,8.77,8.77,0,0,0-2.1-.24,4.55,4.55,0,0,0-2.67.69A2.16,2.16,0,0,0,759.31,932.77Z"/><path d="M773.38,937.3V921.8h3v2a5.24,5.24,0,0,1,1.81-1.7,4.83,4.83,0,0,1,2.44-.61,4,4,0,0,1,1.55.25v2.73a3.72,3.72,0,0,0-.88-.26,5.78,5.78,0,0,0-.94-.07,4.06,4.06,0,0,0-2.34.71,4.82,4.82,0,0,0-1.64,2.08V937.3Z"/><path d="M791.25,937.57a5,5,0,0,1-3.4-1,3.82,3.82,0,0,1-1.19-3.07v-9.09h-3.28v-2.55h3.28v-3.92l3-.76v4.68h4.59v2.55h-4.59v8.42a2.23,2.23,0,0,0,.53,1.66,2.52,2.52,0,0,0,1.75.5,6.59,6.59,0,0,0,1.14-.09,7,7,0,0,0,1.08-.31v2.59a7.32,7.32,0,0,1-1.42.31A10.1,10.1,0,0,1,791.25,937.57Z"/><path d="M803.22,937.3V916H813a7.89,7.89,0,0,1,3.65.79,6,6,0,0,1,2.43,2.24,6.27,6.27,0,0,1,.88,3.35,6,6,0,0,1-.88,3.27,6.25,6.25,0,0,1-2.45,2.24,7.77,7.77,0,0,1-3.63.82h-6.62v8.57Zm3.2-11.28h6.32a4.28,4.28,0,0,0,3-1,3.36,3.36,0,0,0,1.09-2.65,3.32,3.32,0,0,0-1.09-2.61,4.28,4.28,0,0,0-3-1h-6.32Z"/><path d="M822.8,937.3V921.8h3v2a5.24,5.24,0,0,1,1.81-1.7,4.83,4.83,0,0,1,2.44-.61,4,4,0,0,1,1.55.25v2.73a3.72,3.72,0,0,0-.88-.26,5.78,5.78,0,0,0-.94-.07,4.06,4.06,0,0,0-2.34.71,4.82,4.82,0,0,0-1.64,2.08V937.3Z"/><path d="M840.55,937.6a8.11,8.11,0,0,1-4.09-1.05,7.79,7.79,0,0,1-2.92-2.89,8,8,0,0,1,2.91-11.06,8.12,8.12,0,0,1,11.09,2.89,8.4,8.4,0,0,1,0,8.17,7.74,7.74,0,0,1-2.9,2.89A8.11,8.11,0,0,1,840.55,937.6Zm0-2.67a4.78,4.78,0,0,0,2.58-.72,5.15,5.15,0,0,0,1.83-1.93,5.63,5.63,0,0,0,.66-2.73,5.47,5.47,0,0,0-.66-2.69,5.3,5.3,0,0,0-1.83-1.93,4.91,4.91,0,0,0-5.15,0,5.24,5.24,0,0,0-1.84,1.93,5.48,5.48,0,0,0-.67,2.69,5.63,5.63,0,0,0,.67,2.73,5.09,5.09,0,0,0,1.84,1.93A4.82,4.82,0,0,0,840.55,934.93Z"/><path d="M848.39,937.3l6-7.94-5.78-7.53h3.59l4,5.29,3.95-5.29h3.44l-5.72,7.5,6.08,8H860.4l-4.26-5.72-4.32,5.72Z"/><path d="M866.93,943.8a8.38,8.38,0,0,1-.88,0l-.7-.08V941a6.33,6.33,0,0,0,1.34.12,3.29,3.29,0,0,0,3.1-2.28l.63-1.46-6.2-15.53h3.35l4.53,11.76,5-11.76h3.28l-7.47,17.38a11.14,11.14,0,0,1-1.57,2.68,5.17,5.17,0,0,1-1.88,1.46A6.36,6.36,0,0,1,866.93,943.8Z"/><rect class="cls-2" x="672.22" y="780.33" width="245.89" height="176.86" rx="15.77"/><path d="M404.82,823.12V801.85h7.47a12.12,12.12,0,0,1,4.46.79,10.85,10.85,0,0,1,3.54,2.23,10.37,10.37,0,0,1,2.37,3.39,11,11,0,0,1,0,8.47,10.5,10.5,0,0,1-5.9,5.6,12.21,12.21,0,0,1-4.47.79Zm3.19-2.85h4.34a8.26,8.26,0,0,0,3.1-.58,7.58,7.58,0,0,0,2.51-1.64,7.48,7.48,0,0,0,1.67-2.48,7.72,7.72,0,0,0,.6-3.05,8,8,0,0,0-.61-3.11,7.7,7.7,0,0,0-1.67-2.47,7.59,7.59,0,0,0-2.5-1.64,8,8,0,0,0-3.13-.6H408Z"/><path d="M426.91,823.12V801.85H430l11.86,15.8v-15.8h3v21.27h-2.83l-12.13-16.26v16.26Z"/><path d="M456.42,823.43a12.78,12.78,0,0,1-9.11-3.83l1.94-2.25a12.55,12.55,0,0,0,3.54,2.52,9.11,9.11,0,0,0,3.82.82,7.32,7.32,0,0,0,2.67-.45,4.45,4.45,0,0,0,1.81-1.26,2.82,2.82,0,0,0,.65-1.84,2.62,2.62,0,0,0-1-2.21,7.5,7.5,0,0,0-3.31-1.14l-3.53-.61a8.2,8.2,0,0,1-4.39-1.85,4.8,4.8,0,0,1-1.44-3.65,5.49,5.49,0,0,1,1-3.22,6.26,6.26,0,0,1,2.75-2.16,10.55,10.55,0,0,1,4.12-.76,14.36,14.36,0,0,1,8.57,2.89l-1.76,2.46a11.44,11.44,0,0,0-7-2.61,7,7,0,0,0-2.45.39,3.67,3.67,0,0,0-1.61,1.11,2.63,2.63,0,0,0-.56,1.69,2.32,2.32,0,0,0,.88,1.94,6.38,6.38,0,0,0,2.89,1l3.46.55a9.58,9.58,0,0,1,4.95,2,5,5,0,0,1,1.58,3.92,5.83,5.83,0,0,1-1,3.44,6.75,6.75,0,0,1-3,2.29A11.45,11.45,0,0,1,456.42,823.43Z"/><rect class="cls-2" x="311.21" y="780.33" width="245.89" height="63.2" rx="9.42"/><path d="M393.3,936.79V915.51h7.47a12.33,12.33,0,0,1,4.46.79,11,11,0,0,1,3.54,2.24A10.54,10.54,0,0,1,405.24,936a12.21,12.21,0,0,1-4.47.79Zm3.19-2.86h4.34a8.07,8.07,0,0,0,3.1-.58,7.57,7.57,0,0,0,4.18-4.11,7.8,7.8,0,0,0,.6-3.06,7.94,7.94,0,0,0-.61-3.1,7.74,7.74,0,0,0-1.67-2.48,7.92,7.92,0,0,0-2.5-1.64,8.15,8.15,0,0,0-3.13-.59h-4.31Z"/><path d="M415.39,936.79V915.51h3.19v9.12h11.28v-9.12h3.19v21.28h-3.19v-9.27H418.58v9.27Z"/><path d="M447.64,937.12a11.51,11.51,0,0,1-4.39-.83,11.23,11.23,0,0,1-3.56-2.34,10.73,10.73,0,0,1-2.37-3.5,11.63,11.63,0,0,1,0-8.63,10.45,10.45,0,0,1,2.37-3.48,11.42,11.42,0,0,1,3.57-2.33,11.57,11.57,0,0,1,4.38-.83,12.39,12.39,0,0,1,3.27.44,11.56,11.56,0,0,1,2.95,1.26,10.2,10.2,0,0,1,2.38,2L454.08,921a7.79,7.79,0,0,0-2.88-2.17,8.74,8.74,0,0,0-3.56-.74,7.84,7.84,0,0,0-3.13.61,7.69,7.69,0,0,0-2.51,1.7,7.83,7.83,0,0,0-1.67,2.55,8.76,8.76,0,0,0,0,6.32,7.67,7.67,0,0,0,4.23,4.26,8.24,8.24,0,0,0,3.14.6,8.4,8.4,0,0,0,3.53-.76,8.06,8.06,0,0,0,2.82-2.09l2.1,2.12a11.4,11.4,0,0,1-2.38,2,11.7,11.7,0,0,1-2.92,1.27A11.57,11.57,0,0,1,447.64,937.12Z"/><path d="M459.31,936.79V915.51h9.82a8,8,0,0,1,3.65.79,6,6,0,0,1,2.43,2.24,6.28,6.28,0,0,1,.88,3.36,6,6,0,0,1-.88,3.26,6.32,6.32,0,0,1-2.45,2.24,7.77,7.77,0,0,1-3.63.82H462.5v8.57Zm3.19-11.28h6.32a4.27,4.27,0,0,0,2.95-1,3.69,3.69,0,0,0,0-5.26,4.27,4.27,0,0,0-2.95-1H462.5Z"/><rect class="cls-2" x="311.21" y="893.99" width="245.89" height="63.2" rx="9.42"/><path d="M1143.52,934.35a3.11,3.11,0,0,1-2.26-.94,3.26,3.26,0,0,1,0-4.58,3.11,3.11,0,0,1,4.51,0,3.26,3.26,0,0,1,0,4.58A3.11,3.11,0,0,1,1143.52,934.35Z"/><path d="M1156.18,934.35a3.07,3.07,0,0,1-2.25-.94,3.26,3.26,0,0,1,0-4.58,3.09,3.09,0,0,1,4.5,0,3.26,3.26,0,0,1,0,4.58A3.07,3.07,0,0,1,1156.18,934.35Z"/><path d="M1168.84,934.35a3.07,3.07,0,0,1-2.25-.94,3.26,3.26,0,0,1,0-4.58,3,3,0,0,1,2.25-1,3,3,0,0,1,2.26,1,3.26,3.26,0,0,1,0,4.58A3.11,3.11,0,0,1,1168.84,934.35Z"/><rect class="cls-2" x="1033.23" y="893.99" width="245.89" height="63.2" rx="9.42"/><path d="M1118.64,823.7a11.51,11.51,0,0,1-4.39-.83,11.08,11.08,0,0,1-3.55-2.34,10.43,10.43,0,0,1-2.37-3.5,10.92,10.92,0,0,1-.84-4.3,11,11,0,0,1,.84-4.33,10.16,10.16,0,0,1,2.37-3.48,11.2,11.2,0,0,1,3.57-2.33,11.49,11.49,0,0,1,4.37-.83,12.34,12.34,0,0,1,3.27.44,11.27,11.27,0,0,1,2.95,1.26,10.26,10.26,0,0,1,2.39,2l-2.16,2.16a7.67,7.67,0,0,0-2.89-2.18,8.87,8.87,0,0,0-3.56-.74,7.87,7.87,0,0,0-3.13.61,7.55,7.55,0,0,0-2.5,1.7,7.86,7.86,0,0,0-1.68,2.55,8.76,8.76,0,0,0,0,6.32,7.67,7.67,0,0,0,4.23,4.26,8.25,8.25,0,0,0,3.15.6,8.5,8.5,0,0,0,3.52-.75,8.25,8.25,0,0,0,2.83-2.1l2.09,2.13a11.36,11.36,0,0,1-2.38,2,11.76,11.76,0,0,1-6.13,1.71Z"/><path d="M1136.82,823.67a8.11,8.11,0,0,1-4.09-1,7.76,7.76,0,0,1-2.92-2.88,8,8,0,0,1,2.91-11.07,8.12,8.12,0,0,1,11.09,2.89,7.92,7.92,0,0,1,1.06,4.09,8,8,0,0,1-1.06,4.09,7.71,7.71,0,0,1-2.9,2.88A8.11,8.11,0,0,1,1136.82,823.67Zm0-2.67a4.78,4.78,0,0,0,2.58-.72,5.15,5.15,0,0,0,1.83-1.93,5.63,5.63,0,0,0,.67-2.73,5.5,5.5,0,0,0-.67-2.69,5.38,5.38,0,0,0-1.83-1.93,4.91,4.91,0,0,0-5.15,0,5.32,5.32,0,0,0-1.84,1.93,5.5,5.5,0,0,0-.67,2.69,5.63,5.63,0,0,0,.67,2.73,5.09,5.09,0,0,0,1.84,1.93A4.82,4.82,0,0,0,1136.82,821Z"/><path d="M1147.76,823.37V807.9h3v1.58a6.13,6.13,0,0,1,4.65-1.89,6.41,6.41,0,0,1,3.15.76,5.49,5.49,0,0,1,2.12,2.13,6.27,6.27,0,0,1,.78,3.16v9.73h-3v-9.21a3.9,3.9,0,0,0-1-2.87,3.79,3.79,0,0,0-2.83-1,4.41,4.41,0,0,0-2.17.53,4.88,4.88,0,0,0-1.63,1.51v11.09Z"/><path d="M1166.85,823.37V810.45h-3.59V807.9h3.59v-2.31a4.9,4.9,0,0,1,1.35-3.72,5.35,5.35,0,0,1,3.88-1.3,9.22,9.22,0,0,1,1.2.07,4.49,4.49,0,0,1,1,.21v2.64a8,8,0,0,0-1-.21,6.52,6.52,0,0,0-.91-.06,2.82,2.82,0,0,0-2,.58,2.35,2.35,0,0,0-.63,1.82v2.28h4.47v2.55h-4.47v12.92Z"/><path d="M1178.12,805.38a1.79,1.79,0,0,1-1.3-.55,1.81,1.81,0,0,1-.55-1.34,1.86,1.86,0,0,1,1.85-1.85,1.86,1.86,0,0,1,1.89,1.88,1.78,1.78,0,0,1-.55,1.31A1.83,1.83,0,0,1,1178.12,805.38Zm-1.52,18V807.9h3v15.47Z"/><path d="M1190.86,829.87a13.82,13.82,0,0,1-3.28-.39,11.3,11.3,0,0,1-2.92-1.13l1.18-2.37a13.23,13.23,0,0,0,2.54,1,9.41,9.41,0,0,0,2.39.32,4.6,4.6,0,0,0,3.11-.91,3.44,3.44,0,0,0,1-2.74v-1.76a7.24,7.24,0,0,1-4.65,1.61,7.44,7.44,0,0,1-3.92-1.06,8,8,0,0,1-2.81-2.87,8.17,8.17,0,0,1,0-8,8,8,0,0,1,2.85-2.86,8,8,0,0,1,6.41-.65,7.1,7.1,0,0,1,2.17,1.19V807.9h3v15.71a5.88,5.88,0,0,1-1.82,4.65A7.73,7.73,0,0,1,1190.86,829.87Zm-.18-9a5.84,5.84,0,0,0,2.41-.49,4.93,4.93,0,0,0,1.84-1.34v-7a4.94,4.94,0,0,0-1.82-1.3,6,6,0,0,0-2.43-.49,5,5,0,0,0-4.49,2.57,5.46,5.46,0,0,0-.68,2.72,5.4,5.4,0,0,0,.68,2.69,5.19,5.19,0,0,0,1.87,1.91A4.94,4.94,0,0,0,1190.68,820.88Z"/><path d="M1066.43,853.76V832.49h4.22l6.69,13.61,6.65-13.61h4.29v21.27h-3.07V836.38l-7.9,15.87-7.93-15.87v17.38Z"/><path d="M1096.82,854a7,7,0,0,1-3-.6,4.73,4.73,0,0,1-2-1.65,4.22,4.22,0,0,1-.73-2.46,4,4,0,0,1,1.68-3.44,7.56,7.56,0,0,1,4.58-1.24,10.44,10.44,0,0,1,4.19.82v-1.61a3.14,3.14,0,0,0-.94-2.5,4.2,4.2,0,0,0-2.8-.82,8.24,8.24,0,0,0-2.2.32,17.22,17.22,0,0,0-2.57,1l-1.15-2.28a17,17,0,0,1,3.26-1.2,13.07,13.07,0,0,1,3.09-.38,7,7,0,0,1,4.67,1.43,5.09,5.09,0,0,1,1.65,4.07v10.27h-3v-1.33a6.94,6.94,0,0,1-2.19,1.21A7.83,7.83,0,0,1,1096.82,854Zm-2.83-4.8a2.19,2.19,0,0,0,1,1.85,4.2,4.2,0,0,0,2.52.7,6.56,6.56,0,0,0,2.25-.37,4.83,4.83,0,0,0,1.82-1.12v-2.62a7.2,7.2,0,0,0-1.82-.72,8.28,8.28,0,0,0-2.1-.25,4.55,4.55,0,0,0-2.67.7A2.17,2.17,0,0,0,1094,849.24Z"/><path d="M1108.07,853.76V838.29h3v1.58a6.13,6.13,0,0,1,4.65-1.88,6.27,6.27,0,0,1,3.14.76,5.59,5.59,0,0,1,2.13,2.13,6.24,6.24,0,0,1,.77,3.16v9.72h-3v-9.2a3.93,3.93,0,0,0-1-2.88,3.78,3.78,0,0,0-2.82-1,4.45,4.45,0,0,0-2.18.53,4.75,4.75,0,0,0-1.62,1.51v11.09Z"/><path d="M1130.22,854a7,7,0,0,1-3-.6,4.73,4.73,0,0,1-2-1.65,4.22,4.22,0,0,1-.73-2.46,4,4,0,0,1,1.69-3.44,7.51,7.51,0,0,1,4.57-1.24,10.44,10.44,0,0,1,4.19.82v-1.61a3.14,3.14,0,0,0-.94-2.5,4.18,4.18,0,0,0-2.79-.82,8.31,8.31,0,0,0-2.21.32,17.65,17.65,0,0,0-2.57,1l-1.15-2.28a16.84,16.84,0,0,1,3.27-1.2,12.92,12.92,0,0,1,3.08-.38,7,7,0,0,1,4.67,1.43,5.09,5.09,0,0,1,1.65,4.07v10.27h-3v-1.33a6.79,6.79,0,0,1-2.18,1.21A7.89,7.89,0,0,1,1130.22,854Zm-2.82-4.8a2.18,2.18,0,0,0,1,1.85,4.2,4.2,0,0,0,2.52.7,6.56,6.56,0,0,0,2.25-.37,4.83,4.83,0,0,0,1.82-1.12v-2.62a7.05,7.05,0,0,0-1.82-.72,8.28,8.28,0,0,0-2.1-.25,4.55,4.55,0,0,0-2.67.7A2.16,2.16,0,0,0,1127.4,849.24Z"/><path d="M1149.1,860.27a13.33,13.33,0,0,1-3.28-.4,11.29,11.29,0,0,1-2.92-1.12l1.18-2.37a14.38,14.38,0,0,0,2.54,1,9.39,9.39,0,0,0,2.39.31,4.62,4.62,0,0,0,3.11-.91,3.43,3.43,0,0,0,1.05-2.73v-1.77a7.2,7.2,0,0,1-4.65,1.62,7.42,7.42,0,0,1-3.92-1.07,7.89,7.89,0,0,1-2.81-2.87,8.17,8.17,0,0,1,0-8,7.94,7.94,0,0,1,2.85-2.85,7.61,7.61,0,0,1,4-1.05,7.71,7.71,0,0,1,2.45.39,7.32,7.32,0,0,1,2.17,1.19v-1.31h3V854a5.91,5.91,0,0,1-1.82,4.65A7.78,7.78,0,0,1,1149.1,860.27Zm-.18-9a6,6,0,0,0,2.41-.48,5.12,5.12,0,0,0,1.84-1.34v-7a5,5,0,0,0-1.82-1.31,6.13,6.13,0,0,0-2.43-.49,5.06,5.06,0,0,0-2.63.69,5,5,0,0,0-1.86,1.88,5.46,5.46,0,0,0-.68,2.72,5.38,5.38,0,0,0,.68,2.69,5.3,5.3,0,0,0,1.87,1.92A5,5,0,0,0,1148.92,851.27Z"/><path d="M1167.21,854a8.17,8.17,0,0,1-4.12-1,8,8,0,0,1-2.93-2.89,8.26,8.26,0,0,1,0-8.13,8,8,0,0,1,2.81-2.87,7.39,7.39,0,0,1,4-1.08,6.89,6.89,0,0,1,3.81,1.08,7.71,7.71,0,0,1,2.68,2.92,8.58,8.58,0,0,1,1,4.14V847h-12.21a5.35,5.35,0,0,0,.92,2.29,5.28,5.28,0,0,0,1.83,1.58,5,5,0,0,0,2.44.59,6.62,6.62,0,0,0,2.19-.36,5.24,5.24,0,0,0,1.73-1l1.92,1.88a10,10,0,0,1-2.78,1.54A9.73,9.73,0,0,1,1167.21,854Zm-5-9.33h9.18a5.32,5.32,0,0,0-.87-2.12,4.91,4.91,0,0,0-1.6-1.45,4.09,4.09,0,0,0-2.09-.54,4.32,4.32,0,0,0-2.13.54,4.79,4.79,0,0,0-1.63,1.44A5.18,5.18,0,0,0,1162.17,844.71Z"/><path d="M1177.21,853.76V838.29h3v1.46a5.88,5.88,0,0,1,4.35-1.76,5.62,5.62,0,0,1,2.82.7,5.11,5.11,0,0,1,1.95,1.91,6.19,6.19,0,0,1,2.26-2,6.71,6.71,0,0,1,3-.65,5.82,5.82,0,0,1,3,.76,5.33,5.33,0,0,1,2,2.11,6.55,6.55,0,0,1,.73,3.18v9.72h-3v-9.2a4.15,4.15,0,0,0-.95-2.88,3.32,3.32,0,0,0-2.57-1,4.09,4.09,0,0,0-2.07.53,4.83,4.83,0,0,0-1.58,1.57,6.17,6.17,0,0,1,.09.64c0,.22,0,.45,0,.67v9.72h-3v-9.2a4.07,4.07,0,0,0-1-2.88,3.32,3.32,0,0,0-2.55-1,4.26,4.26,0,0,0-2,.47,4.35,4.35,0,0,0-1.52,1.42v11.24Z"/><path d="M1211.31,854a8.11,8.11,0,0,1-4.11-1,7.91,7.91,0,0,1-2.94-2.89,8.26,8.26,0,0,1,0-8.13,8.13,8.13,0,0,1,2.81-2.87,7.39,7.39,0,0,1,4-1.08,6.89,6.89,0,0,1,3.81,1.08,7.71,7.71,0,0,1,2.68,2.92,8.59,8.59,0,0,1,1,4.14V847h-12.22a5.24,5.24,0,0,0,.93,2.29,5.15,5.15,0,0,0,1.82,1.58,5,5,0,0,0,2.45.59,6.56,6.56,0,0,0,2.18-.36,5.39,5.39,0,0,0,1.74-1l1.91,1.88a10,10,0,0,1-2.78,1.54A9.73,9.73,0,0,1,1211.31,854Zm-5-9.33h9.18a5.18,5.18,0,0,0-.87-2.12,4.88,4.88,0,0,0-1.59-1.45,4.16,4.16,0,0,0-2.1-.54,4.32,4.32,0,0,0-2.13.54,4.79,4.79,0,0,0-1.63,1.44A5.18,5.18,0,0,0,1206.27,844.71Z"/><path d="M1221.31,853.76V838.29h3v1.58A6.16,6.16,0,0,1,1229,838a6.28,6.28,0,0,1,3.15.76,5.59,5.59,0,0,1,2.13,2.13,6.35,6.35,0,0,1,.77,3.16v9.72h-3v-9.2a3.92,3.92,0,0,0-1-2.88,3.79,3.79,0,0,0-2.83-1,4.44,4.44,0,0,0-2.17.53,4.88,4.88,0,0,0-1.63,1.51v11.09Z"/><path d="M1244.69,854a5,5,0,0,1-3.41-1,3.84,3.84,0,0,1-1.18-3.07v-9.08h-3.29v-2.56h3.29v-3.92l3-.76v4.68h4.59v2.56h-4.59v8.42a2.15,2.15,0,0,0,.53,1.65,2.47,2.47,0,0,0,1.75.5,6.59,6.59,0,0,0,1.14-.09,6.48,6.48,0,0,0,1.07-.3v2.58a7,7,0,0,1-1.41.32A11.78,11.78,0,0,1,1244.69,854Z"/><rect class="cls-2" x="1033.23" y="780.33" width="245.89" height="97.83" rx="11.73"/><path class="cls-35" d="M163.44,463.14a19.76,19.76,0,0,0-11.2-7.22,13.71,13.71,0,0,0,2.15-7.42,13.36,13.36,0,0,0-3.95-9.73,13.1,13.1,0,0,0-18.21-.71,27.25,27.25,0,0,0-9.88-12.39A26.47,26.47,0,0,0,88.29,429a26.87,26.87,0,0,0-7.91,19.48c0,.53.06,1.32.13,2.31a23.55,23.55,0,0,0-9.85,8.81,23.84,23.84,0,0,0-3.72,13,23.51,23.51,0,0,0,6.91,17,22.45,22.45,0,0,0,16.64,7.06h57.34a19.4,19.4,0,0,0,14.14-6,21,21,0,0,0,1.47-27.48Z"/><path d="M1110.08,174.54a11.48,11.48,0,0,1-4.39-.83,11,11,0,0,1-3.56-2.35,10.59,10.59,0,0,1-2.37-3.49,11.5,11.5,0,0,1,0-8.63,10.45,10.45,0,0,1,2.37-3.48,11,11,0,0,1,3.57-2.33,11.38,11.38,0,0,1,4.38-.83,12,12,0,0,1,3.27.44,11.35,11.35,0,0,1,2.94,1.26,10,10,0,0,1,2.39,2l-2.16,2.16a7.74,7.74,0,0,0-2.89-2.17,8.7,8.7,0,0,0-3.55-.75,8,8,0,0,0-3.13.61,7.85,7.85,0,0,0-2.51,1.7,7.72,7.72,0,0,0-1.67,2.56,8.76,8.76,0,0,0,0,6.32,7.68,7.68,0,0,0,1.67,2.55A7.55,7.55,0,0,0,1107,171a8.11,8.11,0,0,0,3.15.61,8.4,8.4,0,0,0,3.53-.76,8.06,8.06,0,0,0,2.82-2.09l2.1,2.12a11.54,11.54,0,0,1-5.3,3.24A12,12,0,0,1,1110.08,174.54Z"/><path d="M1121.75,174.21V152.93h3.19v18.45h12.22v2.83Z"/><path d="M1140.41,174.21V152.93h3.19v21.28Z"/><rect class="cls-2" x="1033.29" y="17.24" width="176.86" height="176.86" rx="13.37"/><path class="cls-36" d="M1131.59,78.37l-13.68,11.31-1.81-2.33c-1.13-1.46-1.19-3.29-.13-4.16l9.61-8c1.05-.88,2.83-.47,4.05.91Z"/><path class="cls-36" d="M1166.48,152.36,1120.3,92.77l13.87-11.46L1184,137.89C1194.14,149.47,1176.1,164.78,1166.48,152.36Z"/><path class="cls-36" d="M1067.81,71.81l7.2-6a5.58,5.58,0,0,1,5-.76c7,1.73,10.5-2.12,11.2-7,.4-3.06,1-3.9,3.15-5.59,19.65-16.64,38.41-21.15,56.29-1.23.39.41.38.46,0,.79l-1.79,1.49c-.37.31-.47.32-.89,0-7.87-6.12-22.22-4.27-27.43,3.52-2.25,3.38-1.88,7.72,2.57,12.91l.87,1-12.4,10.25-1.2-1.45c-4.12-5-8.5-5.52-11.67-2.75-5.15,4.51-1.81,7.85-5.46,10.86l-7.19,6a4.39,4.39,0,0,1-6.16-.59L1067.23,78A4.38,4.38,0,0,1,1067.81,71.81Z"/><path class="cls-37" d="M686.85,347.82l10.64,10.64,10.64-10.64"/><line class="cls-38" x1="467.48" y1="210.98" x2="467.48" y2="210.98"/><line class="cls-39" x1="467.48" y1="225.79" x2="467.48" y2="277.64"/><line class="cls-38" x1="467.48" y1="285.04" x2="467.48" y2="285.04"/><line class="cls-40" x1="481.86" y1="285.04" x2="690.3" y2="285.04"/><line class="cls-38" x1="697.49" y1="285.04" x2="697.49" y2="285.04"/><line class="cls-41" x1="697.49" y1="299.57" x2="697.49" y2="350.41"/><line class="cls-38" x1="697.49" y1="357.67" x2="697.49" y2="357.67"/><path class="cls-37" d="M882.22,347.82l10.65,10.64,10.64-10.64"/><line class="cls-38" x1="1122.87" y1="210.98" x2="1122.87" y2="210.98"/><line class="cls-39" x1="1122.87" y1="225.79" x2="1122.87" y2="277.64"/><line class="cls-38" x1="1122.87" y1="285.04" x2="1122.87" y2="285.04"/><line class="cls-40" x1="1108.5" y1="285.04" x2="900.05" y2="285.04"/><line class="cls-38" x1="892.87" y1="285.04" x2="892.87" y2="285.04"/><line class="cls-41" x1="892.87" y1="299.57" x2="892.87" y2="350.41"/><line class="cls-38" x1="892.87" y1="357.67" x2="892.87" y2="357.67"/><path class="cls-37" d="M784.77,347.82l10.64,10.64,10.64-10.64"/><line class="cls-42" x1="795.17" y1="210.98" x2="795.17" y2="347.82"/><path class="cls-43" d="M784.77,756.36,795.41,767l10.64-10.64"/><line class="cls-44" x1="795.17" y1="631.19" x2="795.39" y2="751.97"/><path class="cls-43" d="M587.75,801.29l-10.64,10.64,10.64,10.64"/><line class="cls-44" x1="652.22" y1="811.9" x2="592.14" y2="811.9"/><path class="cls-43" d="M247.44,479.47,236.8,490.11l10.64,10.64"/><line class="cls-44" x1="471.37" y1="490.09" x2="251.83" y2="490.09"/><path class="cls-43" d="M587.75,900.72l-10.64,10.65L587.75,922"/><line class="cls-44" x1="652.22" y1="911.34" x2="592.14" y2="911.34"/><path class="cls-43" d="M1002.59,822.57l10.64-10.64-10.64-10.64"/><line class="cls-44" x1="938.12" y1="811.9" x2="998.2" y2="811.9"/><path class="cls-43" d="M1002.59,932.65,1013.23,922l-10.64-10.64"/><line class="cls-44" x1="938.12" y1="921.98" x2="998.2" y2="921.98"/><path class="cls-43" d="M1401.18,326.89l10.64-10.64-10.64-10.64"/><polyline class="cls-44" points="1123.4 449.7 1265.3 449.7 1265.3 316.25 1396.83 316.25"/><path class="cls-43" d="M1331.38,631.53,1342,620.89l-10.65-10.64"/><polyline class="cls-44" points="1121.72 547.28 1265.3 547.28 1265.3 620.89 1326.24 620.89"/></svg>